  0
SECTION
  2
HEADER
  9
$ACADVER
  1
AC1015
  9
$ACADMAINTVER
 70
     6
  9
$DWGCODEPAGE
  3
ANSI_1252
  9
$INSBASE
 10
0.0
 20
0.0
 30
0.0
  9
$EXTMIN
 10
0.0
 20
0.0
 30
0.0
  9
$EXTMAX
 10
210.0
 20
297.0
 30
0.0
  9
$LIMMIN
 10
0.0
 20
0.0
  9
$LIMMAX
 10
210.0
 20
297.0
  9
$ORTHOMODE
 70
     0
  9
$REGENMODE
 70
     1
  9
$FILLMODE
 70
     1
  9
$QTEXTMODE
 70
     0
  9
$MIRRTEXT
 70
     1
  9
$LTSCALE
 40
1.0
  9
$ATTMODE
 70
     1
  9
$TEXTSIZE
 40
3.5
  9
$TRACEWID
 40
1.0
  9
$TEXTSTYLE
  7
Standard
  9
$CLAYER
  8
0
  9
$CELTYPE
  6
ByLayer
  9
$CECOLOR
 62
   256
  9
$CELTSCALE
 40
1.0
  9
$DISPSILH
 70
     0
  9
$DIMSCALE
 40
1.0
  9
$DIMASZ
 40
6.0
  9
$DIMEXO
 40
1.0
  9
$DIMDLI
 40
3.75
  9
$DIMRND
 40
0.0
  9
$DIMDLE
 40
0.0
  9
$DIMEXE
 40
1.0
  9
$DIMTP
 40
0.0
  9
$DIMTM
 40
0.0
  9
$DIMTXT
 40
3.5
  9
$DIMCEN
 40
2.5
  9
$DIMTSZ
 40
0.0
  9
$DIMTOL
 70
     0
  9
$DIMLIM
 70
     0
  9
$DIMTIH
 70
     1
  9
$DIMTOH
 70
     1
  9
$DIMSE1
 70
     0
  9
$DIMSE2
 70
     0
  9
$DIMTAD
 70
     1
  9
$DIMZIN
 70
     1
  9
$DIMBLK
  1

  9
$DIMASO
 70
     1
  9
$DIMSHO
 70
     1
  9
$DIMPOST
  1

  9
$DIMAPOST
  1

  9
$DIMALT
 70
     0
  9
$DIMALTD
 70
     3
  9
$DIMALTF
 40
0.0393700787
  9
$DIMLFAC
 40
1.0
  9
$DIMTOFL
 70
     1
  9
$DIMTVP
 40
0.0
  9
$DIMTIX
 70
     0
  9
$DIMSOXD
 70
     0
  9
$DIMSAH
 70
     0
  9
$DIMBLK1
  1

  9
$DIMBLK2
  1

  9
$DIMSTYLE
  2
ISO-25
  9
$DIMCLRD
 70
     0
  9
$DIMCLRE
 70
     0
  9
$DIMCLRT
 70
     0
  9
$DIMTFAC
 40
1.0
  9
$DIMGAP
 40
1.524
  9
$DIMJUST
 70
     0
  9
$DIMSD1
 70
     0
  9
$DIMSD2
 70
     0
  9
$DIMTOLJ
 70
     0
  9
$DIMTZIN
 70
     1
  9
$DIMALTZ
 70
     0
  9
$DIMALTTZ
 70
     0
  9
$DIMUPT
 70
     0
  9
$DIMDEC
 70
     3
  9
$DIMTDEC
 70
     3
  9
$DIMALTU
 70
     2
  9
$DIMALTTD
 70
     3
  9
$DIMTXSTY
  7
Standard
  9
$DIMAUNIT
 70
     0
  9
$DIMADEC
 70
     1
  9
$DIMALTRND
 40
0.0
  9
$DIMAZIN
 70
     0
  9
$DIMDSEP
 70
    44
  9
$DIMATFIT
 70
     3
  9
$DIMFRAC
 70
     0
  9
$DIMLDRBLK
  1

  9
$DIMLUNIT
 70
     2
  9
$DIMLWD
 70
    -2
  9
$DIMLWE
 70
    -2
  9
$DIMTMOVE
 70
     0
  9
$LUNITS
 70
     2
  9
$LUPREC
 70
     2
  9
$SKETCHINC
 40
1.0
  9
$FILLETRAD
 40
10.0
  9
$AUNITS
 70
     0
  9
$AUPREC
 70
     2
  9
$MENU
  1
.
  9
$ELEVATION
 40
0.0
  9
$PELEVATION
 40
0.0
  9
$THICKNESS
 40
0.0
  9
$LIMCHECK
 70
     0
  9
$CHAMFERA
 40
10.0
  9
$CHAMFERB
 40
10.0
  9
$CHAMFERC
 40
20.0
  9
$CHAMFERD
 40
0.0
  9
$SKPOLY
 70
     0
  9
$TDCREATE
 40
2456991.71745331
  9
$TDUCREATE
 40
2456991.71745331
  9
$TDUPDATE
 40
2456991.717453322
  9
$TDUUPDATE
 40
2456991.717453322
  9
$TDINDWG
 40
0.0000000116
  9
$TDUSRTIMER
 40
0.0000000116
  9
$USRTIMER
 70
     1
  9
$ANGBASE
 50
0.0
  9
$ANGDIR
 70
     0
  9
$PDMODE
 70
     0
  9
$PDSIZE
 40
-1.0
  9
$PLINEWID
 40
0.0
  9
$SPLFRAME
 70
     0
  9
$SPLINETYPE
 70
     6
  9
$SPLINESEGS
 70
     8
  9
$HANDSEED
  5
298
  9
$SURFTAB1
 70
     6
  9
$SURFTAB2
 70
     6
  9
$SURFTYPE
 70
     6
  9
$SURFU
 70
     6
  9
$SURFV
 70
     6
  9
$UCSBASE
  2

  9
$UCSNAME
  2

  9
$UCSORG
 10
0.0
 20
0.0
 30
0.0
  9
$UCSXDIR
 10
1.0
 20
0.0
 30
0.0
  9
$UCSYDIR
 10
0.0
 20
1.0
 30
0.0
  9
$UCSORTHOREF
  2

  9
$UCSORTHOVIEW
 70
     0
  9
$UCSORGTOP
 10
0.0
 20
0.0
 30
0.0
  9
$UCSORGBOTTOM
 10
0.0
 20
0.0
 30
0.0
  9
$UCSORGLEFT
 10
0.0
 20
0.0
 30
0.0
  9
$UCSORGRIGHT
 10
0.0
 20
0.0
 30
0.0
  9
$UCSORGFRONT
 10
0.0
 20
0.0
 30
0.0
  9
$UCSORGBACK
 10
0.0
 20
0.0
 30
0.0
  9
$PUCSBASE
  2

  9
$PUCSNAME
  2

  9
$PUCSORG
 10
0.0
 20
0.0
 30
0.0
  9
$PUCSXDIR
 10
1.0
 20
0.0
 30
0.0
  9
$PUCSYDIR
 10
0.0
 20
1.0
 30
0.0
  9
$PUCSORTHOREF
  2

  9
$PUCSORTHOVIEW
 70
     0
  9
$PUCSORGTOP
 10
0.0
 20
0.0
 30
0.0
  9
$PUCSORGBOTTOM
 10
0.0
 20
0.0
 30
0.0
  9
$PUCSORGLEFT
 10
0.0
 20
0.0
 30
0.0
  9
$PUCSORGRIGHT
 10
0.0
 20
0.0
 30
0.0
  9
$PUCSORGFRONT
 10
0.0
 20
0.0
 30
0.0
  9
$PUCSORGBACK
 10
0.0
 20
0.0
 30
0.0
  9
$USERI1
 70
     0
  9
$USERI2
 70
     0
  9
$USERI3
 70
     0
  9
$USERI4
 70
     0
  9
$USERI5
 70
     0
  9
$USERR1
 40
0.0
  9
$USERR2
 40
0.0
  9
$USERR3
 40
0.0
  9
$USERR4
 40
0.0
  9
$USERR5
 40
0.0
  9
$WORLDVIEW
 70
     1
  9
$SHADEDGE
 70
     3
  9
$SHADEDIF
 70
    70
  9
$TILEMODE
 70
     1
  9
$MAXACTVP
 70
    64
  9
$PINSBASE
 10
0.0
 20
0.0
 30
0.0
  9
$PLIMCHECK
 70
     0
  9
$PEXTMIN
 10
1.0000000000E+20
 20
1.0000000000E+20
 30
1.0000000000E+20
  9
$PEXTMAX
 10
-1.0000000000E+20
 20
-1.0000000000E+20
 30
-1.0000000000E+20
  9
$PLIMMIN
 10
0.0
 20
0.0
  9
$PLIMMAX
 10
420.0
 20
297.0
  9
$UNITMODE
 70
     0
  9
$VISRETAIN
 70
     1
  9
$PLINEGEN
 70
     0
  9
$PSLTSCALE
 70
     1
  9
$TREEDEPTH
 70
  3020
  9
$CMLSTYLE
  2
Standard
  9
$CMLJUST
 70
     0
  9
$CMLSCALE
 40
20.0
  9
$PROXYGRAPHICS
 70
     1
  9
$MEASUREMENT
 70
     1
  9
$CELWEIGHT
370
    -1
  9
$ENDCAPS
280
     0
  9
$JOINSTYLE
280
     0
  9
$LWDISPLAY
290
     1
  9
$INSUNITS
 70
     4
  9
$HYPERLINKBASE
  1

  9
$STYLESHEET
  1

  9
$XEDIT
290
     1
  9
$CEPSNTYPE
380
     0
  9
$PSTYLEMODE
290
     1
  9
$FINGERPRINTGUID
  2
{F2348140-0C79-4FB6-8C6C-2AB343262661}
  9
$VERSIONGUID
  2
{FAEB1C32-E019-11D5-929B-00C0DF256EC4}
  9
$EXTNAMES
290
     1
  9
$PSVPSCALE
 40
0.0
  9
$OLESTARTUP
290
     0
  0
ENDSEC
  0
SECTION
  2
CLASSES
  0
CLASS
  1
ACDBDICTIONARYWDFLT
  2
AcDbDictionaryWithDefault
  3
ObjectDBX Classes
 90
        0
280
     0
281
     0
  0
CLASS
  1
VISUALSTYLE
  2
AcDbVisualStyle
  3
ObjectDBX Classes
 90
     4095
280
     0
281
     0
  0
CLASS
  1
SCALE
  2
AcDbScale
  3
ObjectDBX Classes
 90
     1153
280
     0
281
     0
  0
CLASS
  1
DICTIONARYVAR
  2
AcDbDictionaryVar
  3
ObjectDBX Classes
 90
        0
280
     0
281
     0
  0
CLASS
  1
ACDBPLACEHOLDER
  2
AcDbPlaceHolder
  3
ObjectDBX Classes
 90
        0
280
     0
281
     0
  0
CLASS
  1
LAYOUT
  2
AcDbLayout
  3
ObjectDBX Classes
 90
        0
280
     0
281
     0
  0
ENDSEC
  0
SECTION
  2
TABLES
  0
TABLE
  2
VPORT
  5
8
330
0
100
AcDbSymbolTable
 70
     1
  0
VPORT
  5
29
330
8
100
AcDbSymbolTableRecord
100
AcDbViewportTableRecord
  2
*Active
 70
     0
 10
0.0
 20
0.0
 11
1.0
 21
1.0
 12
105.0
 22
148.5
 13
0.0
 23
0.0
 14
10.0
 24
10.0
 15
10.0
 25
10.0
 16
0.0
 26
0.0
 36
1.0
 17
0.0
 27
0.0
 37
0.0
 40
297.0
 41
0.7070707071
 42
50.0
 43
0.0
 44
0.0
 50
0.0
 51
0.0
 71
     0
 72
  2000
 73
     1
 74
     3
 75
     0
 76
     0
 77
     0
 78
     0
281
     0
 65
     1
110
0.0
120
0.0
130
0.0
111
1.0
121
0.0
131
0.0
112
0.0
122
1.0
132
0.0
 79
     0
146
0.0
  0
ENDTAB
  0
TABLE
  2
LTYPE
  5
5
330
0
100
AcDbSymbolTable
 70
     6
  0
LTYPE
  5
14
330
5
100
AcDbSymbolTableRecord
100
AcDbLinetypeTableRecord
  2
ByBlock
 70
     0
  3

 72
    65
 73
     0
 40
0.0
  0
LTYPE
  5
15
330
5
100
AcDbSymbolTableRecord
100
AcDbLinetypeTableRecord
  2
ByLayer
 70
     0
  3

 72
    65
 73
     0
 40
0.0
  0
LTYPE
  5
16
330
5
100
AcDbSymbolTableRecord
100
AcDbLinetypeTableRecord
  2
Continuous
 70
     0
  3
Solid line
 72
    65
 73
     0
 40
0.0
  0
LTYPE
  5
3B
330
5
100
AcDbSymbolTableRecord
100
AcDbLinetypeTableRecord
  2
HIDDEN
 70
     0
  3
Hidden __ __ __ __ __ __ __ __ __ __ __ __ __ __
 72
    65
 73
     2
 40
1.905
 49
1.27
 74
     0
 49
-0.635
 74
     0
  0
LTYPE
  5
3C
330
5
100
AcDbSymbolTableRecord
100
AcDbLinetypeTableRecord
  2
PHANTOM
 70
     0
  3
Phantom ______  __  __  ______  __  __  ______
 72
    65
 73
     6
 40
12.7
 49
6.35
 74
     0
 49
-1.27
 74
     0
 49
1.27
 74
     0
 49
-1.27
 74
     0
 49
1.27
 74
     0
 49
-1.27
 74
     0
  0
LTYPE
  5
3D
330
5
100
AcDbSymbolTableRecord
100
AcDbLinetypeTableRecord
  2
CENTER
 70
     0
  3
Center ____ _ ____ _ ____ _ ____ _ ____ _ ____
 72
    65
 73
     4
 40
10.16
 49
6.35
 74
     0
 49
-1.27
 74
     0
 49
1.27
 74
     0
 49
-1.27
 74
     0
  0
LTYPE
  5
3E
330
5
100
AcDbSymbolTableRecord
100
AcDbLinetypeTableRecord
  2
CENTERX2
 70
     0
  3
Center (2x) ________  __  ________  __  _____
 72
    65
 73
     4
 40
20.32
 49
12.7
 74
     0
 49
-2.54
 74
     0
 49
2.54
 74
     0
 49
-2.54
 74
     0
  0
LTYPE
  5
3F
330
5
100
AcDbSymbolTableRecord
100
AcDbLinetypeTableRecord
  2
DOT2
 70
     0
  3
Dot (.5x) ........................................
 72
    65
 73
     2
 40
0.635
 49
0.0
 74
     0
 49
-0.635
 74
     0
  0
ENDTAB
  0
TABLE
  2
LAYER
  5
2
330
0
100
AcDbSymbolTable
 70
    17
  0
LAYER
  5
10
330
2
100
AcDbSymbolTableRecord
100
AcDbLayerTableRecord
  2
0
 70
     0
 62
     7
  6
Continuous
370
    -3
390
F
  0
LAYER
  5
40
330
2
100
AcDbSymbolTableRecord
100
AcDbLayerTableRecord
  2
FORMAT
 70
     0
 62
     7
  6
Continuous
370
    -3
390
F
  0
LAYER
  5
41
330
2
100
AcDbSymbolTableRecord
100
AcDbLayerTableRecord
  2
SLD-0
 70
     0
 62
     7
  6
Continuous
370
    -3
390
F
  0
LAYER
  5
42
330
2
100
AcDbSymbolTableRecord
100
AcDbLayerTableRecord
  2
AM_0
 70
     0
 62
     7
  6
Continuous
370
    40
390
F
  0
LAYER
  5
43
330
2
100
AcDbSymbolTableRecord
100
AcDbLayerTableRecord
  2
AM_5
 70
     0
 62
    92
  6
Continuous
370
    15
390
F
  0
LAYER
  5
44
330
2
100
AcDbSymbolTableRecord
100
AcDbLayerTableRecord
  2
AM_BOR
 70
     0
 62
     7
  6
Continuous
370
    40
390
F
  0
LAYER
  5
45
330
2
100
AcDbSymbolTableRecord
100
AcDbLayerTableRecord
  2
AM_1
 70
     0
 62
    14
  6
Continuous
370
    40
390
F
  0
LAYER
  5
46
330
2
100
AcDbSymbolTableRecord
100
AcDbLayerTableRecord
  2
AM_2
 70
     0
 62
     5
  6
Continuous
370
    40
390
F
  0
LAYER
  5
47
330
2
100
AcDbSymbolTableRecord
100
AcDbLayerTableRecord
  2
AM_3
 70
     0
 62
     6
  6
HIDDEN
370
    15
390
F
  0
LAYER
  5
48
330
2
100
AcDbSymbolTableRecord
100
AcDbLayerTableRecord
  2
AM_4
 70
     0
 62
    92
  6
Continuous
370
    15
390
F
  0
LAYER
  5
49
330
2
100
AcDbSymbolTableRecord
100
AcDbLayerTableRecord
  2
AM_6
 70
     0
 62
   140
  6
Continuous
370
    30
390
F
  0
LAYER
  5
4A
330
2
100
AcDbSymbolTableRecord
100
AcDbLayerTableRecord
  2
AM_7
 70
     0
 62
   142
  6
CENTERX2
370
    15
390
F
  0
LAYER
  5
4B
330
2
100
AcDbSymbolTableRecord
100
AcDbLayerTableRecord
  2
AM_8
 70
     0
 62
    12
  6
Continuous
370
    15
390
F
  0
LAYER
  5
4C
330
2
100
AcDbSymbolTableRecord
100
AcDbLayerTableRecord
  2
AM_10
 70
     0
 62
     7
  6
CENTERX2
370
    40
390
F
  0
LAYER
  5
4D
330
2
100
AcDbSymbolTableRecord
100
AcDbLayerTableRecord
  2
AM_11
 70
     0
 62
    92
  6
PHANTOM
370
    15
390
F
  0
LAYER
  5
4E
330
2
100
AcDbSymbolTableRecord
100
AcDbLayerTableRecord
  2
AM_12
 70
     0
 62
     7
  6
Continuous
370
    40
390
F
  0
LAYER
  5
4F
330
2
100
AcDbSymbolTableRecord
100
AcDbLayerTableRecord
  2
_IDW_BLOCKREFERENCELAYER
 70
     0
 62
     7
  6
Continuous
370
    -3
390
F
  0
ENDTAB
  0
TABLE
  2
STYLE
  5
3
330
0
100
AcDbSymbolTable
 70
     2
  0
STYLE
  5
11
330
3
100
AcDbSymbolTableRecord
100
AcDbTextStyleTableRecord
  2
Standard
 70
     0
 40
0.0
 41
1.0
 50
0.0
 71
     0
 42
2.5
  3
txt
  4

  0
STYLE
  5
109
330
3
100
AcDbSymbolTableRecord
100
AcDbTextStyleTableRecord
  2
SLDTEXTSTYLE0
 70
     0
 40
0.0
 41
0.75
 50
0.0
 71
     0
 42
0.2
  3
TXT
  4

  0
ENDTAB
  0
TABLE
  2
VIEW
  5
6
330
0
100
AcDbSymbolTable
 70
     0
  0
ENDTAB
  0
TABLE
  2
UCS
  5
7
330
0
100
AcDbSymbolTable
 70
     0
  0
ENDTAB
  0
TABLE
  2
APPID
  5
9
330
0
100
AcDbSymbolTable
 70
     1
  0
APPID
  5
12
330
9
100
AcDbSymbolTableRecord
100
AcDbRegAppTableRecord
  2
ACAD
 70
     0
  0
ENDTAB
  0
TABLE
  2
DIMSTYLE
  5
A
330
0
100
AcDbSymbolTable
 70
     2
100
AcDbDimStyleTable
  0
DIMSTYLE
105
27
330
A
100
AcDbSymbolTableRecord
100
AcDbDimStyleTableRecord
  2
ISO-25
 70
     0
 41
2.5
 42
0.625
 43
3.75
 44
1.25
 73
     0
 74
     0
 77
     1
 78
     8
140
2.5
141
2.5
143
0.0393700787
147
0.625
171
     3
172
     1
271
     2
272
     2
274
     3
278
    44
283
     0
284
     8
340
11
  0
DIMSTYLE
105
10A
102
{ACAD_REACTORS
330
E6
330
11B
102
}
330
A
100
AcDbSymbolTableRecord
100
AcDbDimStyleTableRecord
  2
SLDDIMSTYLE0
 70
     0
 41
6.0
 44
0.0
 45
0.000000001
 78
     4
140
3.5
147
0.875
173
     1
271
     2
272
     2
284
    12
340
109
341
10B
343
10B
344
10B
  0
ENDTAB
  0
TABLE
  2
BLOCK_RECORD
  5
1
330
0
100
AcDbSymbolTable
 70
     4
  0
BLOCK_RECORD
  5
1F
330
1
100
AcDbSymbolTableRecord
100
AcDbBlockTableRecord
  2
*Model_Space
340
22
  0
BLOCK_RECORD
  5
1B
330
1
100
AcDbSymbolTableRecord
100
AcDbBlockTableRecord
  2
*Paper_Space
340
1E
  0
BLOCK_RECORD
  5
23
330
1
100
AcDbSymbolTableRecord
100
AcDbBlockTableRecord
  2
*Paper_Space0
340
26
  0
BLOCK_RECORD
  5
10B
330
1
100
AcDbSymbolTableRecord
100
AcDbBlockTableRecord
  2
_CLOSED
340
0
102
{BLKREFS
331
115
331
116
331
11F
331
120
102
}
  0
BLOCK_RECORD
  5
112
330
1
100
AcDbSymbolTableRecord
100
AcDbBlockTableRecord
  2
*D2
340
0
  0
BLOCK_RECORD
  5
11C
330
1
100
AcDbSymbolTableRecord
100
AcDbBlockTableRecord
  2
*D3
340
0
  0
ENDTAB
  0
ENDSEC
  0
SECTION
  2
BLOCKS
  0
BLOCK
  5
20
330
1F
100
AcDbEntity
  8
0
100
AcDbBlockBegin
  2
*Model_Space
 70
     0
 10
0.0
 20
0.0
 30
0.0
  3
*Model_Space
  1

  0
ENDBLK
  5
21
330
1F
100
AcDbEntity
  8
0
100
AcDbBlockEnd
  0
BLOCK
  5
1C
330
1B
100
AcDbEntity
 67
     1
  8
0
100
AcDbBlockBegin
  2
*Paper_Space
 70
     0
 10
0.0
 20
0.0
 30
0.0
  3
*Paper_Space
  1

  0
ENDBLK
  5
1D
330
1B
100
AcDbEntity
 67
     1
  8
0
100
AcDbBlockEnd
  0
BLOCK
  5
24
330
23
100
AcDbEntity
  8
0
100
AcDbBlockBegin
  2
*Paper_Space0
 70
     0
 10
0.0
 20
0.0
 30
0.0
  3
*Paper_Space0
  1

  0
ENDBLK
  5
25
330
23
100
AcDbEntity
  8
0
100
AcDbBlockEnd
  0
BLOCK
  5
10C
330
10B
100
AcDbEntity
  8
0
100
AcDbBlockBegin
  2
_CLOSED
 70
     0
 10
0.0
 20
0.0
 30
0.0
  3
_CLOSED
  1

  0
LINE
  5
10E
330
10B
100
AcDbEntity
  8
0
  6
ByBlock
 62
     0
370
    -2
100
AcDbLine
 10
-1.0
 20
0.166667
 30
0.0
 11
0.0
 21
0.0
 31
0.0
  0
LINE
  5
10F
330
10B
100
AcDbEntity
  8
0
  6
ByBlock
 62
     0
370
    -2
100
AcDbLine
 10
0.0
 20
0.0
 30
0.0
 11
-1.0
 21
-0.166667
 31
0.0
  0
LINE
  5
110
330
10B
100
AcDbEntity
  8
0
  6
ByBlock
 62
     0
370
    -2
100
AcDbLine
 10
-1.0
 20
0.166667
 30
0.0
 11
-1.0
 21
-0.166667
 31
0.0
  0
LINE
  5
111
330
10B
100
AcDbEntity
  8
0
  6
ByBlock
 62
     0
370
    -2
100
AcDbLine
 10
0.0
 20
0.0
 30
0.0
 11
-1.0
 21
0.0
 31
0.0
  0
ENDBLK
  5
10D
330
10B
100
AcDbEntity
  8
0
100
AcDbBlockEnd
  0
BLOCK
  5
113
330
112
100
AcDbEntity
  8
0
100
AcDbBlockBegin
  2
*D2
 70
     1
 10
0.0
 20
0.0
 30
0.0
  3
*D2
  1

  0
INSERT
  5
115
330
112
100
AcDbEntity
  8
AM_BOR
100
AcDbBlockReference
  2
_CLOSED
 10
1.4012692586
 20
95.0199711727
 30
0.1
 41
6.0
 42
6.0
 50
180.0
  0
INSERT
  5
116
330
112
100
AcDbEntity
  8
AM_BOR
100
AcDbBlockReference
  2
_CLOSED
 10
161.4012692586
 20
95.0199711727
 30
0.1
 41
6.0
 42
6.0
 50
0.0
  0
LINE
  5
117
330
112
100
AcDbEntity
  8
AM_BOR
100
AcDbLine
 10
1.4012692586
 20
113.0016305586
 30
0.0
 11
1.4012692586
 21
94.0199711727
 31
0.0
  0
LINE
  5
118
330
112
100
AcDbEntity
  8
AM_BOR
100
AcDbLine
 10
161.4012692586
 20
113.0016305586
 30
0.0
 11
161.4012692586
 21
94.0199711727
 31
0.0
  0
LINE
  5
119
330
112
100
AcDbEntity
  8
AM_BOR
100
AcDbLine
 10
1.4012692586
 20
95.0199711727
 30
0.0
 11
161.4012692586
 21
95.0199711727
 31
0.0
  0
MTEXT
  5
11A
330
112
100
AcDbEntity
  8
AM_BOR
100
AcDbMText
 10
125.094561605
 20
99.5317080873
 30
0.0
 40
3.5
 41
0.0
 71
     1
 72
     1
  1
160.00
  7
SLDTEXTSTYLE0
 73
     1
 44
1.0
  0
ENDBLK
  5
114
330
112
100
AcDbEntity
  8
0
100
AcDbBlockEnd
  0
BLOCK
  5
11D
330
11C
100
AcDbEntity
  8
0
100
AcDbBlockBegin
  2
*D3
 70
     1
 10
0.0
 20
0.0
 30
0.0
  3
*D3
  1

  0
INSERT
  5
11F
330
11C
100
AcDbEntity
  8
AM_BOR
100
AcDbBlockReference
  2
_CLOSED
 10
171.4012692586
 20
114.0016305586
 30
0.1
 41
6.0
 42
6.0
 50
270.0
  0
INSERT
  5
120
330
11C
100
AcDbEntity
  8
AM_BOR
100
AcDbBlockReference
  2
_CLOSED
 10
171.4012692586
 20
294.0016305586
 30
0.1
 41
6.0
 42
6.0
 50
90.0
  0
LINE
  5
121
330
11C
100
AcDbEntity
  8
AM_BOR
100
AcDbLine
 10
162.4012692586
 20
114.0016305586
 30
0.0
 11
172.4012692586
 21
114.0016305586
 31
0.0
  0
LINE
  5
122
330
11C
100
AcDbEntity
  8
AM_BOR
100
AcDbLine
 10
162.4012692586
 20
294.0016305586
 30
0.0
 11
172.4012692586
 21
294.0016305586
 31
0.0
  0
LINE
  5
123
330
11C
100
AcDbEntity
  8
AM_BOR
100
AcDbLine
 10
171.4012692586
 20
114.0016305586
 30
0.0
 11
171.4012692586
 21
201.2237886952
 31
0.0
  0
LINE
  5
124
330
11C
100
AcDbEntity
  8
AM_BOR
100
AcDbLine
 10
171.4012692586
 20
294.0016305586
 30
0.0
 11
171.4012692586
 21
206.779472422
 31
0.0
  0
MTEXT
  5
125
330
11C
100
AcDbEntity
  8
AM_BOR
100
AcDbMText
 10
164.2895526604
 20
205.7355256097
 30
0.0
 40
3.5
 41
0.0
 71
     1
 72
     1
  1
180.00
  7
SLDTEXTSTYLE0
 73
     1
 44
1.0
  0
ENDBLK
  5
11E
330
11C
100
AcDbEntity
  8
0
100
AcDbBlockEnd
  0
ENDSEC
  0
SECTION
  2
ENTITIES
  0
ARC
  5
50
330
1F
100
AcDbEntity
  8
0
  6
Continuous
 62
     7
370
    15
100
AcDbCircle
 10
7.5616006053
 20
284.7775594184
 30
0.0
 40
3.000000000000036
100
AcDbArc
 50
127.9014576801
 51
169.5504037119
  0
ARC
  5
51
330
1F
100
AcDbEntity
  8
0
  6
Continuous
 62
     7
370
    15
100
AcDbCircle
 10
27.8201589758
 20
258.7556611444
 30
0.0
 40
35.97799837821669
100
AcDbArc
 50
90.0
 51
127.9014576801
  0
LINE
  5
52
330
1F
100
AcDbEntity
  8
0
  6
Continuous
 62
     7
370
    15
100
AcDbLine
 10
27.8201589758
 20
294.7336595226
 30
0.0
 11
67.4176181738
 21
294.7336595226
 31
0.0
  0
ARC
  5
53
330
1F
100
AcDbEntity
  8
0
  6
Continuous
 62
     7
370
    15
100
AcDbCircle
 10
67.4176181738
 20
281.3408023797
 30
0.0
 40
13.39285714285717
100
AcDbArc
 50
14.6748497429
 51
90.0
  0
LINE
  5
54
330
1F
100
AcDbEntity
  8
0
  6
Continuous
 62
     7
370
    15
100
AcDbLine
 10
68.8201589758
 20
282.7336595226
 30
0.0
 11
80.8680884468
 21
282.7336595226
 31
0.0
  0
ARC
  5
55
330
1F
100
AcDbEntity
  8
0
  6
Continuous
 62
     7
370
    15
100
AcDbCircle
 10
68.8201589758
 20
280.7336595226
 30
0.0
 40
2.0
100
AcDbArc
 50
90.0
 51
180.0
  0
LINE
  5
56
330
1F
100
AcDbEntity
  8
0
  6
Continuous
 62
     7
370
    15
100
AcDbLine
 10
66.8201589758
 20
250.7336595226
 30
0.0
 11
66.8201589758
 21
280.7336595226
 31
0.0
  0
ARC
  5
57
330
1F
100
AcDbEntity
  8
0
  6
Continuous
 62
     7
370
    15
100
AcDbCircle
 10
68.8201589758
 20
250.7336595226
 30
0.0
 40
2.0
100
AcDbArc
 50
180.0
 51
270.0
  0
LINE
  5
58
330
1F
100
AcDbEntity
  8
0
  6
Continuous
 62
     7
370
    15
100
AcDbLine
 10
80.8680884468
 20
248.7336595226
 30
0.0
 11
68.8201589758
 21
248.7336595226
 31
0.0
  0
ARC
  5
59
330
1F
100
AcDbEntity
  8
0
  6
Continuous
 62
     7
370
    15
100
AcDbCircle
 10
7.8201589758
 20
265.7336595226
 30
0.0
 40
75.0
100
AcDbArc
 50
345.3251502571
 51
346.8990964657
  0
ARC
  5
5A
330
1F
100
AcDbEntity
  8
0
  6
Continuous
 62
     7
370
    15
100
AcDbCircle
 10
67.4176181738
 20
250.1265166655
 30
0.0
 40
13.39285714285714
100
AcDbArc
 50
270.0
 51
345.3251502571
  0
LINE
  5
5B
330
1F
100
AcDbEntity
  8
0
  6
Continuous
 62
     7
370
    15
100
AcDbLine
 10
67.4176181738
 20
236.7336595226
 30
0.0
 11
27.8201589758
 21
236.7336595226
 31
0.0
  0
ARC
  5
5C
330
1F
100
AcDbEntity
  8
0
  6
Continuous
 62
     7
370
    15
100
AcDbCircle
 10
27.8201589758
 20
272.7116579008
 30
0.0
 40
35.97799837821665
100
AcDbArc
 50
232.0985423199
 51
270.0
  0
ARC
  5
5D
330
1F
100
AcDbEntity
  8
0
  6
Continuous
 62
     7
370
    15
100
AcDbCircle
 10
7.5616006053
 20
246.6897596268
 30
0.0
 40
3.000000000000018
100
AcDbArc
 50
190.4495962881
 51
232.0985423199
  0
ARC
  5
5E
330
1F
100
AcDbEntity
  8
0
  6
Continuous
 62
     7
370
    15
100
AcDbCircle
 10
110.8201589758
 20
265.7336595226
 30
0.0
 40
108.0
100
AcDbArc
 50
169.5504037119
 51
190.4495962881
  0
ARC
  5
5F
330
1F
100
AcDbEntity
  8
0
  6
Continuous
 62
     7
370
    15
100
AcDbCircle
 10
27.6201589758
 20
251.7336595226
 30
0.0
 40
4.0
100
AcDbArc
 50
180.0
 51
270.0
  0
LINE
  5
60
330
1F
100
AcDbEntity
  8
0
  6
Continuous
 62
     7
370
    15
100
AcDbLine
 10
39.8201589758
 20
247.7336595226
 30
0.0
 11
27.6201589758
 21
247.7336595226
 31
0.0
  0
ARC
  5
61
330
1F
100
AcDbEntity
  8
0
  6
Continuous
 62
     7
370
    15
100
AcDbCircle
 10
39.8201589758
 20
251.7336595226
 30
0.0
 40
4.0
100
AcDbArc
 50
270.0
 51
0.0
  0
LINE
  5
62
330
1F
100
AcDbEntity
  8
0
  6
Continuous
 62
     7
370
    15
100
AcDbLine
 10
43.8201589758
 20
279.7336595226
 30
0.0
 11
43.8201589758
 21
251.7336595226
 31
0.0
  0
LINE
  5
63
330
1F
100
AcDbEntity
  8
0
  6
Continuous
 62
     7
370
    15
100
AcDbLine
 10
27.6201589758
 20
283.7336595226
 30
0.0
 11
39.8201589758
 21
283.7336595226
 31
0.0
  0
ARC
  5
64
330
1F
100
AcDbEntity
  8
0
  6
Continuous
 62
     7
370
    15
100
AcDbCircle
 10
27.6201589758
 20
279.7336595226
 30
0.0
 40
4.0
100
AcDbArc
 50
90.0
 51
180.0
  0
LINE
  5
65
330
1F
100
AcDbEntity
  8
0
  6
Continuous
 62
     7
370
    15
100
AcDbLine
 10
23.6201589758
 20
251.7336595226
 30
0.0
 11
23.6201589758
 21
279.7336595226
 31
0.0
  0
CIRCLE
  5
66
330
1F
100
AcDbEntity
  8
0
  6
Continuous
 62
     7
370
    15
100
AcDbCircle
 10
16.3201589758
 20
265.7336595226
 30
0.0
 40
1.250000000000004
  0
CIRCLE
  5
67
330
1F
100
AcDbEntity
  8
0
  6
Continuous
 62
     7
370
    15
100
AcDbCircle
 10
16.3201589758
 20
245.7336595226
 30
0.0
 40
1.599999999999998
  0
CIRCLE
  5
68
330
1F
100
AcDbEntity
  8
0
  6
Continuous
 62
     7
370
    15
100
AcDbCircle
 10
16.3201589758
 20
285.7336595226
 30
0.0
 40
1.599999999999998
  0
CIRCLE
  5
69
330
1F
100
AcDbEntity
  8
0
  6
Continuous
 62
     7
370
    15
100
AcDbCircle
 10
47.8201589758
 20
265.7336595226
 30
0.0
 40
1.599999999999994
  0
CIRCLE
  5
6A
330
1F
100
AcDbEntity
  8
0
  6
Continuous
 62
     7
370
    15
100
AcDbCircle
 10
60.8201589758
 20
287.7336595226
 30
0.0
 40
1.600000000000009
  0
CIRCLE
  5
6B
330
1F
100
AcDbEntity
  8
0
  6
Continuous
 62
     7
370
    15
100
AcDbCircle
 10
60.8201589758
 20
243.7336595226
 30
0.0
 40
1.600000000000009
  0
ARC
  5
6C
330
1F
100
AcDbEntity
  8
0
  6
Continuous
 62
     7
370
    15
100
AcDbCircle
 10
39.8201589758
 20
279.7336595226
 30
0.0
 40
4.0
100
AcDbArc
 50
0.0
 51
90.0
  0
ARC
  5
6D
330
1F
100
AcDbEntity
  8
0
  6
Continuous
 62
     7
370
    15
100
AcDbCircle
 10
7.8201589758
 20
265.7336595226
 30
0.0
 40
75.00000000000003
100
AcDbArc
 50
13.1009035343
 51
14.6748497429
  0
ARC
  5
6E
330
1F
100
AcDbEntity
  8
0
  6
Continuous
 62
     7
370
    15
100
AcDbCircle
 10
7.5616006053
 20
224.5537957185
 30
0.0
 40
3.000000000000016
100
AcDbArc
 50
127.9014576801
 51
169.5504037119
  0
ARC
  5
6F
330
1F
100
AcDbEntity
  8
0
  6
Continuous
 62
     7
370
    15
100
AcDbCircle
 10
27.8201589758
 20
198.5318974445
 30
0.0
 40
35.97799837821671
100
AcDbArc
 50
90.0
 51
127.9014576801
  0
LINE
  5
70
330
1F
100
AcDbEntity
  8
0
  6
Continuous
 62
     7
370
    15
100
AcDbLine
 10
47.7201589758
 20
234.5098958227
 30
0.0
 11
47.7201589758
 21
211.5098958227
 31
0.0
  0
ARC
  5
71
330
1F
100
AcDbEntity
  8
0
  6
Continuous
 62
     7
370
    15
100
AcDbCircle
 10
51.7201589758
 20
211.5098958227
 30
0.0
 40
4.0
100
AcDbArc
 50
180.0
 51
270.0
  0
ARC
  5
72
330
1F
100
AcDbEntity
  8
0
  6
Continuous
 62
     7
370
    15
100
AcDbCircle
 10
53.9201589758
 20
211.5098958227
 30
0.0
 40
4.0
100
AcDbArc
 50
270.0
 51
0.0
  0
LINE
  5
73
330
1F
100
AcDbEntity
  8
0
  6
Continuous
 62
     7
370
    15
100
AcDbLine
 10
57.9201589758
 20
211.5098958227
 30
0.0
 11
57.9201589758
 21
234.5098958227
 31
0.0
  0
LINE
  5
74
330
1F
100
AcDbEntity
  8
0
  6
Continuous
 62
     7
370
    15
100
AcDbLine
 10
57.9201589758
 20
234.5098958227
 30
0.0
 11
67.4176181738
 21
234.5098958227
 31
0.0
  0
ARC
  5
75
330
1F
100
AcDbEntity
  8
0
  6
Continuous
 62
     7
370
    15
100
AcDbCircle
 10
67.4176181738
 20
221.1170386799
 30
0.0
 40
13.39285714285717
100
AcDbArc
 50
14.6748497429
 51
90.0
  0
LINE
  5
76
330
1F
100
AcDbEntity
  8
0
  6
Continuous
 62
     7
370
    15
100
AcDbLine
 10
62.4201589758
 20
222.5098958227
 30
0.0
 11
80.8680884468
 21
222.5098958227
 31
0.0
  0
ARC
  5
77
330
1F
100
AcDbEntity
  8
0
  6
Continuous
 62
     7
370
    15
100
AcDbCircle
 10
62.4201589758
 20
220.5098958227
 30
0.0
 40
1.999999999999993
100
AcDbArc
 50
90.0
 51
180.0
  0
LINE
  5
78
330
1F
100
AcDbEntity
  8
0
  6
Continuous
 62
     7
370
    15
100
AcDbLine
 10
60.4201589758
 20
220.5098958227
 30
0.0
 11
60.4201589758
 21
190.5098958227
 31
0.0
  0
ARC
  5
79
330
1F
100
AcDbEntity
  8
0
  6
Continuous
 62
     7
370
    15
100
AcDbCircle
 10
62.4201589758
 20
190.5098958227
 30
0.0
 40
1.999999999999993
100
AcDbArc
 50
180.0
 51
270.0
  0
LINE
  5
7A
330
1F
100
AcDbEntity
  8
0
  6
Continuous
 62
     7
370
    15
100
AcDbLine
 10
80.8680884468
 20
188.5098958227
 30
0.0
 11
62.4201589758
 21
188.5098958227
 31
0.0
  0
ARC
  5
7B
330
1F
100
AcDbEntity
  8
0
  6
Continuous
 62
     7
370
    15
100
AcDbCircle
 10
7.8201589758
 20
205.5098958227
 30
0.0
 40
75.00000000000001
100
AcDbArc
 50
345.3251502571
 51
346.8990964657
  0
ARC
  5
7C
330
1F
100
AcDbEntity
  8
0
  6
Continuous
 62
     7
370
    15
100
AcDbCircle
 10
67.4176181738
 20
189.9027529656
 30
0.0
 40
13.39285714285715
100
AcDbArc
 50
270.0
 51
345.3251502571
  0
LINE
  5
7D
330
1F
100
AcDbEntity
  8
0
  6
Continuous
 62
     7
370
    15
100
AcDbLine
 10
67.4176181738
 20
176.5098958227
 30
0.0
 11
57.9201589758
 21
176.5098958227
 31
0.0
  0
LINE
  5
7E
330
1F
100
AcDbEntity
  8
0
  6
Continuous
 62
     7
370
    15
100
AcDbLine
 10
57.9201589758
 20
176.5098958227
 30
0.0
 11
57.9201589758
 21
199.5098958227
 31
0.0
  0
ARC
  5
7F
330
1F
100
AcDbEntity
  8
0
  6
Continuous
 62
     7
370
    15
100
AcDbCircle
 10
53.9201589758
 20
199.5098958227
 30
0.0
 40
4.0
100
AcDbArc
 50
0.0
 51
90.0
  0
LINE
  5
80
330
1F
100
AcDbEntity
  8
0
  6
Continuous
 62
     7
370
    15
100
AcDbLine
 10
53.9201589758
 20
203.5098958227
 30
0.0
 11
51.7201589758
 21
203.5098958227
 31
0.0
  0
ARC
  5
81
330
1F
100
AcDbEntity
  8
0
  6
Continuous
 62
     7
370
    15
100
AcDbCircle
 10
51.7201589758
 20
199.5098958227
 30
0.0
 40
4.0
100
AcDbArc
 50
90.0
 51
180.0
  0
LINE
  5
82
330
1F
100
AcDbEntity
  8
0
  6
Continuous
 62
     7
370
    15
100
AcDbLine
 10
47.7201589758
 20
199.5098958227
 30
0.0
 11
47.7201589758
 21
176.5098958227
 31
0.0
  0
ARC
  5
83
330
1F
100
AcDbEntity
  8
0
  6
Continuous
 62
     7
370
    15
100
AcDbCircle
 10
27.8201589758
 20
212.4878942009
 30
0.0
 40
35.97799837821668
100
AcDbArc
 50
232.0985423199
 51
270.0
  0
ARC
  5
84
330
1F
100
AcDbEntity
  8
0
  6
Continuous
 62
     7
370
    15
100
AcDbCircle
 10
7.5616006053
 20
186.465995927
 30
0.0
 40
3.000000000000018
100
AcDbArc
 50
190.4495962881
 51
232.0985423199
  0
ARC
  5
85
330
1F
100
AcDbEntity
  8
0
  6
Continuous
 62
     7
370
    15
100
AcDbCircle
 10
110.8201589758
 20
205.5098958227
 30
0.0
 40
108.0
100
AcDbArc
 50
169.5504037119
 51
190.4495962881
  0
LINE
  5
86
330
1F
100
AcDbEntity
  8
0
  6
Continuous
 62
     7
370
    15
100
AcDbLine
 10
19.3201589758
 20
180.3098958227
 30
0.0
 11
19.3201589758
 21
189.5098958227
 31
0.0
  0
ARC
  5
87
330
1F
100
AcDbEntity
  8
0
  6
Continuous
 62
     7
370
    15
100
AcDbCircle
 10
20.3201589758
 20
180.3098958227
 30
0.0
 40
1.000000000000004
100
AcDbArc
 50
180.0
 51
270.0
  0
LINE
  5
88
330
1F
100
AcDbEntity
  8
0
  6
Continuous
 62
     7
370
    15
100
AcDbLine
 10
43.3201589758
 20
179.3098958227
 30
0.0
 11
20.3201589758
 21
179.3098958227
 31
0.0
  0
ARC
  5
89
330
1F
100
AcDbEntity
  8
0
  6
Continuous
 62
     7
370
    15
100
AcDbCircle
 10
43.3201589758
 20
180.3098958227
 30
0.0
 40
1.0
100
AcDbArc
 50
270.0
 51
0.0
  0
LINE
  5
8A
330
1F
100
AcDbEntity
  8
0
  6
Continuous
 62
     7
370
    15
100
AcDbLine
 10
44.3201589758
 20
230.7098958227
 30
0.0
 11
44.3201589758
 21
180.3098958227
 31
0.0
  0
ARC
  5
8B
330
1F
100
AcDbEntity
  8
0
  6
Continuous
 62
     7
370
    15
100
AcDbCircle
 10
43.3201589758
 20
230.7098958227
 30
0.0
 40
1.0
100
AcDbArc
 50
0.0
 51
90.0
  0
LINE
  5
8C
330
1F
100
AcDbEntity
  8
0
  6
Continuous
 62
     7
370
    15
100
AcDbLine
 10
20.3201589758
 20
231.7098958227
 30
0.0
 11
43.3201589758
 21
231.7098958227
 31
0.0
  0
ARC
  5
8D
330
1F
100
AcDbEntity
  8
0
  6
Continuous
 62
     7
370
    15
100
AcDbCircle
 10
20.3201589758
 20
230.7098958227
 30
0.0
 40
1.000000000000004
100
AcDbArc
 50
90.0
 51
180.0
  0
LINE
  5
8E
330
1F
100
AcDbEntity
  8
0
  6
Continuous
 62
     7
370
    15
100
AcDbLine
 10
9.6519821612
 20
221.5098958227
 30
0.0
 11
19.3201589758
 21
221.5098958227
 31
0.0
  0
ARC
  5
8F
330
1F
100
AcDbEntity
  8
0
  6
Continuous
 62
     7
370
    15
100
AcDbCircle
 10
9.6519821612
 20
218.5098958227
 30
0.0
 40
3.000000000000002
100
AcDbArc
 50
90.0
 51
172.6776810668
  0
ARC
  5
90
330
1F
100
AcDbEntity
  8
0
  6
Continuous
 62
     7
370
    15
100
AcDbCircle
 10
110.8201589758
 20
205.5098958227
 30
0.0
 40
105.0
100
AcDbArc
 50
172.6776810668
 51
187.3223189332
  0
ARC
  5
91
330
1F
100
AcDbEntity
  8
0
  6
Continuous
 62
     7
370
    15
100
AcDbCircle
 10
9.6519821612
 20
192.5098958227
 30
0.0
 40
2.999999999999999
100
AcDbArc
 50
187.3223189332
 51
270.0
  0
LINE
  5
92
330
1F
100
AcDbEntity
  8
0
  6
Continuous
 62
     7
370
    15
100
AcDbLine
 10
19.3201589758
 20
189.5098958227
 30
0.0
 11
9.6519821612
 21
189.5098958227
 31
0.0
  0
CIRCLE
  5
93
330
1F
100
AcDbEntity
  8
0
  6
Continuous
 62
     7
370
    15
100
AcDbCircle
 10
16.3201589758
 20
225.5098958227
 30
0.0
 40
1.599999999999998
  0
CIRCLE
  5
94
330
1F
100
AcDbEntity
  8
0
  6
Continuous
 62
     7
370
    15
100
AcDbCircle
 10
16.3201589758
 20
185.5098958227
 30
0.0
 40
1.599999999999998
  0
CIRCLE
  5
95
330
1F
100
AcDbEntity
  8
0
  6
Continuous
 62
     7
370
    15
100
AcDbCircle
 10
47.8201589758
 20
205.5098958227
 30
0.0
 40
1.600000000000009
  0
CIRCLE
  5
96
330
1F
100
AcDbEntity
  8
0
  6
Continuous
 62
     7
370
    15
100
AcDbCircle
 10
60.8201589758
 20
227.5098958227
 30
0.0
 40
1.600000000000001
  0
CIRCLE
  5
97
330
1F
100
AcDbEntity
  8
0
  6
Continuous
 62
     7
370
    15
100
AcDbCircle
 10
60.8201589758
 20
183.5098958227
 30
0.0
 40
1.599999999999994
  0
LINE
  5
98
330
1F
100
AcDbEntity
  8
0
  6
Continuous
 62
     7
370
    15
100
AcDbLine
 10
51.7201589758
 20
207.5098958227
 30
0.0
 11
53.9201589758
 21
207.5098958227
 31
0.0
  0
LINE
  5
99
330
1F
100
AcDbEntity
  8
0
  6
Continuous
 62
     7
370
    15
100
AcDbLine
 10
27.8201589758
 20
234.5098958227
 30
0.0
 11
47.7201589758
 21
234.5098958227
 31
0.0
  0
LINE
  5
9A
330
1F
100
AcDbEntity
  8
0
  6
Continuous
 62
     7
370
    15
100
AcDbLine
 10
47.7201589758
 20
176.5098958227
 30
0.0
 11
27.8201589758
 21
176.5098958227
 31
0.0
  0
LINE
  5
9B
330
1F
100
AcDbEntity
  8
0
  6
Continuous
 62
     7
370
    15
100
AcDbLine
 10
19.3201589758
 20
221.5098958227
 30
0.0
 11
19.3201589758
 21
230.7098958227
 31
0.0
  0
ARC
  5
9C
330
1F
100
AcDbEntity
  8
0
  6
Continuous
 62
     7
370
    15
100
AcDbCircle
 10
7.8201589758
 20
205.5098958227
 30
0.0
 40
75.0
100
AcDbArc
 50
13.1009035343
 51
14.6748497429
  0
ARC
  5
9D
330
1F
100
AcDbEntity
  8
0
  6
Continuous
 62
     7
370
    15
100
AcDbCircle
 10
7.5616006053
 20
164.040468029
 30
0.0
 40
3.000000000000011
100
AcDbArc
 50
127.9014576801
 51
169.5504037119
  0
ARC
  5
9E
330
1F
100
AcDbEntity
  8
0
  6
Continuous
 62
     7
370
    15
100
AcDbCircle
 10
27.8201589758
 20
138.018569755
 30
0.0
 40
35.97799837821669
100
AcDbArc
 50
90.0
 51
127.9014576801
  0
LINE
  5
9F
330
1F
100
AcDbEntity
  8
0
  6
Continuous
 62
     7
370
    15
100
AcDbLine
 10
27.8201589758
 20
173.9965681333
 30
0.0
 11
47.7201589758
 21
173.9965681333
 31
0.0
  0
LINE
  5
A0
330
1F
100
AcDbEntity
  8
0
  6
Continuous
 62
     7
370
    15
100
AcDbLine
 10
47.7201589758
 20
173.9965681333
 30
0.0
 11
47.7201589758
 21
150.9965681333
 31
0.0
  0
ARC
  5
A1
330
1F
100
AcDbEntity
  8
0
  6
Continuous
 62
     7
370
    15
100
AcDbCircle
 10
51.7201589758
 20
150.9965681333
 30
0.0
 40
4.0
100
AcDbArc
 50
180.0
 51
270.0
  0
LINE
  5
A2
330
1F
100
AcDbEntity
  8
0
  6
Continuous
 62
     7
370
    15
100
AcDbLine
 10
51.7201589758
 20
146.9965681333
 30
0.0
 11
53.9201589758
 21
146.9965681333
 31
0.0
  0
LINE
  5
A3
330
1F
100
AcDbEntity
  8
0
  6
Continuous
 62
     7
370
    15
100
AcDbLine
 10
57.9201589758
 20
150.9965681333
 30
0.0
 11
57.9201589758
 21
173.9965681333
 31
0.0
  0
LINE
  5
A4
330
1F
100
AcDbEntity
  8
0
  6
Continuous
 62
     7
370
    15
100
AcDbLine
 10
57.9201589758
 20
173.9965681333
 30
0.0
 11
67.4176181738
 21
173.9965681333
 31
0.0
  0
ARC
  5
A5
330
1F
100
AcDbEntity
  8
0
  6
Continuous
 62
     7
370
    15
100
AcDbCircle
 10
67.4176181738
 20
160.6037109904
 30
0.0
 40
13.39285714285715
100
AcDbArc
 50
14.6748497429
 51
90.0
  0
LINE
  5
A6
330
1F
100
AcDbEntity
  8
0
  6
Continuous
 62
     7
370
    15
100
AcDbLine
 10
70.8201589758
 20
161.9965681333
 30
0.0
 11
80.8680884468
 21
161.9965681333
 31
0.0
  0
LINE
  5
A7
330
1F
100
AcDbEntity
  8
0
  6
Continuous
 62
     7
370
    15
100
AcDbLine
 10
70.8201589758
 20
159.9965681333
 30
0.0
 11
70.8201589758
 21
161.9965681333
 31
0.0
  0
ARC
  5
A8
330
1F
100
AcDbEntity
  8
0
  6
Continuous
 62
     7
370
    15
100
AcDbCircle
 10
69.8201589758
 20
159.9965681333
 30
0.0
 40
1.0
100
AcDbArc
 50
270.0
 51
0.0
  0
LINE
  5
A9
330
1F
100
AcDbEntity
  8
0
  6
Continuous
 62
     7
370
    15
100
AcDbLine
 10
65.2201589758
 20
158.9965681333
 30
0.0
 11
69.8201589758
 21
158.9965681333
 31
0.0
  0
LINE
  5
AA
330
1F
100
AcDbEntity
  8
0
  6
Continuous
 62
     7
370
    15
100
AcDbLine
 10
64.2201589758
 20
159.9965681333
 30
0.0
 11
65.2201589758
 21
158.9965681333
 31
0.0
  0
LINE
  5
AB
330
1F
100
AcDbEntity
  8
0
  6
Continuous
 62
     7
370
    15
100
AcDbLine
 10
64.2201589758
 20
161.9965681333
 30
0.0
 11
64.2201589758
 21
159.9965681333
 31
0.0
  0
LINE
  5
AC
330
1F
100
AcDbEntity
  8
0
  6
Continuous
 62
     7
370
    15
100
AcDbLine
 10
65.5201589758
 20
161.9965681333
 30
0.0
 11
64.2201589758
 21
161.9965681333
 31
0.0
  0
LINE
  5
AD
330
1F
100
AcDbEntity
  8
0
  6
Continuous
 62
     7
370
    15
100
AcDbLine
 10
65.5201589758
 20
164.1681410085
 30
0.0
 11
65.5201589758
 21
161.9965681333
 31
0.0
  0
ARC
  5
AE
330
1F
100
AcDbEntity
  8
0
  6
Continuous
 62
     7
370
    15
100
AcDbCircle
 10
66.5201589758
 20
166.9965681333
 30
0.0
 40
3.0
100
AcDbArc
 50
250.5287793655
 51
180.0
  0
LINE
  5
AF
330
1F
100
AcDbEntity
  8
0
  6
Continuous
 62
     7
370
    15
100
AcDbLine
 10
63.5201589758
 20
161.9965681333
 30
0.0
 11
63.5201589758
 21
166.9965681333
 31
0.0
  0
LINE
  5
B0
330
1F
100
AcDbEntity
  8
0
  6
Continuous
 62
     7
370
    15
100
AcDbLine
 10
62.8201589758
 20
161.9965681333
 30
0.0
 11
63.5201589758
 21
161.9965681333
 31
0.0
  0
LINE
  5
B1
330
1F
100
AcDbEntity
  8
0
  6
Continuous
 62
     7
370
    15
100
AcDbLine
 10
62.8201589758
 20
159.4965681333
 30
0.0
 11
62.8201589758
 21
161.9965681333
 31
0.0
  0
LINE
  5
B2
330
1F
100
AcDbEntity
  8
0
  6
Continuous
 62
     7
370
    15
100
AcDbLine
 10
62.8201589758
 20
159.4965681333
 30
0.0
 11
62.4201589758
 21
159.4965681333
 31
0.0
  0
ARC
  5
B3
330
1F
100
AcDbEntity
  8
0
  6
Continuous
 62
     7
370
    15
100
AcDbCircle
 10
62.4201589758
 20
157.4965681333
 30
0.0
 40
2.0
100
AcDbArc
 50
90.0
 51
180.0
  0
LINE
  5
B4
330
1F
100
AcDbEntity
  8
0
  6
Continuous
 62
     7
370
    15
100
AcDbLine
 10
60.4201589758
 20
157.4965681333
 30
0.0
 11
60.4201589758
 21
132.4965681333
 31
0.0
  0
ARC
  5
B5
330
1F
100
AcDbEntity
  8
0
  6
Continuous
 62
     7
370
    15
100
AcDbCircle
 10
62.4201589758
 20
132.4965681333
 30
0.0
 40
2.0
100
AcDbArc
 50
180.0
 51
270.0
  0
LINE
  5
B6
330
1F
100
AcDbEntity
  8
0
  6
Continuous
 62
     7
370
    15
100
AcDbLine
 10
62.4201589758
 20
130.4965681333
 30
0.0
 11
62.8201589758
 21
130.4965681333
 31
0.0
  0
LINE
  5
B7
330
1F
100
AcDbEntity
  8
0
  6
Continuous
 62
     7
370
    15
100
AcDbLine
 10
63.5201589758
 20
127.9965681333
 30
0.0
 11
62.8201589758
 21
127.9965681333
 31
0.0
  0
LINE
  5
B8
330
1F
100
AcDbEntity
  8
0
  6
Continuous
 62
     7
370
    15
100
AcDbLine
 10
63.5201589758
 20
127.9965681333
 30
0.0
 11
63.5201589758
 21
122.9965681333
 31
0.0
  0
ARC
  5
B9
330
1F
100
AcDbEntity
  8
0
  6
Continuous
 62
     7
370
    15
100
AcDbCircle
 10
66.5201589758
 20
122.9965681333
 30
0.0
 40
3.0
100
AcDbArc
 50
180.0
 51
109.4712206345
  0
LINE
  5
BA
330
1F
100
AcDbEntity
  8
0
  6
Continuous
 62
     7
370
    15
100
AcDbLine
 10
65.5201589758
 20
125.824995258
 30
0.0
 11
65.5201589758
 21
127.9965681333
 31
0.0
  0
LINE
  5
BB
330
1F
100
AcDbEntity
  8
0
  6
Continuous
 62
     7
370
    15
100
AcDbLine
 10
65.5201589758
 20
127.9965681333
 30
0.0
 11
64.2201589758
 21
127.9965681333
 31
0.0
  0
LINE
  5
BC
330
1F
100
AcDbEntity
  8
0
  6
Continuous
 62
     7
370
    15
100
AcDbLine
 10
64.2201589758
 20
129.9965681333
 30
0.0
 11
64.2201589758
 21
127.9965681333
 31
0.0
  0
LINE
  5
BD
330
1F
100
AcDbEntity
  8
0
  6
Continuous
 62
     7
370
    15
100
AcDbLine
 10
65.2201589758
 20
130.9965681333
 30
0.0
 11
64.2201589758
 21
129.9965681333
 31
0.0
  0
LINE
  5
BE
330
1F
100
AcDbEntity
  8
0
  6
Continuous
 62
     7
370
    15
100
AcDbLine
 10
69.8201589758
 20
130.9965681333
 30
0.0
 11
65.2201589758
 21
130.9965681333
 31
0.0
  0
ARC
  5
BF
330
1F
100
AcDbEntity
  8
0
  6
Continuous
 62
     7
370
    15
100
AcDbCircle
 10
69.8201589758
 20
129.9965681333
 30
0.0
 40
1.0
100
AcDbArc
 50
0.0
 51
90.0
  0
LINE
  5
C0
330
1F
100
AcDbEntity
  8
0
  6
Continuous
 62
     7
370
    15
100
AcDbLine
 10
70.8201589758
 20
127.9965681333
 30
0.0
 11
70.8201589758
 21
129.9965681333
 31
0.0
  0
LINE
  5
C1
330
1F
100
AcDbEntity
  8
0
  6
Continuous
 62
     7
370
    15
100
AcDbLine
 10
80.8680884468
 20
127.9965681333
 30
0.0
 11
70.8201589758
 21
127.9965681333
 31
0.0
  0
ARC
  5
C2
330
1F
100
AcDbEntity
  8
0
  6
Continuous
 62
     7
370
    15
100
AcDbCircle
 10
7.8201589758
 20
144.9965681333
 30
0.0
 40
75.00000000000001
100
AcDbArc
 50
345.3251502571
 51
346.8990964657
  0
ARC
  5
C3
330
1F
100
AcDbEntity
  8
0
  6
Continuous
 62
     7
370
    15
100
AcDbCircle
 10
67.4176181738
 20
129.3894252761
 30
0.0
 40
13.39285714285715
100
AcDbArc
 50
270.0
 51
345.3251502571
  0
LINE
  5
C4
330
1F
100
AcDbEntity
  8
0
  6
Continuous
 62
     7
370
    15
100
AcDbLine
 10
67.4176181738
 20
115.9965681333
 30
0.0
 11
57.9201589758
 21
115.9965681333
 31
0.0
  0
LINE
  5
C5
330
1F
100
AcDbEntity
  8
0
  6
Continuous
 62
     7
370
    15
100
AcDbLine
 10
57.9201589758
 20
115.9965681333
 30
0.0
 11
57.9201589758
 21
138.9965681333
 31
0.0
  0
ARC
  5
C6
330
1F
100
AcDbEntity
  8
0
  6
Continuous
 62
     7
370
    15
100
AcDbCircle
 10
53.9201589758
 20
138.9965681333
 30
0.0
 40
4.0
100
AcDbArc
 50
0.0
 51
90.0
  0
LINE
  5
C7
330
1F
100
AcDbEntity
  8
0
  6
Continuous
 62
     7
370
    15
100
AcDbLine
 10
53.9201589758
 20
142.9965681333
 30
0.0
 11
51.7201589758
 21
142.9965681333
 31
0.0
  0
ARC
  5
C8
330
1F
100
AcDbEntity
  8
0
  6
Continuous
 62
     7
370
    15
100
AcDbCircle
 10
51.7201589758
 20
138.9965681333
 30
0.0
 40
4.0
100
AcDbArc
 50
90.0
 51
180.0
  0
LINE
  5
C9
330
1F
100
AcDbEntity
  8
0
  6
Continuous
 62
     7
370
    15
100
AcDbLine
 10
47.7201589758
 20
138.9965681333
 30
0.0
 11
47.7201589758
 21
115.9965681333
 31
0.0
  0
LINE
  5
CA
330
1F
100
AcDbEntity
  8
0
  6
Continuous
 62
     7
370
    15
100
AcDbLine
 10
47.7201589758
 20
115.9965681333
 30
0.0
 11
27.8201589758
 21
115.9965681333
 31
0.0
  0
ARC
  5
CB
330
1F
100
AcDbEntity
  8
0
  6
Continuous
 62
     7
370
    15
100
AcDbCircle
 10
27.8201589758
 20
151.9745665115
 30
0.0
 40
35.9779983782167
100
AcDbArc
 50
232.0985423199
 51
270.0
  0
ARC
  5
CC
330
1F
100
AcDbEntity
  8
0
  6
Continuous
 62
     7
370
    15
100
AcDbCircle
 10
7.5616006053
 20
125.9526682375
 30
0.0
 40
3.000000000000018
100
AcDbArc
 50
190.4495962881
 51
232.0985423199
  0
ARC
  5
CD
330
1F
100
AcDbEntity
  8
0
  6
Continuous
 62
     7
370
    15
100
AcDbCircle
 10
110.8201589758
 20
144.9965681333
 30
0.0
 40
108.0
100
AcDbArc
 50
169.5504037119
 51
190.4495962881
  0
LINE
  5
CE
330
1F
100
AcDbEntity
  8
0
  6
Continuous
 62
     7
370
    15
100
AcDbLine
 10
19.7201589758
 20
120.4965681333
 30
0.0
 11
19.7201589758
 21
128.9965681333
 31
0.0
  0
ARC
  5
CF
330
1F
100
AcDbEntity
  8
0
  6
Continuous
 62
     7
370
    15
100
AcDbCircle
 10
20.7201589758
 20
120.4965681333
 30
0.0
 40
1.000000000000014
100
AcDbArc
 50
180.0
 51
270.0
  0
LINE
  5
D0
330
1F
100
AcDbEntity
  8
0
  6
Continuous
 62
     7
370
    15
100
AcDbLine
 10
42.9201589758
 20
119.4965681333
 30
0.0
 11
20.7201589758
 21
119.4965681333
 31
0.0
  0
ARC
  5
D1
330
1F
100
AcDbEntity
  8
0
  6
Continuous
 62
     7
370
    15
100
AcDbCircle
 10
42.9201589758
 20
120.4965681333
 30
0.0
 40
1.000000000000014
100
AcDbArc
 50
270.0
 51
0.0
  0
LINE
  5
D2
330
1F
100
AcDbEntity
  8
0
  6
Continuous
 62
     7
370
    15
100
AcDbLine
 10
43.9201589758
 20
169.4965681333
 30
0.0
 11
43.9201589758
 21
120.4965681333
 31
0.0
  0
ARC
  5
D3
330
1F
100
AcDbEntity
  8
0
  6
Continuous
 62
     7
370
    15
100
AcDbCircle
 10
42.9201589758
 20
169.4965681333
 30
0.0
 40
1.0
100
AcDbArc
 50
0.0
 51
90.0
  0
LINE
  5
D4
330
1F
100
AcDbEntity
  8
0
  6
Continuous
 62
     7
370
    15
100
AcDbLine
 10
20.7201589758
 20
170.4965681333
 30
0.0
 11
42.9201589758
 21
170.4965681333
 31
0.0
  0
ARC
  5
D5
330
1F
100
AcDbEntity
  8
0
  6
Continuous
 62
     7
370
    15
100
AcDbCircle
 10
20.7201589758
 20
169.4965681333
 30
0.0
 40
1.0
100
AcDbArc
 50
90.0
 51
180.0
  0
LINE
  5
D6
330
1F
100
AcDbEntity
  8
0
  6
Continuous
 62
     7
370
    15
100
AcDbLine
 10
9.6519821612
 20
160.9965681333
 30
0.0
 11
19.7201589758
 21
160.9965681333
 31
0.0
  0
ARC
  5
D7
330
1F
100
AcDbEntity
  8
0
  6
Continuous
 62
     7
370
    15
100
AcDbCircle
 10
9.6519821612
 20
157.9965681333
 30
0.0
 40
2.999999999999999
100
AcDbArc
 50
90.0
 51
172.6776810668
  0
ARC
  5
D8
330
1F
100
AcDbEntity
  8
0
  6
Continuous
 62
     7
370
    15
100
AcDbCircle
 10
110.8201589758
 20
144.9965681333
 30
0.0
 40
105.0
100
AcDbArc
 50
172.6776810668
 51
187.3223189332
  0
ARC
  5
D9
330
1F
100
AcDbEntity
  8
0
  6
Continuous
 62
     7
370
    15
100
AcDbCircle
 10
9.6519821612
 20
131.9965681333
 30
0.0
 40
2.999999999999999
100
AcDbArc
 50
187.3223189332
 51
270.0
  0
LINE
  5
DA
330
1F
100
AcDbEntity
  8
0
  6
Continuous
 62
     7
370
    15
100
AcDbLine
 10
19.7201589758
 20
128.9965681333
 30
0.0
 11
9.6519821612
 21
128.9965681333
 31
0.0
  0
CIRCLE
  5
DB
330
1F
100
AcDbEntity
  8
0
  6
Continuous
 62
     7
370
    15
100
AcDbCircle
 10
16.3201589758
 20
164.9965681333
 30
0.0
 40
1.599999999999998
  0
CIRCLE
  5
DC
330
1F
100
AcDbEntity
  8
0
  6
Continuous
 62
     7
370
    15
100
AcDbCircle
 10
16.3201589758
 20
124.9965681333
 30
0.0
 40
1.599999999999998
  0
CIRCLE
  5
DD
330
1F
100
AcDbEntity
  8
0
  6
Continuous
 62
     7
370
    15
100
AcDbCircle
 10
47.8201589758
 20
144.9965681333
 30
0.0
 40
1.600000000000009
  0
CIRCLE
  5
DE
330
1F
100
AcDbEntity
  8
0
  6
Continuous
 62
     7
370
    15
100
AcDbCircle
 10
60.8201589758
 20
166.9965681333
 30
0.0
 40
1.600000000000001
  0
CIRCLE
  5
DF
330
1F
100
AcDbEntity
  8
0
  6
Continuous
 62
     7
370
    15
100
AcDbCircle
 10
60.8201589758
 20
122.9965681333
 30
0.0
 40
1.599999999999994
  0
ARC
  5
E0
330
1F
100
AcDbEntity
  8
0
  6
Continuous
 62
     7
370
    15
100
AcDbCircle
 10
53.9201589758
 20
150.9965681333
 30
0.0
 40
4.0
100
AcDbArc
 50
270.0
 51
0.0
  0
LINE
  5
E1
330
1F
100
AcDbEntity
  8
0
  6
Continuous
 62
     7
370
    15
100
AcDbLine
 10
62.8201589758
 20
127.9965681333
 30
0.0
 11
62.8201589758
 21
130.4965681333
 31
0.0
  0
LINE
  5
E2
330
1F
100
AcDbEntity
  8
0
  6
Continuous
 62
     7
370
    15
100
AcDbLine
 10
19.7201589758
 20
160.9965681333
 30
0.0
 11
19.7201589758
 21
169.4965681333
 31
0.0
  0
ARC
  5
E3
330
1F
100
AcDbEntity
  8
0
  6
Continuous
 62
     7
370
    15
100
AcDbCircle
 10
7.8201589758
 20
144.9965681333
 30
0.0
 40
75.0
100
AcDbArc
 50
13.1009035343
 51
14.6748497429
  0
LINE
  5
E4
330
1F
100
AcDbEntity
  8
AM_BOR
100
AcDbLine
 10
1.4012692586
 20
114.0016305586
 30
0.0
 11
161.4012692586
 21
114.0016305586
 31
0.0
  0
LINE
  5
E5
330
1F
100
AcDbEntity
  8
AM_BOR
100
AcDbLine
 10
161.4012692586
 20
114.0016305586
 30
0.0
 11
161.4012692586
 21
294.0016305586
 31
0.0
  0
DIMENSION
  5
E6
330
1F
100
AcDbEntity
  8
AM_BOR
100
AcDbDimension
  2
*D2
 10
161.4012692586
 20
97.7978130361
 30
0.0
 11
132.2062782031
 21
97.7978130361
 31
0.0
 70
   160
 71
     2
 42
-1.0
  3
SLDDIMSTYLE0
100
AcDbAlignedDimension
 13
1.4012692586
 23
114.0016305586
 33
0.0
 14
161.4012692586
 24
114.0016305586
 34
0.0
100
AcDbRotatedDimension
  0
DIMENSION
  5
11B
330
1F
100
AcDbEntity
  8
AM_BOR
100
AcDbDimension
  2
*D3
 10
171.4012692586
 20
294.0016305586
 30
0.0
 11
171.4012692586
 21
204.0016305586
 31
0.0
 70
   160
 71
     2
 42
-1.0
  3
SLDDIMSTYLE0
100
AcDbAlignedDimension
 13
161.4012692586
 23
114.0016305586
 33
0.0
 14
161.4012692586
 24
294.0016305586
 34
0.0
 50
90.0
100
AcDbRotatedDimension
  0
MTEXT
  5
126
330
1F
100
AcDbEntity
  8
AM_BOR
100
AcDbMText
 10
5.1722377805
 20
83.6586661387
 30
0.0
 40
3.5
 41
0.0
 71
     1
 72
     1
  1
Laser cut V3. Wheel size 27mm x 2.9mm bore
  7
SLDTEXTSTYLE0
 73
     1
 44
1.0
  0
ARC
  5
127
330
1F
100
AcDbEntity
  8
0
  6
Continuous
 62
     7
370
    15
100
AcDbCircle
 10
86.1043896477
 20
164.040468029
 30
0.0
 40
3.000000000000004
100
AcDbArc
 50
127.9014576801
 51
169.5504037119
  0
ARC
  5
128
330
1F
100
AcDbEntity
  8
0
  6
Continuous
 62
     7
370
    15
100
AcDbCircle
 10
106.3629480182
 20
138.018569755
 30
0.0
 40
35.97799837821668
100
AcDbArc
 50
90.0
 51
127.9014576801
  0
LINE
  5
129
330
1F
100
AcDbEntity
  8
0
  6
Continuous
 62
     7
370
    15
100
AcDbLine
 10
106.3629480182
 20
173.9965681333
 30
0.0
 11
126.2629480182
 21
173.9965681333
 31
0.0
  0
LINE
  5
12A
330
1F
100
AcDbEntity
  8
0
  6
Continuous
 62
     7
370
    15
100
AcDbLine
 10
126.2629480182
 20
173.9965681333
 30
0.0
 11
126.2629480182
 21
150.9965681333
 31
0.0
  0
ARC
  5
12B
330
1F
100
AcDbEntity
  8
0
  6
Continuous
 62
     7
370
    15
100
AcDbCircle
 10
130.2629480182
 20
150.9965681333
 30
0.0
 40
4.0
100
AcDbArc
 50
180.0
 51
270.0
  0
LINE
  5
12C
330
1F
100
AcDbEntity
  8
0
  6
Continuous
 62
     7
370
    15
100
AcDbLine
 10
130.2629480182
 20
146.9965681333
 30
0.0
 11
132.4629480182
 21
146.9965681333
 31
0.0
  0
LINE
  5
12D
330
1F
100
AcDbEntity
  8
0
  6
Continuous
 62
     7
370
    15
100
AcDbLine
 10
136.4629480182
 20
150.9965681333
 30
0.0
 11
136.4629480182
 21
173.9965681333
 31
0.0
  0
LINE
  5
12E
330
1F
100
AcDbEntity
  8
0
  6
Continuous
 62
     7
370
    15
100
AcDbLine
 10
136.4629480182
 20
173.9965681333
 30
0.0
 11
145.9604072162
 21
173.9965681333
 31
0.0
  0
ARC
  5
12F
330
1F
100
AcDbEntity
  8
0
  6
Continuous
 62
     7
370
    15
100
AcDbCircle
 10
145.9604072162
 20
160.6037109904
 30
0.0
 40
13.39285714285716
100
AcDbArc
 50
14.6748497429
 51
90.0
  0
LINE
  5
130
330
1F
100
AcDbEntity
  8
0
  6
Continuous
 62
     7
370
    15
100
AcDbLine
 10
149.3629480182
 20
161.9965681333
 30
0.0
 11
159.4108774892
 21
161.9965681333
 31
0.0
  0
LINE
  5
131
330
1F
100
AcDbEntity
  8
0
  6
Continuous
 62
     7
370
    15
100
AcDbLine
 10
149.3629480182
 20
159.9965681333
 30
0.0
 11
149.3629480182
 21
161.9965681333
 31
0.0
  0
ARC
  5
132
330
1F
100
AcDbEntity
  8
0
  6
Continuous
 62
     7
370
    15
100
AcDbCircle
 10
148.3629480182
 20
159.9965681333
 30
0.0
 40
1.0
100
AcDbArc
 50
270.0
 51
0.0
  0
LINE
  5
133
330
1F
100
AcDbEntity
  8
0
  6
Continuous
 62
     7
370
    15
100
AcDbLine
 10
143.7629480182
 20
158.9965681333
 30
0.0
 11
148.3629480182
 21
158.9965681333
 31
0.0
  0
LINE
  5
134
330
1F
100
AcDbEntity
  8
0
  6
Continuous
 62
     7
370
    15
100
AcDbLine
 10
142.7629480182
 20
159.9965681333
 30
0.0
 11
143.7629480182
 21
158.9965681333
 31
0.0
  0
LINE
  5
135
330
1F
100
AcDbEntity
  8
0
  6
Continuous
 62
     7
370
    15
100
AcDbLine
 10
142.7629480182
 20
161.9965681333
 30
0.0
 11
142.7629480182
 21
159.9965681333
 31
0.0
  0
LINE
  5
136
330
1F
100
AcDbEntity
  8
0
  6
Continuous
 62
     7
370
    15
100
AcDbLine
 10
144.0629480182
 20
161.9965681333
 30
0.0
 11
142.7629480182
 21
161.9965681333
 31
0.0
  0
LINE
  5
137
330
1F
100
AcDbEntity
  8
0
  6
Continuous
 62
     7
370
    15
100
AcDbLine
 10
144.0629480182
 20
164.1681410085
 30
0.0
 11
144.0629480182
 21
161.9965681333
 31
0.0
  0
ARC
  5
138
330
1F
100
AcDbEntity
  8
0
  6
Continuous
 62
     7
370
    15
100
AcDbCircle
 10
145.0629480182
 20
166.9965681333
 30
0.0
 40
3.0
100
AcDbArc
 50
250.5287793655
 51
180.0
  0
LINE
  5
139
330
1F
100
AcDbEntity
  8
0
  6
Continuous
 62
     7
370
    15
100
AcDbLine
 10
142.0629480182
 20
161.9965681333
 30
0.0
 11
142.0629480182
 21
166.9965681333
 31
0.0
  0
LINE
  5
13A
330
1F
100
AcDbEntity
  8
0
  6
Continuous
 62
     7
370
    15
100
AcDbLine
 10
141.3629480182
 20
161.9965681333
 30
0.0
 11
142.0629480182
 21
161.9965681333
 31
0.0
  0
LINE
  5
13B
330
1F
100
AcDbEntity
  8
0
  6
Continuous
 62
     7
370
    15
100
AcDbLine
 10
141.3629480182
 20
159.4965681333
 30
0.0
 11
141.3629480182
 21
161.9965681333
 31
0.0
  0
LINE
  5
13C
330
1F
100
AcDbEntity
  8
0
  6
Continuous
 62
     7
370
    15
100
AcDbLine
 10
141.3629480182
 20
159.4965681333
 30
0.0
 11
140.9629480182
 21
159.4965681333
 31
0.0
  0
ARC
  5
13D
330
1F
100
AcDbEntity
  8
0
  6
Continuous
 62
     7
370
    15
100
AcDbCircle
 10
140.9629480182
 20
157.4965681333
 30
0.0
 40
2.0
100
AcDbArc
 50
90.0
 51
180.0
  0
LINE
  5
13E
330
1F
100
AcDbEntity
  8
0
  6
Continuous
 62
     7
370
    15
100
AcDbLine
 10
138.9629480182
 20
157.4965681333
 30
0.0
 11
138.9629480182
 21
132.4965681333
 31
0.0
  0
ARC
  5
13F
330
1F
100
AcDbEntity
  8
0
  6
Continuous
 62
     7
370
    15
100
AcDbCircle
 10
140.9629480182
 20
132.4965681333
 30
0.0
 40
2.0
100
AcDbArc
 50
180.0
 51
270.0
  0
LINE
  5
140
330
1F
100
AcDbEntity
  8
0
  6
Continuous
 62
     7
370
    15
100
AcDbLine
 10
140.9629480182
 20
130.4965681333
 30
0.0
 11
141.3629480182
 21
130.4965681333
 31
0.0
  0
LINE
  5
141
330
1F
100
AcDbEntity
  8
0
  6
Continuous
 62
     7
370
    15
100
AcDbLine
 10
142.0629480182
 20
127.9965681333
 30
0.0
 11
141.3629480182
 21
127.9965681333
 31
0.0
  0
LINE
  5
142
330
1F
100
AcDbEntity
  8
0
  6
Continuous
 62
     7
370
    15
100
AcDbLine
 10
142.0629480182
 20
127.9965681333
 30
0.0
 11
142.0629480182
 21
122.9965681333
 31
0.0
  0
ARC
  5
143
330
1F
100
AcDbEntity
  8
0
  6
Continuous
 62
     7
370
    15
100
AcDbCircle
 10
145.0629480182
 20
122.9965681333
 30
0.0
 40
3.0
100
AcDbArc
 50
180.0
 51
109.4712206345
  0
LINE
  5
144
330
1F
100
AcDbEntity
  8
0
  6
Continuous
 62
     7
370
    15
100
AcDbLine
 10
144.0629480182
 20
125.824995258
 30
0.0
 11
144.0629480182
 21
127.9965681333
 31
0.0
  0
LINE
  5
145
330
1F
100
AcDbEntity
  8
0
  6
Continuous
 62
     7
370
    15
100
AcDbLine
 10
144.0629480182
 20
127.9965681333
 30
0.0
 11
142.7629480182
 21
127.9965681333
 31
0.0
  0
LINE
  5
146
330
1F
100
AcDbEntity
  8
0
  6
Continuous
 62
     7
370
    15
100
AcDbLine
 10
142.7629480182
 20
129.9965681333
 30
0.0
 11
142.7629480182
 21
127.9965681333
 31
0.0
  0
LINE
  5
147
330
1F
100
AcDbEntity
  8
0
  6
Continuous
 62
     7
370
    15
100
AcDbLine
 10
143.7629480182
 20
130.9965681333
 30
0.0
 11
142.7629480182
 21
129.9965681333
 31
0.0
  0
LINE
  5
148
330
1F
100
AcDbEntity
  8
0
  6
Continuous
 62
     7
370
    15
100
AcDbLine
 10
148.3629480182
 20
130.9965681333
 30
0.0
 11
143.7629480182
 21
130.9965681333
 31
0.0
  0
ARC
  5
149
330
1F
100
AcDbEntity
  8
0
  6
Continuous
 62
     7
370
    15
100
AcDbCircle
 10
148.3629480182
 20
129.9965681333
 30
0.0
 40
1.0
100
AcDbArc
 50
0.0
 51
90.0
  0
LINE
  5
14A
330
1F
100
AcDbEntity
  8
0
  6
Continuous
 62
     7
370
    15
100
AcDbLine
 10
149.3629480182
 20
127.9965681333
 30
0.0
 11
149.3629480182
 21
129.9965681333
 31
0.0
  0
LINE
  5
14B
330
1F
100
AcDbEntity
  8
0
  6
Continuous
 62
     7
370
    15
100
AcDbLine
 10
159.4108774892
 20
127.9965681333
 30
0.0
 11
149.3629480182
 21
127.9965681333
 31
0.0
  0
ARC
  5
14C
330
1F
100
AcDbEntity
  8
0
  6
Continuous
 62
     7
370
    15
100
AcDbCircle
 10
86.3629480182
 20
144.9965681333
 30
0.0
 40
75.00000000000001
100
AcDbArc
 50
345.3251502571
 51
346.8990964657
  0
ARC
  5
14D
330
1F
100
AcDbEntity
  8
0
  6
Continuous
 62
     7
370
    15
100
AcDbCircle
 10
145.9604072162
 20
129.3894252761
 30
0.0
 40
13.39285714285716
100
AcDbArc
 50
270.0
 51
345.3251502571
  0
LINE
  5
14E
330
1F
100
AcDbEntity
  8
0
  6
Continuous
 62
     7
370
    15
100
AcDbLine
 10
145.9604072162
 20
115.9965681333
 30
0.0
 11
136.4629480182
 21
115.9965681333
 31
0.0
  0
LINE
  5
14F
330
1F
100
AcDbEntity
  8
0
  6
Continuous
 62
     7
370
    15
100
AcDbLine
 10
136.4629480182
 20
115.9965681333
 30
0.0
 11
136.4629480182
 21
138.9965681333
 31
0.0
  0
ARC
  5
150
330
1F
100
AcDbEntity
  8
0
  6
Continuous
 62
     7
370
    15
100
AcDbCircle
 10
132.4629480182
 20
138.9965681333
 30
0.0
 40
4.0
100
AcDbArc
 50
0.0
 51
90.0
  0
LINE
  5
151
330
1F
100
AcDbEntity
  8
0
  6
Continuous
 62
     7
370
    15
100
AcDbLine
 10
132.4629480182
 20
142.9965681333
 30
0.0
 11
130.2629480182
 21
142.9965681333
 31
0.0
  0
ARC
  5
152
330
1F
100
AcDbEntity
  8
0
  6
Continuous
 62
     7
370
    15
100
AcDbCircle
 10
130.2629480182
 20
138.9965681333
 30
0.0
 40
4.0
100
AcDbArc
 50
90.0
 51
180.0
  0
LINE
  5
153
330
1F
100
AcDbEntity
  8
0
  6
Continuous
 62
     7
370
    15
100
AcDbLine
 10
126.2629480182
 20
138.9965681333
 30
0.0
 11
126.2629480182
 21
115.9965681333
 31
0.0
  0
LINE
  5
154
330
1F
100
AcDbEntity
  8
0
  6
Continuous
 62
     7
370
    15
100
AcDbLine
 10
126.2629480182
 20
115.9965681333
 30
0.0
 11
106.3629480182
 21
115.9965681333
 31
0.0
  0
ARC
  5
155
330
1F
100
AcDbEntity
  8
0
  6
Continuous
 62
     7
370
    15
100
AcDbCircle
 10
106.3629480182
 20
151.9745665115
 30
0.0
 40
35.9779983782167
100
AcDbArc
 50
232.0985423199
 51
270.0
  0
ARC
  5
156
330
1F
100
AcDbEntity
  8
0
  6
Continuous
 62
     7
370
    15
100
AcDbCircle
 10
86.1043896477
 20
125.9526682375
 30
0.0
 40
3.000000000000018
100
AcDbArc
 50
190.4495962881
 51
232.0985423199
  0
ARC
  5
157
330
1F
100
AcDbEntity
  8
0
  6
Continuous
 62
     7
370
    15
100
AcDbCircle
 10
189.3629480182
 20
144.9965681333
 30
0.0
 40
108.0000000000001
100
AcDbArc
 50
169.5504037119
 51
190.4495962881
  0
LINE
  5
158
330
1F
100
AcDbEntity
  8
0
  6
Continuous
 62
     7
370
    15
100
AcDbLine
 10
98.2629480182
 20
120.4965681333
 30
0.0
 11
98.2629480182
 21
128.9965681333
 31
0.0
  0
ARC
  5
159
330
1F
100
AcDbEntity
  8
0
  6
Continuous
 62
     7
370
    15
100
AcDbCircle
 10
99.2629480182
 20
120.4965681333
 30
0.0
 40
1.000000000000014
100
AcDbArc
 50
180.0
 51
270.0
  0
LINE
  5
15A
330
1F
100
AcDbEntity
  8
0
  6
Continuous
 62
     7
370
    15
100
AcDbLine
 10
121.4629480182
 20
119.4965681333
 30
0.0
 11
99.2629480182
 21
119.4965681333
 31
0.0
  0
ARC
  5
15B
330
1F
100
AcDbEntity
  8
0
  6
Continuous
 62
     7
370
    15
100
AcDbCircle
 10
121.4629480182
 20
120.4965681333
 30
0.0
 40
1.000000000000014
100
AcDbArc
 50
270.0
 51
0.0
  0
LINE
  5
15C
330
1F
100
AcDbEntity
  8
0
  6
Continuous
 62
     7
370
    15
100
AcDbLine
 10
122.4629480182
 20
169.4965681333
 30
0.0
 11
122.4629480182
 21
120.4965681333
 31
0.0
  0
ARC
  5
15D
330
1F
100
AcDbEntity
  8
0
  6
Continuous
 62
     7
370
    15
100
AcDbCircle
 10
121.4629480182
 20
169.4965681333
 30
0.0
 40
1.0
100
AcDbArc
 50
0.0
 51
90.0
  0
LINE
  5
15E
330
1F
100
AcDbEntity
  8
0
  6
Continuous
 62
     7
370
    15
100
AcDbLine
 10
99.2629480182
 20
170.4965681333
 30
0.0
 11
121.4629480182
 21
170.4965681333
 31
0.0
  0
ARC
  5
15F
330
1F
100
AcDbEntity
  8
0
  6
Continuous
 62
     7
370
    15
100
AcDbCircle
 10
99.2629480182
 20
169.4965681333
 30
0.0
 40
1.0
100
AcDbArc
 50
90.0
 51
180.0
  0
LINE
  5
160
330
1F
100
AcDbEntity
  8
0
  6
Continuous
 62
     7
370
    15
100
AcDbLine
 10
88.1947712035
 20
160.9965681333
 30
0.0
 11
98.2629480182
 21
160.9965681333
 31
0.0
  0
ARC
  5
161
330
1F
100
AcDbEntity
  8
0
  6
Continuous
 62
     7
370
    15
100
AcDbCircle
 10
88.1947712035
 20
157.9965681333
 30
0.0
 40
2.999999999999998
100
AcDbArc
 50
90.0
 51
172.6776810668
  0
ARC
  5
162
330
1F
100
AcDbEntity
  8
0
  6
Continuous
 62
     7
370
    15
100
AcDbCircle
 10
189.3629480182
 20
144.9965681333
 30
0.0
 40
105.0
100
AcDbArc
 50
172.6776810668
 51
187.3223189332
  0
ARC
  5
163
330
1F
100
AcDbEntity
  8
0
  6
Continuous
 62
     7
370
    15
100
AcDbCircle
 10
88.1947712035
 20
131.9965681333
 30
0.0
 40
2.999999999999998
100
AcDbArc
 50
187.3223189332
 51
270.0
  0
LINE
  5
164
330
1F
100
AcDbEntity
  8
0
  6
Continuous
 62
     7
370
    15
100
AcDbLine
 10
98.2629480182
 20
128.9965681333
 30
0.0
 11
88.1947712035
 21
128.9965681333
 31
0.0
  0
CIRCLE
  5
165
330
1F
100
AcDbEntity
  8
0
  6
Continuous
 62
     7
370
    15
100
AcDbCircle
 10
94.8629480182
 20
164.9965681333
 30
0.0
 40
1.599999999999994
  0
CIRCLE
  5
166
330
1F
100
AcDbEntity
  8
0
  6
Continuous
 62
     7
370
    15
100
AcDbCircle
 10
94.8629480182
 20
124.9965681333
 30
0.0
 40
1.599999999999994
  0
CIRCLE
  5
167
330
1F
100
AcDbEntity
  8
0
  6
Continuous
 62
     7
370
    15
100
AcDbCircle
 10
126.3629480182
 20
144.9965681333
 30
0.0
 40
1.599999999999994
  0
CIRCLE
  5
168
330
1F
100
AcDbEntity
  8
0
  6
Continuous
 62
     7
370
    15
100
AcDbCircle
 10
139.3629480182
 20
166.9965681333
 30
0.0
 40
1.599999999999994
  0
CIRCLE
  5
169
330
1F
100
AcDbEntity
  8
0
  6
Continuous
 62
     7
370
    15
100
AcDbCircle
 10
139.3629480182
 20
122.9965681333
 30
0.0
 40
1.599999999999994
  0
ARC
  5
16A
330
1F
100
AcDbEntity
  8
0
  6
Continuous
 62
     7
370
    15
100
AcDbCircle
 10
132.4629480182
 20
150.9965681333
 30
0.0
 40
4.0
100
AcDbArc
 50
270.0
 51
0.0
  0
LINE
  5
16B
330
1F
100
AcDbEntity
  8
0
  6
Continuous
 62
     7
370
    15
100
AcDbLine
 10
141.3629480182
 20
127.9965681333
 30
0.0
 11
141.3629480182
 21
130.4965681333
 31
0.0
  0
LINE
  5
16C
330
1F
100
AcDbEntity
  8
0
  6
Continuous
 62
     7
370
    15
100
AcDbLine
 10
98.2629480182
 20
160.9965681333
 30
0.0
 11
98.2629480182
 21
169.4965681333
 31
0.0
  0
ARC
  5
16D
330
1F
100
AcDbEntity
  8
0
  6
Continuous
 62
     7
370
    15
100
AcDbCircle
 10
86.3629480182
 20
144.9965681333
 30
0.0
 40
75.0
100
AcDbArc
 50
13.1009035343
 51
14.6748497429
  0
ARC
  5
16E
330
1F
100
AcDbEntity
  8
0
  6
Continuous
 62
     7
370
    15
100
AcDbCircle
 10
86.1043896477
 20
224.5537957185
 30
0.0
 40
3.000000000000009
100
AcDbArc
 50
127.9014576801
 51
169.5504037119
  0
ARC
  5
16F
330
1F
100
AcDbEntity
  8
0
  6
Continuous
 62
     7
370
    15
100
AcDbCircle
 10
106.3629480182
 20
198.5318974445
 30
0.0
 40
35.97799837821671
100
AcDbArc
 50
90.0
 51
127.9014576801
  0
LINE
  5
170
330
1F
100
AcDbEntity
  8
0
  6
Continuous
 62
     7
370
    15
100
AcDbLine
 10
106.3629480182
 20
234.5098958227
 30
0.0
 11
126.2629480182
 21
234.5098958227
 31
0.0
  0
LINE
  5
171
330
1F
100
AcDbEntity
  8
0
  6
Continuous
 62
     7
370
    15
100
AcDbLine
 10
126.2629480182
 20
234.5098958227
 30
0.0
 11
126.2629480182
 21
211.5098958227
 31
0.0
  0
ARC
  5
172
330
1F
100
AcDbEntity
  8
0
  6
Continuous
 62
     7
370
    15
100
AcDbCircle
 10
130.2629480182
 20
211.5098958227
 30
0.0
 40
4.0
100
AcDbArc
 50
180.0
 51
270.0
  0
LINE
  5
173
330
1F
100
AcDbEntity
  8
0
  6
Continuous
 62
     7
370
    15
100
AcDbLine
 10
130.2629480182
 20
207.5098958227
 30
0.0
 11
132.4629480182
 21
207.5098958227
 31
0.0
  0
LINE
  5
174
330
1F
100
AcDbEntity
  8
0
  6
Continuous
 62
     7
370
    15
100
AcDbLine
 10
136.4629480182
 20
211.5098958227
 30
0.0
 11
136.4629480182
 21
234.5098958227
 31
0.0
  0
LINE
  5
175
330
1F
100
AcDbEntity
  8
0
  6
Continuous
 62
     7
370
    15
100
AcDbLine
 10
136.4629480182
 20
234.5098958227
 30
0.0
 11
145.9604072162
 21
234.5098958227
 31
0.0
  0
ARC
  5
176
330
1F
100
AcDbEntity
  8
0
  6
Continuous
 62
     7
370
    15
100
AcDbCircle
 10
145.9604072162
 20
221.1170386799
 30
0.0
 40
13.39285714285717
100
AcDbArc
 50
14.6748497429
 51
90.0
  0
LINE
  5
177
330
1F
100
AcDbEntity
  8
0
  6
Continuous
 62
     7
370
    15
100
AcDbLine
 10
149.3629480182
 20
222.5098958227
 30
0.0
 11
159.4108774892
 21
222.5098958227
 31
0.0
  0
LINE
  5
178
330
1F
100
AcDbEntity
  8
0
  6
Continuous
 62
     7
370
    15
100
AcDbLine
 10
149.3629480182
 20
220.5098958227
 30
0.0
 11
149.3629480182
 21
222.5098958227
 31
0.0
  0
ARC
  5
179
330
1F
100
AcDbEntity
  8
0
  6
Continuous
 62
     7
370
    15
100
AcDbCircle
 10
148.3629480182
 20
220.5098958227
 30
0.0
 40
1.0
100
AcDbArc
 50
270.0
 51
0.0
  0
LINE
  5
17A
330
1F
100
AcDbEntity
  8
0
  6
Continuous
 62
     7
370
    15
100
AcDbLine
 10
143.7629480182
 20
219.5098958227
 30
0.0
 11
148.3629480182
 21
219.5098958227
 31
0.0
  0
LINE
  5
17B
330
1F
100
AcDbEntity
  8
0
  6
Continuous
 62
     7
370
    15
100
AcDbLine
 10
142.7629480182
 20
220.5098958227
 30
0.0
 11
143.7629480182
 21
219.5098958227
 31
0.0
  0
LINE
  5
17C
330
1F
100
AcDbEntity
  8
0
  6
Continuous
 62
     7
370
    15
100
AcDbLine
 10
142.7629480182
 20
222.5098958227
 30
0.0
 11
142.7629480182
 21
220.5098958227
 31
0.0
  0
LINE
  5
17D
330
1F
100
AcDbEntity
  8
0
  6
Continuous
 62
     7
370
    15
100
AcDbLine
 10
144.0629480182
 20
222.5098958227
 30
0.0
 11
142.7629480182
 21
222.5098958227
 31
0.0
  0
LINE
  5
17E
330
1F
100
AcDbEntity
  8
0
  6
Continuous
 62
     7
370
    15
100
AcDbLine
 10
144.0629480182
 20
224.681468698
 30
0.0
 11
144.0629480182
 21
222.5098958227
 31
0.0
  0
ARC
  5
17F
330
1F
100
AcDbEntity
  8
0
  6
Continuous
 62
     7
370
    15
100
AcDbCircle
 10
145.0629480182
 20
227.5098958227
 30
0.0
 40
3.0
100
AcDbArc
 50
250.5287793655
 51
180.0
  0
LINE
  5
180
330
1F
100
AcDbEntity
  8
0
  6
Continuous
 62
     7
370
    15
100
AcDbLine
 10
142.0629480182
 20
222.5098958227
 30
0.0
 11
142.0629480182
 21
227.5098958227
 31
0.0
  0
LINE
  5
181
330
1F
100
AcDbEntity
  8
0
  6
Continuous
 62
     7
370
    15
100
AcDbLine
 10
141.3629480182
 20
222.5098958227
 30
0.0
 11
142.0629480182
 21
222.5098958227
 31
0.0
  0
LINE
  5
182
330
1F
100
AcDbEntity
  8
0
  6
Continuous
 62
     7
370
    15
100
AcDbLine
 10
141.3629480182
 20
220.0098958227
 30
0.0
 11
141.3629480182
 21
222.5098958227
 31
0.0
  0
LINE
  5
183
330
1F
100
AcDbEntity
  8
0
  6
Continuous
 62
     7
370
    15
100
AcDbLine
 10
141.3629480182
 20
220.0098958227
 30
0.0
 11
140.9629480182
 21
220.0098958227
 31
0.0
  0
ARC
  5
184
330
1F
100
AcDbEntity
  8
0
  6
Continuous
 62
     7
370
    15
100
AcDbCircle
 10
140.9629480182
 20
218.0098958227
 30
0.0
 40
2.0
100
AcDbArc
 50
90.0
 51
180.0
  0
LINE
  5
185
330
1F
100
AcDbEntity
  8
0
  6
Continuous
 62
     7
370
    15
100
AcDbLine
 10
138.9629480182
 20
218.0098958227
 30
0.0
 11
138.9629480182
 21
193.0098958227
 31
0.0
  0
ARC
  5
186
330
1F
100
AcDbEntity
  8
0
  6
Continuous
 62
     7
370
    15
100
AcDbCircle
 10
140.9629480182
 20
193.0098958227
 30
0.0
 40
2.0
100
AcDbArc
 50
180.0
 51
270.0
  0
LINE
  5
187
330
1F
100
AcDbEntity
  8
0
  6
Continuous
 62
     7
370
    15
100
AcDbLine
 10
140.9629480182
 20
191.0098958227
 30
0.0
 11
141.3629480182
 21
191.0098958227
 31
0.0
  0
LINE
  5
188
330
1F
100
AcDbEntity
  8
0
  6
Continuous
 62
     7
370
    15
100
AcDbLine
 10
142.0629480182
 20
188.5098958227
 30
0.0
 11
141.3629480182
 21
188.5098958227
 31
0.0
  0
LINE
  5
189
330
1F
100
AcDbEntity
  8
0
  6
Continuous
 62
     7
370
    15
100
AcDbLine
 10
142.0629480182
 20
188.5098958227
 30
0.0
 11
142.0629480182
 21
183.5098958227
 31
0.0
  0
ARC
  5
18A
330
1F
100
AcDbEntity
  8
0
  6
Continuous
 62
     7
370
    15
100
AcDbCircle
 10
145.0629480182
 20
183.5098958227
 30
0.0
 40
3.0
100
AcDbArc
 50
180.0
 51
109.4712206345
  0
LINE
  5
18B
330
1F
100
AcDbEntity
  8
0
  6
Continuous
 62
     7
370
    15
100
AcDbLine
 10
144.0629480182
 20
186.3383229475
 30
0.0
 11
144.0629480182
 21
188.5098958227
 31
0.0
  0
LINE
  5
18C
330
1F
100
AcDbEntity
  8
0
  6
Continuous
 62
     7
370
    15
100
AcDbLine
 10
144.0629480182
 20
188.5098958227
 30
0.0
 11
142.7629480182
 21
188.5098958227
 31
0.0
  0
LINE
  5
18D
330
1F
100
AcDbEntity
  8
0
  6
Continuous
 62
     7
370
    15
100
AcDbLine
 10
142.7629480182
 20
190.5098958227
 30
0.0
 11
142.7629480182
 21
188.5098958227
 31
0.0
  0
LINE
  5
18E
330
1F
100
AcDbEntity
  8
0
  6
Continuous
 62
     7
370
    15
100
AcDbLine
 10
143.7629480182
 20
191.5098958227
 30
0.0
 11
142.7629480182
 21
190.5098958227
 31
0.0
  0
LINE
  5
18F
330
1F
100
AcDbEntity
  8
0
  6
Continuous
 62
     7
370
    15
100
AcDbLine
 10
148.3629480182
 20
191.5098958227
 30
0.0
 11
143.7629480182
 21
191.5098958227
 31
0.0
  0
ARC
  5
190
330
1F
100
AcDbEntity
  8
0
  6
Continuous
 62
     7
370
    15
100
AcDbCircle
 10
148.3629480182
 20
190.5098958227
 30
0.0
 40
1.0
100
AcDbArc
 50
0.0
 51
90.0
  0
LINE
  5
191
330
1F
100
AcDbEntity
  8
0
  6
Continuous
 62
     7
370
    15
100
AcDbLine
 10
149.3629480182
 20
188.5098958227
 30
0.0
 11
149.3629480182
 21
190.5098958227
 31
0.0
  0
LINE
  5
192
330
1F
100
AcDbEntity
  8
0
  6
Continuous
 62
     7
370
    15
100
AcDbLine
 10
159.4108774892
 20
188.5098958227
 30
0.0
 11
149.3629480182
 21
188.5098958227
 31
0.0
  0
ARC
  5
193
330
1F
100
AcDbEntity
  8
0
  6
Continuous
 62
     7
370
    15
100
AcDbCircle
 10
86.3629480182
 20
205.5098958227
 30
0.0
 40
75.00000000000001
100
AcDbArc
 50
345.3251502571
 51
346.8990964657
  0
ARC
  5
194
330
1F
100
AcDbEntity
  8
0
  6
Continuous
 62
     7
370
    15
100
AcDbCircle
 10
145.9604072162
 20
189.9027529656
 30
0.0
 40
13.39285714285716
100
AcDbArc
 50
270.0
 51
345.3251502571
  0
LINE
  5
195
330
1F
100
AcDbEntity
  8
0
  6
Continuous
 62
     7
370
    15
100
AcDbLine
 10
145.9604072162
 20
176.5098958227
 30
0.0
 11
136.4629480182
 21
176.5098958227
 31
0.0
  0
LINE
  5
196
330
1F
100
AcDbEntity
  8
0
  6
Continuous
 62
     7
370
    15
100
AcDbLine
 10
136.4629480182
 20
176.5098958227
 30
0.0
 11
136.4629480182
 21
199.5098958227
 31
0.0
  0
ARC
  5
197
330
1F
100
AcDbEntity
  8
0
  6
Continuous
 62
     7
370
    15
100
AcDbCircle
 10
132.4629480182
 20
199.5098958227
 30
0.0
 40
4.0
100
AcDbArc
 50
0.0
 51
90.0
  0
LINE
  5
198
330
1F
100
AcDbEntity
  8
0
  6
Continuous
 62
     7
370
    15
100
AcDbLine
 10
132.4629480182
 20
203.5098958227
 30
0.0
 11
130.2629480182
 21
203.5098958227
 31
0.0
  0
ARC
  5
199
330
1F
100
AcDbEntity
  8
0
  6
Continuous
 62
     7
370
    15
100
AcDbCircle
 10
130.2629480182
 20
199.5098958227
 30
0.0
 40
4.0
100
AcDbArc
 50
90.0
 51
180.0
  0
LINE
  5
19A
330
1F
100
AcDbEntity
  8
0
  6
Continuous
 62
     7
370
    15
100
AcDbLine
 10
126.2629480182
 20
199.5098958227
 30
0.0
 11
126.2629480182
 21
176.5098958227
 31
0.0
  0
LINE
  5
19B
330
1F
100
AcDbEntity
  8
0
  6
Continuous
 62
     7
370
    15
100
AcDbLine
 10
126.2629480182
 20
176.5098958227
 30
0.0
 11
106.3629480182
 21
176.5098958227
 31
0.0
  0
ARC
  5
19C
330
1F
100
AcDbEntity
  8
0
  6
Continuous
 62
     7
370
    15
100
AcDbCircle
 10
106.3629480182
 20
212.4878942009
 30
0.0
 40
35.97799837821668
100
AcDbArc
 50
232.0985423199
 51
270.0
  0
ARC
  5
19D
330
1F
100
AcDbEntity
  8
0
  6
Continuous
 62
     7
370
    15
100
AcDbCircle
 10
86.1043896477
 20
186.465995927
 30
0.0
 40
3.000000000000018
100
AcDbArc
 50
190.4495962881
 51
232.0985423199
  0
ARC
  5
19E
330
1F
100
AcDbEntity
  8
0
  6
Continuous
 62
     7
370
    15
100
AcDbCircle
 10
189.3629480182
 20
205.5098958227
 30
0.0
 40
108.0000000000001
100
AcDbArc
 50
169.5504037119
 51
190.4495962881
  0
LINE
  5
19F
330
1F
100
AcDbEntity
  8
0
  6
Continuous
 62
     7
370
    15
100
AcDbLine
 10
98.2629480182
 20
181.0098958227
 30
0.0
 11
98.2629480182
 21
189.5098958227
 31
0.0
  0
ARC
  5
1A0
330
1F
100
AcDbEntity
  8
0
  6
Continuous
 62
     7
370
    15
100
AcDbCircle
 10
99.2629480182
 20
181.0098958227
 30
0.0
 40
1.0
100
AcDbArc
 50
180.0
 51
270.0
  0
LINE
  5
1A1
330
1F
100
AcDbEntity
  8
0
  6
Continuous
 62
     7
370
    15
100
AcDbLine
 10
121.4629480182
 20
180.0098958227
 30
0.0
 11
99.2629480182
 21
180.0098958227
 31
0.0
  0
ARC
  5
1A2
330
1F
100
AcDbEntity
  8
0
  6
Continuous
 62
     7
370
    15
100
AcDbCircle
 10
121.4629480182
 20
181.0098958227
 30
0.0
 40
1.0
100
AcDbArc
 50
270.0
 51
0.0
  0
LINE
  5
1A3
330
1F
100
AcDbEntity
  8
0
  6
Continuous
 62
     7
370
    15
100
AcDbLine
 10
122.4629480182
 20
230.0098958227
 30
0.0
 11
122.4629480182
 21
181.0098958227
 31
0.0
  0
ARC
  5
1A4
330
1F
100
AcDbEntity
  8
0
  6
Continuous
 62
     7
370
    15
100
AcDbCircle
 10
121.4629480182
 20
230.0098958227
 30
0.0
 40
1.0
100
AcDbArc
 50
0.0
 51
90.0
  0
LINE
  5
1A5
330
1F
100
AcDbEntity
  8
0
  6
Continuous
 62
     7
370
    15
100
AcDbLine
 10
99.2629480182
 20
231.0098958227
 30
0.0
 11
121.4629480182
 21
231.0098958227
 31
0.0
  0
ARC
  5
1A6
330
1F
100
AcDbEntity
  8
0
  6
Continuous
 62
     7
370
    15
100
AcDbCircle
 10
99.2629480182
 20
230.0098958227
 30
0.0
 40
1.0
100
AcDbArc
 50
90.0
 51
180.0
  0
LINE
  5
1A7
330
1F
100
AcDbEntity
  8
0
  6
Continuous
 62
     7
370
    15
100
AcDbLine
 10
88.1947712035
 20
221.5098958227
 30
0.0
 11
98.2629480182
 21
221.5098958227
 31
0.0
  0
ARC
  5
1A8
330
1F
100
AcDbEntity
  8
0
  6
Continuous
 62
     7
370
    15
100
AcDbCircle
 10
88.1947712035
 20
218.5098958227
 30
0.0
 40
3.000000000000002
100
AcDbArc
 50
90.0
 51
172.6776810668
  0
ARC
  5
1A9
330
1F
100
AcDbEntity
  8
0
  6
Continuous
 62
     7
370
    15
100
AcDbCircle
 10
189.3629480182
 20
205.5098958227
 30
0.0
 40
105.0
100
AcDbArc
 50
172.6776810668
 51
187.3223189332
  0
ARC
  5
1AA
330
1F
100
AcDbEntity
  8
0
  6
Continuous
 62
     7
370
    15
100
AcDbCircle
 10
88.1947712035
 20
192.5098958227
 30
0.0
 40
2.999999999999998
100
AcDbArc
 50
187.3223189332
 51
270.0
  0
LINE
  5
1AB
330
1F
100
AcDbEntity
  8
0
  6
Continuous
 62
     7
370
    15
100
AcDbLine
 10
98.2629480182
 20
189.5098958227
 30
0.0
 11
88.1947712035
 21
189.5098958227
 31
0.0
  0
CIRCLE
  5
1AC
330
1F
100
AcDbEntity
  8
0
  6
Continuous
 62
     7
370
    15
100
AcDbCircle
 10
94.8629480182
 20
225.5098958227
 30
0.0
 40
1.599999999999994
  0
CIRCLE
  5
1AD
330
1F
100
AcDbEntity
  8
0
  6
Continuous
 62
     7
370
    15
100
AcDbCircle
 10
94.8629480182
 20
185.5098958227
 30
0.0
 40
1.599999999999994
  0
CIRCLE
  5
1AE
330
1F
100
AcDbEntity
  8
0
  6
Continuous
 62
     7
370
    15
100
AcDbCircle
 10
126.3629480182
 20
205.5098958227
 30
0.0
 40
1.599999999999994
  0
CIRCLE
  5
1AF
330
1F
100
AcDbEntity
  8
0
  6
Continuous
 62
     7
370
    15
100
AcDbCircle
 10
139.3629480182
 20
227.5098958227
 30
0.0
 40
1.599999999999994
  0
CIRCLE
  5
1B0
330
1F
100
AcDbEntity
  8
0
  6
Continuous
 62
     7
370
    15
100
AcDbCircle
 10
139.3629480182
 20
183.5098958227
 30
0.0
 40
1.599999999999994
  0
ARC
  5
1B1
330
1F
100
AcDbEntity
  8
0
  6
Continuous
 62
     7
370
    15
100
AcDbCircle
 10
132.4629480182
 20
211.5098958227
 30
0.0
 40
4.0
100
AcDbArc
 50
270.0
 51
0.0
  0
LINE
  5
1B2
330
1F
100
AcDbEntity
  8
0
  6
Continuous
 62
     7
370
    15
100
AcDbLine
 10
141.3629480182
 20
188.5098958227
 30
0.0
 11
141.3629480182
 21
191.0098958227
 31
0.0
  0
LINE
  5
1B3
330
1F
100
AcDbEntity
  8
0
  6
Continuous
 62
     7
370
    15
100
AcDbLine
 10
98.2629480182
 20
221.5098958227
 30
0.0
 11
98.2629480182
 21
230.0098958227
 31
0.0
  0
ARC
  5
1B4
330
1F
100
AcDbEntity
  8
0
  6
Continuous
 62
     7
370
    15
100
AcDbCircle
 10
86.3629480182
 20
205.5098958227
 30
0.0
 40
75.0
100
AcDbArc
 50
13.1009035343
 51
14.6748497429
  0
ARC
  5
1B5
330
1F
100
AcDbEntity
  8
0
  6
Continuous
 62
     7
370
    15
100
AcDbCircle
 10
78.7804832347
 20
257.0995920033
 30
0.0
 40
1.999999999999999
100
AcDbArc
 50
245.346802531
 51
347.5
  0
LINE
  5
1B6
330
1F
100
AcDbEntity
  8
0
  6
Continuous
 62
     7
370
    15
100
AcDbLine
 10
80.7330752489
 20
256.6667127754
 30
0.0
 11
81.6342459153
 21
260.7316309636
 31
0.0
  0
ARC
  5
1B7
330
1F
100
AcDbEntity
  8
0
  6
Continuous
 62
     7
370
    15
100
AcDbCircle
 10
79.6816539011
 20
261.1645101915
 30
0.0
 40
2.000000000000024
100
AcDbArc
 50
347.5
 51
56.1763137365
  0
ARC
  5
1B8
330
1F
100
AcDbEntity
  8
0
  6
Continuous
 62
     7
370
    15
100
AcDbCircle
 10
82.7431689492
 20
265.7336595226
 30
0.0
 40
3.5
100
AcDbArc
 50
183.8236862635
 51
236.1763137365
  0
ARC
  5
1B9
330
1F
100
AcDbEntity
  8
0
  6
Continuous
 62
     7
370
    15
100
AcDbCircle
 10
77.2554120307
 20
265.3668843824
 30
0.0
 40
2.000000000000014
100
AcDbArc
 50
3.8236862635
 51
72.5
  0
LINE
  5
1BA
330
1F
100
AcDbEntity
  8
0
  6
Continuous
 62
     7
370
    15
100
AcDbLine
 10
77.8568236297
 20
267.2743182839
 30
0.0
 11
73.8859158813
 21
268.5263406877
 31
0.0
  0
ARC
  5
1BB
330
1F
100
AcDbEntity
  8
0
  6
Continuous
 62
     7
370
    15
100
AcDbCircle
 10
73.2845042822
 20
266.6189067862
 30
0.0
 40
2.000000000000017
100
AcDbArc
 50
72.5
 51
174.653197469
  0
ARC
  5
1BC
330
1F
100
AcDbEntity
  8
0
  6
Continuous
 62
     7
370
    15
100
AcDbCircle
 10
82.7431689492
 20
265.7336595226
 30
0.0
 40
11.50000000000001
100
AcDbArc
 50
174.653197469
 51
245.346802531
  0
ARC
  5
1BD
330
1F
100
AcDbEntity
  8
0
  6
Continuous
 62
     7
370
    15
100
AcDbCircle
 10
92.2018336162
 20
266.6189067862
 30
0.0
 40
2.000000000000022
100
AcDbArc
 50
5.346802531
 51
107.5
  0
LINE
  5
1BE
330
1F
100
AcDbEntity
  8
0
  6
Continuous
 62
     7
370
    15
100
AcDbLine
 10
91.6004220172
 20
268.5263406877
 30
0.0
 11
87.6295142687
 21
267.2743182839
 31
0.0
  0
ARC
  5
1BF
330
1F
100
AcDbEntity
  8
0
  6
Continuous
 62
     7
370
    15
100
AcDbCircle
 10
88.2309258677
 20
265.3668843824
 30
0.0
 40
2.00000000000001
100
AcDbArc
 50
107.5
 51
176.1763137365
  0
ARC
  5
1C0
330
1F
100
AcDbEntity
  8
0
  6
Continuous
 62
     7
370
    15
100
AcDbCircle
 10
82.7431689492
 20
265.7336595226
 30
0.0
 40
3.500000000000003
100
AcDbArc
 50
303.8236862635
 51
356.1763137365
  0
ARC
  5
1C1
330
1F
100
AcDbEntity
  8
0
  6
Continuous
 62
     7
370
    15
100
AcDbCircle
 10
85.8046839974
 20
261.1645101915
 30
0.0
 40
2.000000000000008
100
AcDbArc
 50
123.8236862635
 51
192.5
  0
LINE
  5
1C2
330
1F
100
AcDbEntity
  8
0
  6
Continuous
 62
     7
370
    15
100
AcDbLine
 10
83.8520919831
 20
260.7316309636
 30
0.0
 11
84.7532626495
 21
256.6667127754
 31
0.0
  0
ARC
  5
1C3
330
1F
100
AcDbEntity
  8
0
  6
Continuous
 62
     7
370
    15
100
AcDbCircle
 10
86.7058546638
 20
257.0995920033
 30
0.0
 40
1.999999999999998
100
AcDbArc
 50
192.5
 51
294.653197469
  0
ARC
  5
1C4
330
1F
100
AcDbEntity
  8
0
  6
Continuous
 62
     7
370
    15
100
AcDbCircle
 10
82.7431689492
 20
265.7336595226
 30
0.0
 40
11.50000000000002
100
AcDbArc
 50
294.653197469
 51
5.346802531
  0
LINE
  5
1C5
330
1F
100
AcDbEntity
  8
0
  6
Continuous
 62
     7
370
    15
100
AcDbLine
 10
83.2431689492
 20
269.1977611377
 30
0.0
 11
83.2431689492
 21
267.0947252815
 31
0.0
  0
ARC
  5
1C6
330
1F
100
AcDbEntity
  8
0
  6
Continuous
 62
     7
370
    15
100
AcDbCircle
 10
85.1694108196
 20
270.6695839939
 30
0.0
 40
1.999999999999972
100
AcDbArc
 50
243.8236862635
 51
312.5
  0
LINE
  5
1C7
330
1F
100
AcDbEntity
  8
0
  6
Continuous
 62
     7
370
    15
100
AcDbLine
 10
86.5205912348
 20
269.1950293203
 30
0.0
 11
89.5903283169
 21
272.0079251046
 31
0.0
  0
ARC
  5
1C8
330
1F
100
AcDbEntity
  8
0
  6
Continuous
 62
     7
370
    15
100
AcDbCircle
 10
88.2391479016
 20
273.4824797783
 30
0.0
 40
2.000000000000056
100
AcDbArc
 50
312.5
 51
54.653197469
  0
ARC
  5
1C9
330
1F
100
AcDbEntity
  8
0
  6
Continuous
 62
     7
370
    15
100
AcDbCircle
 10
82.7431689492
 20
265.7336595226
 30
0.0
 40
11.50000000000002
100
AcDbArc
 50
54.653197469
 51
125.346802531
  0
ARC
  5
1CA
330
1F
100
AcDbEntity
  8
0
  6
Continuous
 62
     7
370
    15
100
AcDbCircle
 10
77.2471899968
 20
273.4824797783
 30
0.0
 40
2.000000000000066
100
AcDbArc
 50
125.346802531
 51
227.5
  0
LINE
  5
1CB
330
1F
100
AcDbEntity
  8
0
  6
Continuous
 62
     7
370
    15
100
AcDbLine
 10
75.8960095816
 20
272.0079251046
 30
0.0
 11
78.9657466636
 21
269.1950293203
 31
0.0
  0
ARC
  5
1CC
330
1F
100
AcDbEntity
  8
0
  6
Continuous
 62
     7
370
    15
100
AcDbCircle
 10
80.3169270789
 20
270.6695839939
 30
0.0
 40
1.999999999999982
100
AcDbArc
 50
227.5
 51
296.1763137365
  0
ARC
  5
1CD
330
1F
100
AcDbEntity
  8
0
  6
Continuous
 62
     7
370
    15
100
AcDbCircle
 10
82.7431689492
 20
265.7336595226
 30
0.0
 40
3.500000000000047
100
AcDbArc
 50
98.2132107017
 51
116.1763137365
  0
LINE
  5
1CE
330
1F
100
AcDbEntity
  8
0
  6
Continuous
 62
     7
370
    15
100
AcDbLine
 10
82.2431689492
 20
267.0947252815
 30
0.0
 11
82.2431689492
 21
269.1977611377
 31
0.0
  0
ARC
  5
1CF
330
1F
100
AcDbEntity
  8
0
  6
Continuous
 62
     7
370
    15
100
AcDbCircle
 10
82.7431689492
 20
265.7336595226
 30
0.0
 40
1.450000000000016
100
AcDbArc
 50
110.1712713465
 51
220.9327245742
  0
LINE
  5
1D0
330
1F
100
AcDbEntity
  8
0
  6
Continuous
 62
     7
370
    15
100
AcDbLine
 10
83.8386140642
 20
264.7836595226
 30
0.0
 11
81.6477238342
 21
264.7836595226
 31
0.0
  0
ARC
  5
1D1
330
1F
100
AcDbEntity
  8
0
  6
Continuous
 62
     7
370
    15
100
AcDbCircle
 10
82.7431689492
 20
265.7336595226
 30
0.0
 40
1.450000000000016
100
AcDbArc
 50
319.0672754258
 51
69.8287286535
  0
CIRCLE
  5
1D2
330
1F
100
AcDbEntity
  8
0
  6
Continuous
 62
     7
370
    15
100
AcDbCircle
 10
82.7431689492
 20
265.7336595226
 30
0.0
 40
13.5
  0
ARC
  5
1D3
330
1F
100
AcDbEntity
  8
0
  6
Continuous
 62
     7
370
    15
100
AcDbCircle
 10
82.7431689492
 20
265.7336595226
 30
0.0
 40
3.500000000000047
100
AcDbArc
 50
63.8236862635
 51
81.7867892983
  0
ARC
  5
1D4
330
1F
100
AcDbEntity
  8
0
  6
Continuous
 62
     7
370
    15
100
AcDbCircle
 10
23.7668129154
 20
197.9538928464
 30
0.0
 40
2.000000000000007
100
AcDbArc
 50
245.346802531
 51
347.5
  0
LINE
  5
1D5
330
1F
100
AcDbEntity
  8
0
  6
Continuous
 62
     7
370
    15
100
AcDbLine
 10
25.7194049297
 20
197.5210136185
 30
0.0
 11
26.6205755961
 21
201.5859318067
 31
0.0
  0
ARC
  5
1D6
330
1F
100
AcDbEntity
  8
0
  6
Continuous
 62
     7
370
    15
100
AcDbCircle
 10
24.6679835818
 20
202.0188110346
 30
0.0
 40
2.000000000000017
100
AcDbArc
 50
347.5
 51
56.1763137365
  0
ARC
  5
1D7
330
1F
100
AcDbEntity
  8
0
  6
Continuous
 62
     7
370
    15
100
AcDbCircle
 10
27.72949863
 20
206.5879603657
 30
0.0
 40
3.5
100
AcDbArc
 50
183.8236862635
 51
236.1763137365
  0
ARC
  5
1D8
330
1F
100
AcDbEntity
  8
0
  6
Continuous
 62
     7
370
    15
100
AcDbCircle
 10
22.2417417115
 20
206.2211852255
 30
0.0
 40
2.000000000000007
100
AcDbArc
 50
3.8236862635
 51
72.5
  0
LINE
  5
1D9
330
1F
100
AcDbEntity
  8
0
  6
Continuous
 62
     7
370
    15
100
AcDbLine
 10
22.8431533105
 20
208.1286191269
 30
0.0
 11
18.872245562
 21
209.3806415308
 31
0.0
  0
ARC
  5
1DA
330
1F
100
AcDbEntity
  8
0
  6
Continuous
 62
     7
370
    15
100
AcDbCircle
 10
18.270833963
 20
207.4732076293
 30
0.0
 40
1.999999999999997
100
AcDbArc
 50
72.5
 51
174.653197469
  0
ARC
  5
1DB
330
1F
100
AcDbEntity
  8
0
  6
Continuous
 62
     7
370
    15
100
AcDbCircle
 10
27.72949863
 20
206.5879603657
 30
0.0
 40
11.5
100
AcDbArc
 50
174.653197469
 51
245.346802531
  0
ARC
  5
1DC
330
1F
100
AcDbEntity
  8
0
  6
Continuous
 62
     7
370
    15
100
AcDbCircle
 10
37.1881632969
 20
207.4732076293
 30
0.0
 40
2.000000000000012
100
AcDbArc
 50
5.346802531
 51
107.5
  0
LINE
  5
1DD
330
1F
100
AcDbEntity
  8
0
  6
Continuous
 62
     7
370
    15
100
AcDbLine
 10
36.5867516979
 20
209.3806415308
 30
0.0
 11
32.6158439495
 21
208.1286191269
 31
0.0
  0
ARC
  5
1DE
330
1F
100
AcDbEntity
  8
0
  6
Continuous
 62
     7
370
    15
100
AcDbCircle
 10
33.2172555485
 20
206.2211852255
 30
0.0
 40
2.000000000000012
100
AcDbArc
 50
107.5
 51
176.1763137365
  0
ARC
  5
1DF
330
1F
100
AcDbEntity
  8
0
  6
Continuous
 62
     7
370
    15
100
AcDbCircle
 10
27.72949863
 20
206.5879603657
 30
0.0
 40
3.500000000000004
100
AcDbArc
 50
303.8236862635
 51
356.1763137365
  0
ARC
  5
1E0
330
1F
100
AcDbEntity
  8
0
  6
Continuous
 62
     7
370
    15
100
AcDbCircle
 10
30.7910136781
 20
202.0188110346
 30
0.0
 40
2.000000000000008
100
AcDbArc
 50
123.8236862635
 51
192.5
  0
LINE
  5
1E1
330
1F
100
AcDbEntity
  8
0
  6
Continuous
 62
     7
370
    15
100
AcDbLine
 10
28.8384216639
 20
201.5859318067
 30
0.0
 11
29.7395923303
 21
197.5210136185
 31
0.0
  0
ARC
  5
1E2
330
1F
100
AcDbEntity
  8
0
  6
Continuous
 62
     7
370
    15
100
AcDbCircle
 10
31.6921843445
 20
197.9538928464
 30
0.0
 40
2.000000000000008
100
AcDbArc
 50
192.5
 51
294.653197469
  0
ARC
  5
1E3
330
1F
100
AcDbEntity
  8
0
  6
Continuous
 62
     7
370
    15
100
AcDbCircle
 10
27.72949863
 20
206.5879603657
 30
0.0
 40
11.50000000000001
100
AcDbArc
 50
294.653197469
 51
5.346802531
  0
LINE
  5
1E4
330
1F
100
AcDbEntity
  8
0
  6
Continuous
 62
     7
370
    15
100
AcDbLine
 10
28.22949863
 20
210.0520619808
 30
0.0
 11
28.22949863
 21
207.9490261246
 31
0.0
  0
ARC
  5
1E5
330
1F
100
AcDbEntity
  8
0
  6
Continuous
 62
     7
370
    15
100
AcDbCircle
 10
30.1557405003
 20
211.523884837
 30
0.0
 40
1.999999999999996
100
AcDbArc
 50
243.8236862635
 51
312.5
  0
LINE
  5
1E6
330
1F
100
AcDbEntity
  8
0
  6
Continuous
 62
     7
370
    15
100
AcDbLine
 10
31.5069209155
 20
210.0493301634
 30
0.0
 11
34.5766579976
 21
212.8622259477
 31
0.0
  0
ARC
  5
1E7
330
1F
100
AcDbEntity
  8
0
  6
Continuous
 62
     7
370
    15
100
AcDbCircle
 10
33.2254775824
 20
214.3367806213
 30
0.0
 40
2.000000000000008
100
AcDbArc
 50
312.5
 51
54.653197469
  0
ARC
  5
1E8
330
1F
100
AcDbEntity
  8
0
  6
Continuous
 62
     7
370
    15
100
AcDbCircle
 10
27.72949863
 20
206.5879603657
 30
0.0
 40
11.5
100
AcDbArc
 50
54.653197469
 51
125.346802531
  0
ARC
  5
1E9
330
1F
100
AcDbEntity
  8
0
  6
Continuous
 62
     7
370
    15
100
AcDbCircle
 10
22.2335196775
 20
214.3367806213
 30
0.0
 40
2.000000000000011
100
AcDbArc
 50
125.346802531
 51
227.5
  0
LINE
  5
1EA
330
1F
100
AcDbEntity
  8
0
  6
Continuous
 62
     7
370
    15
100
AcDbLine
 10
20.8823392623
 20
212.8622259477
 30
0.0
 11
23.9520763444
 21
210.0493301634
 31
0.0
  0
ARC
  5
1EB
330
1F
100
AcDbEntity
  8
0
  6
Continuous
 62
     7
370
    15
100
AcDbCircle
 10
25.3032567596
 20
211.523884837
 30
0.0
 40
1.999999999999996
100
AcDbArc
 50
227.5
 51
296.1763137365
  0
ARC
  5
1EC
330
1F
100
AcDbEntity
  8
0
  6
Continuous
 62
     7
370
    15
100
AcDbCircle
 10
27.72949863
 20
206.5879603657
 30
0.0
 40
3.499999999999992
100
AcDbArc
 50
98.2132107017
 51
116.1763137365
  0
LINE
  5
1ED
330
1F
100
AcDbEntity
  8
0
  6
Continuous
 62
     7
370
    15
100
AcDbLine
 10
27.22949863
 20
207.9490261246
 30
0.0
 11
27.22949863
 21
210.0520619808
 31
0.0
  0
ARC
  5
1EE
330
1F
100
AcDbEntity
  8
0
  6
Continuous
 62
     7
370
    15
100
AcDbCircle
 10
27.72949863
 20
206.5879603657
 30
0.0
 40
1.450000000000011
100
AcDbArc
 50
110.1712713465
 51
220.9327245742
  0
LINE
  5
1EF
330
1F
100
AcDbEntity
  8
0
  6
Continuous
 62
     7
370
    15
100
AcDbLine
 10
28.824943745
 20
205.6379603657
 30
0.0
 11
26.634053515
 21
205.6379603657
 31
0.0
  0
ARC
  5
1F0
330
1F
100
AcDbEntity
  8
0
  6
Continuous
 62
     7
370
    15
100
AcDbCircle
 10
27.72949863
 20
206.5879603657
 30
0.0
 40
1.450000000000011
100
AcDbArc
 50
319.0672754258
 51
69.8287286535
  0
CIRCLE
  5
1F1
330
1F
100
AcDbEntity
  8
0
  6
Continuous
 62
     7
370
    15
100
AcDbCircle
 10
27.72949863
 20
206.5879603657
 30
0.0
 40
13.5
  0
ARC
  5
1F2
330
1F
100
AcDbEntity
  8
0
  6
Continuous
 62
     7
370
    15
100
AcDbCircle
 10
27.72949863
 20
206.5879603657
 30
0.0
 40
3.499999999999993
100
AcDbArc
 50
63.8236862635
 51
81.7867892983
  0
ARC
  5
1F3
330
1F
100
AcDbEntity
  8
0
  6
Continuous
 62
     7
370
    15
100
AcDbCircle
 10
101.9570829733
 20
198.4484823763
 30
0.0
 40
2.000000000000018
100
AcDbArc
 50
245.346802531
 51
347.5
  0
LINE
  5
1F4
330
1F
100
AcDbEntity
  8
0
  6
Continuous
 62
     7
370
    15
100
AcDbLine
 10
103.9096749876
 20
198.0156031484
 30
0.0
 11
104.810845654
 21
202.0805213366
 31
0.0
  0
ARC
  5
1F5
330
1F
100
AcDbEntity
  8
0
  6
Continuous
 62
     7
370
    15
100
AcDbCircle
 10
102.8582536397
 20
202.5134005645
 30
0.0
 40
2.000000000000016
100
AcDbArc
 50
347.5
 51
56.1763137365
  0
ARC
  5
1F6
330
1F
100
AcDbEntity
  8
0
  6
Continuous
 62
     7
370
    15
100
AcDbCircle
 10
105.9197686879
 20
207.0825498956
 30
0.0
 40
3.5
100
AcDbArc
 50
183.8236862635
 51
236.1763137365
  0
ARC
  5
1F7
330
1F
100
AcDbEntity
  8
0
  6
Continuous
 62
     7
370
    15
100
AcDbCircle
 10
100.4320117694
 20
206.7157747554
 30
0.0
 40
2.000000000000032
100
AcDbArc
 50
3.8236862635
 51
72.5
  0
LINE
  5
1F8
330
1F
100
AcDbEntity
  8
0
  6
Continuous
 62
     7
370
    15
100
AcDbLine
 10
101.0334233684
 20
208.6232086569
 30
0.0
 11
97.0625156199
 21
209.8752310607
 31
0.0
  0
ARC
  5
1F9
330
1F
100
AcDbEntity
  8
0
  6
Continuous
 62
     7
370
    15
100
AcDbCircle
 10
96.4611040209
 20
207.9677971592
 30
0.0
 40
2.000000000000005
100
AcDbArc
 50
72.5
 51
174.653197469
  0
ARC
  5
1FA
330
1F
100
AcDbEntity
  8
0
  6
Continuous
 62
     7
370
    15
100
AcDbCircle
 10
105.9197686879
 20
207.0825498956
 30
0.0
 40
11.5
100
AcDbArc
 50
174.653197469
 51
245.346802531
  0
ARC
  5
1FB
330
1F
100
AcDbEntity
  8
0
  6
Continuous
 62
     7
370
    15
100
AcDbCircle
 10
115.3784333548
 20
207.9677971592
 30
0.0
 40
2.000000000000003
100
AcDbArc
 50
5.346802531
 51
107.5
  0
LINE
  5
1FC
330
1F
100
AcDbEntity
  8
0
  6
Continuous
 62
     7
370
    15
100
AcDbLine
 10
114.7770217558
 20
209.8752310607
 30
0.0
 11
110.8061140074
 21
208.6232086569
 31
0.0
  0
ARC
  5
1FD
330
1F
100
AcDbEntity
  8
0
  6
Continuous
 62
     7
370
    15
100
AcDbCircle
 10
111.4075256064
 20
206.7157747554
 30
0.0
 40
1.999999999999998
100
AcDbArc
 50
107.5
 51
176.1763137365
  0
ARC
  5
1FE
330
1F
100
AcDbEntity
  8
0
  6
Continuous
 62
     7
370
    15
100
AcDbCircle
 10
105.9197686879
 20
207.0825498956
 30
0.0
 40
3.500000000000005
100
AcDbArc
 50
303.8236862635
 51
356.1763137365
  0
ARC
  5
1FF
330
1F
100
AcDbEntity
  8
0
  6
Continuous
 62
     7
370
    15
100
AcDbCircle
 10
108.981283736
 20
202.5134005645
 30
0.0
 40
2.000000000000008
100
AcDbArc
 50
123.8236862635
 51
192.5
  0
LINE
  5
200
330
1F
100
AcDbEntity
  8
0
  6
Continuous
 62
     7
370
    15
100
AcDbLine
 10
107.0286917218
 20
202.0805213366
 30
0.0
 11
107.9298623882
 21
198.0156031484
 31
0.0
  0
ARC
  5
201
330
1F
100
AcDbEntity
  8
0
  6
Continuous
 62
     7
370
    15
100
AcDbCircle
 10
109.8824544024
 20
198.4484823763
 30
0.0
 40
2.000000000000036
100
AcDbArc
 50
192.5
 51
294.653197469
  0
ARC
  5
202
330
1F
100
AcDbEntity
  8
0
  6
Continuous
 62
     7
370
    15
100
AcDbCircle
 10
105.9197686879
 20
207.0825498956
 30
0.0
 40
11.50000000000001
100
AcDbArc
 50
294.653197469
 51
5.346802531
  0
LINE
  5
203
330
1F
100
AcDbEntity
  8
0
  6
Continuous
 62
     7
370
    15
100
AcDbLine
 10
106.4197686879
 20
210.5466515107
 30
0.0
 11
106.4197686879
 21
208.4436156545
 31
0.0
  0
ARC
  5
204
330
1F
100
AcDbEntity
  8
0
  6
Continuous
 62
     7
370
    15
100
AcDbCircle
 10
108.3460105582
 20
212.0184743669
 30
0.0
 40
2.000000000000024
100
AcDbArc
 50
243.8236862635
 51
312.5
  0
LINE
  5
205
330
1F
100
AcDbEntity
  8
0
  6
Continuous
 62
     7
370
    15
100
AcDbLine
 10
109.6971909734
 20
210.5439196933
 30
0.0
 11
112.7669280555
 21
213.3568154776
 31
0.0
  0
ARC
  5
206
330
1F
100
AcDbEntity
  8
0
  6
Continuous
 62
     7
370
    15
100
AcDbCircle
 10
111.4157476403
 20
214.8313701512
 30
0.0
 40
2.000000000000024
100
AcDbArc
 50
312.5
 51
54.653197469
  0
ARC
  5
207
330
1F
100
AcDbEntity
  8
0
  6
Continuous
 62
     7
370
    15
100
AcDbCircle
 10
105.9197686879
 20
207.0825498956
 30
0.0
 40
11.49999999999999
100
AcDbArc
 50
54.653197469
 51
125.346802531
  0
ARC
  5
208
330
1F
100
AcDbEntity
  8
0
  6
Continuous
 62
     7
370
    15
100
AcDbCircle
 10
100.4237897355
 20
214.8313701512
 30
0.0
 40
2.000000000000014
100
AcDbArc
 50
125.346802531
 51
227.5
  0
LINE
  5
209
330
1F
100
AcDbEntity
  8
0
  6
Continuous
 62
     7
370
    15
100
AcDbLine
 10
99.0726093202
 20
213.3568154776
 30
0.0
 11
102.1423464023
 21
210.5439196933
 31
0.0
  0
ARC
  5
20A
330
1F
100
AcDbEntity
  8
0
  6
Continuous
 62
     7
370
    15
100
AcDbCircle
 10
103.4935268175
 20
212.0184743669
 30
0.0
 40
2.000000000000015
100
AcDbArc
 50
227.5
 51
296.1763137365
  0
ARC
  5
20B
330
1F
100
AcDbEntity
  8
0
  6
Continuous
 62
     7
370
    15
100
AcDbCircle
 10
105.9197686879
 20
207.0825498956
 30
0.0
 40
3.499999999999996
100
AcDbArc
 50
98.2132107017
 51
116.1763137365
  0
LINE
  5
20C
330
1F
100
AcDbEntity
  8
0
  6
Continuous
 62
     7
370
    15
100
AcDbLine
 10
105.4197686879
 20
208.4436156545
 30
0.0
 11
105.4197686879
 21
210.5466515107
 31
0.0
  0
ARC
  5
20D
330
1F
100
AcDbEntity
  8
0
  6
Continuous
 62
     7
370
    15
100
AcDbCircle
 10
105.9197686879
 20
207.0825498956
 30
0.0
 40
1.450000000000014
100
AcDbArc
 50
110.1712713465
 51
220.9327245742
  0
LINE
  5
20E
330
1F
100
AcDbEntity
  8
0
  6
Continuous
 62
     7
370
    15
100
AcDbLine
 10
107.0152138029
 20
206.1325498956
 30
0.0
 11
104.8243235729
 21
206.1325498956
 31
0.0
  0
ARC
  5
20F
330
1F
100
AcDbEntity
  8
0
  6
Continuous
 62
     7
370
    15
100
AcDbCircle
 10
105.9197686879
 20
207.0825498956
 30
0.0
 40
1.450000000000014
100
AcDbArc
 50
319.0672754258
 51
69.8287286535
  0
CIRCLE
  5
210
330
1F
100
AcDbEntity
  8
0
  6
Continuous
 62
     7
370
    15
100
AcDbCircle
 10
105.9197686879
 20
207.0825498956
 30
0.0
 40
13.5
  0
ARC
  5
211
330
1F
100
AcDbEntity
  8
0
  6
Continuous
 62
     7
370
    15
100
AcDbCircle
 10
105.9197686879
 20
207.0825498956
 30
0.0
 40
3.499999999999996
100
AcDbArc
 50
63.8236862635
 51
81.7867892983
  0
ARC
  5
212
330
1F
100
AcDbEntity
  8
0
  6
Continuous
 62
     7
370
    15
100
AcDbCircle
 10
22.9322037156
 20
136.9905392857
 30
0.0
 40
2.000000000000022
100
AcDbArc
 50
245.346802531
 51
347.5
  0
LINE
  5
213
330
1F
100
AcDbEntity
  8
0
  6
Continuous
 62
     7
370
    15
100
AcDbLine
 10
24.8847957299
 20
136.5576600578
 30
0.0
 11
25.7859663963
 21
140.622578246
 31
0.0
  0
ARC
  5
214
330
1F
100
AcDbEntity
  8
0
  6
Continuous
 62
     7
370
    15
100
AcDbCircle
 10
23.833374382
 20
141.0554574739
 30
0.0
 40
2.000000000000017
100
AcDbArc
 50
347.5
 51
56.1763137365
  0
ARC
  5
215
330
1F
100
AcDbEntity
  8
0
  6
Continuous
 62
     7
370
    15
100
AcDbCircle
 10
26.8948894302
 20
145.624606805
 30
0.0
 40
3.500000000000002
100
AcDbArc
 50
183.8236862635
 51
236.1763137365
  0
ARC
  5
216
330
1F
100
AcDbEntity
  8
0
  6
Continuous
 62
     7
370
    15
100
AcDbCircle
 10
21.4071325117
 20
145.2578316648
 30
0.0
 40
2.000000000000005
100
AcDbArc
 50
3.8236862635
 51
72.5
  0
LINE
  5
217
330
1F
100
AcDbEntity
  8
0
  6
Continuous
 62
     7
370
    15
100
AcDbLine
 10
22.0085441107
 20
147.1652655663
 30
0.0
 11
18.0376363622
 21
148.4172879701
 31
0.0
  0
ARC
  5
218
330
1F
100
AcDbEntity
  8
0
  6
Continuous
 62
     7
370
    15
100
AcDbCircle
 10
17.4362247632
 20
146.5098540686
 30
0.0
 40
2.000000000000005
100
AcDbArc
 50
72.5
 51
174.653197469
  0
ARC
  5
219
330
1F
100
AcDbEntity
  8
0
  6
Continuous
 62
     7
370
    15
100
AcDbCircle
 10
26.8948894302
 20
145.624606805
 30
0.0
 40
11.5
100
AcDbArc
 50
174.653197469
 51
245.346802531
  0
ARC
  5
21A
330
1F
100
AcDbEntity
  8
0
  6
Continuous
 62
     7
370
    15
100
AcDbCircle
 10
36.3535540972
 20
146.5098540686
 30
0.0
 40
1.999999999999996
100
AcDbArc
 50
5.346802531
 51
107.5
  0
LINE
  5
21B
330
1F
100
AcDbEntity
  8
0
  6
Continuous
 62
     7
370
    15
100
AcDbLine
 10
35.7521424982
 20
148.4172879701
 30
0.0
 11
31.7812347497
 21
147.1652655663
 31
0.0
  0
ARC
  5
21C
330
1F
100
AcDbEntity
  8
0
  6
Continuous
 62
     7
370
    15
100
AcDbCircle
 10
32.3826463487
 20
145.2578316648
 30
0.0
 40
1.999999999999998
100
AcDbArc
 50
107.5
 51
176.1763137365
  0
ARC
  5
21D
330
1F
100
AcDbEntity
  8
0
  6
Continuous
 62
     7
370
    15
100
AcDbCircle
 10
26.8948894302
 20
145.624606805
 30
0.0
 40
3.500000000000001
100
AcDbArc
 50
303.8236862635
 51
356.1763137365
  0
ARC
  5
21E
330
1F
100
AcDbEntity
  8
0
  6
Continuous
 62
     7
370
    15
100
AcDbCircle
 10
29.9564044784
 20
141.0554574739
 30
0.0
 40
2.000000000000005
100
AcDbArc
 50
123.8236862635
 51
192.5
  0
LINE
  5
21F
330
1F
100
AcDbEntity
  8
0
  6
Continuous
 62
     7
370
    15
100
AcDbLine
 10
28.0038124641
 20
140.622578246
 30
0.0
 11
28.9049831305
 21
136.5576600578
 31
0.0
  0
ARC
  5
220
330
1F
100
AcDbEntity
  8
0
  6
Continuous
 62
     7
370
    15
100
AcDbCircle
 10
30.8575751448
 20
136.9905392857
 30
0.0
 40
2.000000000000032
100
AcDbArc
 50
192.5
 51
294.653197469
  0
ARC
  5
221
330
1F
100
AcDbEntity
  8
0
  6
Continuous
 62
     7
370
    15
100
AcDbCircle
 10
26.8948894302
 20
145.624606805
 30
0.0
 40
11.50000000000001
100
AcDbArc
 50
294.653197469
 51
5.346802531
  0
LINE
  5
222
330
1F
100
AcDbEntity
  8
0
  6
Continuous
 62
     7
370
    15
100
AcDbLine
 10
27.3948894302
 20
149.0887084201
 30
0.0
 11
27.3948894302
 21
146.9856725639
 31
0.0
  0
ARC
  5
223
330
1F
100
AcDbEntity
  8
0
  6
Continuous
 62
     7
370
    15
100
AcDbCircle
 10
29.3211313005
 20
150.5605312763
 30
0.0
 40
2.000000000000016
100
AcDbArc
 50
243.8236862635
 51
312.5
  0
LINE
  5
224
330
1F
100
AcDbEntity
  8
0
  6
Continuous
 62
     7
370
    15
100
AcDbLine
 10
30.6723117158
 20
149.0859766027
 30
0.0
 11
33.7420487978
 21
151.898872387
 31
0.0
  0
ARC
  5
225
330
1F
100
AcDbEntity
  8
0
  6
Continuous
 62
     7
370
    15
100
AcDbCircle
 10
32.3908683826
 20
153.3734270607
 30
0.0
 40
2.000000000000014
100
AcDbArc
 50
312.5
 51
54.653197469
  0
ARC
  5
226
330
1F
100
AcDbEntity
  8
0
  6
Continuous
 62
     7
370
    15
100
AcDbCircle
 10
26.8948894302
 20
145.624606805
 30
0.0
 40
11.49999999999999
100
AcDbArc
 50
54.653197469
 51
125.346802531
  0
ARC
  5
227
330
1F
100
AcDbEntity
  8
0
  6
Continuous
 62
     7
370
    15
100
AcDbCircle
 10
21.3989104778
 20
153.3734270607
 30
0.0
 40
2.000000000000019
100
AcDbArc
 50
125.346802531
 51
227.5
  0
LINE
  5
228
330
1F
100
AcDbEntity
  8
0
  6
Continuous
 62
     7
370
    15
100
AcDbLine
 10
20.0477300626
 20
151.898872387
 30
0.0
 11
23.1174671446
 21
149.0859766027
 31
0.0
  0
ARC
  5
229
330
1F
100
AcDbEntity
  8
0
  6
Continuous
 62
     7
370
    15
100
AcDbCircle
 10
24.4686475599
 20
150.5605312763
 30
0.0
 40
2.000000000000019
100
AcDbArc
 50
227.5
 51
296.1763137365
  0
ARC
  5
22A
330
1F
100
AcDbEntity
  8
0
  6
Continuous
 62
     7
370
    15
100
AcDbCircle
 10
26.8948894302
 20
145.624606805
 30
0.0
 40
3.499999999999993
100
AcDbArc
 50
98.2132107017
 51
116.1763137365
  0
LINE
  5
22B
330
1F
100
AcDbEntity
  8
0
  6
Continuous
 62
     7
370
    15
100
AcDbLine
 10
26.3948894302
 20
146.9856725639
 30
0.0
 11
26.3948894302
 21
149.0887084201
 31
0.0
  0
ARC
  5
22C
330
1F
100
AcDbEntity
  8
0
  6
Continuous
 62
     7
370
    15
100
AcDbCircle
 10
26.8948894302
 20
145.624606805
 30
0.0
 40
1.450000000000011
100
AcDbArc
 50
110.1712713465
 51
220.9327245742
  0
LINE
  5
22D
330
1F
100
AcDbEntity
  8
0
  6
Continuous
 62
     7
370
    15
100
AcDbLine
 10
27.9903345452
 20
144.674606805
 30
0.0
 11
25.7994443152
 21
144.674606805
 31
0.0
  0
ARC
  5
22E
330
1F
100
AcDbEntity
  8
0
  6
Continuous
 62
     7
370
    15
100
AcDbCircle
 10
26.8948894302
 20
145.624606805
 30
0.0
 40
1.450000000000011
100
AcDbArc
 50
319.0672754258
 51
69.8287286535
  0
CIRCLE
  5
22F
330
1F
100
AcDbEntity
  8
0
  6
Continuous
 62
     7
370
    15
100
AcDbCircle
 10
26.8948894302
 20
145.624606805
 30
0.0
 40
13.5
  0
ARC
  5
230
330
1F
100
AcDbEntity
  8
0
  6
Continuous
 62
     7
370
    15
100
AcDbCircle
 10
26.8948894302
 20
145.624606805
 30
0.0
 40
3.499999999999993
100
AcDbArc
 50
63.8236862635
 51
81.7867892983
  0
ARC
  5
231
330
1F
100
AcDbEntity
  8
0
  6
Continuous
 62
     7
370
    15
100
AcDbCircle
 10
114.9201927883
 20
257.637271001
 30
0.0
 40
1.999999999999998
100
AcDbArc
 50
245.346802531
 51
347.5
  0
LINE
  5
232
330
1F
100
AcDbEntity
  8
0
  6
Continuous
 62
     7
370
    15
100
AcDbLine
 10
116.8727848026
 20
257.2043917731
 30
0.0
 11
117.773955469
 21
261.2693099613
 31
0.0
  0
ARC
  5
233
330
1F
100
AcDbEntity
  8
0
  6
Continuous
 62
     7
370
    15
100
AcDbCircle
 10
115.8213634547
 20
261.7021891892
 30
0.0
 40
2.000000000000024
100
AcDbArc
 50
347.5
 51
56.1763137365
  0
ARC
  5
234
330
1F
100
AcDbEntity
  8
0
  6
Continuous
 62
     7
370
    15
100
AcDbCircle
 10
118.8828785029
 20
266.2713385203
 30
0.0
 40
3.500000000000055
100
AcDbArc
 50
183.8236862635
 51
236.1763137365
  0
ARC
  5
235
330
1F
100
AcDbEntity
  8
0
  6
Continuous
 62
     7
370
    15
100
AcDbCircle
 10
113.3951215844
 20
265.90456338
 30
0.0
 40
2.000000000000014
100
AcDbArc
 50
3.8236862635
 51
72.5
  0
LINE
  5
236
330
1F
100
AcDbEntity
  8
0
  6
Continuous
 62
     7
370
    15
100
AcDbLine
 10
113.9965331834
 20
267.8119972815
 30
0.0
 11
110.0256254349
 21
269.0640196854
 31
0.0
  0
ARC
  5
237
330
1F
100
AcDbEntity
  8
0
  6
Continuous
 62
     7
370
    15
100
AcDbCircle
 10
109.4242138359
 20
267.1565857839
 30
0.0
 40
2.000000000000012
100
AcDbArc
 50
72.5
 51
174.653197469
  0
ARC
  5
238
330
1F
100
AcDbEntity
  8
0
  6
Continuous
 62
     7
370
    15
100
AcDbCircle
 10
118.8828785029
 20
266.2713385203
 30
0.0
 40
11.50000000000001
100
AcDbArc
 50
174.653197469
 51
245.346802531
  0
ARC
  5
239
330
1F
100
AcDbEntity
  8
0
  6
Continuous
 62
     7
370
    15
100
AcDbCircle
 10
128.3415431698
 20
267.1565857839
 30
0.0
 40
2.000000000000003
100
AcDbArc
 50
5.346802531
 51
107.5
  0
LINE
  5
23A
330
1F
100
AcDbEntity
  8
0
  6
Continuous
 62
     7
370
    15
100
AcDbLine
 10
127.7401315708
 20
269.0640196854
 30
0.0
 11
123.7692238224
 21
267.8119972815
 31
0.0
  0
ARC
  5
23B
330
1F
100
AcDbEntity
  8
0
  6
Continuous
 62
     7
370
    15
100
AcDbCircle
 10
124.3706354214
 20
265.90456338
 30
0.0
 40
1.999999999999996
100
AcDbArc
 50
107.5
 51
176.1763137365
  0
ARC
  5
23C
330
1F
100
AcDbEntity
  8
0
  6
Continuous
 62
     7
370
    15
100
AcDbCircle
 10
118.8828785029
 20
266.2713385203
 30
0.0
 40
3.500000000000023
100
AcDbArc
 50
303.8236862635
 51
356.1763137365
  0
ARC
  5
23D
330
1F
100
AcDbEntity
  8
0
  6
Continuous
 62
     7
370
    15
100
AcDbCircle
 10
121.944393551
 20
261.7021891892
 30
0.0
 40
2.00000000000001
100
AcDbArc
 50
123.8236862635
 51
192.5
  0
LINE
  5
23E
330
1F
100
AcDbEntity
  8
0
  6
Continuous
 62
     7
370
    15
100
AcDbLine
 10
119.9918015368
 20
261.2693099613
 30
0.0
 11
120.8929722032
 21
257.2043917731
 31
0.0
  0
ARC
  5
23F
330
1F
100
AcDbEntity
  8
0
  6
Continuous
 62
     7
370
    15
100
AcDbCircle
 10
122.8455642174
 20
257.637271001
 30
0.0
 40
1.999999999999984
100
AcDbArc
 50
192.5
 51
294.653197469
  0
ARC
  5
240
330
1F
100
AcDbEntity
  8
0
  6
Continuous
 62
     7
370
    15
100
AcDbCircle
 10
118.8828785029
 20
266.2713385203
 30
0.0
 40
11.50000000000001
100
AcDbArc
 50
294.653197469
 51
5.346802531
  0
LINE
  5
241
330
1F
100
AcDbEntity
  8
0
  6
Continuous
 62
     7
370
    15
100
AcDbLine
 10
119.3828785029
 20
269.7354401354
 30
0.0
 11
119.3828785029
 21
267.6324042791
 31
0.0
  0
ARC
  5
242
330
1F
100
AcDbEntity
  8
0
  6
Continuous
 62
     7
370
    15
100
AcDbCircle
 10
121.3091203732
 20
271.2072629916
 30
0.0
 40
2.000000000000015
100
AcDbArc
 50
243.8236862635
 51
312.5
  0
LINE
  5
243
330
1F
100
AcDbEntity
  8
0
  6
Continuous
 62
     7
370
    15
100
AcDbLine
 10
122.6603007884
 20
269.732708318
 30
0.0
 11
125.7300378705
 21
272.5456041023
 31
0.0
  0
ARC
  5
244
330
1F
100
AcDbEntity
  8
0
  6
Continuous
 62
     7
370
    15
100
AcDbCircle
 10
124.3788574553
 20
274.0201587759
 30
0.0
 40
2.000000000000013
100
AcDbArc
 50
312.5
 51
54.653197469
  0
ARC
  5
245
330
1F
100
AcDbEntity
  8
0
  6
Continuous
 62
     7
370
    15
100
AcDbCircle
 10
118.8828785029
 20
266.2713385203
 30
0.0
 40
11.50000000000003
100
AcDbArc
 50
54.653197469
 51
125.346802531
  0
ARC
  5
246
330
1F
100
AcDbEntity
  8
0
  6
Continuous
 62
     7
370
    15
100
AcDbCircle
 10
113.3868995504
 20
274.0201587759
 30
0.0
 40
2.000000000000014
100
AcDbArc
 50
125.346802531
 51
227.5
  0
LINE
  5
247
330
1F
100
AcDbEntity
  8
0
  6
Continuous
 62
     7
370
    15
100
AcDbLine
 10
112.0357191352
 20
272.5456041023
 30
0.0
 11
115.1054562173
 21
269.732708318
 31
0.0
  0
ARC
  5
248
330
1F
100
AcDbEntity
  8
0
  6
Continuous
 62
     7
370
    15
100
AcDbCircle
 10
116.4566366325
 20
271.2072629916
 30
0.0
 40
2.000000000000015
100
AcDbArc
 50
227.5
 51
296.1763137365
  0
ARC
  5
249
330
1F
100
AcDbEntity
  8
0
  6
Continuous
 62
     7
370
    15
100
AcDbCircle
 10
118.8828785029
 20
266.2713385203
 30
0.0
 40
3.499999999999996
100
AcDbArc
 50
98.2132107017
 51
116.1763137365
  0
LINE
  5
24A
330
1F
100
AcDbEntity
  8
0
  6
Continuous
 62
     7
370
    15
100
AcDbLine
 10
118.3828785029
 20
267.6324042791
 30
0.0
 11
118.3828785029
 21
269.7354401354
 31
0.0
  0
ARC
  5
24B
330
1F
100
AcDbEntity
  8
0
  6
Continuous
 62
     7
370
    15
100
AcDbCircle
 10
118.8828785029
 20
266.2713385203
 30
0.0
 40
1.450000000000032
100
AcDbArc
 50
110.1712713465
 51
220.9327245742
  0
LINE
  5
24C
330
1F
100
AcDbEntity
  8
0
  6
Continuous
 62
     7
370
    15
100
AcDbLine
 10
119.9783236179
 20
265.3213385203
 30
0.0
 11
117.7874333879
 21
265.3213385203
 31
0.0
  0
ARC
  5
24D
330
1F
100
AcDbEntity
  8
0
  6
Continuous
 62
     7
370
    15
100
AcDbCircle
 10
118.8828785029
 20
266.2713385203
 30
0.0
 40
1.450000000000032
100
AcDbArc
 50
319.0672754258
 51
69.8287286535
  0
CIRCLE
  5
24E
330
1F
100
AcDbEntity
  8
0
  6
Continuous
 62
     7
370
    15
100
AcDbCircle
 10
118.8828785029
 20
266.2713385203
 30
0.0
 40
13.50000000000001
  0
ARC
  5
24F
330
1F
100
AcDbEntity
  8
0
  6
Continuous
 62
     7
370
    15
100
AcDbCircle
 10
118.8828785029
 20
266.2713385203
 30
0.0
 40
3.49999999999999
100
AcDbArc
 50
63.8236862635
 51
81.7867892983
  0
ARC
  5
250
330
1F
100
AcDbEntity
  8
0
  6
Continuous
 62
     7
370
    15
100
AcDbCircle
 10
100.8454144088
 20
135.8330659437
 30
0.0
 40
2.000000000000024
100
AcDbArc
 50
245.346802531
 51
347.5
  0
LINE
  5
251
330
1F
100
AcDbEntity
  8
0
  6
Continuous
 62
     7
370
    15
100
AcDbLine
 10
102.798006423
 20
135.4001867159
 30
0.0
 11
103.6991770894
 21
139.465104904
 31
0.0
  0
ARC
  5
252
330
1F
100
AcDbEntity
  8
0
  6
Continuous
 62
     7
370
    15
100
AcDbCircle
 10
101.7465850752
 20
139.8979841319
 30
0.0
 40
2.000000000000016
100
AcDbArc
 50
347.5
 51
56.1763137365
  0
ARC
  5
253
330
1F
100
AcDbEntity
  8
0
  6
Continuous
 62
     7
370
    15
100
AcDbCircle
 10
104.8081001234
 20
144.467133463
 30
0.0
 40
3.5
100
AcDbArc
 50
183.8236862635
 51
236.1763137365
  0
ARC
  5
254
330
1F
100
AcDbEntity
  8
0
  6
Continuous
 62
     7
370
    15
100
AcDbCircle
 10
99.3203432049
 20
144.1003583228
 30
0.0
 40
2.000000000000005
100
AcDbArc
 50
3.8236862635
 51
72.5
  0
LINE
  5
255
330
1F
100
AcDbEntity
  8
0
  6
Continuous
 62
     7
370
    15
100
AcDbLine
 10
99.9217548039
 20
146.0077922243
 30
0.0
 11
95.9508470554
 21
147.2598146281
 31
0.0
  0
ARC
  5
256
330
1F
100
AcDbEntity
  8
0
  6
Continuous
 62
     7
370
    15
100
AcDbCircle
 10
95.3494354564
 20
145.3523807267
 30
0.0
 40
2.000000000000014
100
AcDbArc
 50
72.5
 51
174.653197469
  0
ARC
  5
257
330
1F
100
AcDbEntity
  8
0
  6
Continuous
 62
     7
370
    15
100
AcDbCircle
 10
104.8081001234
 20
144.467133463
 30
0.0
 40
11.5
100
AcDbArc
 50
174.653197469
 51
245.346802531
  0
ARC
  5
258
330
1F
100
AcDbEntity
  8
0
  6
Continuous
 62
     7
370
    15
100
AcDbCircle
 10
114.2667647903
 20
145.3523807267
 30
0.0
 40
2.000000000000017
100
AcDbArc
 50
5.346802531
 51
107.5
  0
LINE
  5
259
330
1F
100
AcDbEntity
  8
0
  6
Continuous
 62
     7
370
    15
100
AcDbLine
 10
113.6653531913
 20
147.2598146281
 30
0.0
 11
109.6944454428
 21
146.0077922243
 31
0.0
  0
ARC
  5
25A
330
1F
100
AcDbEntity
  8
0
  6
Continuous
 62
     7
370
    15
100
AcDbCircle
 10
110.2958570419
 20
144.1003583228
 30
0.0
 40
1.999999999999998
100
AcDbArc
 50
107.5
 51
176.1763137365
  0
ARC
  5
25B
330
1F
100
AcDbEntity
  8
0
  6
Continuous
 62
     7
370
    15
100
AcDbCircle
 10
104.8081001234
 20
144.467133463
 30
0.0
 40
3.500000000000005
100
AcDbArc
 50
303.8236862635
 51
356.1763137365
  0
ARC
  5
25C
330
1F
100
AcDbEntity
  8
0
  6
Continuous
 62
     7
370
    15
100
AcDbCircle
 10
107.8696151715
 20
139.8979841319
 30
0.0
 40
2.000000000000016
100
AcDbArc
 50
123.8236862635
 51
192.5
  0
LINE
  5
25D
330
1F
100
AcDbEntity
  8
0
  6
Continuous
 62
     7
370
    15
100
AcDbLine
 10
105.9170231573
 20
139.465104904
 30
0.0
 11
106.8181938237
 21
135.4001867159
 31
0.0
  0
ARC
  5
25E
330
1F
100
AcDbEntity
  8
0
  6
Continuous
 62
     7
370
    15
100
AcDbCircle
 10
108.7707858379
 20
135.8330659437
 30
0.0
 40
2.000000000000036
100
AcDbArc
 50
192.5
 51
294.653197469
  0
ARC
  5
25F
330
1F
100
AcDbEntity
  8
0
  6
Continuous
 62
     7
370
    15
100
AcDbCircle
 10
104.8081001234
 20
144.467133463
 30
0.0
 40
11.50000000000002
100
AcDbArc
 50
294.653197469
 51
5.346802531
  0
LINE
  5
260
330
1F
100
AcDbEntity
  8
0
  6
Continuous
 62
     7
370
    15
100
AcDbLine
 10
105.3081001234
 20
147.9312350782
 30
0.0
 11
105.3081001234
 21
145.8281992219
 31
0.0
  0
ARC
  5
261
330
1F
100
AcDbEntity
  8
0
  6
Continuous
 62
     7
370
    15
100
AcDbCircle
 10
107.2343419937
 20
149.4030579343
 30
0.0
 40
2.000000000000015
100
AcDbArc
 50
243.8236862635
 51
312.5
  0
LINE
  5
262
330
1F
100
AcDbEntity
  8
0
  6
Continuous
 62
     7
370
    15
100
AcDbLine
 10
108.5855224089
 20
147.9285032607
 30
0.0
 11
111.655259491
 21
150.7413990451
 31
0.0
  0
ARC
  5
263
330
1F
100
AcDbEntity
  8
0
  6
Continuous
 62
     7
370
    15
100
AcDbCircle
 10
110.3040790758
 20
152.2159537187
 30
0.0
 40
2.000000000000014
100
AcDbArc
 50
312.5
 51
54.653197469
  0
ARC
  5
264
330
1F
100
AcDbEntity
  8
0
  6
Continuous
 62
     7
370
    15
100
AcDbCircle
 10
104.8081001234
 20
144.467133463
 30
0.0
 40
11.5
100
AcDbArc
 50
54.653197469
 51
125.346802531
  0
ARC
  5
265
330
1F
100
AcDbEntity
  8
0
  6
Continuous
 62
     7
370
    15
100
AcDbCircle
 10
99.3121211709
 20
152.2159537187
 30
0.0
 40
2.000000000000024
100
AcDbArc
 50
125.346802531
 51
227.5
  0
LINE
  5
266
330
1F
100
AcDbEntity
  8
0
  6
Continuous
 62
     7
370
    15
100
AcDbLine
 10
97.9609407557
 20
150.7413990451
 30
0.0
 11
101.0306778378
 21
147.9285032607
 31
0.0
  0
ARC
  5
267
330
1F
100
AcDbEntity
  8
0
  6
Continuous
 62
     7
370
    15
100
AcDbCircle
 10
102.381858253
 20
149.4030579343
 30
0.0
 40
2.000000000000014
100
AcDbArc
 50
227.5
 51
296.1763137365
  0
ARC
  5
268
330
1F
100
AcDbEntity
  8
0
  6
Continuous
 62
     7
370
    15
100
AcDbCircle
 10
104.8081001234
 20
144.467133463
 30
0.0
 40
3.499999999999996
100
AcDbArc
 50
98.2132107017
 51
116.1763137365
  0
LINE
  5
269
330
1F
100
AcDbEntity
  8
0
  6
Continuous
 62
     7
370
    15
100
AcDbLine
 10
104.3081001234
 20
145.8281992219
 30
0.0
 11
104.3081001234
 21
147.9312350782
 31
0.0
  0
ARC
  5
26A
330
1F
100
AcDbEntity
  8
0
  6
Continuous
 62
     7
370
    15
100
AcDbCircle
 10
104.8081001234
 20
144.467133463
 30
0.0
 40
1.450000000000014
100
AcDbArc
 50
110.1712713465
 51
220.9327245742
  0
LINE
  5
26B
330
1F
100
AcDbEntity
  8
0
  6
Continuous
 62
     7
370
    15
100
AcDbLine
 10
105.9035452384
 20
143.517133463
 30
0.0
 11
103.7126550083
 21
143.517133463
 31
0.0
  0
ARC
  5
26C
330
1F
100
AcDbEntity
  8
0
  6
Continuous
 62
     7
370
    15
100
AcDbCircle
 10
104.8081001234
 20
144.467133463
 30
0.0
 40
1.450000000000014
100
AcDbArc
 50
319.0672754258
 51
69.8287286535
  0
CIRCLE
  5
26D
330
1F
100
AcDbEntity
  8
0
  6
Continuous
 62
     7
370
    15
100
AcDbCircle
 10
104.8081001234
 20
144.467133463
 30
0.0
 40
13.5
  0
ARC
  5
26E
330
1F
100
AcDbEntity
  8
0
  6
Continuous
 62
     7
370
    15
100
AcDbCircle
 10
104.8081001234
 20
144.467133463
 30
0.0
 40
3.499999999999996
100
AcDbArc
 50
63.8236862635
 51
81.7867892983
  0
CIRCLE
  5
26F
330
1F
100
AcDbEntity
  8
0
  6
Continuous
 62
     7
370
    15
100
AcDbCircle
 10
139.8935093282
 20
243.7336595226
 30
0.0
 40
1.600000000000023
  0
CIRCLE
  5
270
330
1F
100
AcDbEntity
  8
0
  6
Continuous
 62
     7
370
    15
100
AcDbCircle
 10
139.8935093282
 20
287.7336595226
 30
0.0
 40
1.600000000000023
  0
CIRCLE
  5
271
330
1F
100
AcDbEntity
  8
0
  6
Continuous
 62
     7
370
    15
100
AcDbCircle
 10
152.8935093282
 20
265.7336595226
 30
0.0
 40
1.599999999999994
  0
ARC
  5
272
330
1F
100
AcDbEntity
  8
0
  6
Continuous
 62
     7
370
    15
100
AcDbCircle
 10
150.8935093282
 20
261.2336595226
 30
0.0
 40
1.200000000000017
100
AcDbArc
 50
0.0
 51
180.0
  0
LINE
  5
273
330
1F
100
AcDbEntity
  8
0
  6
Continuous
 62
     7
370
    15
100
AcDbLine
 10
149.6935093282
 20
237.2336595226
 30
0.0
 11
149.6935093282
 21
261.2336595226
 31
0.0
  0
LINE
  5
274
330
1F
100
AcDbEntity
  8
0
  6
Continuous
 62
     7
370
    15
100
AcDbLine
 10
149.1935093282
 20
236.7336595226
 30
0.0
 11
149.6935093282
 21
237.2336595226
 31
0.0
  0
LINE
  5
275
330
1F
100
AcDbEntity
  8
0
  6
Continuous
 62
     7
370
    15
100
AcDbLine
 10
133.2960501302
 20
236.7336595226
 30
0.0
 11
149.1935093282
 21
236.7336595226
 31
0.0
  0
ARC
  5
276
330
1F
100
AcDbEntity
  8
0
  6
Continuous
 62
     7
370
    15
100
AcDbCircle
 10
133.2960501302
 20
250.1265166655
 30
0.0
 40
13.39285714285715
100
AcDbArc
 50
194.6748497429
 51
270.0
  0
ARC
  5
277
330
1F
100
AcDbEntity
  8
0
  6
Continuous
 62
     7
370
    15
100
AcDbCircle
 10
192.8935093282
 20
265.7336595226
 30
0.0
 40
75.0
100
AcDbArc
 50
193.1009035343
 51
194.6748497429
  0
LINE
  5
278
330
1F
100
AcDbEntity
  8
0
  6
Continuous
 62
     7
370
    15
100
AcDbLine
 10
119.8455798572
 20
248.7336595226
 30
0.0
 11
137.8935093282
 21
248.7336595226
 31
0.0
  0
ARC
  5
279
330
1F
100
AcDbEntity
  8
0
  6
Continuous
 62
     7
370
    15
100
AcDbCircle
 10
137.8935093282
 20
252.7336595226
 30
0.0
 40
4.0
100
AcDbArc
 50
270.0
 51
0.0
  0
LINE
  5
27A
330
1F
100
AcDbEntity
  8
0
  6
Continuous
 62
     7
370
    15
100
AcDbLine
 10
141.8935093282
 20
252.7336595226
 30
0.0
 11
141.8935093282
 21
278.7336595226
 31
0.0
  0
ARC
  5
27B
330
1F
100
AcDbEntity
  8
0
  6
Continuous
 62
     7
370
    15
100
AcDbCircle
 10
137.8935093282
 20
278.7336595226
 30
0.0
 40
4.0
100
AcDbArc
 50
0.0
 51
90.0
  0
LINE
  5
27C
330
1F
100
AcDbEntity
  8
0
  6
Continuous
 62
     7
370
    15
100
AcDbLine
 10
137.8935093282
 20
282.7336595226
 30
0.0
 11
119.8455798572
 21
282.7336595226
 31
0.0
  0
ARC
  5
27D
330
1F
100
AcDbEntity
  8
0
  6
Continuous
 62
     7
370
    15
100
AcDbCircle
 10
192.8935093282
 20
265.7336595226
 30
0.0
 40
75.00000000000001
100
AcDbArc
 50
165.3251502571
 51
166.8990964657
  0
ARC
  5
27E
330
1F
100
AcDbEntity
  8
0
  6
Continuous
 62
     7
370
    15
100
AcDbCircle
 10
133.2960501302
 20
281.3408023797
 30
0.0
 40
13.39285714285715
100
AcDbArc
 50
90.0
 51
165.3251502571
  0
LINE
  5
27F
330
1F
100
AcDbEntity
  8
0
  6
Continuous
 62
     7
370
    15
100
AcDbLine
 10
149.1935093282
 20
294.7336595226
 30
0.0
 11
133.2960501302
 21
294.7336595226
 31
0.0
  0
LINE
  5
280
330
1F
100
AcDbEntity
  8
0
  6
Continuous
 62
     7
370
    15
100
AcDbLine
 10
149.6935093282
 20
294.2336595226
 30
0.0
 11
149.1935093282
 21
294.7336595226
 31
0.0
  0
LINE
  5
281
330
1F
100
AcDbEntity
  8
0
  6
Continuous
 62
     7
370
    15
100
AcDbLine
 10
149.6935093282
 20
270.2336595226
 30
0.0
 11
149.6935093282
 21
294.2336595226
 31
0.0
  0
ARC
  5
282
330
1F
100
AcDbEntity
  8
0
  6
Continuous
 62
     7
370
    15
100
AcDbCircle
 10
150.8935093282
 20
270.2336595226
 30
0.0
 40
1.200000000000017
100
AcDbArc
 50
180.0
 51
0.0
  0
LINE
  5
283
330
1F
100
AcDbEntity
  8
0
  6
Continuous
 62
     7
370
    15
100
AcDbLine
 10
152.0935093282
 20
294.2336595226
 30
0.0
 11
152.0935093282
 21
270.2336595226
 31
0.0
  0
LINE
  5
284
330
1F
100
AcDbEntity
  8
0
  6
Continuous
 62
     7
370
    15
100
AcDbLine
 10
152.5935093282
 20
294.7336595226
 30
0.0
 11
152.0935093282
 21
294.2336595226
 31
0.0
  0
LINE
  5
285
330
1F
100
AcDbEntity
  8
0
  6
Continuous
 62
     7
370
    15
100
AcDbLine
 10
156.8935093282
 20
294.7336595226
 30
0.0
 11
152.5935093282
 21
294.7336595226
 31
0.0
  0
LINE
  5
286
330
1F
100
AcDbEntity
  8
0
  6
Continuous
 62
     7
370
    15
100
AcDbLine
 10
157.3935093282
 20
294.2336595226
 30
0.0
 11
156.8935093282
 21
294.7336595226
 31
0.0
  0
LINE
  5
287
330
1F
100
AcDbEntity
  8
0
  6
Continuous
 62
     7
370
    15
100
AcDbLine
 10
157.3935093282
 20
294.2336595226
 30
0.0
 11
157.3935093282
 21
284.7336595226
 31
0.0
  0
LINE
  5
288
330
1F
100
AcDbEntity
  8
0
  6
Continuous
 62
     7
370
    15
100
AcDbLine
 10
157.3935093282
 20
284.7336595226
 30
0.0
 11
156.3935093282
 21
284.7336595226
 31
0.0
  0
LINE
  5
289
330
1F
100
AcDbEntity
  8
0
  6
Continuous
 62
     7
370
    15
100
AcDbLine
 10
156.3935093282
 20
284.7336595226
 30
0.0
 11
156.3935093282
 21
246.7336595226
 31
0.0
  0
LINE
  5
28A
330
1F
100
AcDbEntity
  8
0
  6
Continuous
 62
     7
370
    15
100
AcDbLine
 10
157.3935093282
 20
246.7336595226
 30
0.0
 11
156.3935093282
 21
246.7336595226
 31
0.0
  0
LINE
  5
28B
330
1F
100
AcDbEntity
  8
0
  6
Continuous
 62
     7
370
    15
100
AcDbLine
 10
157.3935093282
 20
237.2336595226
 30
0.0
 11
157.3935093282
 21
246.7336595226
 31
0.0
  0
LINE
  5
28C
330
1F
100
AcDbEntity
  8
0
  6
Continuous
 62
     7
370
    15
100
AcDbLine
 10
156.8935093282
 20
236.7336595226
 30
0.0
 11
157.3935093282
 21
237.2336595226
 31
0.0
  0
LINE
  5
28D
330
1F
100
AcDbEntity
  8
0
  6
Continuous
 62
     7
370
    15
100
AcDbLine
 10
152.5935093282
 20
236.7336595226
 30
0.0
 11
156.8935093282
 21
236.7336595226
 31
0.0
  0
LINE
  5
28E
330
1F
100
AcDbEntity
  8
0
  6
Continuous
 62
     7
370
    15
100
AcDbLine
 10
152.0935093282
 20
237.2336595226
 30
0.0
 11
152.5935093282
 21
236.7336595226
 31
0.0
  0
LINE
  5
28F
330
1F
100
AcDbEntity
  8
0
  6
Continuous
 62
     7
370
    15
100
AcDbLine
 10
152.0935093282
 20
261.2336595226
 30
0.0
 11
152.0935093282
 21
237.2336595226
 31
0.0
  0
ENDSEC
  0
SECTION
  2
OBJECTS
  0
DICTIONARY
  5
C
330
0
100
AcDbDictionary
281
     1
  3
ACAD_GROUP
350
D
  3
ACAD_LAYOUT
350
1A
  3
ACAD_MLEADERSTYLE
350
292
  3
ACAD_MLINESTYLE
350
17
  3
ACAD_PLOTSETTINGS
350
19
  3
ACAD_PLOTSTYLENAME
350
E
  3
ACAD_SCALELIST
350
E7
  3
ACAD_VISUALSTYLE
350
2A
  3
AcDbVariableDictionary
350
290
  0
DICTIONARY
  5
D
102
{ACAD_REACTORS
330
C
102
}
330
C
100
AcDbDictionary
281
     1
  0
DICTIONARY
  5
1A
102
{ACAD_REACTORS
330
C
102
}
330
C
100
AcDbDictionary
281
     1
  3
Layout1
350
1E
  3
Layout2
350
26
  3
Model
350
22
  0
DICTIONARY
  5
292
102
{ACAD_REACTORS
330
C
102
}
330
C
100
AcDbDictionary
281
     1
  0
DICTIONARY
  5
17
102
{ACAD_REACTORS
330
C
102
}
330
C
100
AcDbDictionary
281
     1
  3
Standard
350
18
  0
DICTIONARY
  5
19
102
{ACAD_REACTORS
330
C
102
}
330
C
100
AcDbDictionary
281
     1
  0
ACDBDICTIONARYWDFLT
  5
E
102
{ACAD_REACTORS
330
C
102
}
330
C
100
AcDbDictionary
281
     1
  3
Normal
350
F
100
AcDbDictionaryWithDefault
340
F
  0
DICTIONARY
  5
E7
102
{ACAD_REACTORS
330
C
102
}
330
C
100
AcDbDictionary
281
     1
  3
A0
350
E8
  3
A1
350
E9
  3
A2
350
EA
  3
A3
350
EB
  3
A4
350
EC
  3
A5
350
ED
  3
A6
350
EE
  3
A7
350
EF
  3
A8
350
F0
  3
A9
350
F1
  3
B0
350
F2
  3
B1
350
F3
  3
B2
350
F4
  3
B3
350
F5
  3
B4
350
F6
  3
B5
350
F7
  3
B6
350
F8
  3
B7
350
F9
  3
B8
350
FA
  3
B9
350
FB
  3
C0
350
FC
  3
C1
350
FD
  3
C2
350
FE
  3
C3
350
FF
  3
C4
350
100
  3
C5
350
101
  3
C6
350
102
  3
C7
350
103
  3
C8
350
104
  3
C9
350
105
  3
D0
350
106
  3
D1
350
107
  3
D2
350
108
  0
DICTIONARY
  5
2A
102
{ACAD_REACTORS
330
C
102
}
330
C
100
AcDbDictionary
281
     1
  3
2dWireframe
350
2F
  3
3D Hidden
350
31
  3
3dWireframe
350
30
  3
Basic
350
32
  3
Brighten
350
36
  3
ColorChange
350
3A
  3
Conceptual
350
34
  3
Dim
350
35
  3
Facepattern
350
39
  3
Flat
350
2B
  3
FlatWithEdges
350
2C
  3
Gouraud
350
2D
  3
GouraudWithEdges
350
2E
  3
Linepattern
350
38
  3
Realistic
350
33
  3
Thicken
350
37
  0
DICTIONARY
  5
290
102
{ACAD_REACTORS
330
C
102
}
330
C
100
AcDbDictionary
281
     1
  3
CANNOSCALE
350
295
  3
DIMASSOC
350
296
  3
HIDETEXT
350
297
  3
PSOLHEIGHT
350
294
  3
PSOLWIDTH
350
293
  0
LAYOUT
  5
1E
102
{ACAD_REACTORS
330
1A
102
}
330
1A
100
AcDbPlotSettings
  1

  2
none_device
  4

  6

 40
0.0
 41
0.0
 42
0.0
 43
0.0
 44
0.0
 45
0.0
 46
0.0
 47
0.0
 48
0.0
 49
0.0
140
0.0
141
0.0
142
1.0
143
1.0
 70
   688
 72
     0
 73
     0
 74
     5
  7

 75
    16
147
1.0
148
0.0
149
0.0
100
AcDbLayout
  1
Layout1
 70
     1
 71
     1
 10
0.0
 20
0.0
 11
420.0
 21
297.0
 12
0.0
 22
0.0
 32
0.0
 14
1.0000000000E+20
 24
1.0000000000E+20
 34
1.0000000000E+20
 15
-1.0000000000E+20
 25
-1.0000000000E+20
 35
-1.0000000000E+20
146
0.0
 13
0.0
 23
0.0
 33
0.0
 16
1.0
 26
0.0
 36
0.0
 17
0.0
 27
1.0
 37
0.0
 76
     0
330
1B
  0
LAYOUT
  5
26
102
{ACAD_REACTORS
330
1A
102
}
330
1A
100
AcDbPlotSettings
  1

  2
none_device
  4

  6

 40
0.0
 41
0.0
 42
0.0
 43
0.0
 44
0.0
 45
0.0
 46
0.0
 47
0.0
 48
0.0
 49
0.0
140
0.0
141
0.0
142
1.0
143
1.0
 70
   688
 72
     0
 73
     0
 74
     5
  7

 75
    16
147
1.0
148
0.0
149
0.0
100
AcDbLayout
  1
Layout2
 70
     1
 71
     2
 10
0.0
 20
0.0
 11
0.0
 21
0.0
 12
0.0
 22
0.0
 32
0.0
 14
0.0
 24
0.0
 34
0.0
 15
0.0
 25
0.0
 35
0.0
146
0.0
 13
0.0
 23
0.0
 33
0.0
 16
1.0
 26
0.0
 36
0.0
 17
0.0
 27
1.0
 37
0.0
 76
     0
330
23
  0
LAYOUT
  5
22
102
{ACAD_REACTORS
330
1A
102
}
330
1A
100
AcDbPlotSettings
  1

  2
none_device
  4

  6

 40
0.0
 41
0.0
 42
0.0
 43
0.0
 44
0.0
 45
0.0
 46
0.0
 47
0.0
 48
0.0
 49
0.0
140
0.0
141
0.0
142
1.0
143
1.0
 70
  1712
 72
     0
 73
     0
 74
     0
  7

 75
     0
147
1.0
148
0.0
149
0.0
100
AcDbLayout
  1
Model
 70
     1
 71
     0
 10
0.0
 20
0.0
 11
210.0
 21
297.0
 12
0.0
 22
0.0
 32
0.0
 14
0.0
 24
0.0
 34
0.0
 15
210.0
 25
297.0
 35
0.0
146
0.0
 13
0.0
 23
0.0
 33
0.0
 16
1.0
 26
0.0
 36
0.0
 17
0.0
 27
1.0
 37
0.0
 76
     0
330
1F
331
29
  0
MLINESTYLE
  5
18
102
{ACAD_REACTORS
330
17
102
}
330
17
100
AcDbMlineStyle
  2
Standard
 70
     0
  3

 62
   256
 51
90.0
 52
90.0
 71
     2
 49
0.5
 62
   256
  6
BYLAYER
 49
-0.5
 62
   256
  6
BYLAYER
  0
ACDBPLACEHOLDER
  5
F
102
{ACAD_REACTORS
330
E
102
}
330
E
  0
SCALE
  5
E8
102
{ACAD_REACTORS
330
E7
102
}
330
E7
100
AcDbScale
 70
     0
300
1:1
140
1.0
141
1.0
290
     1
  0
SCALE
  5
E9
102
{ACAD_REACTORS
330
E7
102
}
330
E7
100
AcDbScale
 70
     0
300
1:2
140
1.0
141
2.0
290
     0
  0
SCALE
  5
EA
102
{ACAD_REACTORS
330
E7
102
}
330
E7
100
AcDbScale
 70
     0
300
1:4
140
1.0
141
4.0
290
     0
  0
SCALE
  5
EB
102
{ACAD_REACTORS
330
E7
102
}
330
E7
100
AcDbScale
 70
     0
300
1:5
140
1.0
141
5.0
290
     0
  0
SCALE
  5
EC
102
{ACAD_REACTORS
330
E7
102
}
330
E7
100
AcDbScale
 70
     0
300
1:8
140
1.0
141
8.0
290
     0
  0
SCALE
  5
ED
102
{ACAD_REACTORS
330
E7
102
}
330
E7
100
AcDbScale
 70
     0
300
1:10
140
1.0
141
10.0
290
     0
  0
SCALE
  5
EE
102
{ACAD_REACTORS
330
E7
102
}
330
E7
100
AcDbScale
 70
     0
300
1:16
140
1.0
141
16.0
290
     0
  0
SCALE
  5
EF
102
{ACAD_REACTORS
330
E7
102
}
330
E7
100
AcDbScale
 70
     0
300
1:20
140
1.0
141
20.0
290
     0
  0
SCALE
  5
F0
102
{ACAD_REACTORS
330
E7
102
}
330
E7
100
AcDbScale
 70
     0
300
1:30
140
1.0
141
30.0
290
     0
  0
SCALE
  5
F1
102
{ACAD_REACTORS
330
E7
102
}
330
E7
100
AcDbScale
 70
     0
300
1:40
140
1.0
141
40.0
290
     0
  0
SCALE
  5
F2
102
{ACAD_REACTORS
330
E7
102
}
330
E7
100
AcDbScale
 70
     0
300
1:50
140
1.0
141
50.0
290
     0
  0
SCALE
  5
F3
102
{ACAD_REACTORS
330
E7
102
}
330
E7
100
AcDbScale
 70
     0
300
1:100
140
1.0
141
100.0
290
     0
  0
SCALE
  5
F4
102
{ACAD_REACTORS
330
E7
102
}
330
E7
100
AcDbScale
 70
     0
300
2:1
140
2.0
141
1.0
290
     0
  0
SCALE
  5
F5
102
{ACAD_REACTORS
330
E7
102
}
330
E7
100
AcDbScale
 70
     0
300
4:1
140
4.0
141
1.0
290
     0
  0
SCALE
  5
F6
102
{ACAD_REACTORS
330
E7
102
}
330
E7
100
AcDbScale
 70
     0
300
8:1
140
8.0
141
1.0
290
     0
  0
SCALE
  5
F7
102
{ACAD_REACTORS
330
E7
102
}
330
E7
100
AcDbScale
 70
     0
300
10:1
140
10.0
141
1.0
290
     0
  0
SCALE
  5
F8
102
{ACAD_REACTORS
330
E7
102
}
330
E7
100
AcDbScale
 70
     0
300
100:1
140
100.0
141
1.0
290
     0
  0
SCALE
  5
F9
102
{ACAD_REACTORS
330
E7
102
}
330
E7
100
AcDbScale
 70
     0
300
1/128" = 1'-0"
140
0.0078125
141
12.0
290
     0
  0
SCALE
  5
FA
102
{ACAD_REACTORS
330
E7
102
}
330
E7
100
AcDbScale
 70
     0
300
1/64" = 1'-0"
140
0.015625
141
12.0
290
     0
  0
SCALE
  5
FB
102
{ACAD_REACTORS
330
E7
102
}
330
E7
100
AcDbScale
 70
     0
300
1/32" = 1'-0"
140
0.03125
141
12.0
290
     0
  0
SCALE
  5
FC
102
{ACAD_REACTORS
330
E7
102
}
330
E7
100
AcDbScale
 70
     0
300
1/16" = 1'-0"
140
0.0625
141
12.0
290
     0
  0
SCALE
  5
FD
102
{ACAD_REACTORS
330
E7
102
}
330
E7
100
AcDbScale
 70
     0
300
3/32" = 1'-0"
140
0.09375
141
12.0
290
     0
  0
SCALE
  5
FE
102
{ACAD_REACTORS
330
E7
102
}
330
E7
100
AcDbScale
 70
     0
300
1/8" = 1'-0"
140
0.125
141
12.0
290
     0
  0
SCALE
  5
FF
102
{ACAD_REACTORS
330
E7
102
}
330
E7
100
AcDbScale
 70
     0
300
3/16" = 1'-0"
140
0.1875
141
12.0
290
     0
  0
SCALE
  5
100
102
{ACAD_REACTORS
330
E7
102
}
330
E7
100
AcDbScale
 70
     0
300
1/4" = 1'-0"
140
0.25
141
12.0
290
     0
  0
SCALE
  5
101
102
{ACAD_REACTORS
330
E7
102
}
330
E7
100
AcDbScale
 70
     0
300
3/8" = 1'-0"
140
0.375
141
12.0
290
     0
  0
SCALE
  5
102
102
{ACAD_REACTORS
330
E7
102
}
330
E7
100
AcDbScale
 70
     0
300
1/2" = 1'-0"
140
0.5
141
12.0
290
     0
  0
SCALE
  5
103
102
{ACAD_REACTORS
330
E7
102
}
330
E7
100
AcDbScale
 70
     0
300
3/4" = 1'-0"
140
0.75
141
12.0
290
     0
  0
SCALE
  5
104
102
{ACAD_REACTORS
330
E7
102
}
330
E7
100
AcDbScale
 70
     0
300
1" = 1'-0"
140
1.0
141
12.0
290
     0
  0
SCALE
  5
105
102
{ACAD_REACTORS
330
E7
102
}
330
E7
100
AcDbScale
 70
     0
300
1-1/2" = 1'-0"
140
1.5
141
12.0
290
     0
  0
SCALE
  5
106
102
{ACAD_REACTORS
330
E7
102
}
330
E7
100
AcDbScale
 70
     0
300
3" = 1'-0"
140
3.0
141
12.0
290
     0
  0
SCALE
  5
107
102
{ACAD_REACTORS
330
E7
102
}
330
E7
100
AcDbScale
 70
     0
300
6" = 1'-0"
140
6.0
141
12.0
290
     0
  0
SCALE
  5
108
102
{ACAD_REACTORS
330
E7
102
}
330
E7
100
AcDbScale
 70
     0
300
1'-0" = 1'-0"
140
12.0
141
12.0
290
     0
  0
VISUALSTYLE
  5
2F
102
{ACAD_REACTORS
330
2A
102
}
330
2A
100
AcDbVisualStyle
  2
2dWireframe
 70
     4
 71
     0
 72
     2
 73
     0
 90
        0
 40
-0.6
 41
-30.0
 62
     5
 63
     7
 74
     1
 91
        4
 64
     7
 65
   257
 75
     1
175
     1
 42
1.0
 92
        0
 66
   257
 43
1.0
 76
     1
 77
     6
 78
     2
 67
     7
 79
     5
170
     0
171
     0
290
     0
174
     0
 93
        1
 44
0.0
173
     0
291
     0
 45
0.0
1001
ACAD
1000
AcDbSavedByObjectVersion
1070
     0
  0
VISUALSTYLE
  5
31
102
{ACAD_REACTORS
330
2A
102
}
330
2A
100
AcDbVisualStyle
  2
3D Hidden
 70
     6
 71
     1
 72
     2
 73
     2
 90
        0
 40
-0.6
 41
-30.0
 62
     5
 63
     7
 74
     2
 91
        2
 64
     7
 65
   257
 75
     2
175
     1
 42
40.0
 92
        0
 66
   257
 43
1.0
 76
     1
 77
     6
 78
     2
 67
     7
 79
     3
170
     0
171
     0
290
     0
174
     0
 93
        1
 44
0.0
173
     0
291
     0
 45
0.0
1001
ACAD
1000
AcDbSavedByObjectVersion
1070
     0
  0
VISUALSTYLE
  5
30
102
{ACAD_REACTORS
330
2A
102
}
330
2A
100
AcDbVisualStyle
  2
3dWireframe
 70
     5
 71
     0
 72
     2
 73
     0
 90
        0
 40
-0.6
 41
-30.0
 62
     5
 63
     7
 74
     1
 91
        4
 64
     7
 65
   257
 75
     1
175
     1
 42
1.0
 92
        0
 66
   257
 43
1.0
 76
     1
 77
     6
 78
     2
 67
     7
 79
     5
170
     0
171
     0
290
     0
174
     0
 93
        1
 44
0.0
173
     0
291
     0
 45
0.0
1001
ACAD
1000
AcDbSavedByObjectVersion
1070
     0
  0
VISUALSTYLE
  5
32
102
{ACAD_REACTORS
330
2A
102
}
330
2A
100
AcDbVisualStyle
  2
Basic
 70
     7
 71
     1
 72
     0
 73
     1
 90
        0
 40
-0.6
 41
-30.0
 62
     5
 63
     7
 74
     0
 91
        4
 64
     7
 65
   257
 75
     1
175
     1
 42
1.0
 92
        8
 66
     7
 43
1.0
 76
     1
 77
     6
 78
     2
 67
     7
 79
     5
170
     0
171
     0
290
     0
174
     0
 93
        1
 44
0.0
173
     0
291
     1
 45
0.0
1001
ACAD
1000
AcDbSavedByObjectVersion
1070
     0
  0
VISUALSTYLE
  5
36
102
{ACAD_REACTORS
330
2A
102
}
330
2A
100
AcDbVisualStyle
  2
Brighten
 70
    12
 71
     2
 72
     2
 73
     0
 90
        0
 40
-0.6
 41
-30.0
 62
     5
 63
     7
 74
     1
 91
        4
 64
     7
 65
   257
 75
     1
175
     1
 42
1.0
 92
        8
 66
     7
 43
1.0
 76
     1
 77
     6
 78
     2
 67
     7
 79
     5
170
     0
171
     0
290
     0
174
     0
 93
        1
 44
50.0
173
     0
291
     1
 45
0.0
1001
ACAD
1000
AcDbSavedByObjectVersion
1070
     0
  0
VISUALSTYLE
  5
3A
102
{ACAD_REACTORS
330
2A
102
}
330
2A
100
AcDbVisualStyle
  2
ColorChange
 70
    16
 71
     2
 72
     2
 73
     3
 90
        0
 40
-0.6
 41
-30.0
 62
     5
 63
     8
 74
     1
 91
        4
 64
     7
 65
   257
 75
     1
175
     1
 42
1.0
 92
        8
 66
     8
 43
1.0
 76
     1
 77
     6
 78
     2
 67
     7
 79
     5
170
     0
171
     0
290
     0
174
     0
 93
        1
 44
0.0
173
     0
291
     1
 45
0.0
1001
ACAD
1000
AcDbSavedByObjectVersion
1070
     0
  0
VISUALSTYLE
  5
34
102
{ACAD_REACTORS
330
2A
102
}
330
2A
100
AcDbVisualStyle
  2
Conceptual
 70
     9
 71
     3
 72
     2
 73
     0
 90
        0
 40
-0.6
 41
-30.0
 62
     5
 63
     7
 74
     2
 91
        2
 64
     7
 65
   257
 75
     1
175
     1
 42
40.0
 92
        8
 66
     7
 43
1.0
 76
     1
 77
     6
 78
     2
 67
     7
 79
     3
170
     0
171
     0
290
     0
174
     0
 93
        1
 44
0.0
173
     0
291
     0
 45
0.0
1001
ACAD
1000
AcDbSavedByObjectVersion
1070
     0
  0
VISUALSTYLE
  5
35
102
{ACAD_REACTORS
330
2A
102
}
330
2A
100
AcDbVisualStyle
  2
Dim
 70
    11
 71
     2
 72
     2
 73
     0
 90
        0
 40
-0.6
 41
-30.0
 62
     5
 63
     7
 74
     1
 91
        4
 64
     7
 65
   257
 75
     1
175
     1
 42
1.0
 92
        8
 66
     7
 43
1.0
 76
     1
 77
     6
 78
     2
 67
     7
 79
     5
170
     0
171
     0
290
     0
174
     0
 93
        1
 44
-50.0
173
     0
291
     1
 45
0.0
1001
ACAD
1000
AcDbSavedByObjectVersion
1070
     0
  0
VISUALSTYLE
  5
39
102
{ACAD_REACTORS
330
2A
102
}
330
2A
100
AcDbVisualStyle
  2
Facepattern
 70
    15
 71
     2
 72
     2
 73
     0
 90
        0
 40
-0.6
 41
-30.0
 62
     5
 63
     7
 74
     1
 91
        4
 64
     7
 65
   257
 75
     1
175
     1
 42
1.0
 92
        8
 66
     7
 43
1.0
 76
     1
 77
     6
 78
     2
 67
     7
 79
     5
170
     0
171
     0
290
     0
174
     0
 93
        1
 44
0.0
173
     0
291
     1
 45
0.0
1001
ACAD
1000
AcDbSavedByObjectVersion
1070
     0
  0
VISUALSTYLE
  5
2B
102
{ACAD_REACTORS
330
2A
102
}
330
2A
100
AcDbVisualStyle
  2
Flat
 70
     0
 71
     2
 72
     1
 73
     1
 90
        2
 40
-0.6
 41
30.0
 62
     5
 63
     7
 74
     0
 91
        4
 64
     7
 65
   257
 75
     1
175
     1
 42
1.0
 92
        8
 66
     7
 43
1.0
 76
     1
 77
     6
 78
     2
 67
     7
 79
     5
170
     0
171
     0
290
     0
174
     0
 93
       13
 44
0.0
173
     0
291
     1
 45
0.0
1001
ACAD
1000
AcDbSavedByObjectVersion
1070
     0
  0
VISUALSTYLE
  5
2C
102
{ACAD_REACTORS
330
2A
102
}
330
2A
100
AcDbVisualStyle
  2
FlatWithEdges
 70
     1
 71
     2
 72
     1
 73
     1
 90
        2
 40
-0.6
 41
30.0
 62
     5
 63
     7
 74
     1
 91
        4
 64
     7
 65
   257
 75
     1
175
     1
 42
1.0
 92
        0
 66
   257
 43
1.0
 76
     1
 77
     6
 78
     2
 67
     7
 79
     5
170
     0
171
     0
290
     0
174
     0
 93
       13
 44
0.0
173
     0
291
     1
 45
0.0
1001
ACAD
1000
AcDbSavedByObjectVersion
1070
     0
  0
VISUALSTYLE
  5
2D
102
{ACAD_REACTORS
330
2A
102
}
330
2A
100
AcDbVisualStyle
  2
Gouraud
 70
     2
 71
     2
 72
     2
 73
     1
 90
        2
 40
-0.6
 41
30.0
 62
     5
 63
     7
 74
     0
 91
        4
 64
     7
 65
   257
 75
     1
175
     1
 42
1.0
 92
        0
 66
     7
 43
1.0
 76
     1
 77
     6
 78
     2
 67
     7
 79
     5
170
     0
171
     0
290
     0
174
     0
 93
       13
 44
0.0
173
     0
291
     1
 45
0.0
1001
ACAD
1000
AcDbSavedByObjectVersion
1070
     0
  0
VISUALSTYLE
  5
2E
102
{ACAD_REACTORS
330
2A
102
}
330
2A
100
AcDbVisualStyle
  2
GouraudWithEdges
 70
     3
 71
     2
 72
     2
 73
     1
 90
        2
 40
-0.6
 41
30.0
 62
     5
 63
     7
 74
     1
 91
        4
 64
     7
 65
   257
 75
     1
175
     1
 42
1.0
 92
        0
 66
   257
 43
1.0
 76
     1
 77
     6
 78
     2
 67
     7
 79
     5
170
     0
171
     0
290
     0
174
     0
 93
       13
 44
0.0
173
     0
291
     1
 45
0.0
1001
ACAD
1000
AcDbSavedByObjectVersion
1070
     0
  0
VISUALSTYLE
  5
38
102
{ACAD_REACTORS
330
2A
102
}
330
2A
100
AcDbVisualStyle
  2
Linepattern
 70
    14
 71
     2
 72
     2
 73
     0
 90
        0
 40
-0.6
 41
-30.0
 62
     5
 63
     7
 74
     1
 91
        4
 64
     7
 65
   257
 75
     7
175
     7
 42
1.0
 92
        8
 66
     7
 43
1.0
 76
     1
 77
     6
 78
     2
 67
     7
 79
     5
170
     0
171
     0
290
     0
174
     0
 93
        1
 44
0.0
173
     0
291
     1
 45
0.0
1001
ACAD
1000
AcDbSavedByObjectVersion
1070
     0
  0
VISUALSTYLE
  5
33
102
{ACAD_REACTORS
330
2A
102
}
330
2A
100
AcDbVisualStyle
  2
Realistic
 70
     8
 71
     2
 72
     2
 73
     0
 90
        0
 40
-0.6
 41
-30.0
 62
     5
 63
     7
 74
     1
 91
        0
 64
     7
 65
   257
 75
     1
175
     1
 42
1.0
 92
        8
 66
     8
 43
1.0
 76
     1
 77
     6
 78
     2
 67
     7
 79
     5
170
     0
171
     0
290
     0
174
     0
 93
       13
 44
0.0
173
     0
291
     0
 45
0.0
1001
ACAD
1000
AcDbSavedByObjectVersion
1070
     0
  0
VISUALSTYLE
  5
37
102
{ACAD_REACTORS
330
2A
102
}
330
2A
100
AcDbVisualStyle
  2
Thicken
 70
    13
 71
     2
 72
     2
 73
     0
 90
        0
 40
-0.6
 41
-30.0
 62
     5
 63
     7
 74
     1
 91
        4
 64
     7
 65
   257
 75
     1
175
     1
 42
1.0
 92
       12
 66
     7
 43
1.0
 76
     1
 77
     6
 78
     2
 67
     7
 79
     5
170
     0
171
     0
290
     0
174
     0
 93
        1
 44
0.0
173
     0
291
     1
 45
0.0
1001
ACAD
1000
AcDbSavedByObjectVersion
1070
     0
  0
DICTIONARYVAR
  5
295
102
{ACAD_REACTORS
330
290
102
}
330
290
100
DictionaryVariables
280
     0
  1
1:1
  0
DICTIONARYVAR
  5
296
102
{ACAD_REACTORS
330
290
102
}
330
290
100
DictionaryVariables
280
     0
  1
2
  0
DICTIONARYVAR
  5
297
102
{ACAD_REACTORS
330
290
102
}
330
290
100
DictionaryVariables
280
     0
  1
1
  0
DICTIONARYVAR
  5
294
102
{ACAD_REACTORS
330
290
102
}
330
290
100
DictionaryVariables
280
     0
  1
80.000000
  0
DICTIONARYVAR
  5
293
102
{ACAD_REACTORS
330
290
102
}
330
290
100
DictionaryVariables
280
     0
  1
5.000000
  0
ENDSEC
  0
EOF
