  0
SECTION
  2
HEADER
  9
$ACADVER
  1
AC1015
  9
$ACADMAINTVER
 70
     6
  9
$DWGCODEPAGE
  3
ANSI_1252
  9
$INSBASE
 10
0.0
 20
0.0
 30
0.0
  9
$EXTMIN
 10
0.0
 20
0.0
 30
0.0
  9
$EXTMAX
 10
210.0
 20
297.0
 30
0.0
  9
$LIMMIN
 10
0.0
 20
0.0
  9
$LIMMAX
 10
210.0
 20
297.0
  9
$ORTHOMODE
 70
     0
  9
$REGENMODE
 70
     1
  9
$FILLMODE
 70
     1
  9
$QTEXTMODE
 70
     0
  9
$MIRRTEXT
 70
     1
  9
$LTSCALE
 40
1.0
  9
$ATTMODE
 70
     1
  9
$TEXTSIZE
 40
3.5
  9
$TRACEWID
 40
1.0
  9
$TEXTSTYLE
  7
Standard
  9
$CLAYER
  8
0
  9
$CELTYPE
  6
ByLayer
  9
$CECOLOR
 62
   256
  9
$CELTSCALE
 40
1.0
  9
$DISPSILH
 70
     0
  9
$DIMSCALE
 40
1.0
  9
$DIMASZ
 40
6.0
  9
$DIMEXO
 40
1.0
  9
$DIMDLI
 40
3.75
  9
$DIMRND
 40
0.0
  9
$DIMDLE
 40
0.0
  9
$DIMEXE
 40
1.0
  9
$DIMTP
 40
0.0
  9
$DIMTM
 40
0.0
  9
$DIMTXT
 40
3.5
  9
$DIMCEN
 40
2.5
  9
$DIMTSZ
 40
0.0
  9
$DIMTOL
 70
     0
  9
$DIMLIM
 70
     0
  9
$DIMTIH
 70
     1
  9
$DIMTOH
 70
     1
  9
$DIMSE1
 70
     0
  9
$DIMSE2
 70
     0
  9
$DIMTAD
 70
     1
  9
$DIMZIN
 70
     1
  9
$DIMBLK
  1

  9
$DIMASO
 70
     1
  9
$DIMSHO
 70
     1
  9
$DIMPOST
  1

  9
$DIMAPOST
  1

  9
$DIMALT
 70
     0
  9
$DIMALTD
 70
     3
  9
$DIMALTF
 40
0.0393700787
  9
$DIMLFAC
 40
1.0
  9
$DIMTOFL
 70
     1
  9
$DIMTVP
 40
0.0
  9
$DIMTIX
 70
     0
  9
$DIMSOXD
 70
     0
  9
$DIMSAH
 70
     0
  9
$DIMBLK1
  1

  9
$DIMBLK2
  1

  9
$DIMSTYLE
  2
ISO-25
  9
$DIMCLRD
 70
     0
  9
$DIMCLRE
 70
     0
  9
$DIMCLRT
 70
     0
  9
$DIMTFAC
 40
1.0
  9
$DIMGAP
 40
1.524
  9
$DIMJUST
 70
     0
  9
$DIMSD1
 70
     0
  9
$DIMSD2
 70
     0
  9
$DIMTOLJ
 70
     0
  9
$DIMTZIN
 70
     1
  9
$DIMALTZ
 70
     0
  9
$DIMALTTZ
 70
     0
  9
$DIMUPT
 70
     0
  9
$DIMDEC
 70
     3
  9
$DIMTDEC
 70
     3
  9
$DIMALTU
 70
     2
  9
$DIMALTTD
 70
     3
  9
$DIMTXSTY
  7
Standard
  9
$DIMAUNIT
 70
     0
  9
$DIMADEC
 70
     1
  9
$DIMALTRND
 40
0.0
  9
$DIMAZIN
 70
     0
  9
$DIMDSEP
 70
    44
  9
$DIMATFIT
 70
     3
  9
$DIMFRAC
 70
     0
  9
$DIMLDRBLK
  1

  9
$DIMLUNIT
 70
     2
  9
$DIMLWD
 70
    -2
  9
$DIMLWE
 70
    -2
  9
$DIMTMOVE
 70
     0
  9
$LUNITS
 70
     2
  9
$LUPREC
 70
     2
  9
$SKETCHINC
 40
1.0
  9
$FILLETRAD
 40
10.0
  9
$AUNITS
 70
     0
  9
$AUPREC
 70
     2
  9
$MENU
  1
.
  9
$ELEVATION
 40
0.0
  9
$PELEVATION
 40
0.0
  9
$THICKNESS
 40
0.0
  9
$LIMCHECK
 70
     0
  9
$CHAMFERA
 40
10.0
  9
$CHAMFERB
 40
10.0
  9
$CHAMFERC
 40
20.0
  9
$CHAMFERD
 40
0.0
  9
$SKPOLY
 70
     0
  9
$TDCREATE
 40
2457087.693813137
  9
$TDUCREATE
 40
2457087.693813137
  9
$TDUPDATE
 40
2457087.693813148
  9
$TDUUPDATE
 40
2457087.693813148
  9
$TDINDWG
 40
0.0000000116
  9
$TDUSRTIMER
 40
0.0000000116
  9
$USRTIMER
 70
     1
  9
$ANGBASE
 50
0.0
  9
$ANGDIR
 70
     0
  9
$PDMODE
 70
     0
  9
$PDSIZE
 40
-1.0
  9
$PLINEWID
 40
0.0
  9
$SPLFRAME
 70
     0
  9
$SPLINETYPE
 70
     6
  9
$SPLINESEGS
 70
     8
  9
$HANDSEED
  5
2BB
  9
$SURFTAB1
 70
     6
  9
$SURFTAB2
 70
     6
  9
$SURFTYPE
 70
     6
  9
$SURFU
 70
     6
  9
$SURFV
 70
     6
  9
$UCSBASE
  2

  9
$UCSNAME
  2

  9
$UCSORG
 10
0.0
 20
0.0
 30
0.0
  9
$UCSXDIR
 10
1.0
 20
0.0
 30
0.0
  9
$UCSYDIR
 10
0.0
 20
1.0
 30
0.0
  9
$UCSORTHOREF
  2

  9
$UCSORTHOVIEW
 70
     0
  9
$UCSORGTOP
 10
0.0
 20
0.0
 30
0.0
  9
$UCSORGBOTTOM
 10
0.0
 20
0.0
 30
0.0
  9
$UCSORGLEFT
 10
0.0
 20
0.0
 30
0.0
  9
$UCSORGRIGHT
 10
0.0
 20
0.0
 30
0.0
  9
$UCSORGFRONT
 10
0.0
 20
0.0
 30
0.0
  9
$UCSORGBACK
 10
0.0
 20
0.0
 30
0.0
  9
$PUCSBASE
  2

  9
$PUCSNAME
  2

  9
$PUCSORG
 10
0.0
 20
0.0
 30
0.0
  9
$PUCSXDIR
 10
1.0
 20
0.0
 30
0.0
  9
$PUCSYDIR
 10
0.0
 20
1.0
 30
0.0
  9
$PUCSORTHOREF
  2

  9
$PUCSORTHOVIEW
 70
     0
  9
$PUCSORGTOP
 10
0.0
 20
0.0
 30
0.0
  9
$PUCSORGBOTTOM
 10
0.0
 20
0.0
 30
0.0
  9
$PUCSORGLEFT
 10
0.0
 20
0.0
 30
0.0
  9
$PUCSORGRIGHT
 10
0.0
 20
0.0
 30
0.0
  9
$PUCSORGFRONT
 10
0.0
 20
0.0
 30
0.0
  9
$PUCSORGBACK
 10
0.0
 20
0.0
 30
0.0
  9
$USERI1
 70
     0
  9
$USERI2
 70
     0
  9
$USERI3
 70
     0
  9
$USERI4
 70
     0
  9
$USERI5
 70
     0
  9
$USERR1
 40
0.0
  9
$USERR2
 40
0.0
  9
$USERR3
 40
0.0
  9
$USERR4
 40
0.0
  9
$USERR5
 40
0.0
  9
$WORLDVIEW
 70
     1
  9
$SHADEDGE
 70
     3
  9
$SHADEDIF
 70
    70
  9
$TILEMODE
 70
     1
  9
$MAXACTVP
 70
    64
  9
$PINSBASE
 10
0.0
 20
0.0
 30
0.0
  9
$PLIMCHECK
 70
     0
  9
$PEXTMIN
 10
1.0000000000E+20
 20
1.0000000000E+20
 30
1.0000000000E+20
  9
$PEXTMAX
 10
-1.0000000000E+20
 20
-1.0000000000E+20
 30
-1.0000000000E+20
  9
$PLIMMIN
 10
0.0
 20
0.0
  9
$PLIMMAX
 10
420.0
 20
297.0
  9
$UNITMODE
 70
     0
  9
$VISRETAIN
 70
     1
  9
$PLINEGEN
 70
     0
  9
$PSLTSCALE
 70
     1
  9
$TREEDEPTH
 70
  3020
  9
$CMLSTYLE
  2
Standard
  9
$CMLJUST
 70
     0
  9
$CMLSCALE
 40
20.0
  9
$PROXYGRAPHICS
 70
     1
  9
$MEASUREMENT
 70
     1
  9
$CELWEIGHT
370
    -1
  9
$ENDCAPS
280
     0
  9
$JOINSTYLE
280
     0
  9
$LWDISPLAY
290
     1
  9
$INSUNITS
 70
     4
  9
$HYPERLINKBASE
  1

  9
$STYLESHEET
  1

  9
$XEDIT
290
     1
  9
$CEPSNTYPE
380
     0
  9
$PSTYLEMODE
290
     1
  9
$FINGERPRINTGUID
  2
{24836B39-7305-4A4D-B15E-BEF8488865BE}
  9
$VERSIONGUID
  2
{FAEB1C32-E019-11D5-929B-00C0DF256EC4}
  9
$EXTNAMES
290
     1
  9
$PSVPSCALE
 40
0.0
  9
$OLESTARTUP
290
     0
  0
ENDSEC
  0
SECTION
  2
CLASSES
  0
CLASS
  1
ACDBDICTIONARYWDFLT
  2
AcDbDictionaryWithDefault
  3
ObjectDBX Classes
 90
        0
280
     0
281
     0
  0
CLASS
  1
VISUALSTYLE
  2
AcDbVisualStyle
  3
ObjectDBX Classes
 90
     4095
280
     0
281
     0
  0
CLASS
  1
DICTIONARYVAR
  2
AcDbDictionaryVar
  3
ObjectDBX Classes
 90
        0
280
     0
281
     0
  0
CLASS
  1
ACDBPLACEHOLDER
  2
AcDbPlaceHolder
  3
ObjectDBX Classes
 90
        0
280
     0
281
     0
  0
CLASS
  1
LAYOUT
  2
AcDbLayout
  3
ObjectDBX Classes
 90
        0
280
     0
281
     0
  0
ENDSEC
  0
SECTION
  2
TABLES
  0
TABLE
  2
VPORT
  5
8
330
0
100
AcDbSymbolTable
 70
     1
  0
VPORT
  5
29
330
8
100
AcDbSymbolTableRecord
100
AcDbViewportTableRecord
  2
*Active
 70
     0
 10
0.0
 20
0.0
 11
1.0
 21
1.0
 12
105.0
 22
148.5
 13
0.0
 23
0.0
 14
10.0
 24
10.0
 15
10.0
 25
10.0
 16
0.0
 26
0.0
 36
1.0
 17
0.0
 27
0.0
 37
0.0
 40
297.0
 41
0.7070707071
 42
50.0
 43
0.0
 44
0.0
 50
0.0
 51
0.0
 71
     0
 72
  2000
 73
     1
 74
     3
 75
     0
 76
     0
 77
     0
 78
     0
281
     0
 65
     1
110
0.0
120
0.0
130
0.0
111
1.0
121
0.0
131
0.0
112
0.0
122
1.0
132
0.0
 79
     0
146
0.0
  0
ENDTAB
  0
TABLE
  2
LTYPE
  5
5
330
0
100
AcDbSymbolTable
 70
     6
  0
LTYPE
  5
14
330
5
100
AcDbSymbolTableRecord
100
AcDbLinetypeTableRecord
  2
ByBlock
 70
     0
  3

 72
    65
 73
     0
 40
0.0
  0
LTYPE
  5
15
330
5
100
AcDbSymbolTableRecord
100
AcDbLinetypeTableRecord
  2
ByLayer
 70
     0
  3

 72
    65
 73
     0
 40
0.0
  0
LTYPE
  5
16
330
5
100
AcDbSymbolTableRecord
100
AcDbLinetypeTableRecord
  2
Continuous
 70
     0
  3
Solid line
 72
    65
 73
     0
 40
0.0
  0
LTYPE
  5
3B
330
5
100
AcDbSymbolTableRecord
100
AcDbLinetypeTableRecord
  2
HIDDEN
 70
     0
  3
Hidden __ __ __ __ __ __ __ __ __ __ __ __ __ __
 72
    65
 73
     2
 40
1.905
 49
1.27
 74
     0
 49
-0.635
 74
     0
  0
LTYPE
  5
3C
330
5
100
AcDbSymbolTableRecord
100
AcDbLinetypeTableRecord
  2
PHANTOM
 70
     0
  3
Phantom ______  __  __  ______  __  __  ______
 72
    65
 73
     6
 40
12.7
 49
6.35
 74
     0
 49
-1.27
 74
     0
 49
1.27
 74
     0
 49
-1.27
 74
     0
 49
1.27
 74
     0
 49
-1.27
 74
     0
  0
LTYPE
  5
3D
330
5
100
AcDbSymbolTableRecord
100
AcDbLinetypeTableRecord
  2
CENTER
 70
     0
  3
Center ____ _ ____ _ ____ _ ____ _ ____ _ ____
 72
    65
 73
     4
 40
10.16
 49
6.35
 74
     0
 49
-1.27
 74
     0
 49
1.27
 74
     0
 49
-1.27
 74
     0
  0
LTYPE
  5
3E
330
5
100
AcDbSymbolTableRecord
100
AcDbLinetypeTableRecord
  2
CENTERX2
 70
     0
  3
Center (2x) ________  __  ________  __  _____
 72
    65
 73
     4
 40
20.32
 49
12.7
 74
     0
 49
-2.54
 74
     0
 49
2.54
 74
     0
 49
-2.54
 74
     0
  0
LTYPE
  5
3F
330
5
100
AcDbSymbolTableRecord
100
AcDbLinetypeTableRecord
  2
DOT2
 70
     0
  3
Dot (.5x) ........................................
 72
    65
 73
     2
 40
0.635
 49
0.0
 74
     0
 49
-0.635
 74
     0
  0
ENDTAB
  0
TABLE
  2
LAYER
  5
2
330
0
100
AcDbSymbolTable
 70
    17
  0
LAYER
  5
10
330
2
100
AcDbSymbolTableRecord
100
AcDbLayerTableRecord
  2
0
 70
     0
 62
     7
  6
Continuous
370
    -3
390
F
  0
LAYER
  5
40
330
2
100
AcDbSymbolTableRecord
100
AcDbLayerTableRecord
  2
FORMAT
 70
     0
 62
     7
  6
Continuous
370
    -3
390
F
  0
LAYER
  5
41
330
2
100
AcDbSymbolTableRecord
100
AcDbLayerTableRecord
  2
SLD-0
 70
     0
 62
     7
  6
Continuous
370
    -3
390
F
  0
LAYER
  5
42
330
2
100
AcDbSymbolTableRecord
100
AcDbLayerTableRecord
  2
AM_0
 70
     0
 62
     7
  6
Continuous
370
    40
390
F
  0
LAYER
  5
43
330
2
100
AcDbSymbolTableRecord
100
AcDbLayerTableRecord
  2
AM_5
 70
     0
 62
    92
  6
Continuous
370
    15
390
F
  0
LAYER
  5
44
330
2
100
AcDbSymbolTableRecord
100
AcDbLayerTableRecord
  2
AM_BOR
 70
     0
 62
     7
  6
Continuous
370
    40
390
F
  0
LAYER
  5
45
330
2
100
AcDbSymbolTableRecord
100
AcDbLayerTableRecord
  2
AM_1
 70
     0
 62
    14
  6
Continuous
370
    40
390
F
  0
LAYER
  5
46
330
2
100
AcDbSymbolTableRecord
100
AcDbLayerTableRecord
  2
AM_2
 70
     0
 62
     5
  6
Continuous
370
    40
390
F
  0
LAYER
  5
47
330
2
100
AcDbSymbolTableRecord
100
AcDbLayerTableRecord
  2
AM_3
 70
     0
 62
     6
  6
HIDDEN
370
    15
390
F
  0
LAYER
  5
48
330
2
100
AcDbSymbolTableRecord
100
AcDbLayerTableRecord
  2
AM_4
 70
     0
 62
    92
  6
Continuous
370
    15
390
F
  0
LAYER
  5
49
330
2
100
AcDbSymbolTableRecord
100
AcDbLayerTableRecord
  2
AM_6
 70
     0
 62
   140
  6
Continuous
370
    30
390
F
  0
LAYER
  5
4A
330
2
100
AcDbSymbolTableRecord
100
AcDbLayerTableRecord
  2
AM_7
 70
     0
 62
   142
  6
CENTERX2
370
    15
390
F
  0
LAYER
  5
4B
330
2
100
AcDbSymbolTableRecord
100
AcDbLayerTableRecord
  2
AM_8
 70
     0
 62
    12
  6
Continuous
370
    15
390
F
  0
LAYER
  5
4C
330
2
100
AcDbSymbolTableRecord
100
AcDbLayerTableRecord
  2
AM_10
 70
     0
 62
     7
  6
CENTERX2
370
    40
390
F
  0
LAYER
  5
4D
330
2
100
AcDbSymbolTableRecord
100
AcDbLayerTableRecord
  2
AM_11
 70
     0
 62
    92
  6
PHANTOM
370
    15
390
F
  0
LAYER
  5
4E
330
2
100
AcDbSymbolTableRecord
100
AcDbLayerTableRecord
  2
AM_12
 70
     0
 62
     7
  6
Continuous
370
    40
390
F
  0
LAYER
  5
4F
330
2
100
AcDbSymbolTableRecord
100
AcDbLayerTableRecord
  2
_IDW_BLOCKREFERENCELAYER
 70
     0
 62
     7
  6
Continuous
370
    -3
390
F
  0
ENDTAB
  0
TABLE
  2
STYLE
  5
3
330
0
100
AcDbSymbolTable
 70
     1
  0
STYLE
  5
11
330
3
100
AcDbSymbolTableRecord
100
AcDbTextStyleTableRecord
  2
Standard
 70
     0
 40
0.0
 41
1.0
 50
0.0
 71
     0
 42
2.5
  3
txt
  4

  0
ENDTAB
  0
TABLE
  2
VIEW
  5
6
330
0
100
AcDbSymbolTable
 70
     0
  0
ENDTAB
  0
TABLE
  2
UCS
  5
7
330
0
100
AcDbSymbolTable
 70
     0
  0
ENDTAB
  0
TABLE
  2
APPID
  5
9
330
0
100
AcDbSymbolTable
 70
     1
  0
APPID
  5
12
330
9
100
AcDbSymbolTableRecord
100
AcDbRegAppTableRecord
  2
ACAD
 70
     0
  0
ENDTAB
  0
TABLE
  2
DIMSTYLE
  5
A
330
0
100
AcDbSymbolTable
 70
     1
100
AcDbDimStyleTable
  0
DIMSTYLE
105
27
330
A
100
AcDbSymbolTableRecord
100
AcDbDimStyleTableRecord
  2
ISO-25
 70
     0
 41
2.5
 42
0.625
 43
3.75
 44
1.25
 73
     0
 74
     0
 77
     1
 78
     8
140
2.5
141
2.5
143
0.0393700787
147
0.625
171
     3
172
     1
271
     2
272
     2
274
     3
278
    44
283
     0
284
     8
340
11
  0
ENDTAB
  0
TABLE
  2
BLOCK_RECORD
  5
1
330
0
100
AcDbSymbolTable
 70
     1
  0
BLOCK_RECORD
  5
1F
330
1
100
AcDbSymbolTableRecord
100
AcDbBlockTableRecord
  2
*Model_Space
340
22
  0
BLOCK_RECORD
  5
1B
330
1
100
AcDbSymbolTableRecord
100
AcDbBlockTableRecord
  2
*Paper_Space
340
1E
  0
BLOCK_RECORD
  5
23
330
1
100
AcDbSymbolTableRecord
100
AcDbBlockTableRecord
  2
*Paper_Space0
340
26
  0
ENDTAB
  0
ENDSEC
  0
SECTION
  2
BLOCKS
  0
BLOCK
  5
20
330
1F
100
AcDbEntity
  8
0
100
AcDbBlockBegin
  2
*Model_Space
 70
     0
 10
0.0
 20
0.0
 30
0.0
  3
*Model_Space
  1

  0
ENDBLK
  5
21
330
1F
100
AcDbEntity
  8
0
100
AcDbBlockEnd
  0
BLOCK
  5
1C
330
1B
100
AcDbEntity
 67
     1
  8
0
100
AcDbBlockBegin
  2
*Paper_Space
 70
     0
 10
0.0
 20
0.0
 30
0.0
  3
*Paper_Space
  1

  0
ENDBLK
  5
1D
330
1B
100
AcDbEntity
 67
     1
  8
0
100
AcDbBlockEnd
  0
BLOCK
  5
24
330
23
100
AcDbEntity
  8
0
100
AcDbBlockBegin
  2
*Paper_Space0
 70
     0
 10
0.0
 20
0.0
 30
0.0
  3
*Paper_Space0
  1

  0
ENDBLK
  5
25
330
23
100
AcDbEntity
  8
0
100
AcDbBlockEnd
  0
ENDSEC
  0
SECTION
  2
ENTITIES
  0
ARC
  5
50
330
1F
100
AcDbEntity
  8
0
  6
Continuous
 62
     7
370
    15
100
AcDbCircle
 10
51.1011779573
 20
266.423103397
 30
0.0
 40
3.000000000000001
100
AcDbArc
 50
241.5423968763
 51
349.0
  0
LINE
  5
51
330
1F
100
AcDbEntity
  8
0
  6
Continuous
 62
     7
370
    15
100
AcDbLine
 10
54.0460595076
 20
265.8506764109
 30
0.0
 11
54.7660029729
 21
269.5544644567
 31
0.0
  0
ARC
  5
52
330
1F
100
AcDbEntity
  8
0
  6
Continuous
 62
     7
370
    15
100
AcDbCircle
 10
51.8211214226
 20
270.1268914428
 30
0.0
 40
3.0
100
AcDbArc
 50
349.0
 51
51.5135737496
  0
ARC
  5
53
330
1F
100
AcDbEntity
  8
0
  6
Continuous
 62
     7
370
    15
100
AcDbCircle
 10
55.8662613144
 20
275.2148029256
 30
0.0
 40
3.500000000000001
100
AcDbArc
 50
188.4864262504
 51
231.5135737496
  0
ARC
  5
54
330
1F
100
AcDbEntity
  8
0
  6
Continuous
 62
     7
370
    15
100
AcDbCircle
 10
49.4374307722
 20
274.2555647588
 30
0.0
 40
2.999999999999997
100
AcDbArc
 50
8.4864262504
 51
71.0
  0
LINE
  5
55
330
1F
100
AcDbEntity
  8
0
  6
Continuous
 62
     7
370
    15
100
AcDbLine
 10
50.4141352356
 20
277.0921204856
 30
0.0
 11
46.846588965
 21
278.3205251782
 31
0.0
  0
ARC
  5
56
330
1F
100
AcDbEntity
  8
0
  6
Continuous
 62
     7
370
    15
100
AcDbCircle
 10
45.8698845017
 20
275.4839694514
 30
0.0
 40
2.999999999999996
100
AcDbArc
 50
71.0
 51
178.4576031237
  0
ARC
  5
57
330
1F
100
AcDbEntity
  8
0
  6
Continuous
 62
     7
370
    15
100
AcDbCircle
 10
55.8662613144
 20
275.2148029256
 30
0.0
 40
13.00000000000001
100
AcDbArc
 50
178.4576031237
 51
241.5423968763
  0
ARC
  5
58
330
1F
100
AcDbEntity
  8
0
  6
Continuous
 62
     7
370
    15
100
AcDbCircle
 10
65.862638127
 20
275.4839694514
 30
0.0
 40
3.000000000000007
100
AcDbArc
 50
1.5423968763
 51
109.0
  0
LINE
  5
59
330
1F
100
AcDbEntity
  8
0
  6
Continuous
 62
     7
370
    15
100
AcDbLine
 10
64.8859336637
 20
278.3205251782
 30
0.0
 11
61.3183873931
 21
277.0921204856
 31
0.0
  0
ARC
  5
5A
330
1F
100
AcDbEntity
  8
0
  6
Continuous
 62
     7
370
    15
100
AcDbCircle
 10
62.2950918565
 20
274.2555647588
 30
0.0
 40
2.999999999999996
100
AcDbArc
 50
109.0
 51
171.5135737496
  0
ARC
  5
5B
330
1F
100
AcDbEntity
  8
0
  6
Continuous
 62
     7
370
    15
100
AcDbCircle
 10
55.8662613144
 20
275.2148029256
 30
0.0
 40
3.499999999999993
100
AcDbArc
 50
308.4864262504
 51
351.5135737496
  0
ARC
  5
5C
330
1F
100
AcDbEntity
  8
0
  6
Continuous
 62
     7
370
    15
100
AcDbCircle
 10
59.9114012061
 20
270.1268914428
 30
0.0
 40
3.000000000000026
100
AcDbArc
 50
128.4864262504
 51
191.0
  0
LINE
  5
5D
330
1F
100
AcDbEntity
  8
0
  6
Continuous
 62
     7
370
    15
100
AcDbLine
 10
56.9665196558
 20
269.5544644567
 30
0.0
 11
57.6864631211
 21
265.8506764109
 31
0.0
  0
ARC
  5
5E
330
1F
100
AcDbEntity
  8
0
  6
Continuous
 62
     7
370
    15
100
AcDbCircle
 10
60.6313446714
 20
266.423103397
 30
0.0
 40
3.000000000000001
100
AcDbArc
 50
191.0
 51
298.4576031237
  0
ARC
  5
5F
330
1F
100
AcDbEntity
  8
0
  6
Continuous
 62
     7
370
    15
100
AcDbCircle
 10
55.8662613144
 20
275.2148029256
 30
0.0
 40
13.00000000000001
100
AcDbArc
 50
298.4576031237
 51
1.5423968763
  0
ARC
  5
60
330
1F
100
AcDbEntity
  8
0
  6
Continuous
 62
     7
370
    15
100
AcDbCircle
 10
58.2499519647
 20
281.261952575
 30
0.0
 40
3.000000000000025
100
AcDbArc
 50
248.4864262504
 51
311.0
  0
LINE
  5
61
330
1F
100
AcDbEntity
  8
0
  6
Continuous
 62
     7
370
    15
100
AcDbLine
 10
60.2181290517
 20
278.9978238344
 30
0.0
 11
63.0657318569
 21
281.4732071875
 31
0.0
  0
ARC
  5
62
330
1F
100
AcDbEntity
  8
0
  6
Continuous
 62
     7
370
    15
100
AcDbCircle
 10
61.09755477
 20
283.7373359282
 30
0.0
 40
2.999999999999992
100
AcDbArc
 50
311.0
 51
58.4576031237
  0
LINE
  5
63
330
1F
100
AcDbEntity
  8
0
  6
Continuous
 62
     7
370
    15
100
AcDbLine
 10
56.0662613144
 20
290.213469533
 30
0.0
 11
56.0662613144
 21
288.213264373
 31
0.0
  0
LINE
  5
64
330
1F
100
AcDbEntity
  8
0
  6
Continuous
 62
     7
370
    15
100
AcDbLine
 10
55.6662613144
 20
288.213264373
 30
0.0
 11
55.6662613144
 21
290.213469533
 31
0.0
  0
ARC
  5
65
330
1F
100
AcDbEntity
  8
0
  6
Continuous
 62
     7
370
    15
100
AcDbCircle
 10
55.8662613144
 20
275.2148029256
 30
0.0
 40
13.00000000000005
100
AcDbArc
 50
90.8815083068
 51
121.5423968763
  0
ARC
  5
66
330
1F
100
AcDbEntity
  8
0
  6
Continuous
 62
     7
370
    15
100
AcDbCircle
 10
50.6349678587
 20
283.7373359282
 30
0.0
 40
2.999999999999992
100
AcDbArc
 50
121.5423968763
 51
229.0
  0
LINE
  5
67
330
1F
100
AcDbEntity
  8
0
  6
Continuous
 62
     7
370
    15
100
AcDbLine
 10
48.6667907718
 20
281.4732071875
 30
0.0
 11
51.514393577
 21
278.9978238344
 31
0.0
  0
ARC
  5
68
330
1F
100
AcDbEntity
  8
0
  6
Continuous
 62
     7
370
    15
100
AcDbCircle
 10
53.482570664
 20
281.261952575
 30
0.0
 40
3.000000000000029
100
AcDbArc
 50
229.0
 51
291.5135737496
  0
ARC
  5
69
330
1F
100
AcDbEntity
  8
0
  6
Continuous
 62
     7
370
    15
100
AcDbCircle
 10
55.8662613144
 20
275.2148029256
 30
0.0
 40
3.500000000000075
100
AcDbArc
 50
93.2758289598
 51
111.5135737496
  0
LINE
  5
6A
330
1F
100
AcDbEntity
  8
0
  6
Continuous
 62
     7
370
    15
100
AcDbLine
 10
55.6662613144
 20
276.3648029256
 30
0.0
 11
55.6662613144
 21
278.7090839675
 31
0.0
  0
LINE
  5
6B
330
1F
100
AcDbEntity
  8
0
  6
Continuous
 62
     7
370
    15
100
AcDbLine
 10
54.9031933001
 20
276.3648029256
 30
0.0
 11
55.6662613144
 21
276.3648029256
 31
0.0
  0
ARC
  5
6C
330
1F
100
AcDbEntity
  8
0
  6
Continuous
 62
     7
370
    15
100
AcDbCircle
 10
55.8662613144
 20
275.2148029256
 30
0.0
 40
1.500000000000029
100
AcDbArc
 50
129.9445051898
 51
50.0554948102
  0
LINE
  5
6D
330
1F
100
AcDbEntity
  8
0
  6
Continuous
 62
     7
370
    15
100
AcDbLine
 10
56.0662613144
 20
278.7090839675
 30
0.0
 11
56.0662613144
 21
276.3648029256
 31
0.0
  0
ARC
  5
6E
330
1F
100
AcDbEntity
  8
0
  6
Continuous
 62
     7
370
    15
100
AcDbCircle
 10
55.8662613144
 20
275.2148029256
 30
0.0
 40
14.99999999999999
100
AcDbArc
 50
90.763966364
 51
89.236033636
  0
LINE
  5
6F
330
1F
100
AcDbEntity
  8
0
  6
Continuous
 62
     7
370
    15
100
AcDbLine
 10
56.0662613144
 20
276.3648029256
 30
0.0
 11
56.8293293286
 21
276.3648029256
 31
0.0
  0
ARC
  5
70
330
1F
100
AcDbEntity
  8
0
  6
Continuous
 62
     7
370
    15
100
AcDbCircle
 10
55.8662613144
 20
275.2148029256
 30
0.0
 40
3.500000000000072
100
AcDbArc
 50
68.4864262504
 51
86.7241710402
  0
ARC
  5
71
330
1F
100
AcDbEntity
  8
0
  6
Continuous
 62
     7
370
    15
100
AcDbCircle
 10
55.8662613144
 20
275.2148029256
 30
0.0
 40
13.00000000000005
100
AcDbArc
 50
58.4576031237
 51
89.1184916932
  0
ARC
  5
72
330
1F
100
AcDbEntity
  8
0
  6
Continuous
 62
     7
370
    15
100
AcDbCircle
 10
117.5676142576
 20
265.0430504116
 30
0.0
 40
3.000000000000011
100
AcDbArc
 50
241.5423968763
 51
349.0
  0
LINE
  5
73
330
1F
100
AcDbEntity
  8
0
  6
Continuous
 62
     7
370
    15
100
AcDbLine
 10
120.512495808
 20
264.4706234255
 30
0.0
 11
121.2324392733
 21
268.1744114713
 31
0.0
  0
ARC
  5
74
330
1F
100
AcDbEntity
  8
0
  6
Continuous
 62
     7
370
    15
100
AcDbCircle
 10
118.287557723
 20
268.7468384574
 30
0.0
 40
3.0
100
AcDbArc
 50
349.0
 51
51.5135737496
  0
ARC
  5
75
330
1F
100
AcDbEntity
  8
0
  6
Continuous
 62
     7
370
    15
100
AcDbCircle
 10
122.3326976147
 20
273.8347499401
 30
0.0
 40
3.500000000000016
100
AcDbArc
 50
188.4864262504
 51
231.5135737496
  0
ARC
  5
76
330
1F
100
AcDbEntity
  8
0
  6
Continuous
 62
     7
370
    15
100
AcDbCircle
 10
115.9038670726
 20
272.8755117734
 30
0.0
 40
2.99999999999999
100
AcDbArc
 50
8.4864262504
 51
71.0
  0
LINE
  5
77
330
1F
100
AcDbEntity
  8
0
  6
Continuous
 62
     7
370
    15
100
AcDbLine
 10
116.880571536
 20
275.7120675002
 30
0.0
 11
113.3130252654
 21
276.9404721928
 31
0.0
  0
ARC
  5
78
330
1F
100
AcDbEntity
  8
0
  6
Continuous
 62
     7
370
    15
100
AcDbCircle
 10
112.336320802
 20
274.103916466
 30
0.0
 40
2.999999999999989
100
AcDbArc
 50
71.0
 51
178.4576031237
  0
ARC
  5
79
330
1F
100
AcDbEntity
  8
0
  6
Continuous
 62
     7
370
    15
100
AcDbCircle
 10
122.3326976147
 20
273.8347499401
 30
0.0
 40
13.0
100
AcDbArc
 50
178.4576031237
 51
241.5423968763
  0
ARC
  5
7A
330
1F
100
AcDbEntity
  8
0
  6
Continuous
 62
     7
370
    15
100
AcDbCircle
 10
132.3290744274
 20
274.103916466
 30
0.0
 40
3.000000000000001
100
AcDbArc
 50
1.5423968763
 51
109.0
  0
LINE
  5
7B
330
1F
100
AcDbEntity
  8
0
  6
Continuous
 62
     7
370
    15
100
AcDbLine
 10
131.352369964
 20
276.9404721928
 30
0.0
 11
127.7848236935
 21
275.7120675002
 31
0.0
  0
ARC
  5
7C
330
1F
100
AcDbEntity
  8
0
  6
Continuous
 62
     7
370
    15
100
AcDbCircle
 10
128.7615281568
 20
272.8755117734
 30
0.0
 40
3.00000000000001
100
AcDbArc
 50
109.0
 51
171.5135737496
  0
ARC
  5
7D
330
1F
100
AcDbEntity
  8
0
  6
Continuous
 62
     7
370
    15
100
AcDbCircle
 10
122.3326976147
 20
273.8347499401
 30
0.0
 40
3.500000000000001
100
AcDbArc
 50
308.4864262504
 51
351.5135737496
  0
ARC
  5
7E
330
1F
100
AcDbEntity
  8
0
  6
Continuous
 62
     7
370
    15
100
AcDbCircle
 10
126.3778375065
 20
268.7468384574
 30
0.0
 40
3.000000000000026
100
AcDbArc
 50
128.4864262504
 51
191.0
  0
LINE
  5
7F
330
1F
100
AcDbEntity
  8
0
  6
Continuous
 62
     7
370
    15
100
AcDbLine
 10
123.4329559561
 20
268.1744114713
 30
0.0
 11
124.1528994214
 21
264.4706234255
 31
0.0
  0
ARC
  5
80
330
1F
100
AcDbEntity
  8
0
  6
Continuous
 62
     7
370
    15
100
AcDbCircle
 10
127.0977809718
 20
265.0430504116
 30
0.0
 40
3.000000000000008
100
AcDbArc
 50
191.0
 51
298.4576031237
  0
ARC
  5
81
330
1F
100
AcDbEntity
  8
0
  6
Continuous
 62
     7
370
    15
100
AcDbCircle
 10
122.3326976147
 20
273.8347499401
 30
0.0
 40
13.0
100
AcDbArc
 50
298.4576031237
 51
1.5423968763
  0
ARC
  5
82
330
1F
100
AcDbEntity
  8
0
  6
Continuous
 62
     7
370
    15
100
AcDbCircle
 10
124.7163882651
 20
279.8818995896
 30
0.0
 40
3.00000000000002
100
AcDbArc
 50
248.4864262504
 51
311.0
  0
LINE
  5
83
330
1F
100
AcDbEntity
  8
0
  6
Continuous
 62
     7
370
    15
100
AcDbLine
 10
126.6845653521
 20
277.6177708489
 30
0.0
 11
129.5321681573
 21
280.0931542021
 31
0.0
  0
ARC
  5
84
330
1F
100
AcDbEntity
  8
0
  6
Continuous
 62
     7
370
    15
100
AcDbCircle
 10
127.5639910703
 20
282.3572829428
 30
0.0
 40
2.999999999999995
100
AcDbArc
 50
311.0
 51
58.4576031237
  0
LINE
  5
85
330
1F
100
AcDbEntity
  8
0
  6
Continuous
 62
     7
370
    15
100
AcDbLine
 10
122.5326976147
 20
288.8334165475
 30
0.0
 11
122.5326976147
 21
286.8332113875
 31
0.0
  0
LINE
  5
86
330
1F
100
AcDbEntity
  8
0
  6
Continuous
 62
     7
370
    15
100
AcDbLine
 10
122.1326976147
 20
286.8332113875
 30
0.0
 11
122.1326976147
 21
288.8334165475
 31
0.0
  0
ARC
  5
87
330
1F
100
AcDbEntity
  8
0
  6
Continuous
 62
     7
370
    15
100
AcDbCircle
 10
122.3326976147
 20
273.8347499401
 30
0.0
 40
12.99999999999999
100
AcDbArc
 50
90.8815083068
 51
121.5423968763
  0
ARC
  5
88
330
1F
100
AcDbEntity
  8
0
  6
Continuous
 62
     7
370
    15
100
AcDbCircle
 10
117.1014041591
 20
282.3572829428
 30
0.0
 40
2.999999999999988
100
AcDbArc
 50
121.5423968763
 51
229.0
  0
LINE
  5
89
330
1F
100
AcDbEntity
  8
0
  6
Continuous
 62
     7
370
    15
100
AcDbLine
 10
115.1332270721
 20
280.0931542021
 30
0.0
 11
117.9808298774
 21
277.6177708489
 31
0.0
  0
ARC
  5
8A
330
1F
100
AcDbEntity
  8
0
  6
Continuous
 62
     7
370
    15
100
AcDbCircle
 10
119.9490069643
 20
279.8818995896
 30
0.0
 40
3.000000000000029
100
AcDbArc
 50
229.0
 51
291.5135737496
  0
ARC
  5
8B
330
1F
100
AcDbEntity
  8
0
  6
Continuous
 62
     7
370
    15
100
AcDbCircle
 10
122.3326976147
 20
273.8347499401
 30
0.0
 40
3.500000000000022
100
AcDbArc
 50
93.2758289598
 51
111.5135737496
  0
LINE
  5
8C
330
1F
100
AcDbEntity
  8
0
  6
Continuous
 62
     7
370
    15
100
AcDbLine
 10
122.1326976147
 20
274.9847499401
 30
0.0
 11
122.1326976147
 21
277.3290309821
 31
0.0
  0
LINE
  5
8D
330
1F
100
AcDbEntity
  8
0
  6
Continuous
 62
     7
370
    15
100
AcDbLine
 10
121.3696296005
 20
274.9847499401
 30
0.0
 11
122.1326976147
 21
274.9847499401
 31
0.0
  0
ARC
  5
8E
330
1F
100
AcDbEntity
  8
0
  6
Continuous
 62
     7
370
    15
100
AcDbCircle
 10
122.3326976147
 20
273.8347499401
 30
0.0
 40
1.49999999999998
100
AcDbArc
 50
129.9445051898
 51
50.0554948102
  0
LINE
  5
8F
330
1F
100
AcDbEntity
  8
0
  6
Continuous
 62
     7
370
    15
100
AcDbLine
 10
122.5326976147
 20
277.3290309821
 30
0.0
 11
122.5326976147
 21
274.9847499401
 31
0.0
  0
ARC
  5
90
330
1F
100
AcDbEntity
  8
0
  6
Continuous
 62
     7
370
    15
100
AcDbCircle
 10
122.3326976147
 20
273.8347499401
 30
0.0
 40
15.00000000000005
100
AcDbArc
 50
90.763966364
 51
89.236033636
  0
LINE
  5
91
330
1F
100
AcDbEntity
  8
0
  6
Continuous
 62
     7
370
    15
100
AcDbLine
 10
122.5326976147
 20
274.9847499401
 30
0.0
 11
123.2957656289
 21
274.9847499401
 31
0.0
  0
ARC
  5
92
330
1F
100
AcDbEntity
  8
0
  6
Continuous
 62
     7
370
    15
100
AcDbCircle
 10
122.3326976147
 20
273.8347499401
 30
0.0
 40
3.500000000000022
100
AcDbArc
 50
68.4864262504
 51
86.7241710402
  0
ARC
  5
93
330
1F
100
AcDbEntity
  8
0
  6
Continuous
 62
     7
370
    15
100
AcDbCircle
 10
122.3326976147
 20
273.8347499401
 30
0.0
 40
12.99999999999999
100
AcDbArc
 50
58.4576031237
 51
89.1184916932
  0
ARC
  5
94
330
1F
100
AcDbEntity
  8
0
  6
Continuous
 62
     7
370
    15
100
AcDbCircle
 10
187.0092357985
 20
265.7572023999
 30
0.0
 40
3.00000000000004
100
AcDbArc
 50
241.5423968763
 51
349.0
  0
LINE
  5
95
330
1F
100
AcDbEntity
  8
0
  6
Continuous
 62
     7
370
    15
100
AcDbLine
 10
189.9541173489
 20
265.1847754137
 30
0.0
 11
190.6740608142
 21
268.8885634595
 31
0.0
  0
ARC
  5
96
330
1F
100
AcDbEntity
  8
0
  6
Continuous
 62
     7
370
    15
100
AcDbCircle
 10
187.7291792639
 20
269.4609904457
 30
0.0
 40
3.000000000000008
100
AcDbArc
 50
349.0
 51
51.5135737496
  0
ARC
  5
97
330
1F
100
AcDbEntity
  8
0
  6
Continuous
 62
     7
370
    15
100
AcDbCircle
 10
191.7743191556
 20
274.5489019284
 30
0.0
 40
3.500000000000001
100
AcDbArc
 50
188.4864262504
 51
231.5135737496
  0
ARC
  5
98
330
1F
100
AcDbEntity
  8
0
  6
Continuous
 62
     7
370
    15
100
AcDbCircle
 10
185.3454886135
 20
273.5896637617
 30
0.0
 40
3.000000000000036
100
AcDbArc
 50
8.4864262504
 51
71.0
  0
LINE
  5
99
330
1F
100
AcDbEntity
  8
0
  6
Continuous
 62
     7
370
    15
100
AcDbLine
 10
186.3221930768
 20
276.4262194885
 30
0.0
 11
182.7546468063
 21
277.6546241811
 31
0.0
  0
ARC
  5
9A
330
1F
100
AcDbEntity
  8
0
  6
Continuous
 62
     7
370
    15
100
AcDbCircle
 10
181.7779423429
 20
274.8180684543
 30
0.0
 40
3.000000000000036
100
AcDbArc
 50
71.0
 51
178.4576031237
  0
ARC
  5
9B
330
1F
100
AcDbEntity
  8
0
  6
Continuous
 62
     7
370
    15
100
AcDbCircle
 10
191.7743191556
 20
274.5489019284
 30
0.0
 40
13.00000000000001
100
AcDbArc
 50
178.4576031237
 51
241.5423968763
  0
ARC
  5
9C
330
1F
100
AcDbEntity
  8
0
  6
Continuous
 62
     7
370
    15
100
AcDbCircle
 10
201.7706959683
 20
274.8180684543
 30
0.0
 40
3.000000000000055
100
AcDbArc
 50
1.5423968763
 51
109.0
  0
LINE
  5
9D
330
1F
100
AcDbEntity
  8
0
  6
Continuous
 62
     7
370
    15
100
AcDbLine
 10
200.7939915049
 20
277.6546241811
 30
0.0
 11
197.2264452344
 21
276.4262194885
 31
0.0
  0
ARC
  5
9E
330
1F
100
AcDbEntity
  8
0
  6
Continuous
 62
     7
370
    15
100
AcDbCircle
 10
198.2031496977
 20
273.5896637617
 30
0.0
 40
3.000000000000004
100
AcDbArc
 50
109.0
 51
171.5135737496
  0
ARC
  5
9F
330
1F
100
AcDbEntity
  8
0
  6
Continuous
 62
     7
370
    15
100
AcDbCircle
 10
191.7743191556
 20
274.5489019284
 30
0.0
 40
3.499999999999993
100
AcDbArc
 50
308.4864262504
 51
351.5135737496
  0
ARC
  5
A0
330
1F
100
AcDbEntity
  8
0
  6
Continuous
 62
     7
370
    15
100
AcDbCircle
 10
195.8194590473
 20
269.4609904457
 30
0.0
 40
3.000000000000026
100
AcDbArc
 50
128.4864262504
 51
191.0
  0
LINE
  5
A1
330
1F
100
AcDbEntity
  8
0
  6
Continuous
 62
     7
370
    15
100
AcDbLine
 10
192.874577497
 20
268.8885634595
 30
0.0
 11
193.5945209623
 21
265.1847754137
 31
0.0
  0
ARC
  5
A2
330
1F
100
AcDbEntity
  8
0
  6
Continuous
 62
     7
370
    15
100
AcDbCircle
 10
196.5394025127
 20
265.7572023999
 30
0.0
 40
3.000000000000022
100
AcDbArc
 50
191.0
 51
298.4576031237
  0
ARC
  5
A3
330
1F
100
AcDbEntity
  8
0
  6
Continuous
 62
     7
370
    15
100
AcDbCircle
 10
191.7743191556
 20
274.5489019284
 30
0.0
 40
12.99999999999998
100
AcDbArc
 50
298.4576031237
 51
1.5423968763
  0
ARC
  5
A4
330
1F
100
AcDbEntity
  8
0
  6
Continuous
 62
     7
370
    15
100
AcDbCircle
 10
194.158009806
 20
280.5960515779
 30
0.0
 40
3.00000000000002
100
AcDbArc
 50
248.4864262504
 51
311.0
  0
LINE
  5
A5
330
1F
100
AcDbEntity
  8
0
  6
Continuous
 62
     7
370
    15
100
AcDbLine
 10
196.126186893
 20
278.3319228372
 30
0.0
 11
198.9737896982
 21
280.8073061904
 31
0.0
  0
ARC
  5
A6
330
1F
100
AcDbEntity
  8
0
  6
Continuous
 62
     7
370
    15
100
AcDbCircle
 10
197.0056126112
 20
283.0714349311
 30
0.0
 40
2.999999999999988
100
AcDbArc
 50
311.0
 51
58.4576031237
  0
LINE
  5
A7
330
1F
100
AcDbEntity
  8
0
  6
Continuous
 62
     7
370
    15
100
AcDbLine
 10
191.9743191556
 20
289.5475685358
 30
0.0
 11
191.9743191556
 21
287.5473633758
 31
0.0
  0
LINE
  5
A8
330
1F
100
AcDbEntity
  8
0
  6
Continuous
 62
     7
370
    15
100
AcDbLine
 10
191.5743191556
 20
287.5473633758
 30
0.0
 11
191.5743191556
 21
289.5475685358
 31
0.0
  0
ARC
  5
A9
330
1F
100
AcDbEntity
  8
0
  6
Continuous
 62
     7
370
    15
100
AcDbCircle
 10
191.7743191556
 20
274.5489019284
 30
0.0
 40
13.00000000000005
100
AcDbArc
 50
90.8815083068
 51
121.5423968763
  0
ARC
  5
AA
330
1F
100
AcDbEntity
  8
0
  6
Continuous
 62
     7
370
    15
100
AcDbCircle
 10
186.5430257
 20
283.0714349311
 30
0.0
 40
3.000000000000002
100
AcDbArc
 50
121.5423968763
 51
229.0
  0
LINE
  5
AB
330
1F
100
AcDbEntity
  8
0
  6
Continuous
 62
     7
370
    15
100
AcDbLine
 10
184.574848613
 20
280.8073061904
 30
0.0
 11
187.4224514182
 21
278.3319228372
 31
0.0
  0
ARC
  5
AC
330
1F
100
AcDbEntity
  8
0
  6
Continuous
 62
     7
370
    15
100
AcDbCircle
 10
189.3906285052
 20
280.5960515779
 30
0.0
 40
3.000000000000039
100
AcDbArc
 50
229.0
 51
291.5135737496
  0
ARC
  5
AD
330
1F
100
AcDbEntity
  8
0
  6
Continuous
 62
     7
370
    15
100
AcDbCircle
 10
191.7743191556
 20
274.5489019284
 30
0.0
 40
3.50000000000007
100
AcDbArc
 50
93.2758289598
 51
111.5135737496
  0
LINE
  5
AE
330
1F
100
AcDbEntity
  8
0
  6
Continuous
 62
     7
370
    15
100
AcDbLine
 10
191.5743191556
 20
275.6989019284
 30
0.0
 11
191.5743191556
 21
278.0431829703
 31
0.0
  0
LINE
  5
AF
330
1F
100
AcDbEntity
  8
0
  6
Continuous
 62
     7
370
    15
100
AcDbLine
 10
190.8112511414
 20
275.6989019284
 30
0.0
 11
191.5743191556
 21
275.6989019284
 31
0.0
  0
ARC
  5
B0
330
1F
100
AcDbEntity
  8
0
  6
Continuous
 62
     7
370
    15
100
AcDbCircle
 10
191.7743191556
 20
274.5489019284
 30
0.0
 40
1.49999999999999
100
AcDbArc
 50
129.9445051898
 51
50.0554948102
  0
LINE
  5
B1
330
1F
100
AcDbEntity
  8
0
  6
Continuous
 62
     7
370
    15
100
AcDbLine
 10
191.9743191556
 20
278.0431829703
 30
0.0
 11
191.9743191556
 21
275.6989019284
 31
0.0
  0
ARC
  5
B2
330
1F
100
AcDbEntity
  8
0
  6
Continuous
 62
     7
370
    15
100
AcDbCircle
 10
191.7743191556
 20
274.5489019284
 30
0.0
 40
15.00000000000005
100
AcDbArc
 50
90.763966364
 51
89.236033636
  0
LINE
  5
B3
330
1F
100
AcDbEntity
  8
0
  6
Continuous
 62
     7
370
    15
100
AcDbLine
 10
191.9743191556
 20
275.6989019284
 30
0.0
 11
192.7373871698
 21
275.6989019284
 31
0.0
  0
ARC
  5
B4
330
1F
100
AcDbEntity
  8
0
  6
Continuous
 62
     7
370
    15
100
AcDbCircle
 10
191.7743191556
 20
274.5489019284
 30
0.0
 40
3.50000000000007
100
AcDbArc
 50
68.4864262504
 51
86.7241710402
  0
ARC
  5
B5
330
1F
100
AcDbEntity
  8
0
  6
Continuous
 62
     7
370
    15
100
AcDbCircle
 10
191.7743191556
 20
274.5489019284
 30
0.0
 40
13.00000000000005
100
AcDbArc
 50
58.4576031237
 51
89.1184916932
  0
ARC
  5
B6
330
1F
100
AcDbEntity
  8
0
  6
Continuous
 62
     7
370
    15
100
AcDbCircle
 10
18.0552906
 20
266.2040659445
 30
0.0
 40
3.000000000000035
100
AcDbArc
 50
241.5423968763
 51
349.0
  0
LINE
  5
B7
330
1F
100
AcDbEntity
  8
0
  6
Continuous
 62
     7
370
    15
100
AcDbLine
 10
21.0001721504
 20
265.6316389583
 30
0.0
 11
21.7201156157
 21
269.3354270041
 31
0.0
  0
ARC
  5
B8
330
1F
100
AcDbEntity
  8
0
  6
Continuous
 62
     7
370
    15
100
AcDbCircle
 10
18.7752340654
 20
269.9078539903
 30
0.0
 40
2.999999999999993
100
AcDbArc
 50
349.0
 51
51.5135737496
  0
ARC
  5
B9
330
1F
100
AcDbEntity
  8
0
  6
Continuous
 62
     7
370
    15
100
AcDbCircle
 10
22.8203739571
 20
274.995765473
 30
0.0
 40
3.500000000000018
100
AcDbArc
 50
188.4864262504
 51
231.5135737496
  0
ARC
  5
BA
330
1F
100
AcDbEntity
  8
0
  6
Continuous
 62
     7
370
    15
100
AcDbCircle
 10
16.391543415
 20
274.0365273063
 30
0.0
 40
3.000000000000043
100
AcDbArc
 50
8.4864262504
 51
71.0
  0
LINE
  5
BB
330
1F
100
AcDbEntity
  8
0
  6
Continuous
 62
     7
370
    15
100
AcDbLine
 10
17.3682478784
 20
276.8730830331
 30
0.0
 11
13.8007016078
 21
278.1014877257
 31
0.0
  0
ARC
  5
BC
330
1F
100
AcDbEntity
  8
0
  6
Continuous
 62
     7
370
    15
100
AcDbCircle
 10
12.8239971444
 20
275.2649319989
 30
0.0
 40
3.000000000000043
100
AcDbArc
 50
71.0
 51
178.4576031237
  0
ARC
  5
BD
330
1F
100
AcDbEntity
  8
0
  6
Continuous
 62
     7
370
    15
100
AcDbCircle
 10
22.8203739571
 20
274.995765473
 30
0.0
 40
13.0
100
AcDbArc
 50
178.4576031237
 51
241.5423968763
  0
ARC
  5
BE
330
1F
100
AcDbEntity
  8
0
  6
Continuous
 62
     7
370
    15
100
AcDbCircle
 10
32.8167507698
 20
275.2649319989
 30
0.0
 40
3.000000000000055
100
AcDbArc
 50
1.5423968763
 51
109.0
  0
LINE
  5
BF
330
1F
100
AcDbEntity
  8
0
  6
Continuous
 62
     7
370
    15
100
AcDbLine
 10
31.8400463064
 20
278.1014877257
 30
0.0
 11
28.2725000359
 21
276.8730830331
 31
0.0
  0
ARC
  5
C0
330
1F
100
AcDbEntity
  8
0
  6
Continuous
 62
     7
370
    15
100
AcDbCircle
 10
29.2492044993
 20
274.0365273063
 30
0.0
 40
3.0
100
AcDbArc
 50
109.0
 51
171.5135737496
  0
ARC
  5
C1
330
1F
100
AcDbEntity
  8
0
  6
Continuous
 62
     7
370
    15
100
AcDbCircle
 10
22.8203739571
 20
274.995765473
 30
0.0
 40
3.500000000000005
100
AcDbArc
 50
308.4864262504
 51
351.5135737496
  0
ARC
  5
C2
330
1F
100
AcDbEntity
  8
0
  6
Continuous
 62
     7
370
    15
100
AcDbCircle
 10
26.8655138489
 20
269.9078539903
 30
0.0
 40
3.000000000000022
100
AcDbArc
 50
128.4864262504
 51
191.0
  0
LINE
  5
C3
330
1F
100
AcDbEntity
  8
0
  6
Continuous
 62
     7
370
    15
100
AcDbLine
 10
23.9206322985
 20
269.3354270041
 30
0.0
 11
24.6405757638
 21
265.6316389583
 31
0.0
  0
ARC
  5
C4
330
1F
100
AcDbEntity
  8
0
  6
Continuous
 62
     7
370
    15
100
AcDbCircle
 10
27.5854573142
 20
266.2040659445
 30
0.0
 40
2.999999999999987
100
AcDbArc
 50
191.0
 51
298.4576031237
  0
ARC
  5
C5
330
1F
100
AcDbEntity
  8
0
  6
Continuous
 62
     7
370
    15
100
AcDbCircle
 10
22.8203739571
 20
274.995765473
 30
0.0
 40
13.0
100
AcDbArc
 50
298.4576031237
 51
1.5423968763
  0
ARC
  5
C6
330
1F
100
AcDbEntity
  8
0
  6
Continuous
 62
     7
370
    15
100
AcDbCircle
 10
25.2040646075
 20
281.0429151225
 30
0.0
 40
2.999999999999994
100
AcDbArc
 50
248.4864262504
 51
311.0
  0
LINE
  5
C7
330
1F
100
AcDbEntity
  8
0
  6
Continuous
 62
     7
370
    15
100
AcDbLine
 10
27.1722416945
 20
278.7787863818
 30
0.0
 11
30.0198444997
 21
281.254169735
 31
0.0
  0
ARC
  5
C8
330
1F
100
AcDbEntity
  8
0
  6
Continuous
 62
     7
370
    15
100
AcDbCircle
 10
28.0516674127
 20
283.5182984757
 30
0.0
 40
3.00000000000004
100
AcDbArc
 50
311.0
 51
58.4576031237
  0
LINE
  5
C9
330
1F
100
AcDbEntity
  8
0
  6
Continuous
 62
     7
370
    15
100
AcDbLine
 10
23.0203739571
 20
289.9944320804
 30
0.0
 11
23.0203739571
 21
287.9942269204
 31
0.0
  0
LINE
  5
CA
330
1F
100
AcDbEntity
  8
0
  6
Continuous
 62
     7
370
    15
100
AcDbLine
 10
22.6203739571
 20
287.9942269204
 30
0.0
 11
22.6203739571
 21
289.9944320804
 31
0.0
  0
ARC
  5
CB
330
1F
100
AcDbEntity
  8
0
  6
Continuous
 62
     7
370
    15
100
AcDbCircle
 10
22.8203739571
 20
274.995765473
 30
0.0
 40
13.00000000000005
100
AcDbArc
 50
90.8815083068
 51
121.5423968763
  0
ARC
  5
CC
330
1F
100
AcDbEntity
  8
0
  6
Continuous
 62
     7
370
    15
100
AcDbCircle
 10
17.5890805015
 20
283.5182984757
 30
0.0
 40
3.000000000000042
100
AcDbArc
 50
121.5423968763
 51
229.0
  0
LINE
  5
CD
330
1F
100
AcDbEntity
  8
0
  6
Continuous
 62
     7
370
    15
100
AcDbLine
 10
15.6209034145
 20
281.254169735
 30
0.0
 11
18.4685062198
 21
278.7787863818
 31
0.0
  0
ARC
  5
CE
330
1F
100
AcDbEntity
  8
0
  6
Continuous
 62
     7
370
    15
100
AcDbCircle
 10
20.4366833067
 20
281.0429151225
 30
0.0
 40
2.999999999999997
100
AcDbArc
 50
229.0
 51
291.5135737496
  0
ARC
  5
CF
330
1F
100
AcDbEntity
  8
0
  6
Continuous
 62
     7
370
    15
100
AcDbCircle
 10
22.8203739571
 20
274.995765473
 30
0.0
 40
3.500000000000021
100
AcDbArc
 50
93.2758289598
 51
111.5135737496
  0
LINE
  5
D0
330
1F
100
AcDbEntity
  8
0
  6
Continuous
 62
     7
370
    15
100
AcDbLine
 10
22.6203739571
 20
276.145765473
 30
0.0
 11
22.6203739571
 21
278.490046515
 31
0.0
  0
LINE
  5
D1
330
1F
100
AcDbEntity
  8
0
  6
Continuous
 62
     7
370
    15
100
AcDbLine
 10
21.8573059429
 20
276.145765473
 30
0.0
 11
22.6203739571
 21
276.145765473
 31
0.0
  0
ARC
  5
D2
330
1F
100
AcDbEntity
  8
0
  6
Continuous
 62
     7
370
    15
100
AcDbCircle
 10
22.8203739571
 20
274.995765473
 30
0.0
 40
1.499999999999983
100
AcDbArc
 50
129.9445051898
 51
50.0554948102
  0
LINE
  5
D3
330
1F
100
AcDbEntity
  8
0
  6
Continuous
 62
     7
370
    15
100
AcDbLine
 10
23.0203739571
 20
278.490046515
 30
0.0
 11
23.0203739571
 21
276.145765473
 31
0.0
  0
ARC
  5
D4
330
1F
100
AcDbEntity
  8
0
  6
Continuous
 62
     7
370
    15
100
AcDbCircle
 10
22.8203739571
 20
274.995765473
 30
0.0
 40
15.00000000000005
100
AcDbArc
 50
90.763966364
 51
89.236033636
  0
LINE
  5
D5
330
1F
100
AcDbEntity
  8
0
  6
Continuous
 62
     7
370
    15
100
AcDbLine
 10
23.0203739571
 20
276.145765473
 30
0.0
 11
23.7834419713
 21
276.145765473
 31
0.0
  0
ARC
  5
D6
330
1F
100
AcDbEntity
  8
0
  6
Continuous
 62
     7
370
    15
100
AcDbCircle
 10
22.8203739571
 20
274.995765473
 30
0.0
 40
3.500000000000021
100
AcDbArc
 50
68.4864262504
 51
86.7241710402
  0
ARC
  5
D7
330
1F
100
AcDbEntity
  8
0
  6
Continuous
 62
     7
370
    15
100
AcDbCircle
 10
22.8203739571
 20
274.995765473
 30
0.0
 40
13.00000000000005
100
AcDbArc
 50
58.4576031237
 51
89.1184916932
  0
ARC
  5
D8
330
1F
100
AcDbEntity
  8
0
  6
Continuous
 62
     7
370
    15
100
AcDbCircle
 10
83.7380198796
 20
265.8873247399
 30
0.0
 40
3.000000000000011
100
AcDbArc
 50
241.5423968763
 51
349.0
  0
LINE
  5
D9
330
1F
100
AcDbEntity
  8
0
  6
Continuous
 62
     7
370
    15
100
AcDbLine
 10
86.6829014299
 20
265.3148977538
 30
0.0
 11
87.4028448953
 21
269.0186857996
 31
0.0
  0
ARC
  5
DA
330
1F
100
AcDbEntity
  8
0
  6
Continuous
 62
     7
370
    15
100
AcDbCircle
 10
84.4579633449
 20
269.5911127857
 30
0.0
 40
3.0
100
AcDbArc
 50
349.0
 51
51.5135737496
  0
ARC
  5
DB
330
1F
100
AcDbEntity
  8
0
  6
Continuous
 62
     7
370
    15
100
AcDbCircle
 10
88.5031032367
 20
274.6790242685
 30
0.0
 40
3.500000000000016
100
AcDbArc
 50
188.4864262504
 51
231.5135737496
  0
ARC
  5
DC
330
1F
100
AcDbEntity
  8
0
  6
Continuous
 62
     7
370
    15
100
AcDbCircle
 10
82.0742726945
 20
273.7197861017
 30
0.0
 40
3.000000000000041
100
AcDbArc
 50
8.4864262504
 51
71.0
  0
LINE
  5
DD
330
1F
100
AcDbEntity
  8
0
  6
Continuous
 62
     7
370
    15
100
AcDbLine
 10
83.0509771579
 20
276.5563418285
 30
0.0
 11
79.4834308873
 21
277.7847465212
 31
0.0
  0
ARC
  5
DE
330
1F
100
AcDbEntity
  8
0
  6
Continuous
 62
     7
370
    15
100
AcDbCircle
 10
78.506726424
 20
274.9481907944
 30
0.0
 40
3.000000000000004
100
AcDbArc
 50
71.0
 51
178.4576031237
  0
ARC
  5
DF
330
1F
100
AcDbEntity
  8
0
  6
Continuous
 62
     7
370
    15
100
AcDbCircle
 10
88.5031032367
 20
274.6790242685
 30
0.0
 40
13.0
100
AcDbArc
 50
178.4576031237
 51
241.5423968763
  0
ARC
  5
E0
330
1F
100
AcDbEntity
  8
0
  6
Continuous
 62
     7
370
    15
100
AcDbCircle
 10
98.4994800494
 20
274.9481907944
 30
0.0
 40
3.000000000000007
100
AcDbArc
 50
1.5423968763
 51
109.0
  0
LINE
  5
E1
330
1F
100
AcDbEntity
  8
0
  6
Continuous
 62
     7
370
    15
100
AcDbLine
 10
97.522775586
 20
277.7847465212
 30
0.0
 11
93.9552293154
 21
276.5563418285
 31
0.0
  0
ARC
  5
E2
330
1F
100
AcDbEntity
  8
0
  6
Continuous
 62
     7
370
    15
100
AcDbCircle
 10
94.9319337788
 20
273.7197861017
 30
0.0
 40
3.000000000000001
100
AcDbArc
 50
109.0
 51
171.5135737496
  0
ARC
  5
E3
330
1F
100
AcDbEntity
  8
0
  6
Continuous
 62
     7
370
    15
100
AcDbCircle
 10
88.5031032367
 20
274.6790242685
 30
0.0
 40
3.500000000000001
100
AcDbArc
 50
308.4864262504
 51
351.5135737496
  0
ARC
  5
E4
330
1F
100
AcDbEntity
  8
0
  6
Continuous
 62
     7
370
    15
100
AcDbCircle
 10
92.5482431284
 20
269.5911127857
 30
0.0
 40
3.000000000000026
100
AcDbArc
 50
128.4864262504
 51
191.0
  0
LINE
  5
E5
330
1F
100
AcDbEntity
  8
0
  6
Continuous
 62
     7
370
    15
100
AcDbLine
 10
89.6033615781
 20
269.0186857996
 30
0.0
 11
90.3233050434
 21
265.3148977538
 31
0.0
  0
ARC
  5
E6
330
1F
100
AcDbEntity
  8
0
  6
Continuous
 62
     7
370
    15
100
AcDbCircle
 10
93.2681865937
 20
265.8873247399
 30
0.0
 40
2.999999999999994
100
AcDbArc
 50
191.0
 51
298.4576031237
  0
ARC
  5
E7
330
1F
100
AcDbEntity
  8
0
  6
Continuous
 62
     7
370
    15
100
AcDbCircle
 10
88.5031032367
 20
274.6790242685
 30
0.0
 40
13.00000000000001
100
AcDbArc
 50
298.4576031237
 51
1.5423968763
  0
ARC
  5
E8
330
1F
100
AcDbEntity
  8
0
  6
Continuous
 62
     7
370
    15
100
AcDbCircle
 10
90.886793887
 20
280.726173918
 30
0.0
 40
3.00000000000002
100
AcDbArc
 50
248.4864262504
 51
311.0
  0
LINE
  5
E9
330
1F
100
AcDbEntity
  8
0
  6
Continuous
 62
     7
370
    15
100
AcDbLine
 10
92.854970974
 20
278.4620451773
 30
0.0
 11
95.7025737793
 21
280.9374285304
 31
0.0
  0
ARC
  5
EA
330
1F
100
AcDbEntity
  8
0
  6
Continuous
 62
     7
370
    15
100
AcDbCircle
 10
93.7343966923
 20
283.2015572711
 30
0.0
 40
2.999999999999995
100
AcDbArc
 50
311.0
 51
58.4576031237
  0
LINE
  5
EB
330
1F
100
AcDbEntity
  8
0
  6
Continuous
 62
     7
370
    15
100
AcDbLine
 10
88.7031032367
 20
289.6776908759
 30
0.0
 11
88.7031032367
 21
287.6774857159
 31
0.0
  0
LINE
  5
EC
330
1F
100
AcDbEntity
  8
0
  6
Continuous
 62
     7
370
    15
100
AcDbLine
 10
88.3031032367
 20
287.6774857159
 30
0.0
 11
88.3031032367
 21
289.6776908759
 31
0.0
  0
ARC
  5
ED
330
1F
100
AcDbEntity
  8
0
  6
Continuous
 62
     7
370
    15
100
AcDbCircle
 10
88.5031032367
 20
274.6790242685
 30
0.0
 40
12.99999999999999
100
AcDbArc
 50
90.8815083068
 51
121.5423968763
  0
ARC
  5
EE
330
1F
100
AcDbEntity
  8
0
  6
Continuous
 62
     7
370
    15
100
AcDbCircle
 10
83.271809781
 20
283.2015572711
 30
0.0
 40
2.999999999999988
100
AcDbArc
 50
121.5423968763
 51
229.0
  0
LINE
  5
EF
330
1F
100
AcDbEntity
  8
0
  6
Continuous
 62
     7
370
    15
100
AcDbLine
 10
81.3036326941
 20
280.9374285304
 30
0.0
 11
84.1512354993
 21
278.4620451773
 31
0.0
  0
ARC
  5
F0
330
1F
100
AcDbEntity
  8
0
  6
Continuous
 62
     7
370
    15
100
AcDbCircle
 10
86.1194125863
 20
280.726173918
 30
0.0
 40
3.000000000000029
100
AcDbArc
 50
229.0
 51
291.5135737496
  0
ARC
  5
F1
330
1F
100
AcDbEntity
  8
0
  6
Continuous
 62
     7
370
    15
100
AcDbCircle
 10
88.5031032367
 20
274.6790242685
 30
0.0
 40
3.500000000000022
100
AcDbArc
 50
93.2758289598
 51
111.5135737496
  0
LINE
  5
F2
330
1F
100
AcDbEntity
  8
0
  6
Continuous
 62
     7
370
    15
100
AcDbLine
 10
88.3031032367
 20
275.8290242685
 30
0.0
 11
88.3031032367
 21
278.1733053104
 31
0.0
  0
LINE
  5
F3
330
1F
100
AcDbEntity
  8
0
  6
Continuous
 62
     7
370
    15
100
AcDbLine
 10
87.5400352224
 20
275.8290242685
 30
0.0
 11
88.3031032367
 21
275.8290242685
 31
0.0
  0
ARC
  5
F4
330
1F
100
AcDbEntity
  8
0
  6
Continuous
 62
     7
370
    15
100
AcDbCircle
 10
88.5031032367
 20
274.6790242685
 30
0.0
 40
1.49999999999998
100
AcDbArc
 50
129.9445051898
 51
50.0554948102
  0
LINE
  5
F5
330
1F
100
AcDbEntity
  8
0
  6
Continuous
 62
     7
370
    15
100
AcDbLine
 10
88.7031032367
 20
278.1733053104
 30
0.0
 11
88.7031032367
 21
275.8290242685
 31
0.0
  0
ARC
  5
F6
330
1F
100
AcDbEntity
  8
0
  6
Continuous
 62
     7
370
    15
100
AcDbCircle
 10
88.5031032367
 20
274.6790242685
 30
0.0
 40
15.00000000000005
100
AcDbArc
 50
90.763966364
 51
89.236033636
  0
LINE
  5
F7
330
1F
100
AcDbEntity
  8
0
  6
Continuous
 62
     7
370
    15
100
AcDbLine
 10
88.7031032367
 20
275.8290242685
 30
0.0
 11
89.4661712509
 21
275.8290242685
 31
0.0
  0
ARC
  5
F8
330
1F
100
AcDbEntity
  8
0
  6
Continuous
 62
     7
370
    15
100
AcDbCircle
 10
88.5031032367
 20
274.6790242685
 30
0.0
 40
3.500000000000022
100
AcDbArc
 50
68.4864262504
 51
86.7241710402
  0
ARC
  5
F9
330
1F
100
AcDbEntity
  8
0
  6
Continuous
 62
     7
370
    15
100
AcDbCircle
 10
88.5031032367
 20
274.6790242685
 30
0.0
 40
12.99999999999999
100
AcDbArc
 50
58.4576031237
 51
89.1184916932
  0
ARC
  5
FA
330
1F
100
AcDbEntity
  8
0
  6
Continuous
 62
     7
370
    15
100
AcDbCircle
 10
151.1893204377
 20
265.5572961952
 30
0.0
 40
2.999999999999994
100
AcDbArc
 50
241.5423968763
 51
349.0
  0
LINE
  5
FB
330
1F
100
AcDbEntity
  8
0
  6
Continuous
 62
     7
370
    15
100
AcDbLine
 10
154.134201988
 20
264.9848692091
 30
0.0
 11
154.8541454534
 21
268.6886572549
 31
0.0
  0
ARC
  5
FC
330
1F
100
AcDbEntity
  8
0
  6
Continuous
 62
     7
370
    15
100
AcDbCircle
 10
151.909263903
 20
269.261084241
 30
0.0
 40
2.999999999999991
100
AcDbArc
 50
349.0
 51
51.5135737496
  0
ARC
  5
FD
330
1F
100
AcDbEntity
  8
0
  6
Continuous
 62
     7
370
    15
100
AcDbCircle
 10
155.9544037948
 20
274.3489957237
 30
0.0
 40
3.500000000000001
100
AcDbArc
 50
188.4864262504
 51
231.5135737496
  0
ARC
  5
FE
330
1F
100
AcDbEntity
  8
0
  6
Continuous
 62
     7
370
    15
100
AcDbCircle
 10
149.5255732526
 20
273.389757557
 30
0.0
 40
3.000000000000004
100
AcDbArc
 50
8.4864262504
 51
71.0
  0
LINE
  5
FF
330
1F
100
AcDbEntity
  8
0
  6
Continuous
 62
     7
370
    15
100
AcDbLine
 10
150.502277716
 20
276.2263132838
 30
0.0
 11
146.9347314454
 21
277.4547179764
 31
0.0
  0
ARC
  5
100
330
1F
100
AcDbEntity
  8
0
  6
Continuous
 62
     7
370
    15
100
AcDbCircle
 10
145.9580269821
 20
274.6181622496
 30
0.0
 40
3.000000000000018
100
AcDbArc
 50
71.0
 51
178.4576031237
  0
ARC
  5
101
330
1F
100
AcDbEntity
  8
0
  6
Continuous
 62
     7
370
    15
100
AcDbCircle
 10
155.9544037948
 20
274.3489957237
 30
0.0
 40
13.00000000000004
100
AcDbArc
 50
178.4576031237
 51
241.5423968763
  0
ARC
  5
102
330
1F
100
AcDbEntity
  8
0
  6
Continuous
 62
     7
370
    15
100
AcDbCircle
 10
165.9507806074
 20
274.6181622496
 30
0.0
 40
3.000000000000001
100
AcDbArc
 50
1.5423968763
 51
109.0
  0
LINE
  5
103
330
1F
100
AcDbEntity
  8
0
  6
Continuous
 62
     7
370
    15
100
AcDbLine
 10
164.9740761441
 20
277.4547179764
 30
0.0
 11
161.4065298735
 21
276.2263132838
 31
0.0
  0
ARC
  5
104
330
1F
100
AcDbEntity
  8
0
  6
Continuous
 62
     7
370
    15
100
AcDbCircle
 10
162.3832343369
 20
273.389757557
 30
0.0
 40
2.999999999999996
100
AcDbArc
 50
109.0
 51
171.5135737496
  0
ARC
  5
105
330
1F
100
AcDbEntity
  8
0
  6
Continuous
 62
     7
370
    15
100
AcDbCircle
 10
155.9544037948
 20
274.3489957237
 30
0.0
 40
3.499999999999993
100
AcDbArc
 50
308.4864262504
 51
351.5135737496
  0
ARC
  5
106
330
1F
100
AcDbEntity
  8
0
  6
Continuous
 62
     7
370
    15
100
AcDbCircle
 10
159.9995436865
 20
269.261084241
 30
0.0
 40
3.000000000000026
100
AcDbArc
 50
128.4864262504
 51
191.0
  0
LINE
  5
107
330
1F
100
AcDbEntity
  8
0
  6
Continuous
 62
     7
370
    15
100
AcDbLine
 10
157.0546621362
 20
268.6886572549
 30
0.0
 11
157.7746056015
 21
264.9848692091
 31
0.0
  0
ARC
  5
108
330
1F
100
AcDbEntity
  8
0
  6
Continuous
 62
     7
370
    15
100
AcDbCircle
 10
160.7194871518
 20
265.5572961952
 30
0.0
 40
3.000000000000022
100
AcDbArc
 50
191.0
 51
298.4576031237
  0
ARC
  5
109
330
1F
100
AcDbEntity
  8
0
  6
Continuous
 62
     7
370
    15
100
AcDbCircle
 10
155.9544037948
 20
274.3489957237
 30
0.0
 40
12.99999999999999
100
AcDbArc
 50
298.4576031237
 51
1.5423968763
  0
ARC
  5
10A
330
1F
100
AcDbEntity
  8
0
  6
Continuous
 62
     7
370
    15
100
AcDbCircle
 10
158.3380944451
 20
280.3961453732
 30
0.0
 40
3.000000000000039
100
AcDbArc
 50
248.4864262504
 51
311.0
  0
LINE
  5
10B
330
1F
100
AcDbEntity
  8
0
  6
Continuous
 62
     7
370
    15
100
AcDbLine
 10
160.3062715321
 20
278.1320166326
 30
0.0
 11
163.1538743373
 21
280.6073999857
 31
0.0
  0
ARC
  5
10C
330
1F
100
AcDbEntity
  8
0
  6
Continuous
 62
     7
370
    15
100
AcDbCircle
 10
161.1856972504
 20
282.8715287264
 30
0.0
 40
3.000000000000002
100
AcDbArc
 50
311.0
 51
58.4576031237
  0
LINE
  5
10D
330
1F
100
AcDbEntity
  8
0
  6
Continuous
 62
     7
370
    15
100
AcDbLine
 10
156.1544037948
 20
289.3476623312
 30
0.0
 11
156.1544037948
 21
287.3474571712
 31
0.0
  0
LINE
  5
10E
330
1F
100
AcDbEntity
  8
0
  6
Continuous
 62
     7
370
    15
100
AcDbLine
 10
155.7544037948
 20
287.3474571712
 30
0.0
 11
155.7544037948
 21
289.3476623312
 31
0.0
  0
ARC
  5
10F
330
1F
100
AcDbEntity
  8
0
  6
Continuous
 62
     7
370
    15
100
AcDbCircle
 10
155.9544037948
 20
274.3489957237
 30
0.0
 40
13.00000000000005
100
AcDbArc
 50
90.8815083068
 51
121.5423968763
  0
ARC
  5
110
330
1F
100
AcDbEntity
  8
0
  6
Continuous
 62
     7
370
    15
100
AcDbCircle
 10
150.7231103391
 20
282.8715287264
 30
0.0
 40
3.000000000000002
100
AcDbArc
 50
121.5423968763
 51
229.0
  0
LINE
  5
111
330
1F
100
AcDbEntity
  8
0
  6
Continuous
 62
     7
370
    15
100
AcDbLine
 10
148.7549332522
 20
280.6073999857
 30
0.0
 11
151.6025360574
 21
278.1320166326
 31
0.0
  0
ARC
  5
112
330
1F
100
AcDbEntity
  8
0
  6
Continuous
 62
     7
370
    15
100
AcDbCircle
 10
153.5707131444
 20
280.3961453732
 30
0.0
 40
3.000000000000039
100
AcDbArc
 50
229.0
 51
291.5135737496
  0
ARC
  5
113
330
1F
100
AcDbEntity
  8
0
  6
Continuous
 62
     7
370
    15
100
AcDbCircle
 10
155.9544037948
 20
274.3489957237
 30
0.0
 40
3.50000000000007
100
AcDbArc
 50
93.2758289598
 51
111.5135737496
  0
LINE
  5
114
330
1F
100
AcDbEntity
  8
0
  6
Continuous
 62
     7
370
    15
100
AcDbLine
 10
155.7544037948
 20
275.4989957237
 30
0.0
 11
155.7544037948
 21
277.8432767657
 31
0.0
  0
LINE
  5
115
330
1F
100
AcDbEntity
  8
0
  6
Continuous
 62
     7
370
    15
100
AcDbLine
 10
154.9913357805
 20
275.4989957237
 30
0.0
 11
155.7544037948
 21
275.4989957237
 31
0.0
  0
ARC
  5
116
330
1F
100
AcDbEntity
  8
0
  6
Continuous
 62
     7
370
    15
100
AcDbCircle
 10
155.9544037948
 20
274.3489957237
 30
0.0
 40
1.500000000000033
100
AcDbArc
 50
129.9445051898
 51
50.0554948102
  0
LINE
  5
117
330
1F
100
AcDbEntity
  8
0
  6
Continuous
 62
     7
370
    15
100
AcDbLine
 10
156.1544037948
 20
277.8432767657
 30
0.0
 11
156.1544037948
 21
275.4989957237
 31
0.0
  0
ARC
  5
118
330
1F
100
AcDbEntity
  8
0
  6
Continuous
 62
     7
370
    15
100
AcDbCircle
 10
155.9544037948
 20
274.3489957237
 30
0.0
 40
14.99999999999999
100
AcDbArc
 50
90.763966364
 51
89.236033636
  0
LINE
  5
119
330
1F
100
AcDbEntity
  8
0
  6
Continuous
 62
     7
370
    15
100
AcDbLine
 10
156.1544037948
 20
275.4989957237
 30
0.0
 11
156.917471809
 21
275.4989957237
 31
0.0
  0
ARC
  5
11A
330
1F
100
AcDbEntity
  8
0
  6
Continuous
 62
     7
370
    15
100
AcDbCircle
 10
155.9544037948
 20
274.3489957237
 30
0.0
 40
3.50000000000006
100
AcDbArc
 50
68.4864262504
 51
86.7241710402
  0
ARC
  5
11B
330
1F
100
AcDbEntity
  8
0
  6
Continuous
 62
     7
370
    15
100
AcDbCircle
 10
155.9544037948
 20
274.3489957237
 30
0.0
 40
13.00000000000005
100
AcDbArc
 50
58.4576031237
 51
89.1184916932
  0
ARC
  5
11C
330
1F
100
AcDbEntity
  8
0
  6
Continuous
 62
     7
370
    15
100
AcDbCircle
 10
50.641682889
 20
229.7722949409
 30
0.0
 40
3.000000000000012
100
AcDbArc
 50
241.5423968763
 51
349.0
  0
LINE
  5
11D
330
1F
100
AcDbEntity
  8
0
  6
Continuous
 62
     7
370
    15
100
AcDbLine
 10
53.5865644394
 20
229.1998679547
 30
0.0
 11
54.3065079047
 21
232.9036560005
 31
0.0
  0
ARC
  5
11E
330
1F
100
AcDbEntity
  8
0
  6
Continuous
 62
     7
370
    15
100
AcDbCircle
 10
51.3616263543
 20
233.4760829867
 30
0.0
 40
3.000000000000004
100
AcDbArc
 50
349.0
 51
51.5135737496
  0
ARC
  5
11F
330
1F
100
AcDbEntity
  8
0
  6
Continuous
 62
     7
370
    15
100
AcDbCircle
 10
55.4067662461
 20
238.5639944694
 30
0.0
 40
3.500000000000001
100
AcDbArc
 50
188.4864262504
 51
231.5135737496
  0
ARC
  5
120
330
1F
100
AcDbEntity
  8
0
  6
Continuous
 62
     7
370
    15
100
AcDbCircle
 10
48.977935704
 20
237.6047563027
 30
0.0
 40
3.000000000000001
100
AcDbArc
 50
8.4864262504
 51
71.0
  0
LINE
  5
121
330
1F
100
AcDbEntity
  8
0
  6
Continuous
 62
     7
370
    15
100
AcDbLine
 10
49.9546401673
 20
240.4413120295
 30
0.0
 11
46.3870938968
 21
241.6697167221
 31
0.0
  0
ARC
  5
122
330
1F
100
AcDbEntity
  8
0
  6
Continuous
 62
     7
370
    15
100
AcDbCircle
 10
45.4103894334
 20
238.8331609953
 30
0.0
 40
3.000000000000016
100
AcDbArc
 50
71.0
 51
178.4576031237
  0
ARC
  5
123
330
1F
100
AcDbEntity
  8
0
  6
Continuous
 62
     7
370
    15
100
AcDbCircle
 10
55.4067662461
 20
238.5639944694
 30
0.0
 40
13.00000000000001
100
AcDbArc
 50
178.4576031237
 51
241.5423968763
  0
ARC
  5
124
330
1F
100
AcDbEntity
  8
0
  6
Continuous
 62
     7
370
    15
100
AcDbCircle
 10
65.4031430588
 20
238.8331609953
 30
0.0
 40
3.000000000000033
100
AcDbArc
 50
1.5423968763
 51
109.0
  0
LINE
  5
125
330
1F
100
AcDbEntity
  8
0
  6
Continuous
 62
     7
370
    15
100
AcDbLine
 10
64.4264385954
 20
241.6697167221
 30
0.0
 11
60.8588923249
 21
240.4413120295
 31
0.0
  0
ARC
  5
126
330
1F
100
AcDbEntity
  8
0
  6
Continuous
 62
     7
370
    15
100
AcDbCircle
 10
61.8355967882
 20
237.6047563027
 30
0.0
 40
3.000000000000001
100
AcDbArc
 50
109.0
 51
171.5135737496
  0
ARC
  5
127
330
1F
100
AcDbEntity
  8
0
  6
Continuous
 62
     7
370
    15
100
AcDbCircle
 10
55.4067662461
 20
238.5639944694
 30
0.0
 40
3.499999999999997
100
AcDbArc
 50
308.4864262504
 51
351.5135737496
  0
ARC
  5
128
330
1F
100
AcDbEntity
  8
0
  6
Continuous
 62
     7
370
    15
100
AcDbCircle
 10
59.4519061378
 20
233.4760829867
 30
0.0
 40
3.0
100
AcDbArc
 50
128.4864262504
 51
191.0
  0
LINE
  5
129
330
1F
100
AcDbEntity
  8
0
  6
Continuous
 62
     7
370
    15
100
AcDbLine
 10
56.5070245875
 20
232.9036560005
 30
0.0
 11
57.2269680528
 21
229.1998679547
 31
0.0
  0
ARC
  5
12A
330
1F
100
AcDbEntity
  8
0
  6
Continuous
 62
     7
370
    15
100
AcDbCircle
 10
60.1718496032
 20
229.7722949409
 30
0.0
 40
3.000000000000029
100
AcDbArc
 50
191.0
 51
298.4576031237
  0
ARC
  5
12B
330
1F
100
AcDbEntity
  8
0
  6
Continuous
 62
     7
370
    15
100
AcDbCircle
 10
55.4067662461
 20
238.5639944694
 30
0.0
 40
13.00000000000001
100
AcDbArc
 50
298.4576031237
 51
1.5423968763
  0
ARC
  5
12C
330
1F
100
AcDbEntity
  8
0
  6
Continuous
 62
     7
370
    15
100
AcDbCircle
 10
57.7904568965
 20
244.6111441189
 30
0.0
 40
3.000000000000003
100
AcDbArc
 50
248.4864262504
 51
311.0
  0
LINE
  5
12D
330
1F
100
AcDbEntity
  8
0
  6
Continuous
 62
     7
370
    15
100
AcDbLine
 10
59.7586339835
 20
242.3470153782
 30
0.0
 11
62.6062367887
 21
244.8223987314
 31
0.0
  0
ARC
  5
12E
330
1F
100
AcDbEntity
  8
0
  6
Continuous
 62
     7
370
    15
100
AcDbCircle
 10
60.6380597017
 20
247.086527472
 30
0.0
 40
3.000000000000003
100
AcDbArc
 50
311.0
 51
58.4576031237
  0
LINE
  5
12F
330
1F
100
AcDbEntity
  8
0
  6
Continuous
 62
     7
370
    15
100
AcDbLine
 10
55.6067662461
 20
253.5626610768
 30
0.0
 11
55.6067662461
 21
251.5624559168
 31
0.0
  0
LINE
  5
130
330
1F
100
AcDbEntity
  8
0
  6
Continuous
 62
     7
370
    15
100
AcDbLine
 10
55.2067662461
 20
251.5624559168
 30
0.0
 11
55.2067662461
 21
253.5626610768
 31
0.0
  0
ARC
  5
131
330
1F
100
AcDbEntity
  8
0
  6
Continuous
 62
     7
370
    15
100
AcDbCircle
 10
55.4067662461
 20
238.5639944694
 30
0.0
 40
13.00000000000002
100
AcDbArc
 50
90.8815083068
 51
121.5423968763
  0
ARC
  5
132
330
1F
100
AcDbEntity
  8
0
  6
Continuous
 62
     7
370
    15
100
AcDbCircle
 10
50.1754727905
 20
247.086527472
 30
0.0
 40
3.000000000000003
100
AcDbArc
 50
121.5423968763
 51
229.0
  0
LINE
  5
133
330
1F
100
AcDbEntity
  8
0
  6
Continuous
 62
     7
370
    15
100
AcDbLine
 10
48.2072957035
 20
244.8223987314
 30
0.0
 11
51.0548985087
 21
242.3470153782
 31
0.0
  0
ARC
  5
134
330
1F
100
AcDbEntity
  8
0
  6
Continuous
 62
     7
370
    15
100
AcDbCircle
 10
53.0230755957
 20
244.6111441189
 30
0.0
 40
3.000000000000008
100
AcDbArc
 50
229.0
 51
291.5135737496
  0
ARC
  5
135
330
1F
100
AcDbEntity
  8
0
  6
Continuous
 62
     7
370
    15
100
AcDbCircle
 10
55.4067662461
 20
238.5639944694
 30
0.0
 40
3.50000000000003
100
AcDbArc
 50
93.2758289598
 51
111.5135737496
  0
LINE
  5
136
330
1F
100
AcDbEntity
  8
0
  6
Continuous
 62
     7
370
    15
100
AcDbLine
 10
55.2067662461
 20
239.7139944694
 30
0.0
 11
55.2067662461
 21
242.0582755113
 31
0.0
  0
LINE
  5
137
330
1F
100
AcDbEntity
  8
0
  6
Continuous
 62
     7
370
    15
100
AcDbLine
 10
54.4436982319
 20
239.7139944694
 30
0.0
 11
55.2067662461
 21
239.7139944694
 31
0.0
  0
ARC
  5
138
330
1F
100
AcDbEntity
  8
0
  6
Continuous
 62
     7
370
    15
100
AcDbCircle
 10
55.4067662461
 20
238.5639944694
 30
0.0
 40
1.500000000000007
100
AcDbArc
 50
129.9445051898
 51
50.0554948102
  0
LINE
  5
139
330
1F
100
AcDbEntity
  8
0
  6
Continuous
 62
     7
370
    15
100
AcDbLine
 10
55.6067662461
 20
242.0582755113
 30
0.0
 11
55.6067662461
 21
239.7139944694
 31
0.0
  0
ARC
  5
13A
330
1F
100
AcDbEntity
  8
0
  6
Continuous
 62
     7
370
    15
100
AcDbCircle
 10
55.4067662461
 20
238.5639944694
 30
0.0
 40
15.00000000000002
100
AcDbArc
 50
90.763966364
 51
89.236033636
  0
LINE
  5
13B
330
1F
100
AcDbEntity
  8
0
  6
Continuous
 62
     7
370
    15
100
AcDbLine
 10
55.6067662461
 20
239.7139944694
 30
0.0
 11
56.3698342603
 21
239.7139944694
 31
0.0
  0
ARC
  5
13C
330
1F
100
AcDbEntity
  8
0
  6
Continuous
 62
     7
370
    15
100
AcDbCircle
 10
55.4067662461
 20
238.5639944694
 30
0.0
 40
3.500000000000029
100
AcDbArc
 50
68.4864262504
 51
86.7241710402
  0
ARC
  5
13D
330
1F
100
AcDbEntity
  8
0
  6
Continuous
 62
     7
370
    15
100
AcDbCircle
 10
55.4067662461
 20
238.5639944694
 30
0.0
 40
13.00000000000002
100
AcDbArc
 50
58.4576031237
 51
89.1184916932
  0
ARC
  5
13E
330
1F
100
AcDbEntity
  8
0
  6
Continuous
 62
     7
370
    15
100
AcDbCircle
 10
116.808184186
 20
228.3922419554
 30
0.0
 40
3.000000000000011
100
AcDbArc
 50
241.5423968763
 51
349.0
  0
LINE
  5
13F
330
1F
100
AcDbEntity
  8
0
  6
Continuous
 62
     7
370
    15
100
AcDbLine
 10
119.7530657364
 20
227.8198149693
 30
0.0
 11
120.4730092017
 21
231.5236030151
 31
0.0
  0
ARC
  5
140
330
1F
100
AcDbEntity
  8
0
  6
Continuous
 62
     7
370
    15
100
AcDbCircle
 10
117.5281276514
 20
232.0960300012
 30
0.0
 40
3.0
100
AcDbArc
 50
349.0
 51
51.5135737496
  0
ARC
  5
141
330
1F
100
AcDbEntity
  8
0
  6
Continuous
 62
     7
370
    15
100
AcDbCircle
 10
121.5732675431
 20
237.183941484
 30
0.0
 40
3.500000000000001
100
AcDbArc
 50
188.4864262504
 51
231.5135737496
  0
ARC
  5
142
330
1F
100
AcDbEntity
  8
0
  6
Continuous
 62
     7
370
    15
100
AcDbCircle
 10
115.144437001
 20
236.2247033172
 30
0.0
 40
2.999999999999994
100
AcDbArc
 50
8.4864262504
 51
71.0
  0
LINE
  5
143
330
1F
100
AcDbEntity
  8
0
  6
Continuous
 62
     7
370
    15
100
AcDbLine
 10
116.1211414643
 20
239.061259044
 30
0.0
 11
112.5535951938
 21
240.2896637367
 31
0.0
  0
ARC
  5
144
330
1F
100
AcDbEntity
  8
0
  6
Continuous
 62
     7
370
    15
100
AcDbCircle
 10
111.5768907304
 20
237.4531080099
 30
0.0
 40
3.000000000000004
100
AcDbArc
 50
71.0
 51
178.4576031237
  0
ARC
  5
145
330
1F
100
AcDbEntity
  8
0
  6
Continuous
 62
     7
370
    15
100
AcDbCircle
 10
121.5732675431
 20
237.183941484
 30
0.0
 40
12.99999999999999
100
AcDbArc
 50
178.4576031237
 51
241.5423968763
  0
ARC
  5
146
330
1F
100
AcDbEntity
  8
0
  6
Continuous
 62
     7
370
    15
100
AcDbCircle
 10
131.5696443558
 20
237.4531080099
 30
0.0
 40
3.000000000000001
100
AcDbArc
 50
1.5423968763
 51
109.0
  0
LINE
  5
147
330
1F
100
AcDbEntity
  8
0
  6
Continuous
 62
     7
370
    15
100
AcDbLine
 10
130.5929398924
 20
240.2896637367
 30
0.0
 11
127.0253936219
 21
239.061259044
 31
0.0
  0
ARC
  5
148
330
1F
100
AcDbEntity
  8
0
  6
Continuous
 62
     7
370
    15
100
AcDbCircle
 10
128.0020980852
 20
236.2247033172
 30
0.0
 40
2.999999999999987
100
AcDbArc
 50
109.0
 51
171.5135737496
  0
ARC
  5
149
330
1F
100
AcDbEntity
  8
0
  6
Continuous
 62
     7
370
    15
100
AcDbCircle
 10
121.5732675431
 20
237.183941484
 30
0.0
 40
3.500000000000011
100
AcDbArc
 50
308.4864262504
 51
351.5135737496
  0
ARC
  5
14A
330
1F
100
AcDbEntity
  8
0
  6
Continuous
 62
     7
370
    15
100
AcDbCircle
 10
125.6184074349
 20
232.0960300012
 30
0.0
 40
3.000000000000016
100
AcDbArc
 50
128.4864262504
 51
191.0
  0
LINE
  5
14B
330
1F
100
AcDbEntity
  8
0
  6
Continuous
 62
     7
370
    15
100
AcDbLine
 10
122.6735258845
 20
231.5236030151
 30
0.0
 11
123.3934693498
 21
227.8198149693
 31
0.0
  0
ARC
  5
14C
330
1F
100
AcDbEntity
  8
0
  6
Continuous
 62
     7
370
    15
100
AcDbCircle
 10
126.3383509002
 20
228.3922419554
 30
0.0
 40
3.000000000000004
100
AcDbArc
 50
191.0
 51
298.4576031237
  0
ARC
  5
14D
330
1F
100
AcDbEntity
  8
0
  6
Continuous
 62
     7
370
    15
100
AcDbCircle
 10
121.5732675431
 20
237.183941484
 30
0.0
 40
13.0
100
AcDbArc
 50
298.4576031237
 51
1.5423968763
  0
ARC
  5
14E
330
1F
100
AcDbEntity
  8
0
  6
Continuous
 62
     7
370
    15
100
AcDbCircle
 10
123.9569581935
 20
243.2310911335
 30
0.0
 40
2.999999999999998
100
AcDbArc
 50
248.4864262504
 51
311.0
  0
LINE
  5
14F
330
1F
100
AcDbEntity
  8
0
  6
Continuous
 62
     7
370
    15
100
AcDbLine
 10
125.9251352805
 20
240.9669623928
 30
0.0
 11
128.7727380857
 21
243.4423457459
 31
0.0
  0
ARC
  5
150
330
1F
100
AcDbEntity
  8
0
  6
Continuous
 62
     7
370
    15
100
AcDbCircle
 10
126.8045609987
 20
245.7064744866
 30
0.0
 40
3.000000000000012
100
AcDbArc
 50
311.0
 51
58.4576031237
  0
LINE
  5
151
330
1F
100
AcDbEntity
  8
0
  6
Continuous
 62
     7
370
    15
100
AcDbLine
 10
121.7732675431
 20
252.1826080914
 30
0.0
 11
121.7732675431
 21
250.1824029314
 31
0.0
  0
LINE
  5
152
330
1F
100
AcDbEntity
  8
0
  6
Continuous
 62
     7
370
    15
100
AcDbLine
 10
121.3732675431
 20
250.1824029314
 30
0.0
 11
121.3732675431
 21
252.1826080914
 31
0.0
  0
ARC
  5
153
330
1F
100
AcDbEntity
  8
0
  6
Continuous
 62
     7
370
    15
100
AcDbCircle
 10
121.5732675431
 20
237.183941484
 30
0.0
 40
13.00000000000005
100
AcDbArc
 50
90.8815083068
 51
121.5423968763
  0
ARC
  5
154
330
1F
100
AcDbEntity
  8
0
  6
Continuous
 62
     7
370
    15
100
AcDbCircle
 10
116.3419740875
 20
245.7064744866
 30
0.0
 40
3.00000000000002
100
AcDbArc
 50
121.5423968763
 51
229.0
  0
LINE
  5
155
330
1F
100
AcDbEntity
  8
0
  6
Continuous
 62
     7
370
    15
100
AcDbLine
 10
114.3737970005
 20
243.4423457459
 30
0.0
 11
117.2213998057
 21
240.9669623928
 31
0.0
  0
ARC
  5
156
330
1F
100
AcDbEntity
  8
0
  6
Continuous
 62
     7
370
    15
100
AcDbCircle
 10
119.1895768927
 20
243.2310911335
 30
0.0
 40
2.999999999999998
100
AcDbArc
 50
229.0
 51
291.5135737496
  0
ARC
  5
157
330
1F
100
AcDbEntity
  8
0
  6
Continuous
 62
     7
370
    15
100
AcDbCircle
 10
121.5732675431
 20
237.183941484
 30
0.0
 40
3.50000000000003
100
AcDbArc
 50
93.2758289598
 51
111.5135737496
  0
LINE
  5
158
330
1F
100
AcDbEntity
  8
0
  6
Continuous
 62
     7
370
    15
100
AcDbLine
 10
121.3732675431
 20
238.333941484
 30
0.0
 11
121.3732675431
 21
240.6782225259
 31
0.0
  0
LINE
  5
159
330
1F
100
AcDbEntity
  8
0
  6
Continuous
 62
     7
370
    15
100
AcDbLine
 10
120.6101995289
 20
238.333941484
 30
0.0
 11
121.3732675431
 21
238.333941484
 31
0.0
  0
ARC
  5
15A
330
1F
100
AcDbEntity
  8
0
  6
Continuous
 62
     7
370
    15
100
AcDbCircle
 10
121.5732675431
 20
237.183941484
 30
0.0
 40
1.500000000000024
100
AcDbArc
 50
129.9445051898
 51
50.0554948102
  0
LINE
  5
15B
330
1F
100
AcDbEntity
  8
0
  6
Continuous
 62
     7
370
    15
100
AcDbLine
 10
121.7732675431
 20
240.6782225259
 30
0.0
 11
121.7732675431
 21
238.333941484
 31
0.0
  0
ARC
  5
15C
330
1F
100
AcDbEntity
  8
0
  6
Continuous
 62
     7
370
    15
100
AcDbCircle
 10
121.5732675431
 20
237.183941484
 30
0.0
 40
14.99999999999999
100
AcDbArc
 50
90.763966364
 51
89.236033636
  0
LINE
  5
15D
330
1F
100
AcDbEntity
  8
0
  6
Continuous
 62
     7
370
    15
100
AcDbLine
 10
121.7732675431
 20
238.333941484
 30
0.0
 11
122.5363355573
 21
238.333941484
 31
0.0
  0
ARC
  5
15E
330
1F
100
AcDbEntity
  8
0
  6
Continuous
 62
     7
370
    15
100
AcDbCircle
 10
121.5732675431
 20
237.183941484
 30
0.0
 40
3.500000000000031
100
AcDbArc
 50
68.4864262504
 51
86.7241710402
  0
ARC
  5
15F
330
1F
100
AcDbEntity
  8
0
  6
Continuous
 62
     7
370
    15
100
AcDbCircle
 10
121.5732675431
 20
237.183941484
 30
0.0
 40
13.00000000000005
100
AcDbArc
 50
58.4576031237
 51
89.1184916932
  0
ARC
  5
160
330
1F
100
AcDbEntity
  8
0
  6
Continuous
 62
     7
370
    15
100
AcDbCircle
 10
186.2498057269
 20
229.1063939437
 30
0.0
 40
3.000000000000016
100
AcDbArc
 50
241.5423968763
 51
349.0
  0
LINE
  5
161
330
1F
100
AcDbEntity
  8
0
  6
Continuous
 62
     7
370
    15
100
AcDbLine
 10
189.1946872773
 20
228.5339669576
 30
0.0
 11
189.9146307426
 21
232.2377550034
 31
0.0
  0
ARC
  5
162
330
1F
100
AcDbEntity
  8
0
  6
Continuous
 62
     7
370
    15
100
AcDbCircle
 10
186.9697491922
 20
232.8101819895
 30
0.0
 40
3.000000000000016
100
AcDbArc
 50
349.0
 51
51.5135737496
  0
ARC
  5
163
330
1F
100
AcDbEntity
  8
0
  6
Continuous
 62
     7
370
    15
100
AcDbCircle
 10
191.014889084
 20
237.8980934723
 30
0.0
 40
3.500000000000006
100
AcDbArc
 50
188.4864262504
 51
231.5135737496
  0
ARC
  5
164
330
1F
100
AcDbEntity
  8
0
  6
Continuous
 62
     7
370
    15
100
AcDbCircle
 10
184.5860585419
 20
236.9388553055
 30
0.0
 40
2.999999999999983
100
AcDbArc
 50
8.4864262504
 51
71.0
  0
LINE
  5
165
330
1F
100
AcDbEntity
  8
0
  6
Continuous
 62
     7
370
    15
100
AcDbLine
 10
185.5627630052
 20
239.7754110323
 30
0.0
 11
181.9952167347
 21
241.003815725
 31
0.0
  0
ARC
  5
166
330
1F
100
AcDbEntity
  8
0
  6
Continuous
 62
     7
370
    15
100
AcDbCircle
 10
181.0185122713
 20
238.1672599982
 30
0.0
 40
3.000000000000019
100
AcDbArc
 50
71.0
 51
178.4576031237
  0
ARC
  5
167
330
1F
100
AcDbEntity
  8
0
  6
Continuous
 62
     7
370
    15
100
AcDbCircle
 10
191.014889084
 20
237.8980934723
 30
0.0
 40
13.00000000000001
100
AcDbArc
 50
178.4576031237
 51
241.5423968763
  0
ARC
  5
168
330
1F
100
AcDbEntity
  8
0
  6
Continuous
 62
     7
370
    15
100
AcDbCircle
 10
201.0112658967
 20
238.1672599982
 30
0.0
 40
3.000000000000001
100
AcDbArc
 50
1.5423968763
 51
109.0
  0
LINE
  5
169
330
1F
100
AcDbEntity
  8
0
  6
Continuous
 62
     7
370
    15
100
AcDbLine
 10
200.0345614333
 20
241.003815725
 30
0.0
 11
196.4670151628
 21
239.7754110323
 31
0.0
  0
ARC
  5
16A
330
1F
100
AcDbEntity
  8
0
  6
Continuous
 62
     7
370
    15
100
AcDbCircle
 10
197.4437196261
 20
236.9388553055
 30
0.0
 40
3.000000000000001
100
AcDbArc
 50
109.0
 51
171.5135737496
  0
ARC
  5
16B
330
1F
100
AcDbEntity
  8
0
  6
Continuous
 62
     7
370
    15
100
AcDbCircle
 10
191.014889084
 20
237.8980934723
 30
0.0
 40
3.500000000000001
100
AcDbArc
 50
308.4864262504
 51
351.5135737496
  0
ARC
  5
16C
330
1F
100
AcDbEntity
  8
0
  6
Continuous
 62
     7
370
    15
100
AcDbCircle
 10
195.0600289757
 20
232.8101819895
 30
0.0
 40
3.000000000000021
100
AcDbArc
 50
128.4864262504
 51
191.0
  0
LINE
  5
16D
330
1F
100
AcDbEntity
  8
0
  6
Continuous
 62
     7
370
    15
100
AcDbLine
 10
192.1151474254
 20
232.2377550034
 30
0.0
 11
192.8350908907
 21
228.5339669576
 31
0.0
  0
ARC
  5
16E
330
1F
100
AcDbEntity
  8
0
  6
Continuous
 62
     7
370
    15
100
AcDbCircle
 10
195.7799724411
 20
229.1063939437
 30
0.0
 40
3.000000000000029
100
AcDbArc
 50
191.0
 51
298.4576031237
  0
ARC
  5
16F
330
1F
100
AcDbEntity
  8
0
  6
Continuous
 62
     7
370
    15
100
AcDbCircle
 10
191.014889084
 20
237.8980934723
 30
0.0
 40
13.00000000000002
100
AcDbArc
 50
298.4576031237
 51
1.5423968763
  0
ARC
  5
170
330
1F
100
AcDbEntity
  8
0
  6
Continuous
 62
     7
370
    15
100
AcDbCircle
 10
193.3985797344
 20
243.9452431217
 30
0.0
 40
2.999999999999998
100
AcDbArc
 50
248.4864262504
 51
311.0
  0
LINE
  5
171
330
1F
100
AcDbEntity
  8
0
  6
Continuous
 62
     7
370
    15
100
AcDbLine
 10
195.3667568214
 20
241.6811143811
 30
0.0
 11
198.2143596266
 21
244.1564977342
 31
0.0
  0
ARC
  5
172
330
1F
100
AcDbEntity
  8
0
  6
Continuous
 62
     7
370
    15
100
AcDbCircle
 10
196.2461825396
 20
246.4206264749
 30
0.0
 40
3.000000000000039
100
AcDbArc
 50
311.0
 51
58.4576031237
  0
LINE
  5
173
330
1F
100
AcDbEntity
  8
0
  6
Continuous
 62
     7
370
    15
100
AcDbLine
 10
191.214889084
 20
252.8967600797
 30
0.0
 11
191.214889084
 21
250.8965549197
 31
0.0
  0
LINE
  5
174
330
1F
100
AcDbEntity
  8
0
  6
Continuous
 62
     7
370
    15
100
AcDbLine
 10
190.814889084
 20
250.8965549197
 30
0.0
 11
190.814889084
 21
252.8967600797
 31
0.0
  0
ARC
  5
175
330
1F
100
AcDbEntity
  8
0
  6
Continuous
 62
     7
370
    15
100
AcDbCircle
 10
191.014889084
 20
237.8980934723
 30
0.0
 40
13.00000000000002
100
AcDbArc
 50
90.8815083068
 51
121.5423968763
  0
ARC
  5
176
330
1F
100
AcDbEntity
  8
0
  6
Continuous
 62
     7
370
    15
100
AcDbCircle
 10
185.7835956284
 20
246.4206264749
 30
0.0
 40
3.00000000000002
100
AcDbArc
 50
121.5423968763
 51
229.0
  0
LINE
  5
177
330
1F
100
AcDbEntity
  8
0
  6
Continuous
 62
     7
370
    15
100
AcDbLine
 10
183.8154185414
 20
244.1564977342
 30
0.0
 11
186.6630213466
 21
241.6811143811
 31
0.0
  0
ARC
  5
178
330
1F
100
AcDbEntity
  8
0
  6
Continuous
 62
     7
370
    15
100
AcDbCircle
 10
188.6311984336
 20
243.9452431217
 30
0.0
 40
2.999999999999996
100
AcDbArc
 50
229.0
 51
291.5135737496
  0
ARC
  5
179
330
1F
100
AcDbEntity
  8
0
  6
Continuous
 62
     7
370
    15
100
AcDbCircle
 10
191.014889084
 20
237.8980934723
 30
0.0
 40
3.5
100
AcDbArc
 50
93.2758289598
 51
111.5135737496
  0
LINE
  5
17A
330
1F
100
AcDbEntity
  8
0
  6
Continuous
 62
     7
370
    15
100
AcDbLine
 10
190.814889084
 20
239.0480934723
 30
0.0
 11
190.814889084
 21
241.3923745142
 31
0.0
  0
LINE
  5
17B
330
1F
100
AcDbEntity
  8
0
  6
Continuous
 62
     7
370
    15
100
AcDbLine
 10
190.0518210698
 20
239.0480934723
 30
0.0
 11
190.814889084
 21
239.0480934723
 31
0.0
  0
ARC
  5
17C
330
1F
100
AcDbEntity
  8
0
  6
Continuous
 62
     7
370
    15
100
AcDbCircle
 10
191.014889084
 20
237.8980934723
 30
0.0
 40
1.500000000000012
100
AcDbArc
 50
129.9445051898
 51
50.0554948102
  0
LINE
  5
17D
330
1F
100
AcDbEntity
  8
0
  6
Continuous
 62
     7
370
    15
100
AcDbLine
 10
191.214889084
 20
241.3923745142
 30
0.0
 11
191.214889084
 21
239.0480934723
 31
0.0
  0
ARC
  5
17E
330
1F
100
AcDbEntity
  8
0
  6
Continuous
 62
     7
370
    15
100
AcDbCircle
 10
191.014889084
 20
237.8980934723
 30
0.0
 40
14.99999999999999
100
AcDbArc
 50
90.763966364
 51
89.236033636
  0
LINE
  5
17F
330
1F
100
AcDbEntity
  8
0
  6
Continuous
 62
     7
370
    15
100
AcDbLine
 10
191.214889084
 20
239.0480934723
 30
0.0
 11
191.9779570982
 21
239.0480934723
 31
0.0
  0
ARC
  5
180
330
1F
100
AcDbEntity
  8
0
  6
Continuous
 62
     7
370
    15
100
AcDbCircle
 10
191.014889084
 20
237.8980934723
 30
0.0
 40
3.500000000000002
100
AcDbArc
 50
68.4864262504
 51
86.7241710402
  0
ARC
  5
181
330
1F
100
AcDbEntity
  8
0
  6
Continuous
 62
     7
370
    15
100
AcDbCircle
 10
191.014889084
 20
237.8980934723
 30
0.0
 40
13.00000000000002
100
AcDbArc
 50
58.4576031237
 51
89.1184916932
  0
ARC
  5
182
330
1F
100
AcDbEntity
  8
0
  6
Continuous
 62
     7
370
    15
100
AcDbCircle
 10
17.2958605284
 20
229.5532574883
 30
0.0
 40
3.000000000000002
100
AcDbArc
 50
241.5423968763
 51
349.0
  0
LINE
  5
183
330
1F
100
AcDbEntity
  8
0
  6
Continuous
 62
     7
370
    15
100
AcDbLine
 10
20.2407420788
 20
228.9808305022
 30
0.0
 11
20.9606855441
 21
232.684618548
 31
0.0
  0
ARC
  5
184
330
1F
100
AcDbEntity
  8
0
  6
Continuous
 62
     7
370
    15
100
AcDbCircle
 10
18.0158039938
 20
233.2570455341
 30
0.0
 40
3.000000000000002
100
AcDbArc
 50
349.0
 51
51.5135737496
  0
ARC
  5
185
330
1F
100
AcDbEntity
  8
0
  6
Continuous
 62
     7
370
    15
100
AcDbCircle
 10
22.0609438855
 20
238.3449570169
 30
0.0
 40
3.499999999999996
100
AcDbArc
 50
188.4864262504
 51
231.5135737496
  0
ARC
  5
186
330
1F
100
AcDbEntity
  8
0
  6
Continuous
 62
     7
370
    15
100
AcDbCircle
 10
15.6321133434
 20
237.3857188501
 30
0.0
 40
3.000000000000003
100
AcDbArc
 50
8.4864262504
 51
71.0
  0
LINE
  5
187
330
1F
100
AcDbEntity
  8
0
  6
Continuous
 62
     7
370
    15
100
AcDbLine
 10
16.6088178067
 20
240.2222745769
 30
0.0
 11
13.0412715362
 21
241.4506792696
 31
0.0
  0
ARC
  5
188
330
1F
100
AcDbEntity
  8
0
  6
Continuous
 62
     7
370
    15
100
AcDbCircle
 10
12.0645670728
 20
238.6141235428
 30
0.0
 40
2.999999999999999
100
AcDbArc
 50
71.0
 51
178.4576031237
  0
ARC
  5
189
330
1F
100
AcDbEntity
  8
0
  6
Continuous
 62
     7
370
    15
100
AcDbCircle
 10
22.0609438855
 20
238.3449570169
 30
0.0
 40
13.0
100
AcDbArc
 50
178.4576031237
 51
241.5423968763
  0
ARC
  5
18A
330
1F
100
AcDbEntity
  8
0
  6
Continuous
 62
     7
370
    15
100
AcDbCircle
 10
32.0573206982
 20
238.6141235428
 30
0.0
 40
3.000000000000028
100
AcDbArc
 50
1.5423968763
 51
109.0
  0
LINE
  5
18B
330
1F
100
AcDbEntity
  8
0
  6
Continuous
 62
     7
370
    15
100
AcDbLine
 10
31.0806162348
 20
241.4506792696
 30
0.0
 11
27.5130699643
 21
240.2222745769
 31
0.0
  0
ARC
  5
18C
330
1F
100
AcDbEntity
  8
0
  6
Continuous
 62
     7
370
    15
100
AcDbCircle
 10
28.4897744276
 20
237.3857188501
 30
0.0
 40
3.0
100
AcDbArc
 50
109.0
 51
171.5135737496
  0
ARC
  5
18D
330
1F
100
AcDbEntity
  8
0
  6
Continuous
 62
     7
370
    15
100
AcDbCircle
 10
22.0609438855
 20
238.3449570169
 30
0.0
 40
3.500000000000001
100
AcDbArc
 50
308.4864262504
 51
351.5135737496
  0
ARC
  5
18E
330
1F
100
AcDbEntity
  8
0
  6
Continuous
 62
     7
370
    15
100
AcDbCircle
 10
26.1060837773
 20
233.2570455341
 30
0.0
 40
3.0
100
AcDbArc
 50
128.4864262504
 51
191.0
  0
LINE
  5
18F
330
1F
100
AcDbEntity
  8
0
  6
Continuous
 62
     7
370
    15
100
AcDbLine
 10
23.1612022269
 20
232.684618548
 30
0.0
 11
23.8811456922
 21
228.9808305022
 31
0.0
  0
ARC
  5
190
330
1F
100
AcDbEntity
  8
0
  6
Continuous
 62
     7
370
    15
100
AcDbCircle
 10
26.8260272426
 20
229.5532574883
 30
0.0
 40
3.000000000000029
100
AcDbArc
 50
191.0
 51
298.4576031237
  0
ARC
  5
191
330
1F
100
AcDbEntity
  8
0
  6
Continuous
 62
     7
370
    15
100
AcDbCircle
 10
22.0609438855
 20
238.3449570169
 30
0.0
 40
13.0
100
AcDbArc
 50
298.4576031237
 51
1.5423968763
  0
ARC
  5
192
330
1F
100
AcDbEntity
  8
0
  6
Continuous
 62
     7
370
    15
100
AcDbCircle
 10
24.4446345359
 20
244.3921066664
 30
0.0
 40
2.999999999999994
100
AcDbArc
 50
248.4864262504
 51
311.0
  0
LINE
  5
193
330
1F
100
AcDbEntity
  8
0
  6
Continuous
 62
     7
370
    15
100
AcDbLine
 10
26.4128116229
 20
242.1279779257
 30
0.0
 11
29.2604144281
 21
244.6033612788
 31
0.0
  0
ARC
  5
194
330
1F
100
AcDbEntity
  8
0
  6
Continuous
 62
     7
370
    15
100
AcDbCircle
 10
27.2922373411
 20
246.8674900195
 30
0.0
 40
3.000000000000016
100
AcDbArc
 50
311.0
 51
58.4576031237
  0
LINE
  5
195
330
1F
100
AcDbEntity
  8
0
  6
Continuous
 62
     7
370
    15
100
AcDbLine
 10
22.2609438855
 20
253.3436236243
 30
0.0
 11
22.2609438855
 21
251.3434184643
 31
0.0
  0
LINE
  5
196
330
1F
100
AcDbEntity
  8
0
  6
Continuous
 62
     7
370
    15
100
AcDbLine
 10
21.8609438855
 20
251.3434184643
 30
0.0
 11
21.8609438855
 21
253.3436236243
 31
0.0
  0
ARC
  5
197
330
1F
100
AcDbEntity
  8
0
  6
Continuous
 62
     7
370
    15
100
AcDbCircle
 10
22.0609438855
 20
238.3449570169
 30
0.0
 40
13.00000000000005
100
AcDbArc
 50
90.8815083068
 51
121.5423968763
  0
ARC
  5
198
330
1F
100
AcDbEntity
  8
0
  6
Continuous
 62
     7
370
    15
100
AcDbCircle
 10
16.8296504299
 20
246.8674900195
 30
0.0
 40
3.000000000000016
100
AcDbArc
 50
121.5423968763
 51
229.0
  0
LINE
  5
199
330
1F
100
AcDbEntity
  8
0
  6
Continuous
 62
     7
370
    15
100
AcDbLine
 10
14.8614733429
 20
244.6033612788
 30
0.0
 11
17.7090761482
 21
242.1279779257
 31
0.0
  0
ARC
  5
19A
330
1F
100
AcDbEntity
  8
0
  6
Continuous
 62
     7
370
    15
100
AcDbCircle
 10
19.6772532351
 20
244.3921066664
 30
0.0
 40
2.999999999999995
100
AcDbArc
 50
229.0
 51
291.5135737496
  0
ARC
  5
19B
330
1F
100
AcDbEntity
  8
0
  6
Continuous
 62
     7
370
    15
100
AcDbCircle
 10
22.0609438855
 20
238.3449570169
 30
0.0
 40
3.500000000000029
100
AcDbArc
 50
93.2758289598
 51
111.5135737496
  0
LINE
  5
19C
330
1F
100
AcDbEntity
  8
0
  6
Continuous
 62
     7
370
    15
100
AcDbLine
 10
21.8609438855
 20
239.4949570169
 30
0.0
 11
21.8609438855
 21
241.8392380588
 31
0.0
  0
LINE
  5
19D
330
1F
100
AcDbEntity
  8
0
  6
Continuous
 62
     7
370
    15
100
AcDbLine
 10
21.0978758713
 20
239.4949570169
 30
0.0
 11
21.8609438855
 21
239.4949570169
 31
0.0
  0
ARC
  5
19E
330
1F
100
AcDbEntity
  8
0
  6
Continuous
 62
     7
370
    15
100
AcDbCircle
 10
22.0609438855
 20
238.3449570169
 30
0.0
 40
1.500000000000024
100
AcDbArc
 50
129.9445051898
 51
50.0554948102
  0
LINE
  5
19F
330
1F
100
AcDbEntity
  8
0
  6
Continuous
 62
     7
370
    15
100
AcDbLine
 10
22.2609438855
 20
241.8392380588
 30
0.0
 11
22.2609438855
 21
239.4949570169
 31
0.0
  0
ARC
  5
1A0
330
1F
100
AcDbEntity
  8
0
  6
Continuous
 62
     7
370
    15
100
AcDbCircle
 10
22.0609438855
 20
238.3449570169
 30
0.0
 40
14.99999999999999
100
AcDbArc
 50
90.763966364
 51
89.236033636
  0
LINE
  5
1A1
330
1F
100
AcDbEntity
  8
0
  6
Continuous
 62
     7
370
    15
100
AcDbLine
 10
22.2609438855
 20
239.4949570169
 30
0.0
 11
23.0240118997
 21
239.4949570169
 31
0.0
  0
ARC
  5
1A2
330
1F
100
AcDbEntity
  8
0
  6
Continuous
 62
     7
370
    15
100
AcDbCircle
 10
22.0609438855
 20
238.3449570169
 30
0.0
 40
3.500000000000029
100
AcDbArc
 50
68.4864262504
 51
86.7241710402
  0
ARC
  5
1A3
330
1F
100
AcDbEntity
  8
0
  6
Continuous
 62
     7
370
    15
100
AcDbCircle
 10
22.0609438855
 20
238.3449570169
 30
0.0
 40
13.00000000000005
100
AcDbArc
 50
58.4576031237
 51
89.1184916932
  0
ARC
  5
1A4
330
1F
100
AcDbEntity
  8
0
  6
Continuous
 62
     7
370
    15
100
AcDbCircle
 10
82.978589808
 20
229.2365162838
 30
0.0
 40
3.000000000000016
100
AcDbArc
 50
241.5423968763
 51
349.0
  0
LINE
  5
1A5
330
1F
100
AcDbEntity
  8
0
  6
Continuous
 62
     7
370
    15
100
AcDbLine
 10
85.9234713583
 20
228.6640892976
 30
0.0
 11
86.6434148236
 21
232.3678773434
 31
0.0
  0
ARC
  5
1A6
330
1F
100
AcDbEntity
  8
0
  6
Continuous
 62
     7
370
    15
100
AcDbCircle
 10
83.6985332733
 20
232.9403043296
 30
0.0
 40
3.0
100
AcDbArc
 50
349.0
 51
51.5135737496
  0
ARC
  5
1A7
330
1F
100
AcDbEntity
  8
0
  6
Continuous
 62
     7
370
    15
100
AcDbCircle
 10
87.7436731651
 20
238.0282158123
 30
0.0
 40
3.500000000000006
100
AcDbArc
 50
188.4864262504
 51
231.5135737496
  0
ARC
  5
1A8
330
1F
100
AcDbEntity
  8
0
  6
Continuous
 62
     7
370
    15
100
AcDbCircle
 10
81.3148426229
 20
237.0689776456
 30
0.0
 40
2.999999999999994
100
AcDbArc
 50
8.4864262504
 51
71.0
  0
LINE
  5
1A9
330
1F
100
AcDbEntity
  8
0
  6
Continuous
 62
     7
370
    15
100
AcDbLine
 10
82.2915470863
 20
239.9055333724
 30
0.0
 11
78.7240008157
 21
241.133938065
 31
0.0
  0
ARC
  5
1AA
330
1F
100
AcDbEntity
  8
0
  6
Continuous
 62
     7
370
    15
100
AcDbCircle
 10
77.7472963524
 20
238.2973823382
 30
0.0
 40
3.000000000000004
100
AcDbArc
 50
71.0
 51
178.4576031237
  0
ARC
  5
1AB
330
1F
100
AcDbEntity
  8
0
  6
Continuous
 62
     7
370
    15
100
AcDbCircle
 10
87.7436731651
 20
238.0282158123
 30
0.0
 40
13.0
100
AcDbArc
 50
178.4576031237
 51
241.5423968763
  0
ARC
  5
1AC
330
1F
100
AcDbEntity
  8
0
  6
Continuous
 62
     7
370
    15
100
AcDbCircle
 10
97.7400499777
 20
238.2973823382
 30
0.0
 40
3.000000000000005
100
AcDbArc
 50
1.5423968763
 51
109.0
  0
LINE
  5
1AD
330
1F
100
AcDbEntity
  8
0
  6
Continuous
 62
     7
370
    15
100
AcDbLine
 10
96.7633455144
 20
241.133938065
 30
0.0
 11
93.1957992438
 21
239.9055333724
 31
0.0
  0
ARC
  5
1AE
330
1F
100
AcDbEntity
  8
0
  6
Continuous
 62
     7
370
    15
100
AcDbCircle
 10
94.1725037072
 20
237.0689776456
 30
0.0
 40
3.000000000000014
100
AcDbArc
 50
109.0
 51
171.5135737496
  0
ARC
  5
1AF
330
1F
100
AcDbEntity
  8
0
  6
Continuous
 62
     7
370
    15
100
AcDbCircle
 10
87.7436731651
 20
238.0282158123
 30
0.0
 40
3.500000000000007
100
AcDbArc
 50
308.4864262504
 51
351.5135737496
  0
ARC
  5
1B0
330
1F
100
AcDbEntity
  8
0
  6
Continuous
 62
     7
370
    15
100
AcDbCircle
 10
91.7888130568
 20
232.9403043296
 30
0.0
 40
3.000000000000008
100
AcDbArc
 50
128.4864262504
 51
191.0
  0
LINE
  5
1B1
330
1F
100
AcDbEntity
  8
0
  6
Continuous
 62
     7
370
    15
100
AcDbLine
 10
88.8439315065
 20
232.3678773434
 30
0.0
 11
89.5638749718
 21
228.6640892976
 31
0.0
  0
ARC
  5
1B2
330
1F
100
AcDbEntity
  8
0
  6
Continuous
 62
     7
370
    15
100
AcDbCircle
 10
92.5087565221
 20
229.2365162838
 30
0.0
 40
3.000000000000022
100
AcDbArc
 50
191.0
 51
298.4576031237
  0
ARC
  5
1B3
330
1F
100
AcDbEntity
  8
0
  6
Continuous
 62
     7
370
    15
100
AcDbCircle
 10
87.7436731651
 20
238.0282158123
 30
0.0
 40
13.00000000000001
100
AcDbArc
 50
298.4576031237
 51
1.5423968763
  0
ARC
  5
1B4
330
1F
100
AcDbEntity
  8
0
  6
Continuous
 62
     7
370
    15
100
AcDbCircle
 10
90.1273638154
 20
244.0753654618
 30
0.0
 40
2.999999999999998
100
AcDbArc
 50
248.4864262504
 51
311.0
  0
LINE
  5
1B5
330
1F
100
AcDbEntity
  8
0
  6
Continuous
 62
     7
370
    15
100
AcDbLine
 10
92.0955409024
 20
241.8112367211
 30
0.0
 11
94.9431437076
 21
244.2866200743
 31
0.0
  0
ARC
  5
1B6
330
1F
100
AcDbEntity
  8
0
  6
Continuous
 62
     7
370
    15
100
AcDbCircle
 10
92.9749666207
 20
246.550748815
 30
0.0
 40
3.000000000000039
100
AcDbArc
 50
311.0
 51
58.4576031237
  0
LINE
  5
1B7
330
1F
100
AcDbEntity
  8
0
  6
Continuous
 62
     7
370
    15
100
AcDbLine
 10
87.9436731651
 20
253.0268824197
 30
0.0
 11
87.9436731651
 21
251.0266772597
 31
0.0
  0
LINE
  5
1B8
330
1F
100
AcDbEntity
  8
0
  6
Continuous
 62
     7
370
    15
100
AcDbLine
 10
87.5436731651
 20
251.0266772597
 30
0.0
 11
87.5436731651
 21
253.0268824197
 31
0.0
  0
ARC
  5
1B9
330
1F
100
AcDbEntity
  8
0
  6
Continuous
 62
     7
370
    15
100
AcDbCircle
 10
87.7436731651
 20
238.0282158123
 30
0.0
 40
13.00000000000002
100
AcDbArc
 50
90.8815083068
 51
121.5423968763
  0
ARC
  5
1BA
330
1F
100
AcDbEntity
  8
0
  6
Continuous
 62
     7
370
    15
100
AcDbCircle
 10
82.5123797094
 20
246.550748815
 30
0.0
 40
3.000000000000029
100
AcDbArc
 50
121.5423968763
 51
229.0
  0
LINE
  5
1BB
330
1F
100
AcDbEntity
  8
0
  6
Continuous
 62
     7
370
    15
100
AcDbLine
 10
80.5442026225
 20
244.2866200743
 30
0.0
 11
83.3918054277
 21
241.8112367211
 31
0.0
  0
ARC
  5
1BC
330
1F
100
AcDbEntity
  8
0
  6
Continuous
 62
     7
370
    15
100
AcDbCircle
 10
85.3599825147
 20
244.0753654618
 30
0.0
 40
2.999999999999998
100
AcDbArc
 50
229.0
 51
291.5135737496
  0
ARC
  5
1BD
330
1F
100
AcDbEntity
  8
0
  6
Continuous
 62
     7
370
    15
100
AcDbCircle
 10
87.7436731651
 20
238.0282158123
 30
0.0
 40
3.500000000000001
100
AcDbArc
 50
93.2758289598
 51
111.5135737496
  0
LINE
  5
1BE
330
1F
100
AcDbEntity
  8
0
  6
Continuous
 62
     7
370
    15
100
AcDbLine
 10
87.5436731651
 20
239.1782158123
 30
0.0
 11
87.5436731651
 21
241.5224968543
 31
0.0
  0
LINE
  5
1BF
330
1F
100
AcDbEntity
  8
0
  6
Continuous
 62
     7
370
    15
100
AcDbLine
 10
86.7806051508
 20
239.1782158123
 30
0.0
 11
87.5436731651
 21
239.1782158123
 31
0.0
  0
ARC
  5
1C0
330
1F
100
AcDbEntity
  8
0
  6
Continuous
 62
     7
370
    15
100
AcDbCircle
 10
87.7436731651
 20
238.0282158123
 30
0.0
 40
1.500000000000002
100
AcDbArc
 50
129.9445051898
 51
50.0554948102
  0
LINE
  5
1C1
330
1F
100
AcDbEntity
  8
0
  6
Continuous
 62
     7
370
    15
100
AcDbLine
 10
87.9436731651
 20
241.5224968543
 30
0.0
 11
87.9436731651
 21
239.1782158123
 31
0.0
  0
ARC
  5
1C2
330
1F
100
AcDbEntity
  8
0
  6
Continuous
 62
     7
370
    15
100
AcDbCircle
 10
87.7436731651
 20
238.0282158123
 30
0.0
 40
14.99999999999999
100
AcDbArc
 50
90.763966364
 51
89.236033636
  0
LINE
  5
1C3
330
1F
100
AcDbEntity
  8
0
  6
Continuous
 62
     7
370
    15
100
AcDbLine
 10
87.9436731651
 20
239.1782158123
 30
0.0
 11
88.7067411793
 21
239.1782158123
 31
0.0
  0
ARC
  5
1C4
330
1F
100
AcDbEntity
  8
0
  6
Continuous
 62
     7
370
    15
100
AcDbCircle
 10
87.7436731651
 20
238.0282158123
 30
0.0
 40
3.500000000000002
100
AcDbArc
 50
68.4864262504
 51
86.7241710402
  0
ARC
  5
1C5
330
1F
100
AcDbEntity
  8
0
  6
Continuous
 62
     7
370
    15
100
AcDbCircle
 10
87.7436731651
 20
238.0282158123
 30
0.0
 40
13.00000000000002
100
AcDbArc
 50
58.4576031237
 51
89.1184916932
  0
ARC
  5
1C6
330
1F
100
AcDbEntity
  8
0
  6
Continuous
 62
     7
370
    15
100
AcDbCircle
 10
151.3296953761
 20
227.7067477256
 30
0.0
 40
3.000000000000016
100
AcDbArc
 50
241.5423968763
 51
349.0
  0
LINE
  5
1C7
330
1F
100
AcDbEntity
  8
0
  6
Continuous
 62
     7
370
    15
100
AcDbLine
 10
154.2745769265
 20
227.1343207395
 30
0.0
 11
154.9945203918
 21
230.8381087853
 31
0.0
  0
ARC
  5
1C8
330
1F
100
AcDbEntity
  8
0
  6
Continuous
 62
     7
370
    15
100
AcDbCircle
 10
152.0496388415
 20
231.4105357714
 30
0.0
 40
3.000000000000008
100
AcDbArc
 50
349.0
 51
51.5135737496
  0
ARC
  5
1C9
330
1F
100
AcDbEntity
  8
0
  6
Continuous
 62
     7
370
    15
100
AcDbCircle
 10
156.0947787332
 20
236.4984472542
 30
0.0
 40
3.500000000000001
100
AcDbArc
 50
188.4864262504
 51
231.5135737496
  0
ARC
  5
1CA
330
1F
100
AcDbEntity
  8
0
  6
Continuous
 62
     7
370
    15
100
AcDbCircle
 10
149.6659481911
 20
235.5392090874
 30
0.0
 40
3.000000000000009
100
AcDbArc
 50
8.4864262504
 51
71.0
  0
LINE
  5
1CB
330
1F
100
AcDbEntity
  8
0
  6
Continuous
 62
     7
370
    15
100
AcDbLine
 10
150.6426526544
 20
238.3757648142
 30
0.0
 11
147.0751063839
 21
239.6041695069
 31
0.0
  0
ARC
  5
1CC
330
1F
100
AcDbEntity
  8
0
  6
Continuous
 62
     7
370
    15
100
AcDbCircle
 10
146.0984019205
 20
236.7676137801
 30
0.0
 40
3.000000000000019
100
AcDbArc
 50
71.0
 51
178.4576031237
  0
ARC
  5
1CD
330
1F
100
AcDbEntity
  8
0
  6
Continuous
 62
     7
370
    15
100
AcDbCircle
 10
156.0947787332
 20
236.4984472542
 30
0.0
 40
13.00000000000001
100
AcDbArc
 50
178.4576031237
 51
241.5423968763
  0
ARC
  5
1CE
330
1F
100
AcDbEntity
  8
0
  6
Continuous
 62
     7
370
    15
100
AcDbCircle
 10
166.0911555459
 20
236.7676137801
 30
0.0
 40
3.000000000000019
100
AcDbArc
 50
1.5423968763
 51
109.0
  0
LINE
  5
1CF
330
1F
100
AcDbEntity
  8
0
  6
Continuous
 62
     7
370
    15
100
AcDbLine
 10
165.1144510825
 20
239.6041695069
 30
0.0
 11
161.546904812
 21
238.3757648142
 31
0.0
  0
ARC
  5
1D0
330
1F
100
AcDbEntity
  8
0
  6
Continuous
 62
     7
370
    15
100
AcDbCircle
 10
162.5236092753
 20
235.5392090874
 30
0.0
 40
3.000000000000028
100
AcDbArc
 50
109.0
 51
171.5135737496
  0
ARC
  5
1D1
330
1F
100
AcDbEntity
  8
0
  6
Continuous
 62
     7
370
    15
100
AcDbCircle
 10
156.0947787332
 20
236.4984472542
 30
0.0
 40
3.499999999999997
100
AcDbArc
 50
308.4864262504
 51
351.5135737496
  0
ARC
  5
1D2
330
1F
100
AcDbEntity
  8
0
  6
Continuous
 62
     7
370
    15
100
AcDbCircle
 10
160.139918625
 20
231.4105357714
 30
0.0
 40
3.000000000000004
100
AcDbArc
 50
128.4864262504
 51
191.0
  0
LINE
  5
1D3
330
1F
100
AcDbEntity
  8
0
  6
Continuous
 62
     7
370
    15
100
AcDbLine
 10
157.1950370746
 20
230.8381087853
 30
0.0
 11
157.9149805399
 21
227.1343207395
 31
0.0
  0
ARC
  5
1D4
330
1F
100
AcDbEntity
  8
0
  6
Continuous
 62
     7
370
    15
100
AcDbCircle
 10
160.8598620903
 20
227.7067477256
 30
0.0
 40
3.000000000000029
100
AcDbArc
 50
191.0
 51
298.4576031237
  0
ARC
  5
1D5
330
1F
100
AcDbEntity
  8
0
  6
Continuous
 62
     7
370
    15
100
AcDbCircle
 10
156.0947787332
 20
236.4984472542
 30
0.0
 40
13.00000000000001
100
AcDbArc
 50
298.4576031237
 51
1.5423968763
  0
ARC
  5
1D6
330
1F
100
AcDbEntity
  8
0
  6
Continuous
 62
     7
370
    15
100
AcDbCircle
 10
158.4784693836
 20
242.5455969037
 30
0.0
 40
3.000000000000017
100
AcDbArc
 50
248.4864262504
 51
311.0
  0
LINE
  5
1D7
330
1F
100
AcDbEntity
  8
0
  6
Continuous
 62
     7
370
    15
100
AcDbLine
 10
160.4466464706
 20
240.281468163
 30
0.0
 11
163.2942492758
 21
242.7568515162
 31
0.0
  0
ARC
  5
1D8
330
1F
100
AcDbEntity
  8
0
  6
Continuous
 62
     7
370
    15
100
AcDbCircle
 10
161.3260721888
 20
245.0209802568
 30
0.0
 40
3.000000000000039
100
AcDbArc
 50
311.0
 51
58.4576031237
  0
LINE
  5
1D9
330
1F
100
AcDbEntity
  8
0
  6
Continuous
 62
     7
370
    15
100
AcDbLine
 10
156.2947787332
 20
251.4971138616
 30
0.0
 11
156.2947787332
 21
249.4969087016
 31
0.0
  0
LINE
  5
1DA
330
1F
100
AcDbEntity
  8
0
  6
Continuous
 62
     7
370
    15
100
AcDbLine
 10
155.8947787332
 20
249.4969087016
 30
0.0
 11
155.8947787332
 21
251.4971138616
 31
0.0
  0
ARC
  5
1DB
330
1F
100
AcDbEntity
  8
0
  6
Continuous
 62
     7
370
    15
100
AcDbCircle
 10
156.0947787332
 20
236.4984472542
 30
0.0
 40
13.00000000000002
100
AcDbArc
 50
90.8815083068
 51
121.5423968763
  0
ARC
  5
1DC
330
1F
100
AcDbEntity
  8
0
  6
Continuous
 62
     7
370
    15
100
AcDbCircle
 10
150.8634852776
 20
245.0209802568
 30
0.0
 40
3.000000000000039
100
AcDbArc
 50
121.5423968763
 51
229.0
  0
LINE
  5
1DD
330
1F
100
AcDbEntity
  8
0
  6
Continuous
 62
     7
370
    15
100
AcDbLine
 10
148.8953081906
 20
242.7568515162
 30
0.0
 11
151.7429109958
 21
240.281468163
 31
0.0
  0
ARC
  5
1DE
330
1F
100
AcDbEntity
  8
0
  6
Continuous
 62
     7
370
    15
100
AcDbCircle
 10
153.7110880828
 20
242.5455969037
 30
0.0
 40
3.000000000000017
100
AcDbArc
 50
229.0
 51
291.5135737496
  0
ARC
  5
1DF
330
1F
100
AcDbEntity
  8
0
  6
Continuous
 62
     7
370
    15
100
AcDbCircle
 10
156.0947787332
 20
236.4984472542
 30
0.0
 40
3.500000000000031
100
AcDbArc
 50
93.2758289598
 51
111.5135737496
  0
LINE
  5
1E0
330
1F
100
AcDbEntity
  8
0
  6
Continuous
 62
     7
370
    15
100
AcDbLine
 10
155.8947787332
 20
237.6484472542
 30
0.0
 11
155.8947787332
 21
239.9927282961
 31
0.0
  0
LINE
  5
1E1
330
1F
100
AcDbEntity
  8
0
  6
Continuous
 62
     7
370
    15
100
AcDbLine
 10
155.131710719
 20
237.6484472542
 30
0.0
 11
155.8947787332
 21
237.6484472542
 31
0.0
  0
ARC
  5
1E2
330
1F
100
AcDbEntity
  8
0
  6
Continuous
 62
     7
370
    15
100
AcDbCircle
 10
156.0947787332
 20
236.4984472542
 30
0.0
 40
1.500000000000012
100
AcDbArc
 50
129.9445051898
 51
50.0554948102
  0
LINE
  5
1E3
330
1F
100
AcDbEntity
  8
0
  6
Continuous
 62
     7
370
    15
100
AcDbLine
 10
156.2947787332
 20
239.9927282961
 30
0.0
 11
156.2947787332
 21
237.6484472542
 31
0.0
  0
ARC
  5
1E4
330
1F
100
AcDbEntity
  8
0
  6
Continuous
 62
     7
370
    15
100
AcDbCircle
 10
156.0947787332
 20
236.4984472542
 30
0.0
 40
14.99999999999999
100
AcDbArc
 50
90.763966364
 51
89.236033636
  0
LINE
  5
1E5
330
1F
100
AcDbEntity
  8
0
  6
Continuous
 62
     7
370
    15
100
AcDbLine
 10
156.2947787332
 20
237.6484472542
 30
0.0
 11
157.0578467474
 21
237.6484472542
 31
0.0
  0
ARC
  5
1E6
330
1F
100
AcDbEntity
  8
0
  6
Continuous
 62
     7
370
    15
100
AcDbCircle
 10
156.0947787332
 20
236.4984472542
 30
0.0
 40
3.500000000000031
100
AcDbArc
 50
68.4864262504
 51
86.7241710402
  0
ARC
  5
1E7
330
1F
100
AcDbEntity
  8
0
  6
Continuous
 62
     7
370
    15
100
AcDbCircle
 10
156.0947787332
 20
236.4984472542
 30
0.0
 40
13.00000000000002
100
AcDbArc
 50
58.4576031237
 51
89.1184916932
  0
ARC
  5
1E8
330
1F
100
AcDbEntity
  8
0
  6
Continuous
 62
     7
370
    15
100
AcDbCircle
 10
50.4568921041
 20
194.2843193203
 30
0.0
 40
3.000000000000016
100
AcDbArc
 50
241.5423968763
 51
349.0
  0
LINE
  5
1E9
330
1F
100
AcDbEntity
  8
0
  6
Continuous
 62
     7
370
    15
100
AcDbLine
 10
53.4017736544
 20
193.7118923342
 30
0.0
 11
54.1217171197
 21
197.41568038
 31
0.0
  0
ARC
  5
1EA
330
1F
100
AcDbEntity
  8
0
  6
Continuous
 62
     7
370
    15
100
AcDbCircle
 10
51.1768355694
 20
197.9881073661
 30
0.0
 40
3.000000000000004
100
AcDbArc
 50
349.0
 51
51.5135737496
  0
ARC
  5
1EB
330
1F
100
AcDbEntity
  8
0
  6
Continuous
 62
     7
370
    15
100
AcDbCircle
 10
55.2219754612
 20
203.0760188488
 30
0.0
 40
3.499999999999994
100
AcDbArc
 50
188.4864262504
 51
231.5135737496
  0
ARC
  5
1EC
330
1F
100
AcDbEntity
  8
0
  6
Continuous
 62
     7
370
    15
100
AcDbCircle
 10
48.793144919
 20
202.1167806821
 30
0.0
 40
3.000000000000001
100
AcDbArc
 50
8.4864262504
 51
71.0
  0
LINE
  5
1ED
330
1F
100
AcDbEntity
  8
0
  6
Continuous
 62
     7
370
    15
100
AcDbLine
 10
49.7698493824
 20
204.9533364089
 30
0.0
 11
46.2023031118
 21
206.1817411015
 31
0.0
  0
ARC
  5
1EE
330
1F
100
AcDbEntity
  8
0
  6
Continuous
 62
     7
370
    15
100
AcDbCircle
 10
45.2255986485
 20
203.3451853747
 30
0.0
 40
3.000000000000016
100
AcDbArc
 50
71.0
 51
178.4576031237
  0
ARC
  5
1EF
330
1F
100
AcDbEntity
  8
0
  6
Continuous
 62
     7
370
    15
100
AcDbCircle
 10
55.2219754612
 20
203.0760188488
 30
0.0
 40
13.0
100
AcDbArc
 50
178.4576031237
 51
241.5423968763
  0
ARC
  5
1F0
330
1F
100
AcDbEntity
  8
0
  6
Continuous
 62
     7
370
    15
100
AcDbCircle
 10
65.2183522738
 20
203.3451853747
 30
0.0
 40
3.000000000000028
100
AcDbArc
 50
1.5423968763
 51
109.0
  0
LINE
  5
1F1
330
1F
100
AcDbEntity
  8
0
  6
Continuous
 62
     7
370
    15
100
AcDbLine
 10
64.2416478105
 20
206.1817411015
 30
0.0
 11
60.6741015399
 21
204.9533364089
 31
0.0
  0
ARC
  5
1F2
330
1F
100
AcDbEntity
  8
0
  6
Continuous
 62
     7
370
    15
100
AcDbCircle
 10
61.6508060033
 20
202.1167806821
 30
0.0
 40
3.000000000000001
100
AcDbArc
 50
109.0
 51
171.5135737496
  0
ARC
  5
1F3
330
1F
100
AcDbEntity
  8
0
  6
Continuous
 62
     7
370
    15
100
AcDbCircle
 10
55.2219754612
 20
203.0760188488
 30
0.0
 40
3.500000000000004
100
AcDbArc
 50
308.4864262504
 51
351.5135737496
  0
ARC
  5
1F4
330
1F
100
AcDbEntity
  8
0
  6
Continuous
 62
     7
370
    15
100
AcDbCircle
 10
59.2671153529
 20
197.9881073661
 30
0.0
 40
3.000000000000001
100
AcDbArc
 50
128.4864262504
 51
191.0
  0
LINE
  5
1F5
330
1F
100
AcDbEntity
  8
0
  6
Continuous
 62
     7
370
    15
100
AcDbLine
 10
56.3222338026
 20
197.41568038
 30
0.0
 11
57.0421772679
 21
193.7118923342
 31
0.0
  0
ARC
  5
1F6
330
1F
100
AcDbEntity
  8
0
  6
Continuous
 62
     7
370
    15
100
AcDbCircle
 10
59.9870588182
 20
194.2843193203
 30
0.0
 40
3.000000000000029
100
AcDbArc
 50
191.0
 51
298.4576031237
  0
ARC
  5
1F7
330
1F
100
AcDbEntity
  8
0
  6
Continuous
 62
     7
370
    15
100
AcDbCircle
 10
55.2219754612
 20
203.0760188488
 30
0.0
 40
13.00000000000001
100
AcDbArc
 50
298.4576031237
 51
1.5423968763
  0
ARC
  5
1F8
330
1F
100
AcDbEntity
  8
0
  6
Continuous
 62
     7
370
    15
100
AcDbCircle
 10
57.6056661115
 20
209.1231684983
 30
0.0
 40
3.000000000000003
100
AcDbArc
 50
248.4864262504
 51
311.0
  0
LINE
  5
1F9
330
1F
100
AcDbEntity
  8
0
  6
Continuous
 62
     7
370
    15
100
AcDbLine
 10
59.5738431985
 20
206.8590397576
 30
0.0
 11
62.4214460037
 21
209.3344231108
 31
0.0
  0
ARC
  5
1FA
330
1F
100
AcDbEntity
  8
0
  6
Continuous
 62
     7
370
    15
100
AcDbCircle
 10
60.4532689168
 20
211.5985518515
 30
0.0
 40
3.000000000000003
100
AcDbArc
 50
311.0
 51
58.4576031237
  0
LINE
  5
1FB
330
1F
100
AcDbEntity
  8
0
  6
Continuous
 62
     7
370
    15
100
AcDbLine
 10
55.4219754612
 20
218.0746854562
 30
0.0
 11
55.4219754612
 21
216.0744802962
 31
0.0
  0
LINE
  5
1FC
330
1F
100
AcDbEntity
  8
0
  6
Continuous
 62
     7
370
    15
100
AcDbLine
 10
55.0219754612
 20
216.0744802962
 30
0.0
 11
55.0219754612
 21
218.0746854562
 31
0.0
  0
ARC
  5
1FD
330
1F
100
AcDbEntity
  8
0
  6
Continuous
 62
     7
370
    15
100
AcDbCircle
 10
55.2219754612
 20
203.0760188488
 30
0.0
 40
13.00000000000002
100
AcDbArc
 50
90.8815083068
 51
121.5423968763
  0
ARC
  5
1FE
330
1F
100
AcDbEntity
  8
0
  6
Continuous
 62
     7
370
    15
100
AcDbCircle
 10
49.9906820055
 20
211.5985518515
 30
0.0
 40
3.000000000000003
100
AcDbArc
 50
121.5423968763
 51
229.0
  0
LINE
  5
1FF
330
1F
100
AcDbEntity
  8
0
  6
Continuous
 62
     7
370
    15
100
AcDbLine
 10
48.0225049186
 20
209.3344231108
 30
0.0
 11
50.8701077238
 21
206.8590397576
 31
0.0
  0
ARC
  5
200
330
1F
100
AcDbEntity
  8
0
  6
Continuous
 62
     7
370
    15
100
AcDbCircle
 10
52.8382848108
 20
209.1231684983
 30
0.0
 40
3.000000000000008
100
AcDbArc
 50
229.0
 51
291.5135737496
  0
ARC
  5
201
330
1F
100
AcDbEntity
  8
0
  6
Continuous
 62
     7
370
    15
100
AcDbCircle
 10
55.2219754612
 20
203.0760188488
 30
0.0
 40
3.500000000000029
100
AcDbArc
 50
93.2758289598
 51
111.5135737496
  0
LINE
  5
202
330
1F
100
AcDbEntity
  8
0
  6
Continuous
 62
     7
370
    15
100
AcDbLine
 10
55.0219754612
 20
204.2260188488
 30
0.0
 11
55.0219754612
 21
206.5702998908
 31
0.0
  0
LINE
  5
203
330
1F
100
AcDbEntity
  8
0
  6
Continuous
 62
     7
370
    15
100
AcDbLine
 10
54.2589074469
 20
204.2260188488
 30
0.0
 11
55.0219754612
 21
204.2260188488
 31
0.0
  0
ARC
  5
204
330
1F
100
AcDbEntity
  8
0
  6
Continuous
 62
     7
370
    15
100
AcDbCircle
 10
55.2219754612
 20
203.0760188488
 30
0.0
 40
1.500000000000007
100
AcDbArc
 50
129.9445051898
 51
50.0554948102
  0
LINE
  5
205
330
1F
100
AcDbEntity
  8
0
  6
Continuous
 62
     7
370
    15
100
AcDbLine
 10
55.4219754612
 20
206.5702998908
 30
0.0
 11
55.4219754612
 21
204.2260188488
 31
0.0
  0
ARC
  5
206
330
1F
100
AcDbEntity
  8
0
  6
Continuous
 62
     7
370
    15
100
AcDbCircle
 10
55.2219754612
 20
203.0760188488
 30
0.0
 40
15.00000000000002
100
AcDbArc
 50
90.763966364
 51
89.236033636
  0
LINE
  5
207
330
1F
100
AcDbEntity
  8
0
  6
Continuous
 62
     7
370
    15
100
AcDbLine
 10
55.4219754612
 20
204.2260188488
 30
0.0
 11
56.1850434754
 21
204.2260188488
 31
0.0
  0
ARC
  5
208
330
1F
100
AcDbEntity
  8
0
  6
Continuous
 62
     7
370
    15
100
AcDbCircle
 10
55.2219754612
 20
203.0760188488
 30
0.0
 40
3.50000000000003
100
AcDbArc
 50
68.4864262504
 51
86.7241710402
  0
ARC
  5
209
330
1F
100
AcDbEntity
  8
0
  6
Continuous
 62
     7
370
    15
100
AcDbCircle
 10
55.2219754612
 20
203.0760188488
 30
0.0
 40
13.00000000000002
100
AcDbArc
 50
58.4576031237
 51
89.1184916932
  0
ARC
  5
20A
330
1F
100
AcDbEntity
  8
0
  6
Continuous
 62
     7
370
    15
100
AcDbCircle
 10
116.0235233944
 20
193.2042013382
 30
0.0
 40
3.000000000000016
100
AcDbArc
 50
241.5423968763
 51
349.0
  0
LINE
  5
20B
330
1F
100
AcDbEntity
  8
0
  6
Continuous
 62
     7
370
    15
100
AcDbLine
 10
118.9684049447
 20
192.6317743521
 30
0.0
 11
119.68834841
 21
196.3355623979
 31
0.0
  0
ARC
  5
20C
330
1F
100
AcDbEntity
  8
0
  6
Continuous
 62
     7
370
    15
100
AcDbCircle
 10
116.7434668597
 20
196.907989384
 30
0.0
 40
3.0
100
AcDbArc
 50
349.0
 51
51.5135737496
  0
ARC
  5
20D
330
1F
100
AcDbEntity
  8
0
  6
Continuous
 62
     7
370
    15
100
AcDbCircle
 10
120.7886067515
 20
201.9959008668
 30
0.0
 40
3.500000000000006
100
AcDbArc
 50
188.4864262504
 51
231.5135737496
  0
ARC
  5
20E
330
1F
100
AcDbEntity
  8
0
  6
Continuous
 62
     7
370
    15
100
AcDbCircle
 10
114.3597762093
 20
201.0366627
 30
0.0
 40
2.999999999999994
100
AcDbArc
 50
8.4864262504
 51
71.0
  0
LINE
  5
20F
330
1F
100
AcDbEntity
  8
0
  6
Continuous
 62
     7
370
    15
100
AcDbLine
 10
115.3364806727
 20
203.8732184268
 30
0.0
 11
111.7689344021
 21
205.1016231194
 31
0.0
  0
ARC
  5
210
330
1F
100
AcDbEntity
  8
0
  6
Continuous
 62
     7
370
    15
100
AcDbCircle
 10
110.7922299388
 20
202.2650673926
 30
0.0
 40
3.000000000000004
100
AcDbArc
 50
71.0
 51
178.4576031237
  0
ARC
  5
211
330
1F
100
AcDbEntity
  8
0
  6
Continuous
 62
     7
370
    15
100
AcDbCircle
 10
120.7886067515
 20
201.9959008668
 30
0.0
 40
13.0
100
AcDbArc
 50
178.4576031237
 51
241.5423968763
  0
ARC
  5
212
330
1F
100
AcDbEntity
  8
0
  6
Continuous
 62
     7
370
    15
100
AcDbCircle
 10
130.7849835641
 20
202.2650673926
 30
0.0
 40
3.000000000000019
100
AcDbArc
 50
1.5423968763
 51
109.0
  0
LINE
  5
213
330
1F
100
AcDbEntity
  8
0
  6
Continuous
 62
     7
370
    15
100
AcDbLine
 10
129.8082791008
 20
205.1016231194
 30
0.0
 11
126.2407328302
 21
203.8732184268
 31
0.0
  0
ARC
  5
214
330
1F
100
AcDbEntity
  8
0
  6
Continuous
 62
     7
370
    15
100
AcDbCircle
 10
127.2174372936
 20
201.0366627
 30
0.0
 40
3.000000000000001
100
AcDbArc
 50
109.0
 51
171.5135737496
  0
ARC
  5
215
330
1F
100
AcDbEntity
  8
0
  6
Continuous
 62
     7
370
    15
100
AcDbCircle
 10
120.7886067515
 20
201.9959008668
 30
0.0
 40
3.500000000000001
100
AcDbArc
 50
308.4864262504
 51
351.5135737496
  0
ARC
  5
216
330
1F
100
AcDbEntity
  8
0
  6
Continuous
 62
     7
370
    15
100
AcDbCircle
 10
124.8337466432
 20
196.907989384
 30
0.0
 40
3.000000000000008
100
AcDbArc
 50
128.4864262504
 51
191.0
  0
LINE
  5
217
330
1F
100
AcDbEntity
  8
0
  6
Continuous
 62
     7
370
    15
100
AcDbLine
 10
121.8888650929
 20
196.3355623979
 30
0.0
 11
122.6088085582
 21
192.6317743521
 31
0.0
  0
ARC
  5
218
330
1F
100
AcDbEntity
  8
0
  6
Continuous
 62
     7
370
    15
100
AcDbCircle
 10
125.5536901085
 20
193.2042013382
 30
0.0
 40
3.000000000000029
100
AcDbArc
 50
191.0
 51
298.4576031237
  0
ARC
  5
219
330
1F
100
AcDbEntity
  8
0
  6
Continuous
 62
     7
370
    15
100
AcDbCircle
 10
120.7886067515
 20
201.9959008668
 30
0.0
 40
13.00000000000003
100
AcDbArc
 50
298.4576031237
 51
1.5423968763
  0
ARC
  5
21A
330
1F
100
AcDbEntity
  8
0
  6
Continuous
 62
     7
370
    15
100
AcDbCircle
 10
123.1722974018
 20
208.0430505162
 30
0.0
 40
2.999999999999998
100
AcDbArc
 50
248.4864262504
 51
311.0
  0
LINE
  5
21B
330
1F
100
AcDbEntity
  8
0
  6
Continuous
 62
     7
370
    15
100
AcDbLine
 10
125.1404744888
 20
205.7789217756
 30
0.0
 11
127.988077294
 21
208.2543051287
 31
0.0
  0
ARC
  5
21C
330
1F
100
AcDbEntity
  8
0
  6
Continuous
 62
     7
370
    15
100
AcDbCircle
 10
126.0199002071
 20
210.5184338694
 30
0.0
 40
3.000000000000029
100
AcDbArc
 50
311.0
 51
58.4576031237
  0
LINE
  5
21D
330
1F
100
AcDbEntity
  8
0
  6
Continuous
 62
     7
370
    15
100
AcDbLine
 10
120.9886067515
 20
216.9945674742
 30
0.0
 11
120.9886067515
 21
214.9943623142
 31
0.0
  0
LINE
  5
21E
330
1F
100
AcDbEntity
  8
0
  6
Continuous
 62
     7
370
    15
100
AcDbLine
 10
120.5886067515
 20
214.9943623142
 30
0.0
 11
120.5886067515
 21
216.9945674742
 31
0.0
  0
ARC
  5
21F
330
1F
100
AcDbEntity
  8
0
  6
Continuous
 62
     7
370
    15
100
AcDbCircle
 10
120.7886067515
 20
201.9959008668
 30
0.0
 40
13.00000000000001
100
AcDbArc
 50
90.8815083068
 51
121.5423968763
  0
ARC
  5
220
330
1F
100
AcDbEntity
  8
0
  6
Continuous
 62
     7
370
    15
100
AcDbCircle
 10
115.5573132958
 20
210.5184338694
 30
0.0
 40
3.00000000000002
100
AcDbArc
 50
121.5423968763
 51
229.0
  0
LINE
  5
221
330
1F
100
AcDbEntity
  8
0
  6
Continuous
 62
     7
370
    15
100
AcDbLine
 10
113.5891362089
 20
208.2543051287
 30
0.0
 11
116.4367390141
 21
205.7789217756
 31
0.0
  0
ARC
  5
222
330
1F
100
AcDbEntity
  8
0
  6
Continuous
 62
     7
370
    15
100
AcDbCircle
 10
118.4049161011
 20
208.0430505162
 30
0.0
 40
2.999999999999993
100
AcDbArc
 50
229.0
 51
291.5135737496
  0
ARC
  5
223
330
1F
100
AcDbEntity
  8
0
  6
Continuous
 62
     7
370
    15
100
AcDbCircle
 10
120.7886067515
 20
201.9959008668
 30
0.0
 40
3.50000000000003
100
AcDbArc
 50
93.2758289598
 51
111.5135737496
  0
LINE
  5
224
330
1F
100
AcDbEntity
  8
0
  6
Continuous
 62
     7
370
    15
100
AcDbLine
 10
120.5886067515
 20
203.1459008668
 30
0.0
 11
120.5886067515
 21
205.4901819087
 31
0.0
  0
LINE
  5
225
330
1F
100
AcDbEntity
  8
0
  6
Continuous
 62
     7
370
    15
100
AcDbLine
 10
119.8255387372
 20
203.1459008668
 30
0.0
 11
120.5886067515
 21
203.1459008668
 31
0.0
  0
ARC
  5
226
330
1F
100
AcDbEntity
  8
0
  6
Continuous
 62
     7
370
    15
100
AcDbCircle
 10
120.7886067515
 20
201.9959008668
 30
0.0
 40
1.500000000000002
100
AcDbArc
 50
129.9445051898
 51
50.0554948102
  0
LINE
  5
227
330
1F
100
AcDbEntity
  8
0
  6
Continuous
 62
     7
370
    15
100
AcDbLine
 10
120.9886067515
 20
205.4901819087
 30
0.0
 11
120.9886067515
 21
203.1459008668
 31
0.0
  0
ARC
  5
228
330
1F
100
AcDbEntity
  8
0
  6
Continuous
 62
     7
370
    15
100
AcDbCircle
 10
120.7886067515
 20
201.9959008668
 30
0.0
 40
15.00000000000002
100
AcDbArc
 50
90.763966364
 51
89.236033636
  0
LINE
  5
229
330
1F
100
AcDbEntity
  8
0
  6
Continuous
 62
     7
370
    15
100
AcDbLine
 10
120.9886067515
 20
203.1459008668
 30
0.0
 11
121.7516747657
 21
203.1459008668
 31
0.0
  0
ARC
  5
22A
330
1F
100
AcDbEntity
  8
0
  6
Continuous
 62
     7
370
    15
100
AcDbCircle
 10
120.7886067515
 20
201.9959008668
 30
0.0
 40
3.50000000000003
100
AcDbArc
 50
68.4864262504
 51
86.7241710402
  0
ARC
  5
22B
330
1F
100
AcDbEntity
  8
0
  6
Continuous
 62
     7
370
    15
100
AcDbCircle
 10
120.7886067515
 20
201.9959008668
 30
0.0
 40
13.00000000000002
100
AcDbArc
 50
58.4576031237
 51
89.1184916932
  0
ARC
  5
22C
330
1F
100
AcDbEntity
  8
0
  6
Continuous
 62
     7
370
    15
100
AcDbCircle
 10
184.8652749286
 20
195.1180933399
 30
0.0
 40
3.000000000000016
100
AcDbArc
 50
241.5423968763
 51
349.0
  0
LINE
  5
22D
330
1F
100
AcDbEntity
  8
0
  6
Continuous
 62
     7
370
    15
100
AcDbLine
 10
187.8101564789
 20
194.5456663538
 30
0.0
 11
188.5300999442
 21
198.2494543996
 31
0.0
  0
ARC
  5
22E
330
1F
100
AcDbEntity
  8
0
  6
Continuous
 62
     7
370
    15
100
AcDbCircle
 10
185.5852183939
 20
198.8218813857
 30
0.0
 40
2.999999999999991
100
AcDbArc
 50
349.0
 51
51.5135737496
  0
ARC
  5
22F
330
1F
100
AcDbEntity
  8
0
  6
Continuous
 62
     7
370
    15
100
AcDbCircle
 10
189.6303582856
 20
203.9097928685
 30
0.0
 40
3.500000000000001
100
AcDbArc
 50
188.4864262504
 51
231.5135737496
  0
ARC
  5
230
330
1F
100
AcDbEntity
  8
0
  6
Continuous
 62
     7
370
    15
100
AcDbCircle
 10
183.2015277435
 20
202.9505547017
 30
0.0
 40
2.999999999999983
100
AcDbArc
 50
8.4864262504
 51
71.0
  0
LINE
  5
231
330
1F
100
AcDbEntity
  8
0
  6
Continuous
 62
     7
370
    15
100
AcDbLine
 10
184.1782322069
 20
205.7871104285
 30
0.0
 11
180.6106859363
 21
207.0155151212
 31
0.0
  0
ARC
  5
232
330
1F
100
AcDbEntity
  8
0
  6
Continuous
 62
     7
370
    15
100
AcDbCircle
 10
179.6339814729
 20
204.1789593944
 30
0.0
 40
3.000000000000019
100
AcDbArc
 50
71.0
 51
178.4576031237
  0
ARC
  5
233
330
1F
100
AcDbEntity
  8
0
  6
Continuous
 62
     7
370
    15
100
AcDbCircle
 10
189.6303582856
 20
203.9097928685
 30
0.0
 40
13.00000000000001
100
AcDbArc
 50
178.4576031237
 51
241.5423968763
  0
ARC
  5
234
330
1F
100
AcDbEntity
  8
0
  6
Continuous
 62
     7
370
    15
100
AcDbCircle
 10
199.6267350983
 20
204.1789593944
 30
0.0
 40
3.000000000000001
100
AcDbArc
 50
1.5423968763
 51
109.0
  0
LINE
  5
235
330
1F
100
AcDbEntity
  8
0
  6
Continuous
 62
     7
370
    15
100
AcDbLine
 10
198.650030635
 20
207.0155151212
 30
0.0
 11
195.0824843644
 21
205.7871104285
 31
0.0
  0
ARC
  5
236
330
1F
100
AcDbEntity
  8
0
  6
Continuous
 62
     7
370
    15
100
AcDbCircle
 10
196.0591888278
 20
202.9505547017
 30
0.0
 40
3.000000000000028
100
AcDbArc
 50
109.0
 51
171.5135737496
  0
ARC
  5
237
330
1F
100
AcDbEntity
  8
0
  6
Continuous
 62
     7
370
    15
100
AcDbCircle
 10
189.6303582856
 20
203.9097928685
 30
0.0
 40
3.499999999999997
100
AcDbArc
 50
308.4864262504
 51
351.5135737496
  0
ARC
  5
238
330
1F
100
AcDbEntity
  8
0
  6
Continuous
 62
     7
370
    15
100
AcDbCircle
 10
193.6754981774
 20
198.8218813857
 30
0.0
 40
3.000000000000004
100
AcDbArc
 50
128.4864262504
 51
191.0
  0
LINE
  5
239
330
1F
100
AcDbEntity
  8
0
  6
Continuous
 62
     7
370
    15
100
AcDbLine
 10
190.730616627
 20
198.2494543996
 30
0.0
 11
191.4505600924
 21
194.5456663538
 31
0.0
  0
ARC
  5
23A
330
1F
100
AcDbEntity
  8
0
  6
Continuous
 62
     7
370
    15
100
AcDbCircle
 10
194.3954416427
 20
195.1180933399
 30
0.0
 40
3.000000000000029
100
AcDbArc
 50
191.0
 51
298.4576031237
  0
ARC
  5
23B
330
1F
100
AcDbEntity
  8
0
  6
Continuous
 62
     7
370
    15
100
AcDbCircle
 10
189.6303582856
 20
203.9097928685
 30
0.0
 40
13.00000000000002
100
AcDbArc
 50
298.4576031237
 51
1.5423968763
  0
ARC
  5
23C
330
1F
100
AcDbEntity
  8
0
  6
Continuous
 62
     7
370
    15
100
AcDbCircle
 10
192.014048936
 20
209.9569425179
 30
0.0
 40
3.000000000000017
100
AcDbArc
 50
248.4864262504
 51
311.0
  0
LINE
  5
23D
330
1F
100
AcDbEntity
  8
0
  6
Continuous
 62
     7
370
    15
100
AcDbLine
 10
193.982226023
 20
207.6928137773
 30
0.0
 11
196.8298288282
 21
210.1681971304
 31
0.0
  0
ARC
  5
23E
330
1F
100
AcDbEntity
  8
0
  6
Continuous
 62
     7
370
    15
100
AcDbCircle
 10
194.8616517413
 20
212.4323258711
 30
0.0
 40
3.000000000000017
100
AcDbArc
 50
311.0
 51
58.4576031237
  0
LINE
  5
23F
330
1F
100
AcDbEntity
  8
0
  6
Continuous
 62
     7
370
    15
100
AcDbLine
 10
189.8303582856
 20
218.9084594759
 30
0.0
 11
189.8303582856
 21
216.9082543159
 31
0.0
  0
LINE
  5
240
330
1F
100
AcDbEntity
  8
0
  6
Continuous
 62
     7
370
    15
100
AcDbLine
 10
189.4303582856
 20
216.9082543159
 30
0.0
 11
189.4303582856
 21
218.9084594759
 31
0.0
  0
ARC
  5
241
330
1F
100
AcDbEntity
  8
0
  6
Continuous
 62
     7
370
    15
100
AcDbCircle
 10
189.6303582856
 20
203.9097928685
 30
0.0
 40
13.0
100
AcDbArc
 50
90.8815083068
 51
121.5423968763
  0
ARC
  5
242
330
1F
100
AcDbEntity
  8
0
  6
Continuous
 62
     7
370
    15
100
AcDbCircle
 10
184.39906483
 20
212.4323258711
 30
0.0
 40
2.999999999999999
100
AcDbArc
 50
121.5423968763
 51
229.0
  0
LINE
  5
243
330
1F
100
AcDbEntity
  8
0
  6
Continuous
 62
     7
370
    15
100
AcDbLine
 10
182.430887743
 20
210.1681971304
 30
0.0
 11
185.2784905483
 21
207.6928137773
 31
0.0
  0
ARC
  5
244
330
1F
100
AcDbEntity
  8
0
  6
Continuous
 62
     7
370
    15
100
AcDbCircle
 10
187.2466676352
 20
209.9569425179
 30
0.0
 40
2.999999999999999
100
AcDbArc
 50
229.0
 51
291.5135737496
  0
ARC
  5
245
330
1F
100
AcDbEntity
  8
0
  6
Continuous
 62
     7
370
    15
100
AcDbCircle
 10
189.6303582856
 20
203.9097928685
 30
0.0
 40
3.500000000000029
100
AcDbArc
 50
93.2758289598
 51
111.5135737496
  0
LINE
  5
246
330
1F
100
AcDbEntity
  8
0
  6
Continuous
 62
     7
370
    15
100
AcDbLine
 10
189.4303582856
 20
205.0597928685
 30
0.0
 11
189.4303582856
 21
207.4040739104
 31
0.0
  0
LINE
  5
247
330
1F
100
AcDbEntity
  8
0
  6
Continuous
 62
     7
370
    15
100
AcDbLine
 10
188.6672902714
 20
205.0597928685
 30
0.0
 11
189.4303582856
 21
205.0597928685
 31
0.0
  0
ARC
  5
248
330
1F
100
AcDbEntity
  8
0
  6
Continuous
 62
     7
370
    15
100
AcDbCircle
 10
189.6303582856
 20
203.9097928685
 30
0.0
 40
1.500000000000012
100
AcDbArc
 50
129.9445051898
 51
50.0554948102
  0
LINE
  5
249
330
1F
100
AcDbEntity
  8
0
  6
Continuous
 62
     7
370
    15
100
AcDbLine
 10
189.8303582856
 20
207.4040739104
 30
0.0
 11
189.8303582856
 21
205.0597928685
 31
0.0
  0
ARC
  5
24A
330
1F
100
AcDbEntity
  8
0
  6
Continuous
 62
     7
370
    15
100
AcDbCircle
 10
189.6303582856
 20
203.9097928685
 30
0.0
 40
15.00000000000002
100
AcDbArc
 50
90.763966364
 51
89.236033636
  0
LINE
  5
24B
330
1F
100
AcDbEntity
  8
0
  6
Continuous
 62
     7
370
    15
100
AcDbLine
 10
189.8303582856
 20
205.0597928685
 30
0.0
 11
190.5934262998
 21
205.0597928685
 31
0.0
  0
ARC
  5
24C
330
1F
100
AcDbEntity
  8
0
  6
Continuous
 62
     7
370
    15
100
AcDbCircle
 10
189.6303582856
 20
203.9097928685
 30
0.0
 40
3.500000000000031
100
AcDbArc
 50
68.4864262504
 51
86.7241710402
  0
ARC
  5
24D
330
1F
100
AcDbEntity
  8
0
  6
Continuous
 62
     7
370
    15
100
AcDbCircle
 10
189.6303582856
 20
203.9097928685
 30
0.0
 40
13.00000000000002
100
AcDbArc
 50
58.4576031237
 51
89.1184916932
  0
ARC
  5
24E
330
1F
100
AcDbEntity
  8
0
  6
Continuous
 62
     7
370
    15
100
AcDbCircle
 10
16.8111347401
 20
194.3652168711
 30
0.0
 40
3.000000000000011
100
AcDbArc
 50
241.5423968763
 51
349.0
  0
LINE
  5
24F
330
1F
100
AcDbEntity
  8
0
  6
Continuous
 62
     7
370
    15
100
AcDbLine
 10
19.7560162905
 20
193.792789885
 30
0.0
 11
20.4759597558
 21
197.4965779308
 31
0.0
  0
ARC
  5
250
330
1F
100
AcDbEntity
  8
0
  6
Continuous
 62
     7
370
    15
100
AcDbCircle
 10
17.5310782055
 20
198.0690049169
 30
0.0
 40
3.000000000000002
100
AcDbArc
 50
349.0
 51
51.5135737496
  0
ARC
  5
251
330
1F
100
AcDbEntity
  8
0
  6
Continuous
 62
     7
370
    15
100
AcDbCircle
 10
21.5762180972
 20
203.1569163996
 30
0.0
 40
3.500000000000018
100
AcDbArc
 50
188.4864262504
 51
231.5135737496
  0
ARC
  5
252
330
1F
100
AcDbEntity
  8
0
  6
Continuous
 62
     7
370
    15
100
AcDbCircle
 10
15.1473875551
 20
202.1976782329
 30
0.0
 40
3.000000000000001
100
AcDbArc
 50
8.4864262504
 51
71.0
  0
LINE
  5
253
330
1F
100
AcDbEntity
  8
0
  6
Continuous
 62
     7
370
    15
100
AcDbLine
 10
16.1240920184
 20
205.0342339597
 30
0.0
 11
12.5565457479
 21
206.2626386523
 31
0.0
  0
ARC
  5
254
330
1F
100
AcDbEntity
  8
0
  6
Continuous
 62
     7
370
    15
100
AcDbCircle
 10
11.5798412845
 20
203.4260829255
 30
0.0
 40
2.999999999999999
100
AcDbArc
 50
71.0
 51
178.4576031237
  0
ARC
  5
255
330
1F
100
AcDbEntity
  8
0
  6
Continuous
 62
     7
370
    15
100
AcDbCircle
 10
21.5762180972
 20
203.1569163996
 30
0.0
 40
13.0
100
AcDbArc
 50
178.4576031237
 51
241.5423968763
  0
ARC
  5
256
330
1F
100
AcDbEntity
  8
0
  6
Continuous
 62
     7
370
    15
100
AcDbCircle
 10
31.5725949099
 20
203.4260829255
 30
0.0
 40
3.000000000000001
100
AcDbArc
 50
1.5423968763
 51
109.0
  0
LINE
  5
257
330
1F
100
AcDbEntity
  8
0
  6
Continuous
 62
     7
370
    15
100
AcDbLine
 10
30.5958904465
 20
206.2626386523
 30
0.0
 11
27.028344176
 21
205.0342339597
 31
0.0
  0
ARC
  5
258
330
1F
100
AcDbEntity
  8
0
  6
Continuous
 62
     7
370
    15
100
AcDbCircle
 10
28.0050486393
 20
202.1976782329
 30
0.0
 40
3.000000000000001
100
AcDbArc
 50
109.0
 51
171.5135737496
  0
ARC
  5
259
330
1F
100
AcDbEntity
  8
0
  6
Continuous
 62
     7
370
    15
100
AcDbCircle
 10
21.5762180972
 20
203.1569163996
 30
0.0
 40
3.50000000000002
100
AcDbArc
 50
308.4864262504
 51
351.5135737496
  0
ARC
  5
25A
330
1F
100
AcDbEntity
  8
0
  6
Continuous
 62
     7
370
    15
100
AcDbCircle
 10
25.621357989
 20
198.0690049169
 30
0.0
 40
2.999999999999994
100
AcDbArc
 50
128.4864262504
 51
191.0
  0
LINE
  5
25B
330
1F
100
AcDbEntity
  8
0
  6
Continuous
 62
     7
370
    15
100
AcDbLine
 10
22.6764764386
 20
197.4965779308
 30
0.0
 11
23.3964199039
 21
193.792789885
 31
0.0
  0
ARC
  5
25C
330
1F
100
AcDbEntity
  8
0
  6
Continuous
 62
     7
370
    15
100
AcDbCircle
 10
26.3413014543
 20
194.3652168711
 30
0.0
 40
3.000000000000002
100
AcDbArc
 50
191.0
 51
298.4576031237
  0
ARC
  5
25D
330
1F
100
AcDbEntity
  8
0
  6
Continuous
 62
     7
370
    15
100
AcDbCircle
 10
21.5762180972
 20
203.1569163996
 30
0.0
 40
13.0
100
AcDbArc
 50
298.4576031237
 51
1.5423968763
  0
ARC
  5
25E
330
1F
100
AcDbEntity
  8
0
  6
Continuous
 62
     7
370
    15
100
AcDbCircle
 10
23.9599087476
 20
209.2040660491
 30
0.0
 40
2.999999999999994
100
AcDbArc
 50
248.4864262504
 51
311.0
  0
LINE
  5
25F
330
1F
100
AcDbEntity
  8
0
  6
Continuous
 62
     7
370
    15
100
AcDbLine
 10
25.9280858346
 20
206.9399373085
 30
0.0
 11
28.7756886398
 21
209.4153206616
 31
0.0
  0
ARC
  5
260
330
1F
100
AcDbEntity
  8
0
  6
Continuous
 62
     7
370
    15
100
AcDbCircle
 10
26.8075115528
 20
211.6794494023
 30
0.0
 40
3.000000000000016
100
AcDbArc
 50
311.0
 51
58.4576031237
  0
LINE
  5
261
330
1F
100
AcDbEntity
  8
0
  6
Continuous
 62
     7
370
    15
100
AcDbLine
 10
21.7762180972
 20
218.1555830071
 30
0.0
 11
21.7762180972
 21
216.1553778471
 31
0.0
  0
LINE
  5
262
330
1F
100
AcDbEntity
  8
0
  6
Continuous
 62
     7
370
    15
100
AcDbLine
 10
21.3762180972
 20
216.1553778471
 30
0.0
 11
21.3762180972
 21
218.1555830071
 31
0.0
  0
ARC
  5
263
330
1F
100
AcDbEntity
  8
0
  6
Continuous
 62
     7
370
    15
100
AcDbCircle
 10
21.5762180972
 20
203.1569163996
 30
0.0
 40
13.00000000000001
100
AcDbArc
 50
90.8815083068
 51
121.5423968763
  0
ARC
  5
264
330
1F
100
AcDbEntity
  8
0
  6
Continuous
 62
     7
370
    15
100
AcDbCircle
 10
16.3449246416
 20
211.6794494023
 30
0.0
 40
3.000000000000014
100
AcDbArc
 50
121.5423968763
 51
229.0
  0
LINE
  5
265
330
1F
100
AcDbEntity
  8
0
  6
Continuous
 62
     7
370
    15
100
AcDbLine
 10
14.3767475546
 20
209.4153206616
 30
0.0
 11
17.2243503599
 21
206.9399373085
 31
0.0
  0
ARC
  5
266
330
1F
100
AcDbEntity
  8
0
  6
Continuous
 62
     7
370
    15
100
AcDbCircle
 10
19.1925274468
 20
209.2040660491
 30
0.0
 40
2.999999999999995
100
AcDbArc
 50
229.0
 51
291.5135737496
  0
ARC
  5
267
330
1F
100
AcDbEntity
  8
0
  6
Continuous
 62
     7
370
    15
100
AcDbCircle
 10
21.5762180972
 20
203.1569163996
 30
0.0
 40
3.500000000000001
100
AcDbArc
 50
93.2758289598
 51
111.5135737496
  0
LINE
  5
268
330
1F
100
AcDbEntity
  8
0
  6
Continuous
 62
     7
370
    15
100
AcDbLine
 10
21.3762180972
 20
204.3069163996
 30
0.0
 11
21.3762180972
 21
206.6511974416
 31
0.0
  0
LINE
  5
269
330
1F
100
AcDbEntity
  8
0
  6
Continuous
 62
     7
370
    15
100
AcDbLine
 10
20.613150083
 20
204.3069163996
 30
0.0
 11
21.3762180972
 21
204.3069163996
 31
0.0
  0
ARC
  5
26A
330
1F
100
AcDbEntity
  8
0
  6
Continuous
 62
     7
370
    15
100
AcDbCircle
 10
21.5762180972
 20
203.1569163996
 30
0.0
 40
1.500000000000005
100
AcDbArc
 50
129.9445051898
 51
50.0554948102
  0
LINE
  5
26B
330
1F
100
AcDbEntity
  8
0
  6
Continuous
 62
     7
370
    15
100
AcDbLine
 10
21.7762180972
 20
206.6511974416
 30
0.0
 11
21.7762180972
 21
204.3069163996
 31
0.0
  0
ARC
  5
26C
330
1F
100
AcDbEntity
  8
0
  6
Continuous
 62
     7
370
    15
100
AcDbCircle
 10
21.5762180972
 20
203.1569163996
 30
0.0
 40
14.99999999999999
100
AcDbArc
 50
90.763966364
 51
89.236033636
  0
LINE
  5
26D
330
1F
100
AcDbEntity
  8
0
  6
Continuous
 62
     7
370
    15
100
AcDbLine
 10
21.7762180972
 20
204.3069163996
 30
0.0
 11
22.5392861114
 21
204.3069163996
 31
0.0
  0
ARC
  5
26E
330
1F
100
AcDbEntity
  8
0
  6
Continuous
 62
     7
370
    15
100
AcDbCircle
 10
21.5762180972
 20
203.1569163996
 30
0.0
 40
3.500000000000001
100
AcDbArc
 50
68.4864262504
 51
86.7241710402
  0
ARC
  5
26F
330
1F
100
AcDbEntity
  8
0
  6
Continuous
 62
     7
370
    15
100
AcDbCircle
 10
21.5762180972
 20
203.1569163996
 30
0.0
 40
13.00000000000001
100
AcDbArc
 50
58.4576031237
 51
89.1184916932
  0
ARC
  5
270
330
1F
100
AcDbEntity
  8
0
  6
Continuous
 62
     7
370
    15
100
AcDbCircle
 10
83.3936690297
 20
193.1486706565
 30
0.0
 40
3.000000000000016
100
AcDbArc
 50
241.5423968763
 51
349.0
  0
LINE
  5
271
330
1F
100
AcDbEntity
  8
0
  6
Continuous
 62
     7
370
    15
100
AcDbLine
 10
86.3385505801
 20
192.5762436704
 30
0.0
 11
87.0584940454
 21
196.2800317162
 31
0.0
  0
ARC
  5
272
330
1F
100
AcDbEntity
  8
0
  6
Continuous
 62
     7
370
    15
100
AcDbCircle
 10
84.1136124951
 20
196.8524587023
 30
0.0
 40
3.0
100
AcDbArc
 50
349.0
 51
51.5135737496
  0
ARC
  5
273
330
1F
100
AcDbEntity
  8
0
  6
Continuous
 62
     7
370
    15
100
AcDbCircle
 10
88.1587523868
 20
201.940370185
 30
0.0
 40
3.500000000000001
100
AcDbArc
 50
188.4864262504
 51
231.5135737496
  0
ARC
  5
274
330
1F
100
AcDbEntity
  8
0
  6
Continuous
 62
     7
370
    15
100
AcDbCircle
 10
81.7299218447
 20
200.9811320183
 30
0.0
 40
2.999999999999994
100
AcDbArc
 50
8.4864262504
 51
71.0
  0
LINE
  5
275
330
1F
100
AcDbEntity
  8
0
  6
Continuous
 62
     7
370
    15
100
AcDbLine
 10
82.7066263081
 20
203.8176877451
 30
0.0
 11
79.1390800375
 21
205.0460924377
 31
0.0
  0
ARC
  5
276
330
1F
100
AcDbEntity
  8
0
  6
Continuous
 62
     7
370
    15
100
AcDbCircle
 10
78.1623755741
 20
202.2095367109
 30
0.0
 40
3.000000000000014
100
AcDbArc
 50
71.0
 51
178.4576031237
  0
ARC
  5
277
330
1F
100
AcDbEntity
  8
0
  6
Continuous
 62
     7
370
    15
100
AcDbCircle
 10
88.1587523868
 20
201.940370185
 30
0.0
 40
13.0
100
AcDbArc
 50
178.4576031237
 51
241.5423968763
  0
ARC
  5
278
330
1F
100
AcDbEntity
  8
0
  6
Continuous
 62
     7
370
    15
100
AcDbCircle
 10
98.1551291995
 20
202.2095367109
 30
0.0
 40
3.000000000000028
100
AcDbArc
 50
1.5423968763
 51
109.0
  0
LINE
  5
279
330
1F
100
AcDbEntity
  8
0
  6
Continuous
 62
     7
370
    15
100
AcDbLine
 10
97.1784247361
 20
205.0460924377
 30
0.0
 11
93.6108784656
 21
203.8176877451
 31
0.0
  0
ARC
  5
27A
330
1F
100
AcDbEntity
  8
0
  6
Continuous
 62
     7
370
    15
100
AcDbCircle
 10
94.5875829289
 20
200.9811320183
 30
0.0
 40
3.0
100
AcDbArc
 50
109.0
 51
171.5135737496
  0
ARC
  5
27B
330
1F
100
AcDbEntity
  8
0
  6
Continuous
 62
     7
370
    15
100
AcDbCircle
 10
88.1587523868
 20
201.940370185
 30
0.0
 40
3.500000000000007
100
AcDbArc
 50
308.4864262504
 51
351.5135737496
  0
ARC
  5
27C
330
1F
100
AcDbEntity
  8
0
  6
Continuous
 62
     7
370
    15
100
AcDbCircle
 10
92.2038922786
 20
196.8524587023
 30
0.0
 40
3.000000000000008
100
AcDbArc
 50
128.4864262504
 51
191.0
  0
LINE
  5
27D
330
1F
100
AcDbEntity
  8
0
  6
Continuous
 62
     7
370
    15
100
AcDbLine
 10
89.2590107282
 20
196.2800317162
 30
0.0
 11
89.9789541935
 21
192.5762436704
 31
0.0
  0
ARC
  5
27E
330
1F
100
AcDbEntity
  8
0
  6
Continuous
 62
     7
370
    15
100
AcDbCircle
 10
92.9238357439
 20
193.1486706565
 30
0.0
 40
3.000000000000029
100
AcDbArc
 50
191.0
 51
298.4576031237
  0
ARC
  5
27F
330
1F
100
AcDbEntity
  8
0
  6
Continuous
 62
     7
370
    15
100
AcDbCircle
 10
88.1587523868
 20
201.940370185
 30
0.0
 40
13.00000000000001
100
AcDbArc
 50
298.4576031237
 51
1.5423968763
  0
ARC
  5
280
330
1F
100
AcDbEntity
  8
0
  6
Continuous
 62
     7
370
    15
100
AcDbCircle
 10
90.5424430372
 20
207.9875198345
 30
0.0
 40
2.999999999999999
100
AcDbArc
 50
248.4864262504
 51
311.0
  0
LINE
  5
281
330
1F
100
AcDbEntity
  8
0
  6
Continuous
 62
     7
370
    15
100
AcDbLine
 10
92.5106201242
 20
205.7233910939
 30
0.0
 11
95.3582229294
 21
208.198774447
 31
0.0
  0
ARC
  5
282
330
1F
100
AcDbEntity
  8
0
  6
Continuous
 62
     7
370
    15
100
AcDbCircle
 10
93.3900458424
 20
210.4629031877
 30
0.0
 40
2.999999999999999
100
AcDbArc
 50
311.0
 51
58.4576031237
  0
LINE
  5
283
330
1F
100
AcDbEntity
  8
0
  6
Continuous
 62
     7
370
    15
100
AcDbLine
 10
88.3587523868
 20
216.9390367924
 30
0.0
 11
88.3587523868
 21
214.9388316325
 31
0.0
  0
LINE
  5
284
330
1F
100
AcDbEntity
  8
0
  6
Continuous
 62
     7
370
    15
100
AcDbLine
 10
87.9587523868
 20
214.9388316325
 30
0.0
 11
87.9587523868
 21
216.9390367924
 31
0.0
  0
ARC
  5
285
330
1F
100
AcDbEntity
  8
0
  6
Continuous
 62
     7
370
    15
100
AcDbCircle
 10
88.1587523868
 20
201.940370185
 30
0.0
 40
13.00000000000002
100
AcDbArc
 50
90.8815083068
 51
121.5423968763
  0
ARC
  5
286
330
1F
100
AcDbEntity
  8
0
  6
Continuous
 62
     7
370
    15
100
AcDbCircle
 10
82.9274589312
 20
210.4629031877
 30
0.0
 40
3.000000000000008
100
AcDbArc
 50
121.5423968763
 51
229.0
  0
LINE
  5
287
330
1F
100
AcDbEntity
  8
0
  6
Continuous
 62
     7
370
    15
100
AcDbLine
 10
80.9592818442
 20
208.198774447
 30
0.0
 11
83.8068846495
 21
205.7233910939
 31
0.0
  0
ARC
  5
288
330
1F
100
AcDbEntity
  8
0
  6
Continuous
 62
     7
370
    15
100
AcDbCircle
 10
85.7750617364
 20
207.9875198345
 30
0.0
 40
3.000000000000008
100
AcDbArc
 50
229.0
 51
291.5135737496
  0
ARC
  5
289
330
1F
100
AcDbEntity
  8
0
  6
Continuous
 62
     7
370
    15
100
AcDbCircle
 10
88.1587523868
 20
201.940370185
 30
0.0
 40
3.50000000000003
100
AcDbArc
 50
93.2758289598
 51
111.5135737496
  0
LINE
  5
28A
330
1F
100
AcDbEntity
  8
0
  6
Continuous
 62
     7
370
    15
100
AcDbLine
 10
87.9587523868
 20
203.090370185
 30
0.0
 11
87.9587523868
 21
205.434651227
 31
0.0
  0
LINE
  5
28B
330
1F
100
AcDbEntity
  8
0
  6
Continuous
 62
     7
370
    15
100
AcDbLine
 10
87.1956843726
 20
203.090370185
 30
0.0
 11
87.9587523868
 21
203.090370185
 31
0.0
  0
ARC
  5
28C
330
1F
100
AcDbEntity
  8
0
  6
Continuous
 62
     7
370
    15
100
AcDbCircle
 10
88.1587523868
 20
201.940370185
 30
0.0
 40
1.500000000000002
100
AcDbArc
 50
129.9445051898
 51
50.0554948102
  0
LINE
  5
28D
330
1F
100
AcDbEntity
  8
0
  6
Continuous
 62
     7
370
    15
100
AcDbLine
 10
88.3587523868
 20
205.434651227
 30
0.0
 11
88.3587523868
 21
203.090370185
 31
0.0
  0
ARC
  5
28E
330
1F
100
AcDbEntity
  8
0
  6
Continuous
 62
     7
370
    15
100
AcDbCircle
 10
88.1587523868
 20
201.940370185
 30
0.0
 40
15.00000000000002
100
AcDbArc
 50
90.763966364
 51
89.236033636
  0
LINE
  5
28F
330
1F
100
AcDbEntity
  8
0
  6
Continuous
 62
     7
370
    15
100
AcDbLine
 10
88.3587523868
 20
203.090370185
 30
0.0
 11
89.121820401
 21
203.090370185
 31
0.0
  0
ARC
  5
290
330
1F
100
AcDbEntity
  8
0
  6
Continuous
 62
     7
370
    15
100
AcDbCircle
 10
88.1587523868
 20
201.940370185
 30
0.0
 40
3.500000000000031
100
AcDbArc
 50
68.4864262504
 51
86.7241710402
  0
ARC
  5
291
330
1F
100
AcDbEntity
  8
0
  6
Continuous
 62
     7
370
    15
100
AcDbCircle
 10
88.1587523868
 20
201.940370185
 30
0.0
 40
13.00000000000002
100
AcDbArc
 50
58.4576031237
 51
89.1184916932
  0
ARC
  5
292
330
1F
100
AcDbEntity
  8
0
  6
Continuous
 62
     7
370
    15
100
AcDbCircle
 10
150.2450995811
 20
193.1185771151
 30
0.0
 40
3.000000000000016
100
AcDbArc
 50
241.5423968763
 51
349.0
  0
LINE
  5
293
330
1F
100
AcDbEntity
  8
0
  6
Continuous
 62
     7
370
    15
100
AcDbLine
 10
153.1899811315
 20
192.546150129
 30
0.0
 11
153.9099245968
 21
196.2499381748
 31
0.0
  0
ARC
  5
294
330
1F
100
AcDbEntity
  8
0
  6
Continuous
 62
     7
370
    15
100
AcDbCircle
 10
150.9650430465
 20
196.8223651609
 30
0.0
 40
2.999999999999991
100
AcDbArc
 50
349.0
 51
51.5135737496
  0
ARC
  5
295
330
1F
100
AcDbEntity
  8
0
  6
Continuous
 62
     7
370
    15
100
AcDbCircle
 10
155.0101829382
 20
201.9102766437
 30
0.0
 40
3.500000000000001
100
AcDbArc
 50
188.4864262504
 51
231.5135737496
  0
ARC
  5
296
330
1F
100
AcDbEntity
  8
0
  6
Continuous
 62
     7
370
    15
100
AcDbCircle
 10
148.5813523961
 20
200.9510384769
 30
0.0
 40
2.999999999999984
100
AcDbArc
 50
8.4864262504
 51
71.0
  0
LINE
  5
297
330
1F
100
AcDbEntity
  8
0
  6
Continuous
 62
     7
370
    15
100
AcDbLine
 10
149.5580568594
 20
203.7875942037
 30
0.0
 11
145.9905105889
 21
205.0159988964
 31
0.0
  0
ARC
  5
298
330
1F
100
AcDbEntity
  8
0
  6
Continuous
 62
     7
370
    15
100
AcDbCircle
 10
145.0138061255
 20
202.1794431696
 30
0.0
 40
3.000000000000019
100
AcDbArc
 50
71.0
 51
178.4576031237
  0
ARC
  5
299
330
1F
100
AcDbEntity
  8
0
  6
Continuous
 62
     7
370
    15
100
AcDbCircle
 10
155.0101829382
 20
201.9102766437
 30
0.0
 40
13.00000000000001
100
AcDbArc
 50
178.4576031237
 51
241.5423968763
  0
ARC
  5
29A
330
1F
100
AcDbEntity
  8
0
  6
Continuous
 62
     7
370
    15
100
AcDbCircle
 10
165.0065597509
 20
202.1794431696
 30
0.0
 40
2.999999999999992
100
AcDbArc
 50
1.5423968763
 51
109.0
  0
LINE
  5
29B
330
1F
100
AcDbEntity
  8
0
  6
Continuous
 62
     7
370
    15
100
AcDbLine
 10
164.0298552875
 20
205.0159988964
 30
0.0
 11
160.462309017
 21
203.7875942037
 31
0.0
  0
ARC
  5
29C
330
1F
100
AcDbEntity
  8
0
  6
Continuous
 62
     7
370
    15
100
AcDbCircle
 10
161.4390134803
 20
200.9510384769
 30
0.0
 40
3.000000000000004
100
AcDbArc
 50
109.0
 51
171.5135737496
  0
ARC
  5
29D
330
1F
100
AcDbEntity
  8
0
  6
Continuous
 62
     7
370
    15
100
AcDbCircle
 10
155.0101829382
 20
201.9102766437
 30
0.0
 40
3.499999999999997
100
AcDbArc
 50
308.4864262504
 51
351.5135737496
  0
ARC
  5
29E
330
1F
100
AcDbEntity
  8
0
  6
Continuous
 62
     7
370
    15
100
AcDbCircle
 10
159.0553228299
 20
196.8223651609
 30
0.0
 40
3.000000000000004
100
AcDbArc
 50
128.4864262504
 51
191.0
  0
LINE
  5
29F
330
1F
100
AcDbEntity
  8
0
  6
Continuous
 62
     7
370
    15
100
AcDbLine
 10
156.1104412796
 20
196.2499381748
 30
0.0
 11
156.8303847449
 21
192.546150129
 31
0.0
  0
ARC
  5
2A0
330
1F
100
AcDbEntity
  8
0
  6
Continuous
 62
     7
370
    15
100
AcDbCircle
 10
159.7752662953
 20
193.1185771151
 30
0.0
 40
3.000000000000029
100
AcDbArc
 50
191.0
 51
298.4576031237
  0
ARC
  5
2A1
330
1F
100
AcDbEntity
  8
0
  6
Continuous
 62
     7
370
    15
100
AcDbCircle
 10
155.0101829382
 20
201.9102766437
 30
0.0
 40
13.0
100
AcDbArc
 50
298.4576031237
 51
1.5423968763
  0
ARC
  5
2A2
330
1F
100
AcDbEntity
  8
0
  6
Continuous
 62
     7
370
    15
100
AcDbCircle
 10
157.3938735886
 20
207.9574262932
 30
0.0
 40
3.000000000000024
100
AcDbArc
 50
248.4864262504
 51
311.0
  0
LINE
  5
2A3
330
1F
100
AcDbEntity
  8
0
  6
Continuous
 62
     7
370
    15
100
AcDbLine
 10
159.3620506756
 20
205.6932975525
 30
0.0
 11
162.2096534808
 21
208.1686809056
 31
0.0
  0
ARC
  5
2A4
330
1F
100
AcDbEntity
  8
0
  6
Continuous
 62
     7
370
    15
100
AcDbCircle
 10
160.2414763938
 20
210.4328096463
 30
0.0
 40
3.000000000000039
100
AcDbArc
 50
311.0
 51
58.4576031237
  0
LINE
  5
2A5
330
1F
100
AcDbEntity
  8
0
  6
Continuous
 62
     7
370
    15
100
AcDbLine
 10
155.2101829382
 20
216.9089432511
 30
0.0
 11
155.2101829382
 21
214.9087380911
 31
0.0
  0
LINE
  5
2A6
330
1F
100
AcDbEntity
  8
0
  6
Continuous
 62
     7
370
    15
100
AcDbLine
 10
154.8101829382
 20
214.9087380911
 30
0.0
 11
154.8101829382
 21
216.9089432511
 31
0.0
  0
ARC
  5
2A7
330
1F
100
AcDbEntity
  8
0
  6
Continuous
 62
     7
370
    15
100
AcDbCircle
 10
155.0101829382
 20
201.9102766437
 30
0.0
 40
13.00000000000002
100
AcDbArc
 50
90.8815083068
 51
121.5423968763
  0
ARC
  5
2A8
330
1F
100
AcDbEntity
  8
0
  6
Continuous
 62
     7
370
    15
100
AcDbCircle
 10
149.7788894826
 20
210.4328096463
 30
0.0
 40
3.000000000000039
100
AcDbArc
 50
121.5423968763
 51
229.0
  0
LINE
  5
2A9
330
1F
100
AcDbEntity
  8
0
  6
Continuous
 62
     7
370
    15
100
AcDbLine
 10
147.8107123956
 20
208.1686809056
 30
0.0
 11
150.6583152008
 21
205.6932975525
 31
0.0
  0
ARC
  5
2AA
330
1F
100
AcDbEntity
  8
0
  6
Continuous
 62
     7
370
    15
100
AcDbCircle
 10
152.6264922878
 20
207.9574262932
 30
0.0
 40
3.000000000000024
100
AcDbArc
 50
229.0
 51
291.5135737496
  0
ARC
  5
2AB
330
1F
100
AcDbEntity
  8
0
  6
Continuous
 62
     7
370
    15
100
AcDbCircle
 10
155.0101829382
 20
201.9102766437
 30
0.0
 40
3.500000000000029
100
AcDbArc
 50
93.2758289598
 51
111.5135737496
  0
LINE
  5
2AC
330
1F
100
AcDbEntity
  8
0
  6
Continuous
 62
     7
370
    15
100
AcDbLine
 10
154.8101829382
 20
203.0602766437
 30
0.0
 11
154.8101829382
 21
205.4045576856
 31
0.0
  0
LINE
  5
2AD
330
1F
100
AcDbEntity
  8
0
  6
Continuous
 62
     7
370
    15
100
AcDbLine
 10
154.047114924
 20
203.0602766437
 30
0.0
 11
154.8101829382
 21
203.0602766437
 31
0.0
  0
ARC
  5
2AE
330
1F
100
AcDbEntity
  8
0
  6
Continuous
 62
     7
370
    15
100
AcDbCircle
 10
155.0101829382
 20
201.9102766437
 30
0.0
 40
1.500000000000012
100
AcDbArc
 50
129.9445051898
 51
50.0554948102
  0
LINE
  5
2AF
330
1F
100
AcDbEntity
  8
0
  6
Continuous
 62
     7
370
    15
100
AcDbLine
 10
155.2101829382
 20
205.4045576856
 30
0.0
 11
155.2101829382
 21
203.0602766437
 31
0.0
  0
ARC
  5
2B0
330
1F
100
AcDbEntity
  8
0
  6
Continuous
 62
     7
370
    15
100
AcDbCircle
 10
155.0101829382
 20
201.9102766437
 30
0.0
 40
15.00000000000002
100
AcDbArc
 50
90.763966364
 51
89.236033636
  0
LINE
  5
2B1
330
1F
100
AcDbEntity
  8
0
  6
Continuous
 62
     7
370
    15
100
AcDbLine
 10
155.2101829382
 20
203.0602766437
 30
0.0
 11
155.9732509524
 21
203.0602766437
 31
0.0
  0
ARC
  5
2B2
330
1F
100
AcDbEntity
  8
0
  6
Continuous
 62
     7
370
    15
100
AcDbCircle
 10
155.0101829382
 20
201.9102766437
 30
0.0
 40
3.500000000000031
100
AcDbArc
 50
68.4864262504
 51
86.7241710402
  0
ARC
  5
2B3
330
1F
100
AcDbEntity
  8
0
  6
Continuous
 62
     7
370
    15
100
AcDbCircle
 10
155.0101829382
 20
201.9102766437
 30
0.0
 40
13.00000000000002
100
AcDbArc
 50
58.4576031237
 51
89.1184916932
  0
ENDSEC
  0
SECTION
  2
OBJECTS
  0
DICTIONARY
  5
C
330
0
100
AcDbDictionary
281
     1
  3
ACAD_GROUP
350
D
  3
ACAD_LAYOUT
350
1A
  3
ACAD_MLEADERSTYLE
350
2B6
  3
ACAD_MLINESTYLE
350
17
  3
ACAD_PLOTSETTINGS
350
19
  3
ACAD_PLOTSTYLENAME
350
E
  3
ACAD_VISUALSTYLE
350
2A
  3
AcDbVariableDictionary
350
2B4
  0
DICTIONARY
  5
D
102
{ACAD_REACTORS
330
C
102
}
330
C
100
AcDbDictionary
281
     1
  0
DICTIONARY
  5
1A
102
{ACAD_REACTORS
330
C
102
}
330
C
100
AcDbDictionary
281
     1
  3
Layout1
350
1E
  3
Layout2
350
26
  3
Model
350
22
  0
DICTIONARY
  5
2B6
102
{ACAD_REACTORS
330
C
102
}
330
C
100
AcDbDictionary
281
     1
  0
DICTIONARY
  5
17
102
{ACAD_REACTORS
330
C
102
}
330
C
100
AcDbDictionary
281
     1
  3
Standard
350
18
  0
DICTIONARY
  5
19
102
{ACAD_REACTORS
330
C
102
}
330
C
100
AcDbDictionary
281
     1
  0
ACDBDICTIONARYWDFLT
  5
E
102
{ACAD_REACTORS
330
C
102
}
330
C
100
AcDbDictionary
281
     1
  3
Normal
350
F
100
AcDbDictionaryWithDefault
340
F
  0
DICTIONARY
  5
2A
102
{ACAD_REACTORS
330
C
102
}
330
C
100
AcDbDictionary
281
     1
  3
2dWireframe
350
2F
  3
3D Hidden
350
31
  3
3dWireframe
350
30
  3
Basic
350
32
  3
Brighten
350
36
  3
ColorChange
350
3A
  3
Conceptual
350
34
  3
Dim
350
35
  3
Facepattern
350
39
  3
Flat
350
2B
  3
FlatWithEdges
350
2C
  3
Gouraud
350
2D
  3
GouraudWithEdges
350
2E
  3
Linepattern
350
38
  3
Realistic
350
33
  3
Thicken
350
37
  0
DICTIONARY
  5
2B4
102
{ACAD_REACTORS
330
C
102
}
330
C
100
AcDbDictionary
281
     1
  3
DIMASSOC
350
2B9
  3
HIDETEXT
350
2BA
  3
PSOLHEIGHT
350
2B8
  3
PSOLWIDTH
350
2B7
  0
LAYOUT
  5
1E
102
{ACAD_REACTORS
330
1A
102
}
330
1A
100
AcDbPlotSettings
  1

  2
none_device
  4

  6

 40
0.0
 41
0.0
 42
0.0
 43
0.0
 44
0.0
 45
0.0
 46
0.0
 47
0.0
 48
0.0
 49
0.0
140
0.0
141
0.0
142
1.0
143
1.0
 70
   688
 72
     0
 73
     0
 74
     5
  7

 75
    16
147
1.0
148
0.0
149
0.0
100
AcDbLayout
  1
Layout1
 70
     1
 71
     1
 10
0.0
 20
0.0
 11
420.0
 21
297.0
 12
0.0
 22
0.0
 32
0.0
 14
1.0000000000E+20
 24
1.0000000000E+20
 34
1.0000000000E+20
 15
-1.0000000000E+20
 25
-1.0000000000E+20
 35
-1.0000000000E+20
146
0.0
 13
0.0
 23
0.0
 33
0.0
 16
1.0
 26
0.0
 36
0.0
 17
0.0
 27
1.0
 37
0.0
 76
     0
330
1B
  0
LAYOUT
  5
26
102
{ACAD_REACTORS
330
1A
102
}
330
1A
100
AcDbPlotSettings
  1

  2
none_device
  4

  6

 40
0.0
 41
0.0
 42
0.0
 43
0.0
 44
0.0
 45
0.0
 46
0.0
 47
0.0
 48
0.0
 49
0.0
140
0.0
141
0.0
142
1.0
143
1.0
 70
   688
 72
     0
 73
     0
 74
     5
  7

 75
    16
147
1.0
148
0.0
149
0.0
100
AcDbLayout
  1
Layout2
 70
     1
 71
     2
 10
0.0
 20
0.0
 11
0.0
 21
0.0
 12
0.0
 22
0.0
 32
0.0
 14
0.0
 24
0.0
 34
0.0
 15
0.0
 25
0.0
 35
0.0
146
0.0
 13
0.0
 23
0.0
 33
0.0
 16
1.0
 26
0.0
 36
0.0
 17
0.0
 27
1.0
 37
0.0
 76
     0
330
23
  0
LAYOUT
  5
22
102
{ACAD_REACTORS
330
1A
102
}
330
1A
100
AcDbPlotSettings
  1

  2
none_device
  4

  6

 40
0.0
 41
0.0
 42
0.0
 43
0.0
 44
0.0
 45
0.0
 46
0.0
 47
0.0
 48
0.0
 49
0.0
140
0.0
141
0.0
142
1.0
143
1.0
 70
  1712
 72
     0
 73
     0
 74
     0
  7

 75
     0
147
1.0
148
0.0
149
0.0
100
AcDbLayout
  1
Model
 70
     1
 71
     0
 10
0.0
 20
0.0
 11
210.0
 21
297.0
 12
0.0
 22
0.0
 32
0.0
 14
0.0
 24
0.0
 34
0.0
 15
210.0
 25
297.0
 35
0.0
146
0.0
 13
0.0
 23
0.0
 33
0.0
 16
1.0
 26
0.0
 36
0.0
 17
0.0
 27
1.0
 37
0.0
 76
     0
330
1F
331
29
  0
MLINESTYLE
  5
18
102
{ACAD_REACTORS
330
17
102
}
330
17
100
AcDbMlineStyle
  2
Standard
 70
     0
  3

 62
   256
 51
90.0
 52
90.0
 71
     2
 49
0.5
 62
   256
  6
BYLAYER
 49
-0.5
 62
   256
  6
BYLAYER
  0
ACDBPLACEHOLDER
  5
F
102
{ACAD_REACTORS
330
E
102
}
330
E
  0
VISUALSTYLE
  5
2F
102
{ACAD_REACTORS
330
2A
102
}
330
2A
100
AcDbVisualStyle
  2
2dWireframe
 70
     4
 71
     0
 72
     2
 73
     0
 90
        0
 40
-0.6
 41
-30.0
 62
     5
 63
     7
 74
     1
 91
        4
 64
     7
 65
   257
 75
     1
175
     1
 42
1.0
 92
        0
 66
   257
 43
1.0
 76
     1
 77
     6
 78
     2
 67
     7
 79
     5
170
     0
171
     0
290
     0
174
     0
 93
        1
 44
0.0
173
     0
291
     0
 45
0.0
1001
ACAD
1000
AcDbSavedByObjectVersion
1070
     0
  0
VISUALSTYLE
  5
31
102
{ACAD_REACTORS
330
2A
102
}
330
2A
100
AcDbVisualStyle
  2
3D Hidden
 70
     6
 71
     1
 72
     2
 73
     2
 90
        0
 40
-0.6
 41
-30.0
 62
     5
 63
     7
 74
     2
 91
        2
 64
     7
 65
   257
 75
     2
175
     1
 42
40.0
 92
        0
 66
   257
 43
1.0
 76
     1
 77
     6
 78
     2
 67
     7
 79
     3
170
     0
171
     0
290
     0
174
     0
 93
        1
 44
0.0
173
     0
291
     0
 45
0.0
1001
ACAD
1000
AcDbSavedByObjectVersion
1070
     0
  0
VISUALSTYLE
  5
30
102
{ACAD_REACTORS
330
2A
102
}
330
2A
100
AcDbVisualStyle
  2
3dWireframe
 70
     5
 71
     0
 72
     2
 73
     0
 90
        0
 40
-0.6
 41
-30.0
 62
     5
 63
     7
 74
     1
 91
        4
 64
     7
 65
   257
 75
     1
175
     1
 42
1.0
 92
        0
 66
   257
 43
1.0
 76
     1
 77
     6
 78
     2
 67
     7
 79
     5
170
     0
171
     0
290
     0
174
     0
 93
        1
 44
0.0
173
     0
291
     0
 45
0.0
1001
ACAD
1000
AcDbSavedByObjectVersion
1070
     0
  0
VISUALSTYLE
  5
32
102
{ACAD_REACTORS
330
2A
102
}
330
2A
100
AcDbVisualStyle
  2
Basic
 70
     7
 71
     1
 72
     0
 73
     1
 90
        0
 40
-0.6
 41
-30.0
 62
     5
 63
     7
 74
     0
 91
        4
 64
     7
 65
   257
 75
     1
175
     1
 42
1.0
 92
        8
 66
     7
 43
1.0
 76
     1
 77
     6
 78
     2
 67
     7
 79
     5
170
     0
171
     0
290
     0
174
     0
 93
        1
 44
0.0
173
     0
291
     1
 45
0.0
1001
ACAD
1000
AcDbSavedByObjectVersion
1070
     0
  0
VISUALSTYLE
  5
36
102
{ACAD_REACTORS
330
2A
102
}
330
2A
100
AcDbVisualStyle
  2
Brighten
 70
    12
 71
     2
 72
     2
 73
     0
 90
        0
 40
-0.6
 41
-30.0
 62
     5
 63
     7
 74
     1
 91
        4
 64
     7
 65
   257
 75
     1
175
     1
 42
1.0
 92
        8
 66
     7
 43
1.0
 76
     1
 77
     6
 78
     2
 67
     7
 79
     5
170
     0
171
     0
290
     0
174
     0
 93
        1
 44
50.0
173
     0
291
     1
 45
0.0
1001
ACAD
1000
AcDbSavedByObjectVersion
1070
     0
  0
VISUALSTYLE
  5
3A
102
{ACAD_REACTORS
330
2A
102
}
330
2A
100
AcDbVisualStyle
  2
ColorChange
 70
    16
 71
     2
 72
     2
 73
     3
 90
        0
 40
-0.6
 41
-30.0
 62
     5
 63
     8
 74
     1
 91
        4
 64
     7
 65
   257
 75
     1
175
     1
 42
1.0
 92
        8
 66
     8
 43
1.0
 76
     1
 77
     6
 78
     2
 67
     7
 79
     5
170
     0
171
     0
290
     0
174
     0
 93
        1
 44
0.0
173
     0
291
     1
 45
0.0
1001
ACAD
1000
AcDbSavedByObjectVersion
1070
     0
  0
VISUALSTYLE
  5
34
102
{ACAD_REACTORS
330
2A
102
}
330
2A
100
AcDbVisualStyle
  2
Conceptual
 70
     9
 71
     3
 72
     2
 73
     0
 90
        0
 40
-0.6
 41
-30.0
 62
     5
 63
     7
 74
     2
 91
        2
 64
     7
 65
   257
 75
     1
175
     1
 42
40.0
 92
        8
 66
     7
 43
1.0
 76
     1
 77
     6
 78
     2
 67
     7
 79
     3
170
     0
171
     0
290
     0
174
     0
 93
        1
 44
0.0
173
     0
291
     0
 45
0.0
1001
ACAD
1000
AcDbSavedByObjectVersion
1070
     0
  0
VISUALSTYLE
  5
35
102
{ACAD_REACTORS
330
2A
102
}
330
2A
100
AcDbVisualStyle
  2
Dim
 70
    11
 71
     2
 72
     2
 73
     0
 90
        0
 40
-0.6
 41
-30.0
 62
     5
 63
     7
 74
     1
 91
        4
 64
     7
 65
   257
 75
     1
175
     1
 42
1.0
 92
        8
 66
     7
 43
1.0
 76
     1
 77
     6
 78
     2
 67
     7
 79
     5
170
     0
171
     0
290
     0
174
     0
 93
        1
 44
-50.0
173
     0
291
     1
 45
0.0
1001
ACAD
1000
AcDbSavedByObjectVersion
1070
     0
  0
VISUALSTYLE
  5
39
102
{ACAD_REACTORS
330
2A
102
}
330
2A
100
AcDbVisualStyle
  2
Facepattern
 70
    15
 71
     2
 72
     2
 73
     0
 90
        0
 40
-0.6
 41
-30.0
 62
     5
 63
     7
 74
     1
 91
        4
 64
     7
 65
   257
 75
     1
175
     1
 42
1.0
 92
        8
 66
     7
 43
1.0
 76
     1
 77
     6
 78
     2
 67
     7
 79
     5
170
     0
171
     0
290
     0
174
     0
 93
        1
 44
0.0
173
     0
291
     1
 45
0.0
1001
ACAD
1000
AcDbSavedByObjectVersion
1070
     0
  0
VISUALSTYLE
  5
2B
102
{ACAD_REACTORS
330
2A
102
}
330
2A
100
AcDbVisualStyle
  2
Flat
 70
     0
 71
     2
 72
     1
 73
     1
 90
        2
 40
-0.6
 41
30.0
 62
     5
 63
     7
 74
     0
 91
        4
 64
     7
 65
   257
 75
     1
175
     1
 42
1.0
 92
        8
 66
     7
 43
1.0
 76
     1
 77
     6
 78
     2
 67
     7
 79
     5
170
     0
171
     0
290
     0
174
     0
 93
       13
 44
0.0
173
     0
291
     1
 45
0.0
1001
ACAD
1000
AcDbSavedByObjectVersion
1070
     0
  0
VISUALSTYLE
  5
2C
102
{ACAD_REACTORS
330
2A
102
}
330
2A
100
AcDbVisualStyle
  2
FlatWithEdges
 70
     1
 71
     2
 72
     1
 73
     1
 90
        2
 40
-0.6
 41
30.0
 62
     5
 63
     7
 74
     1
 91
        4
 64
     7
 65
   257
 75
     1
175
     1
 42
1.0
 92
        0
 66
   257
 43
1.0
 76
     1
 77
     6
 78
     2
 67
     7
 79
     5
170
     0
171
     0
290
     0
174
     0
 93
       13
 44
0.0
173
     0
291
     1
 45
0.0
1001
ACAD
1000
AcDbSavedByObjectVersion
1070
     0
  0
VISUALSTYLE
  5
2D
102
{ACAD_REACTORS
330
2A
102
}
330
2A
100
AcDbVisualStyle
  2
Gouraud
 70
     2
 71
     2
 72
     2
 73
     1
 90
        2
 40
-0.6
 41
30.0
 62
     5
 63
     7
 74
     0
 91
        4
 64
     7
 65
   257
 75
     1
175
     1
 42
1.0
 92
        0
 66
     7
 43
1.0
 76
     1
 77
     6
 78
     2
 67
     7
 79
     5
170
     0
171
     0
290
     0
174
     0
 93
       13
 44
0.0
173
     0
291
     1
 45
0.0
1001
ACAD
1000
AcDbSavedByObjectVersion
1070
     0
  0
VISUALSTYLE
  5
2E
102
{ACAD_REACTORS
330
2A
102
}
330
2A
100
AcDbVisualStyle
  2
GouraudWithEdges
 70
     3
 71
     2
 72
     2
 73
     1
 90
        2
 40
-0.6
 41
30.0
 62
     5
 63
     7
 74
     1
 91
        4
 64
     7
 65
   257
 75
     1
175
     1
 42
1.0
 92
        0
 66
   257
 43
1.0
 76
     1
 77
     6
 78
     2
 67
     7
 79
     5
170
     0
171
     0
290
     0
174
     0
 93
       13
 44
0.0
173
     0
291
     1
 45
0.0
1001
ACAD
1000
AcDbSavedByObjectVersion
1070
     0
  0
VISUALSTYLE
  5
38
102
{ACAD_REACTORS
330
2A
102
}
330
2A
100
AcDbVisualStyle
  2
Linepattern
 70
    14
 71
     2
 72
     2
 73
     0
 90
        0
 40
-0.6
 41
-30.0
 62
     5
 63
     7
 74
     1
 91
        4
 64
     7
 65
   257
 75
     7
175
     7
 42
1.0
 92
        8
 66
     7
 43
1.0
 76
     1
 77
     6
 78
     2
 67
     7
 79
     5
170
     0
171
     0
290
     0
174
     0
 93
        1
 44
0.0
173
     0
291
     1
 45
0.0
1001
ACAD
1000
AcDbSavedByObjectVersion
1070
     0
  0
VISUALSTYLE
  5
33
102
{ACAD_REACTORS
330
2A
102
}
330
2A
100
AcDbVisualStyle
  2
Realistic
 70
     8
 71
     2
 72
     2
 73
     0
 90
        0
 40
-0.6
 41
-30.0
 62
     5
 63
     7
 74
     1
 91
        0
 64
     7
 65
   257
 75
     1
175
     1
 42
1.0
 92
        8
 66
     8
 43
1.0
 76
     1
 77
     6
 78
     2
 67
     7
 79
     5
170
     0
171
     0
290
     0
174
     0
 93
       13
 44
0.0
173
     0
291
     0
 45
0.0
1001
ACAD
1000
AcDbSavedByObjectVersion
1070
     0
  0
VISUALSTYLE
  5
37
102
{ACAD_REACTORS
330
2A
102
}
330
2A
100
AcDbVisualStyle
  2
Thicken
 70
    13
 71
     2
 72
     2
 73
     0
 90
        0
 40
-0.6
 41
-30.0
 62
     5
 63
     7
 74
     1
 91
        4
 64
     7
 65
   257
 75
     1
175
     1
 42
1.0
 92
       12
 66
     7
 43
1.0
 76
     1
 77
     6
 78
     2
 67
     7
 79
     5
170
     0
171
     0
290
     0
174
     0
 93
        1
 44
0.0
173
     0
291
     1
 45
0.0
1001
ACAD
1000
AcDbSavedByObjectVersion
1070
     0
  0
DICTIONARYVAR
  5
2B9
102
{ACAD_REACTORS
330
2B4
102
}
330
2B4
100
DictionaryVariables
280
     0
  1
2
  0
DICTIONARYVAR
  5
2BA
102
{ACAD_REACTORS
330
2B4
102
}
330
2B4
100
DictionaryVariables
280
     0
  1
1
  0
DICTIONARYVAR
  5
2B8
102
{ACAD_REACTORS
330
2B4
102
}
330
2B4
100
DictionaryVariables
280
     0
  1
80.000000
  0
DICTIONARYVAR
  5
2B7
102
{ACAD_REACTORS
330
2B4
102
}
330
2B4
100
DictionaryVariables
280
     0
  1
5.000000
  0
ENDSEC
  0
EOF
